<svg id="Layer_1" data-name="Layer 1" xmlns="http://www.w3.org/2000/svg" width="4.72in" height="4.61in" viewBox="0 0 340.1 331.8">
  <defs>
    <style>
      .cls-1 {
        isolation: isolate;
      }

      .cls-2 {
        fill: #fff;
      }
    </style>
  </defs>
  <title>rule5</title>
  <rect width="340.1" height="331.8"/>
  <g class="cls-1">
    <path class="cls-2" d="M56.52,91.39c-2.19.19-2.4.32-2.4,2.53v10.77c0,2.24.21,2.37,2.37,2.53V108H49.35v-.75c2.27-.16,2.51-.29,2.51-2.53V99.36H42.77v5.33c0,2.21.21,2.37,2.4,2.53V108h-7v-.75c2.13-.16,2.35-.29,2.35-2.53V93.92c0-2.24-.21-2.35-2.4-2.53v-.75H45v.75c-2,.19-2.24.32-2.24,2.53v4.32h9.09V93.92c0-2.21-.21-2.35-2.29-2.53v-.75h7Z" transform="translate(0 -1.3)"/>
  </g>
  <g class="cls-1">
    <path class="cls-2" d="M78.1,101.95a5.93,5.93,0,0,1-5.78,6.34,5.77,5.77,0,0,1-5.84-5.89A6.08,6.08,0,0,1,72.31,96,5.78,5.78,0,0,1,78.1,101.95Zm-9.14-.4c0,3.36,1.47,5.87,3.65,5.87,1.65,0,3-1.23,3-4.88,0-3.12-1.25-5.65-3.57-5.65C70.4,96.88,69,98.54,69,101.55Z" transform="translate(0 -1.3)"/>
  </g>
  <g class="cls-1">
    <path class="cls-2" d="M97.39,108v-.69c1.57-.16,1.76-.37,1.76-2.21v-4.45c0-1.84-.64-3-2.43-3a4.77,4.77,0,0,0-2.91,1.36v6.26c0,1.81.16,1.92,1.73,2.08V108H89.76v-.69c1.81-.19,1.95-.32,1.95-2.08V99.68c0-1.71-.16-1.79-1.6-2.05V97a16,16,0,0,0,3.71-1.09v2.13c.53-.4,1.12-.8,1.79-1.25a4.08,4.08,0,0,1,2.21-.8c2.11,0,3.44,1.47,3.44,4.05v5.14c0,1.81.13,1.92,1.68,2.08V108Z" transform="translate(0 -1.3)"/>
  </g>
  <g class="cls-1">
    <path class="cls-2" d="M116.1,101.95a5.93,5.93,0,0,1-5.78,6.34,5.77,5.77,0,0,1-5.84-5.89,6.08,6.08,0,0,1,5.84-6.4A5.78,5.78,0,0,1,116.1,101.95Zm-9.14-.4c0,3.36,1.47,5.87,3.65,5.87,1.65,0,3-1.23,3-4.88,0-3.12-1.25-5.65-3.57-5.65C108.4,96.88,107,98.54,107,101.55Z" transform="translate(0 -1.3)"/>
  </g>
  <g class="cls-1">
    <path class="cls-2" d="M130.6,107.33a29.76,29.76,0,0,0-3.92,1l-.16-.16v-1.89c-.61.45-1.23.93-2,1.39a3.81,3.81,0,0,1-2.05.67c-1.79,0-3.31-1.09-3.31-4V99.1c0-1.47-.11-1.57-1.63-1.87v-.61a31.65,31.65,0,0,0,3.81-.48c-.08.83-.08,2.08-.08,3.89v3.57c0,2.37,1.15,3,2.35,3a4.15,4.15,0,0,0,2.88-1.28V99.12c0-1.52-.16-1.63-2.08-1.89v-.61a28.42,28.42,0,0,0,4.19-.48V105c0,1.33.21,1.52,1.23,1.57l.75.05Z" transform="translate(0 -1.3)"/>
    <path class="cls-2" d="M135.83,98.83c.8-1.33,1.95-2.83,3.23-2.83a1.48,1.48,0,0,1,1.55,1.33,1.5,1.5,0,0,1-.85,1.31.62.62,0,0,1-.72-.05A1.43,1.43,0,0,0,137.9,98c-.69,0-1.55.8-2.13,2.29v4.88c0,1.76.13,1.92,2.19,2.08V108h-6.13v-.69c1.65-.16,1.84-.32,1.84-2.08V99.68c0-1.76-.13-1.87-1.65-2.08V97a15.06,15.06,0,0,0,3.76-1.09v2.91Z" transform="translate(0 -1.3)"/>
  </g>
  <g class="cls-1">
    <path class="cls-2" d="M153,107.95a2.72,2.72,0,0,1-1.12.35c-1.68,0-2.61-1.07-2.61-3.17V97.36h-1.84l-.11-.27.72-.77h1.23V94.38L151,92.62l.37.05v3.65h3a.76.76,0,0,1-.16,1H151.4v6.85c0,2.16.88,2.56,1.55,2.56a3.81,3.81,0,0,0,1.65-.45l.24.69Z" transform="translate(0 -1.3)"/>
  </g>
  <g class="cls-1">
    <path class="cls-2" d="M163.24,108v-.69c1.55-.16,1.76-.32,1.76-2.05V100.8c0-2.19-.83-3.28-2.61-3.28a3.76,3.76,0,0,0-2.77,1.36v6.34c0,1.71.13,1.89,1.71,2.05V108h-5.65v-.69c1.6-.13,1.84-.29,1.84-2.05V92.51c0-1.68-.05-1.81-1.81-2v-.61a29.28,29.28,0,0,0,3.92-.93v9A5.83,5.83,0,0,1,163.43,96c2.16,0,3.68,1.36,3.68,4.56v4.67c0,1.76.19,1.92,1.76,2.05V108Z" transform="translate(0 -1.3)"/>
  </g>
  <g class="cls-1">
    <path class="cls-2" d="M181.53,97c-1.41.21-1.65.43-2.37,1.95s-1.49,3.63-3.33,8a57,57,0,0,0-2.75,7.22.79.79,0,0,1-.85.64,1.53,1.53,0,0,1-1.52-1.28c0-.43.24-.67.69-1a5.61,5.61,0,0,0,2-2.37,10.2,10.2,0,0,0,.83-1.84,1.69,1.69,0,0,0,0-1.2c-1.07-3-2.27-6.26-3.07-8.16-.56-1.47-.83-1.81-2.29-2v-.67h5.41V97c-1.23.21-1.36.48-1,1.47l2.43,6.69c.75-1.81,1.89-5,2.45-6.64.32-1,.13-1.31-1.39-1.52v-.67h4.83Z" transform="translate(0 -1.3)"/>
  </g>
  <g class="cls-1">
    <path class="cls-2" d="M197.11,108c-1.23-1.36-2.91-3.49-4.37-5.28-.35-.45-.59-.59-.83-.59a1.66,1.66,0,0,0-.43.08v3c0,1.76.24,1.92,1.95,2.08V108h-6v-.69c1.79-.16,1.95-.37,1.95-2.08V92.59c0-1.76-.13-1.89-1.76-2.05v-.61a19.78,19.78,0,0,0,3.84-.93v12.55a2.93,2.93,0,0,0,1.68-.93,20.72,20.72,0,0,0,1.89-2.35c.53-.83.45-1-.8-1.17V96.4l5.44-.24v.67a5.21,5.21,0,0,0-3.44,1.57c-.67.67-1.15,1.2-2.29,2.53.53.8,3.23,3.95,4.13,4.88a3.69,3.69,0,0,0,2.67,1.47V108Z" transform="translate(0 -1.3)"/>
  </g>
  <g class="cls-1">
    <path class="cls-2" d="M210.62,105.71a6.06,6.06,0,0,1-4.34,2.59c-3.28,0-5.2-2.67-5.2-5.68a6.87,6.87,0,0,1,1.76-4.67A5.42,5.42,0,0,1,206.75,96a4.13,4.13,0,0,1,4,4.05c0,.53-.13.75-.61.85s-3.79.35-7,.45c0,3.63,2.11,5.12,4,5.12a4.35,4.35,0,0,0,3-1.33Zm-7.3-5.44c1.49,0,3,0,4.5-.08.48,0,.64-.16.64-.53A2.45,2.45,0,0,0,206.12,97C204.89,97,203.72,98.11,203.32,100.27Z" transform="translate(0 -1.3)"/>
  </g>
  <g class="cls-1">
    <path class="cls-2" d="M216.27,98.83c.8-1.33,1.95-2.83,3.22-2.83A1.48,1.48,0,0,1,221,97.34a1.5,1.5,0,0,1-.85,1.31.62.62,0,0,1-.72-.05,1.43,1.43,0,0,0-1.12-.56c-.69,0-1.55.8-2.13,2.29v4.88c0,1.76.13,1.92,2.19,2.08V108h-6.13v-.69c1.65-.16,1.84-.32,1.84-2.08V99.68c0-1.76-.13-1.87-1.65-2.08V97a15.06,15.06,0,0,0,3.76-1.09v2.91Z" transform="translate(0 -1.3)"/>
  </g>
  <g class="cls-1">
    <path class="cls-2" d="M229.89,108v-.69c1.57-.16,1.76-.37,1.76-2.21v-4.45c0-1.84-.64-3-2.43-3a4.77,4.77,0,0,0-2.91,1.36v6.26c0,1.81.16,1.92,1.73,2.08V108h-5.79v-.69c1.81-.19,1.95-.32,1.95-2.08V99.68c0-1.71-.16-1.79-1.6-2.05V97a16,16,0,0,0,3.71-1.09v2.13c.53-.4,1.12-.8,1.79-1.25a4.08,4.08,0,0,1,2.21-.8c2.11,0,3.44,1.47,3.44,4.05v5.14c0,1.81.13,1.92,1.68,2.08V108Z" transform="translate(0 -1.3)"/>
  </g>
  <g class="cls-1">
    <path class="cls-2" d="M247,108v-.69c1.68-.16,1.87-.32,1.87-2.13V99.66c0-1.65-.08-1.76-1.68-2V97A16.86,16.86,0,0,0,251,96v9.2c0,1.81.19,2,1.89,2.13V108Zm1.41-15.65a1.37,1.37,0,0,1,1.36-1.39,1.33,1.33,0,0,1,1.33,1.39,1.36,1.36,0,0,1-1.36,1.36A1.4,1.4,0,0,1,248.46,92.33Z" transform="translate(0 -1.3)"/>
  </g>
  <g class="cls-1">
    <path class="cls-2" d="M261.69,108v-.69c1.57-.16,1.76-.37,1.76-2.21v-4.45c0-1.84-.64-3-2.43-3a4.77,4.77,0,0,0-2.91,1.36v6.26c0,1.81.16,1.92,1.73,2.08V108h-5.79v-.69c1.81-.19,1.95-.32,1.95-2.08V99.68c0-1.71-.16-1.79-1.6-2.05V97a16,16,0,0,0,3.71-1.09v2.13c.53-.4,1.12-.8,1.79-1.25a4.08,4.08,0,0,1,2.21-.8c2.11,0,3.44,1.47,3.44,4.05v5.14c0,1.81.13,1.92,1.68,2.08V108Z" transform="translate(0 -1.3)"/>
  </g>
  <g class="cls-1">
    <path class="cls-2" d="M280.17,96.51a4.19,4.19,0,0,1-1.2,1.36l-1.52-.08a3.58,3.58,0,0,1,.8,2.37c0,2.88-2.4,4.27-4.67,4.27a11.09,11.09,0,0,1-1.36-.13,1.68,1.68,0,0,0-.8,1.09c0,.53.48,1,1.68,1l2.8,0c1.65,0,3.84.53,3.84,3.15s-3.12,5.28-6.66,5.28c-3,0-4.58-1.73-4.61-3.25a2.08,2.08,0,0,1,.64-1.49,25.5,25.5,0,0,1,2.21-1.87,3.55,3.55,0,0,1-2-1.47,2,2,0,0,1-.29-1.12A5.75,5.75,0,0,0,271.4,104a3.85,3.85,0,0,1-2.35-3.57A4.56,4.56,0,0,1,273.82,96a5.3,5.3,0,0,1,2.56.67A31,31,0,0,0,280,96.3Zm-8.37,12.34a2.88,2.88,0,0,0-1.23,2.08c0,1.44,1.55,2.53,3.52,2.53,2.53,0,3.84-1.31,3.84-3a1.93,1.93,0,0,0-1.23-1.89,6.81,6.81,0,0,0-2.56-.35A3.19,3.19,0,0,0,271.8,108.85Zm-.45-8.85c0,2.08,1,3.57,2.51,3.57,1.17,0,2.21-1.07,2.21-3.17s-1-3.6-2.5-3.6C272.38,96.8,271.34,97.92,271.34,100Z" transform="translate(0 -1.3)"/>
  </g>
  <g class="cls-1">
    <path class="cls-2" d="M285.25,107.41c0,2.05-1.87,3.2-3.49,3.68l-.29-.77c1.28-.53,2.05-1.23,2.05-2.24a1.91,1.91,0,0,0-1.68-1.79c-.13,0-.32-.21-.32-.67a1.2,1.2,0,0,1,1.28-1.09A2.78,2.78,0,0,1,285.25,107.41Z" transform="translate(0 -1.3)"/>
  </g>
  <g class="cls-1">
    <path class="cls-2" d="M44.93,131.46c-.51-1.57-1.44-2.64-2.75-2.64a1.74,1.74,0,0,0-1.73,1.84c0,1.2,1.07,1.81,2.27,2.32,2,.83,3.36,1.79,3.36,3.63,0,2.43-2.27,3.68-4.4,3.68a5.35,5.35,0,0,1-3.07-.91,12.57,12.57,0,0,1-.43-3.15l.69-.13c.48,1.76,1.68,3.31,3.28,3.31A1.86,1.86,0,0,0,44,137.54c0-1.17-.77-1.81-2.11-2.43-1.6-.75-3.33-1.63-3.33-3.68,0-1.87,1.6-3.44,4.05-3.44a6.19,6.19,0,0,1,2.37.45,20,20,0,0,1,.59,2.85Z" transform="translate(0 -1.3)"/>
  </g>
  <g class="cls-1">
    <path class="cls-2" d="M59.7,133.94a5.93,5.93,0,0,1-5.78,6.34,5.77,5.77,0,0,1-5.84-5.89,6.08,6.08,0,0,1,5.84-6.4A5.78,5.78,0,0,1,59.7,133.94Zm-9.14-.4c0,3.36,1.47,5.87,3.65,5.87,1.65,0,3-1.23,3-4.88,0-3.12-1.25-5.65-3.57-5.65C52,128.87,50.56,130.53,50.56,133.54Z" transform="translate(0 -1.3)"/>
  </g>
  <g class="cls-1">
    <path class="cls-2" d="M72.82,139.94a2.72,2.72,0,0,1-1.12.35c-1.68,0-2.61-1.07-2.61-3.17v-7.76H67.25l-.11-.27.72-.77h1.23v-1.95l1.73-1.76.37.05v3.65h3a.76.76,0,0,1-.16,1H71.2v6.85c0,2.16.88,2.56,1.55,2.56a3.81,3.81,0,0,0,1.65-.45l.24.69Z" transform="translate(0 -1.3)"/>
  </g>
  <g class="cls-1">
    <path class="cls-2" d="M83,140v-.69c1.55-.16,1.76-.32,1.76-2.05v-4.42c0-2.19-.83-3.28-2.61-3.28a3.76,3.76,0,0,0-2.77,1.36v6.34c0,1.71.13,1.89,1.71,2.05V140H75.47v-.69c1.6-.13,1.84-.29,1.84-2.05V124.5c0-1.68-.05-1.81-1.81-2v-.61a29.28,29.28,0,0,0,3.92-.93v9A5.83,5.83,0,0,1,83.23,128c2.16,0,3.68,1.36,3.68,4.56v4.67c0,1.76.19,1.92,1.76,2.05V140Z" transform="translate(0 -1.3)"/>
  </g>
  <g class="cls-1">
    <path class="cls-2" d="M98.47,140.28a2.17,2.17,0,0,1-1.25-.51,2.77,2.77,0,0,1-.64-1.2c-1.07.72-2.35,1.71-3.15,1.71a3.22,3.22,0,0,1-3.2-3.25c0-1.31.69-2.13,2.16-2.64a19.12,19.12,0,0,0,4.13-1.73v-.48c0-1.92-.91-3-2.24-3a1.5,1.5,0,0,0-1.2.53,3.87,3.87,0,0,0-.8,1.76.74.74,0,0,1-.77.61,1.3,1.3,0,0,1-1.17-1.15c0-.4.35-.69.85-1.07a11.91,11.91,0,0,1,4-1.87,3.47,3.47,0,0,1,2.19.72,3.88,3.88,0,0,1,1.2,3.25v5c0,1.2.48,1.6.93,1.6a2,2,0,0,0,1-.29l.27.69Zm-1.95-6.72c-.56.29-1.84.85-2.4,1.12-1,.48-1.63,1-1.63,1.95a2,2,0,0,0,1.89,2.05,3.82,3.82,0,0,0,2.13-1Z" transform="translate(0 -1.3)"/>
  </g>
  <g class="cls-1">
    <path class="cls-2" d="M106.52,139.94a2.72,2.72,0,0,1-1.12.35c-1.68,0-2.61-1.07-2.61-3.17v-7.76H101l-.11-.27.72-.77h1.23v-1.95l1.73-1.76.37.05v3.65h3a.76.76,0,0,1-.16,1H104.9v6.85c0,2.16.88,2.56,1.55,2.56a3.81,3.81,0,0,0,1.65-.45l.24.69Z" transform="translate(0 -1.3)"/>
  </g>
  <g class="cls-1">
    <path class="cls-2" d="M133.14,129c-1.33.21-1.57.53-2.13,2-.8,2.11-2,5.65-3.2,9.28h-.75c-1.07-2.88-2.16-5.49-3.25-8.29-1,2.67-2.11,5.33-3.15,8.29h-.77c-1-3.17-2-6.32-3.07-9.52-.48-1.39-.72-1.57-2-1.76v-.67h5.52V129c-1.6.27-1.73.43-1.33,1.63.61,2.05,1.28,4.16,1.95,6.21H121c1-2.56,2-5.3,3.09-8.37h.69c1,2.77,2.08,5.6,3.2,8.45h.05c.59-1.84,1.33-4.16,1.81-6.13.35-1.39.19-1.55-1.55-1.79v-.67h4.82Z" transform="translate(0 -1.3)"/>
  </g>
  <g class="cls-1">
    <path class="cls-2" d="M141,140v-.69c1.55-.16,1.76-.32,1.76-2.05v-4.42c0-2.19-.83-3.28-2.61-3.28a3.76,3.76,0,0,0-2.77,1.36v6.34c0,1.71.13,1.89,1.71,2.05V140h-5.65v-.69c1.6-.13,1.84-.29,1.84-2.05V124.5c0-1.68-.05-1.81-1.81-2v-.61a29.28,29.28,0,0,0,3.92-.93v9a5.83,5.83,0,0,1,3.81-1.95c2.16,0,3.68,1.36,3.68,4.56v4.67c0,1.76.19,1.92,1.76,2.05V140Z" transform="translate(0 -1.3)"/>
  </g>
  <g class="cls-1">
    <path class="cls-2" d="M162.74,140v-.69c1.68-.16,1.87-.32,1.87-2.13v-5.49c0-1.65-.08-1.76-1.68-2V129a16.86,16.86,0,0,0,3.79-1v9.2c0,1.81.19,2,1.89,2.13V140Zm1.41-15.65a1.37,1.37,0,0,1,1.36-1.39,1.33,1.33,0,0,1,1.33,1.39,1.36,1.36,0,0,1-1.36,1.36A1.4,1.4,0,0,1,164.16,124.32Z" transform="translate(0 -1.3)"/>
  </g>
  <g class="cls-1">
    <path class="cls-2" d="M174.82,139.94a2.72,2.72,0,0,1-1.12.35c-1.68,0-2.61-1.07-2.61-3.17v-7.76h-1.84l-.11-.27.72-.77h1.23v-1.95l1.73-1.76.37.05v3.65h3a.76.76,0,0,1-.16,1H173.2v6.85c0,2.16.88,2.56,1.55,2.56a3.81,3.81,0,0,0,1.65-.45l.24.69Z" transform="translate(0 -1.3)"/>
  </g>
  <g class="cls-1">
    <path class="cls-2" d="M187.22,137.7a6.06,6.06,0,0,1-4.35,2.59c-3.28,0-5.2-2.67-5.2-5.68a6.87,6.87,0,0,1,1.76-4.67,5.41,5.41,0,0,1,3.92-1.95,4.13,4.13,0,0,1,4,4.05c0,.53-.13.75-.61.85s-3.79.35-7,.45c0,3.63,2.11,5.12,4,5.12a4.35,4.35,0,0,0,3-1.33Zm-7.3-5.44c1.49,0,3,0,4.5-.08.48,0,.64-.16.64-.53a2.44,2.44,0,0,0-2.35-2.67C181.49,129,180.32,130.1,179.92,132.26Z" transform="translate(0 -1.3)"/>
  </g>
  <g class="cls-1">
    <path class="cls-2" d="M201.93,131.46c-.51-1.57-1.44-2.64-2.75-2.64a1.74,1.74,0,0,0-1.73,1.84c0,1.2,1.07,1.81,2.27,2.32,2,.83,3.36,1.79,3.36,3.63,0,2.43-2.27,3.68-4.4,3.68a5.34,5.34,0,0,1-3.07-.91,12.57,12.57,0,0,1-.43-3.15l.69-.13c.48,1.76,1.68,3.31,3.28,3.31a1.86,1.86,0,0,0,1.89-1.87c0-1.17-.77-1.81-2.11-2.43-1.6-.75-3.33-1.63-3.33-3.68,0-1.87,1.6-3.44,4.05-3.44a6.19,6.19,0,0,1,2.37.45,20,20,0,0,1,.59,2.85Z" transform="translate(0 -1.3)"/>
  </g>
  <g class="cls-1">
    <path class="cls-2" d="M210.75,128.39a3,3,0,0,1,1.31-.4,4.75,4.75,0,0,1,4.72,5c0,4-3.17,6.61-6.64,7.25a4.55,4.55,0,0,1-1.84-.48v3.49c0,2,.19,2.16,2.27,2.35v.72h-6.32v-.72c1.71-.16,1.95-.32,1.95-2.08v-12c0-1.73-.11-1.79-1.76-2v-.64a20.22,20.22,0,0,0,3.87-1.15v2.11Zm-2.45,9.54a3.69,3.69,0,0,0,2.51,1c2.24,0,3.73-1.92,3.73-4.93,0-2.85-1.63-4.45-3.57-4.45a5.23,5.23,0,0,0-2.67,1.12Z" transform="translate(0 -1.3)"/>
  </g>
  <g class="cls-1">
    <path class="cls-2" d="M227.17,140.28a2.17,2.17,0,0,1-1.25-.51,2.77,2.77,0,0,1-.64-1.2c-1.07.72-2.35,1.71-3.15,1.71a3.22,3.22,0,0,1-3.2-3.25c0-1.31.69-2.13,2.16-2.64a19.13,19.13,0,0,0,4.13-1.73v-.48c0-1.92-.91-3-2.24-3a1.5,1.5,0,0,0-1.2.53,3.86,3.86,0,0,0-.8,1.76.74.74,0,0,1-.77.61,1.3,1.3,0,0,1-1.17-1.15c0-.4.35-.69.85-1.07a11.91,11.91,0,0,1,4-1.87,3.47,3.47,0,0,1,2.19.72,3.87,3.87,0,0,1,1.2,3.25v5c0,1.2.48,1.6.93,1.6a2,2,0,0,0,1-.29l.27.69Zm-1.95-6.72c-.56.29-1.84.85-2.4,1.12-1,.48-1.63,1-1.63,1.95a2,2,0,0,0,1.89,2.05,3.82,3.82,0,0,0,2.13-1Z" transform="translate(0 -1.3)"/>
    <path class="cls-2" d="M240.47,137.56a6.34,6.34,0,0,1-4.53,2.72,5.33,5.33,0,0,1-5.33-5.57,6.41,6.41,0,0,1,2.67-5.23,7.05,7.05,0,0,1,4-1.49,4,4,0,0,1,2.37.69,1,1,0,0,1,.43.83,1.3,1.3,0,0,1-.88,1.15c-.13,0-.27-.08-.51-.29a3.87,3.87,0,0,0-2.67-1.09c-1.76,0-3.31,1.47-3.31,4.26,0,3.71,2.53,4.93,4,4.93A4.33,4.33,0,0,0,240,137Z" transform="translate(0 -1.3)"/>
    <path class="cls-2" d="M251.4,137.7a6.06,6.06,0,0,1-4.35,2.59c-3.28,0-5.2-2.67-5.2-5.68a6.87,6.87,0,0,1,1.76-4.67,5.41,5.41,0,0,1,3.92-1.95,4.13,4.13,0,0,1,4,4.05c0,.53-.13.75-.61.85s-3.79.35-7,.45c0,3.63,2.11,5.12,4,5.12a4.35,4.35,0,0,0,3-1.33Zm-7.3-5.44c1.49,0,3,0,4.5-.08.48,0,.64-.16.64-.53A2.44,2.44,0,0,0,246.9,129C245.67,129,244.5,130.1,244.1,132.26Z" transform="translate(0 -1.3)"/>
  </g>
  <g class="cls-1">
    <path class="cls-2" d="M43.3,160.25A2.81,2.81,0,0,1,44.4,160a5.43,5.43,0,0,1,5.25,5.6A6.63,6.63,0,0,1,43,172.28a9.3,9.3,0,0,1-3.92-1V156.5c0-1.65-.05-1.81-1.76-2v-.61a21.71,21.71,0,0,0,3.87-.93v8.21Zm-2.16,8.61a2.12,2.12,0,0,0,.16.91,2.5,2.5,0,0,0,2.37,1.49c2.21,0,3.63-1.89,3.63-5s-1.87-4.8-4.08-4.8a4.44,4.44,0,0,0-2.08.51Z" transform="translate(0 -1.3)"/>
  </g>
  <g class="cls-1">
    <path class="cls-2" d="M61.42,169.69a6.06,6.06,0,0,1-4.35,2.59c-3.28,0-5.2-2.67-5.2-5.68a6.87,6.87,0,0,1,1.76-4.67A5.41,5.41,0,0,1,57.55,160a4.13,4.13,0,0,1,4,4.05c0,.53-.13.75-.61.85s-3.79.35-7,.45c0,3.63,2.11,5.12,4,5.12a4.35,4.35,0,0,0,3-1.33Zm-7.3-5.44c1.49,0,3,0,4.5-.08.48,0,.64-.16.64-.53A2.44,2.44,0,0,0,56.92,161C55.69,161,54.52,162.09,54.12,164.25Z" transform="translate(0 -1.3)"/>
  </g>
  <g class="cls-1">
    <path class="cls-2" d="M116.47,169.56a6.34,6.34,0,0,1-4.53,2.72,5.33,5.33,0,0,1-5.33-5.57,6.41,6.41,0,0,1,2.67-5.23,7.05,7.05,0,0,1,4-1.49,4,4,0,0,1,2.37.69,1,1,0,0,1,.43.83,1.3,1.3,0,0,1-.88,1.15c-.13,0-.27-.08-.51-.29a3.87,3.87,0,0,0-2.67-1.09c-1.76,0-3.31,1.47-3.31,4.26,0,3.71,2.53,4.93,4,4.93A4.33,4.33,0,0,0,116,169Z" transform="translate(0 -1.3)"/>
  </g>
  <g class="cls-1">
    <path class="cls-2" d="M129.5,165.93a5.93,5.93,0,0,1-5.78,6.34,5.77,5.77,0,0,1-5.84-5.89,6.08,6.08,0,0,1,5.84-6.4A5.78,5.78,0,0,1,129.5,165.93Zm-9.14-.4c0,3.36,1.47,5.87,3.65,5.87,1.65,0,3-1.23,3-4.88,0-3.12-1.25-5.65-3.57-5.65C121.8,160.87,120.36,162.52,120.36,165.53Z" transform="translate(0 -1.3)"/>
  </g>
  <g class="cls-1">
    <path class="cls-2" d="M145.73,172v-.69c1.57-.16,1.87-.27,1.87-2.16v-4.45c0-1.89-.67-3.09-2.35-3.09a4.91,4.91,0,0,0-3,1.39,6.23,6.23,0,0,1,.08,1.12v5.2c0,1.68.24,1.84,1.71,2V172h-5.7v-.69c1.65-.16,1.89-.29,1.89-2.05v-4.58c0-2-.69-3.07-2.32-3.07a5,5,0,0,0-2.91,1.39v6.26c0,1.73.21,1.89,1.52,2.05V172h-5.62v-.69c1.76-.16,2-.32,2-2.05v-5.52c0-1.71-.08-1.84-1.63-2.08V161a16.25,16.25,0,0,0,3.71-1.09v2.16c.56-.37,1.15-.85,1.95-1.36a4,4,0,0,1,2.19-.72,3.18,3.18,0,0,1,3,2.19,25.14,25.14,0,0,1,2.21-1.49,3.69,3.69,0,0,1,2-.69c2.08,0,3.39,1.47,3.39,4.08v5.14c0,1.79.21,1.89,1.73,2.05V172Z" transform="translate(0 -1.3)"/>
  </g>
  <g class="cls-1">
    <path class="cls-2" d="M162.42,169.69a6.06,6.06,0,0,1-4.35,2.59c-3.28,0-5.2-2.67-5.2-5.68a6.87,6.87,0,0,1,1.76-4.67,5.41,5.41,0,0,1,3.92-1.95,4.13,4.13,0,0,1,4,4.05c0,.53-.13.75-.61.85s-3.79.35-7,.45c0,3.63,2.11,5.12,4,5.12a4.35,4.35,0,0,0,3-1.33Zm-7.3-5.44c1.49,0,3,0,4.5-.08.48,0,.64-.16.64-.53a2.44,2.44,0,0,0-2.35-2.67C156.69,161,155.52,162.09,155.12,164.25Z" transform="translate(0 -1.3)"/>
    <path class="cls-2" d="M171.06,163.45c-.51-1.57-1.44-2.64-2.75-2.64a1.74,1.74,0,0,0-1.73,1.84c0,1.2,1.07,1.81,2.27,2.32,2,.83,3.36,1.79,3.36,3.63,0,2.43-2.27,3.68-4.4,3.68a5.35,5.35,0,0,1-3.07-.91,12.57,12.57,0,0,1-.43-3.15l.69-.13c.48,1.76,1.68,3.31,3.28,3.31a1.86,1.86,0,0,0,1.89-1.87c0-1.17-.77-1.81-2.11-2.43-1.6-.75-3.33-1.63-3.33-3.68,0-1.87,1.6-3.44,4.05-3.44a6.2,6.2,0,0,1,2.37.45,20.09,20.09,0,0,1,.59,2.85Z" transform="translate(0 -1.3)"/>
  </g>
  <g class="cls-1">
    <path class="cls-2" d="M191.81,161c-1.39.19-1.63.43-2.35,2-.88,2-2.29,5.28-3.76,9.25H185c-1.2-3.2-2.43-6.24-3.68-9.33-.61-1.55-.83-1.73-2.27-1.95v-.67h5.46V161c-1.44.19-1.49.4-1.07,1.55.69,1.87,1.76,4.67,2.53,6.58.93-2.21,1.79-4.64,2.37-6.37.4-1.28.24-1.57-1.28-1.76v-.67h4.74Z" transform="translate(0 -1.3)"/>
  </g>
  <g class="cls-1">
    <path class="cls-2" d="M192.34,172v-.69c1.68-.16,1.87-.32,1.87-2.13v-5.49c0-1.65-.08-1.76-1.68-2V161a16.86,16.86,0,0,0,3.79-1v9.2c0,1.81.19,2,1.89,2.13V172Zm1.41-15.65a1.37,1.37,0,0,1,1.36-1.39,1.33,1.33,0,0,1,1.33,1.39,1.37,1.37,0,0,1-1.36,1.36A1.4,1.4,0,0,1,193.76,156.31Z" transform="translate(0 -1.3)"/>
  </g>
  <g class="cls-1">
    <path class="cls-2" d="M206.43,163.45c-.51-1.57-1.44-2.64-2.75-2.64a1.74,1.74,0,0,0-1.73,1.84c0,1.2,1.07,1.81,2.27,2.32,2,.83,3.36,1.79,3.36,3.63,0,2.43-2.27,3.68-4.4,3.68a5.34,5.34,0,0,1-3.07-.91,12.57,12.57,0,0,1-.43-3.15l.69-.13c.48,1.76,1.68,3.31,3.28,3.31a1.86,1.86,0,0,0,1.89-1.87c0-1.17-.77-1.81-2.11-2.43-1.6-.75-3.33-1.63-3.33-3.68,0-1.87,1.6-3.44,4.05-3.44a6.19,6.19,0,0,1,2.37.45,20,20,0,0,1,.59,2.85Z" transform="translate(0 -1.3)"/>
  </g>
  <g class="cls-1">
    <path class="cls-2" d="M222.1,171.32a29.76,29.76,0,0,0-3.92,1l-.16-.16v-1.89c-.61.45-1.23.93-2,1.39a3.81,3.81,0,0,1-2.05.67c-1.79,0-3.31-1.09-3.31-4v-5.22c0-1.47-.11-1.57-1.63-1.87v-.61a31.66,31.66,0,0,0,3.81-.48c-.08.83-.08,2.08-.08,3.89v3.57c0,2.37,1.15,3,2.35,3a4.14,4.14,0,0,0,2.88-1.28v-6.21c0-1.52-.16-1.63-2.08-1.89v-.61a28.43,28.43,0,0,0,4.19-.48V169c0,1.33.21,1.52,1.23,1.57l.75.05Z" transform="translate(0 -1.3)"/>
  </g>
  <g class="cls-1">
    <path class="cls-2" d="M231.77,172.28a2.17,2.17,0,0,1-1.25-.51,2.76,2.76,0,0,1-.64-1.2c-1.07.72-2.35,1.71-3.15,1.71a3.22,3.22,0,0,1-3.2-3.25c0-1.31.69-2.13,2.16-2.64a19.11,19.11,0,0,0,4.13-1.73v-.48c0-1.92-.91-3-2.24-3a1.5,1.5,0,0,0-1.2.53,3.87,3.87,0,0,0-.8,1.76.74.74,0,0,1-.77.61,1.3,1.3,0,0,1-1.17-1.15c0-.4.35-.69.85-1.07a11.92,11.92,0,0,1,4-1.87,3.47,3.47,0,0,1,2.19.72,3.88,3.88,0,0,1,1.2,3.25v5c0,1.2.48,1.6.93,1.6a2,2,0,0,0,1-.29l.27.69Zm-1.95-6.72c-.56.29-1.84.85-2.4,1.12-1,.48-1.63,1-1.63,1.95a2,2,0,0,0,1.89,2.05,3.82,3.82,0,0,0,2.13-1Z" transform="translate(0 -1.3)"/>
    <path class="cls-2" d="M234.73,172v-.69c1.68-.16,1.92-.32,1.92-2.08V156.58c0-1.81-.16-1.89-1.84-2v-.64a20.59,20.59,0,0,0,3.95-.93v16.21c0,1.76.21,1.92,1.92,2.08V172Z" transform="translate(0 -1.3)"/>
  </g>
  <g class="cls-1">
    <path class="cls-2" d="M241.59,172v-.69c1.68-.16,1.92-.32,1.92-2.08V156.58c0-1.81-.16-1.89-1.84-2v-.64a20.59,20.59,0,0,0,3.95-.93v16.21c0,1.76.21,1.92,1.92,2.08V172Z" transform="translate(0 -1.3)"/>
  </g>
  <g class="cls-1">
    <path class="cls-2" d="M260.53,161c-1.41.21-1.65.43-2.37,1.95s-1.49,3.63-3.33,8a57,57,0,0,0-2.75,7.22.79.79,0,0,1-.85.64,1.53,1.53,0,0,1-1.52-1.28c0-.43.24-.67.69-1a5.61,5.61,0,0,0,2-2.37,10.2,10.2,0,0,0,.83-1.84,1.69,1.69,0,0,0,0-1.2c-1.07-3-2.27-6.26-3.07-8.16-.56-1.47-.83-1.81-2.29-2v-.67h5.41V161c-1.23.21-1.36.48-1,1.47l2.43,6.69c.75-1.81,1.89-5,2.45-6.64.32-1,.13-1.31-1.39-1.52v-.67h4.83Z" transform="translate(0 -1.3)"/>
  </g>
  <g class="cls-1">
    <path class="cls-2" d="M47.62,201.68a6.06,6.06,0,0,1-4.35,2.59c-3.28,0-5.2-2.67-5.2-5.68a6.87,6.87,0,0,1,1.76-4.67A5.41,5.41,0,0,1,43.75,192a4.13,4.13,0,0,1,4,4.05c0,.53-.13.75-.61.85s-3.79.35-7,.45c0,3.63,2.11,5.12,4,5.12a4.35,4.35,0,0,0,3-1.33Zm-7.3-5.44c1.49,0,3,0,4.5-.08.48,0,.64-.16.64-.53A2.44,2.44,0,0,0,43.12,193C41.89,193,40.72,194.08,40.32,196.24Z" transform="translate(0 -1.3)"/>
  </g>
  <g class="cls-1">
    <path class="cls-2" d="M55.92,210.4v-.72c2.08-.19,2.27-.32,2.27-2.21v-4.32l-2.83,1.12a5.51,5.51,0,0,1-5.73-5.6A7,7,0,0,1,56.75,192a6.69,6.69,0,0,1,1.87.35,2.08,2.08,0,0,0,.72.13,2.79,2.79,0,0,0,.91-.29l.11.08c0,.56-.08,1.07-.08,2.85v12.4c0,1.89.19,2,2.05,2.19v.72Zm2.27-16.23A3.82,3.82,0,0,0,55.58,193c-1.81,0-3.57,1.6-3.57,4.74s2.24,5,4.21,5a4.6,4.6,0,0,0,2-.43Z" transform="translate(0 -1.3)"/>
  </g>
  <g class="cls-1">
    <path class="cls-2" d="M75.7,203.31a29.76,29.76,0,0,0-3.92,1l-.16-.16v-1.89c-.61.45-1.23.93-2,1.39a3.81,3.81,0,0,1-2.05.67c-1.79,0-3.31-1.09-3.31-4v-5.22c0-1.47-.11-1.57-1.63-1.87v-.61a31.65,31.65,0,0,0,3.81-.48c-.08.83-.08,2.08-.08,3.89v3.57c0,2.37,1.15,3,2.35,3a4.15,4.15,0,0,0,2.88-1.28V195.1c0-1.52-.16-1.63-2.08-1.89v-.61a28.42,28.42,0,0,0,4.19-.48V201c0,1.33.21,1.52,1.23,1.57l.75.05Z" transform="translate(0 -1.3)"/>
  </g>
  <g class="cls-1">
    <path class="cls-2" d="M85.47,204.27a2.17,2.17,0,0,1-1.25-.51,2.77,2.77,0,0,1-.64-1.2c-1.07.72-2.35,1.71-3.15,1.71a3.22,3.22,0,0,1-3.2-3.25c0-1.31.69-2.13,2.16-2.64a19.12,19.12,0,0,0,4.13-1.73v-.48c0-1.92-.91-3-2.24-3a1.5,1.5,0,0,0-1.2.53,3.87,3.87,0,0,0-.8,1.76.74.74,0,0,1-.77.61,1.3,1.3,0,0,1-1.17-1.15c0-.4.35-.69.85-1.07a11.91,11.91,0,0,1,4-1.87,3.47,3.47,0,0,1,2.19.72,3.88,3.88,0,0,1,1.2,3.25v5c0,1.2.48,1.6.93,1.6a2,2,0,0,0,1-.29l.27.69Zm-1.95-6.72c-.56.29-1.84.85-2.4,1.12-1,.48-1.63,1-1.63,1.95a2,2,0,0,0,1.89,2.05,3.82,3.82,0,0,0,2.13-1Z" transform="translate(0 -1.3)"/>
  </g>
  <g class="cls-1">
    <path class="cls-2" d="M88.39,203.95v-.69c1.68-.16,1.92-.32,1.92-2.08V188.57c0-1.81-.16-1.89-1.84-2v-.64a20.58,20.58,0,0,0,3.95-.93v16.21c0,1.76.21,1.92,1.92,2.08v.69Z" transform="translate(0 -1.3)"/>
  </g>
  <g class="cls-1">
    <path class="cls-2" d="M107.84,203.95v-.69c1.68-.16,1.87-.32,1.87-2.13v-5.49c0-1.65-.08-1.76-1.68-2V193a16.86,16.86,0,0,0,3.79-1v9.2c0,1.81.19,2,1.89,2.13v.69Zm1.41-15.65a1.37,1.37,0,0,1,1.36-1.39,1.33,1.33,0,0,1,1.33,1.39,1.36,1.36,0,0,1-1.36,1.36A1.4,1.4,0,0,1,109.26,188.3Z" transform="translate(0 -1.3)"/>
    <path class="cls-2" d="M125.14,200.59c-.4,1-.83,2.29-1.23,3.36h-8.8l-.16-.4c2.29-3.39,4.45-6.8,6.64-10.37h-2.37c-1.92,0-2.27.43-3,1.92l-.37.72-.67-.24c.29-1,.69-2.72.91-3.87h.56c.16.43.48.59,1.47.59h6.13l.16.37c-2.19,3.41-4.32,6.82-6.5,10.4h2.64c2,0,2.56-.56,3.57-2.16l.35-.64Z" transform="translate(0 -1.3)"/>
  </g>
  <g class="cls-1">
    <path class="cls-2" d="M135.82,201.68a6.06,6.06,0,0,1-4.35,2.59c-3.28,0-5.2-2.67-5.2-5.68a6.87,6.87,0,0,1,1.76-4.67A5.41,5.41,0,0,1,132,192a4.13,4.13,0,0,1,4,4.05c0,.53-.13.75-.61.85s-3.79.35-7,.45c0,3.63,2.11,5.12,4,5.12a4.35,4.35,0,0,0,3-1.33Zm-7.3-5.44c1.49,0,3,0,4.5-.08.48,0,.64-.16.64-.53a2.44,2.44,0,0,0-2.35-2.67C130.09,193,128.92,194.08,128.52,196.24Z" transform="translate(0 -1.3)"/>
  </g>
  <g class="cls-1">
    <path class="cls-2" d="M150.57,203.25a27.49,27.49,0,0,0-4.13,1v-1.73l-1.63,1a4.68,4.68,0,0,1-2.08.77,5.34,5.34,0,0,1-4.93-5.68,6.82,6.82,0,0,1,6.88-6.61,6.17,6.17,0,0,1,1.76.29v-3.76c0-1.76-.13-1.84-2.05-2v-.64a24.88,24.88,0,0,0,4.16-.93v15.91c0,1.39.19,1.52,1.17,1.63l.85.08Zm-4.13-8.93A3.31,3.31,0,0,0,143.7,193c-1.23,0-3.47,1-3.47,4.9,0,3.17,1.95,4.72,3.65,4.72a4.5,4.5,0,0,0,2.56-.91Z" transform="translate(0 -1.3)"/>
  </g>
  <g class="cls-1">
    <path class="cls-2" d="M163.1,192.25a2.81,2.81,0,0,1,1.09-.27,5.43,5.43,0,0,1,5.25,5.6,6.63,6.63,0,0,1-6.69,6.69,9.3,9.3,0,0,1-3.92-1V188.49c0-1.65-.05-1.81-1.76-2v-.61a21.71,21.71,0,0,0,3.87-.93v8.21Zm-2.16,8.61a2.12,2.12,0,0,0,.16.91,2.5,2.5,0,0,0,2.37,1.49c2.21,0,3.63-1.89,3.63-5s-1.87-4.8-4.08-4.8a4.44,4.44,0,0,0-2.08.51Z" transform="translate(0 -1.3)"/>
  </g>
  <g class="cls-1">
    <path class="cls-2" d="M181.22,201.68a6.06,6.06,0,0,1-4.35,2.59c-3.28,0-5.2-2.67-5.2-5.68a6.87,6.87,0,0,1,1.76-4.67,5.41,5.41,0,0,1,3.92-1.95,4.13,4.13,0,0,1,4,4.05c0,.53-.13.75-.61.85s-3.79.35-7,.45c0,3.63,2.11,5.12,4,5.12a4.35,4.35,0,0,0,3-1.33Zm-7.3-5.44c1.49,0,3,0,4.5-.08.48,0,.64-.16.64-.53a2.44,2.44,0,0,0-2.35-2.67C175.49,193,174.32,194.08,173.92,196.24Z" transform="translate(0 -1.3)"/>
  </g>
  <g class="cls-1">
    <path class="cls-2" d="M188.12,203.92a2.72,2.72,0,0,1-1.12.35c-1.68,0-2.61-1.07-2.61-3.17v-7.76h-1.84l-.11-.27.72-.77h1.23v-1.95l1.73-1.76.37.05v3.65h3a.76.76,0,0,1-.16,1H186.5v6.85c0,2.16.88,2.56,1.55,2.56a3.82,3.82,0,0,0,1.65-.45l.24.69Z" transform="translate(0 -1.3)"/>
  </g>
  <g class="cls-1">
    <path class="cls-2" d="M208.74,193c-1.33.21-1.57.53-2.13,2-.8,2.11-2,5.65-3.2,9.28h-.75c-1.07-2.88-2.16-5.49-3.25-8.29-1,2.67-2.11,5.33-3.15,8.29h-.77c-1-3.17-2-6.32-3.07-9.52-.48-1.39-.72-1.57-2-1.76v-.67h5.52V193c-1.6.27-1.73.43-1.33,1.63.61,2.05,1.28,4.16,1.95,6.21h.05c1-2.56,2-5.3,3.09-8.37h.69c1,2.77,2.08,5.6,3.2,8.45h.05c.59-1.84,1.33-4.16,1.81-6.13.35-1.39.19-1.55-1.55-1.79v-.67h4.83Z" transform="translate(0 -1.3)"/>
  </g>
  <g class="cls-1">
    <path class="cls-2" d="M218.82,201.68a6.06,6.06,0,0,1-4.34,2.59c-3.28,0-5.2-2.67-5.2-5.68a6.87,6.87,0,0,1,1.76-4.67A5.42,5.42,0,0,1,215,192a4.13,4.13,0,0,1,4,4.05c0,.53-.13.75-.61.85s-3.79.35-7,.45c0,3.63,2.11,5.12,4,5.12a4.35,4.35,0,0,0,3-1.33Zm-7.3-5.44c1.49,0,3,0,4.5-.08.48,0,.64-.16.64-.53a2.45,2.45,0,0,0-2.35-2.67C213.09,193,211.92,194.08,211.52,196.24Z" transform="translate(0 -1.3)"/>
  </g>
  <g class="cls-1">
    <path class="cls-2" d="M230.22,201.68a6.06,6.06,0,0,1-4.35,2.59c-3.28,0-5.2-2.67-5.2-5.68a6.87,6.87,0,0,1,1.76-4.67,5.41,5.41,0,0,1,3.92-1.95,4.13,4.13,0,0,1,4,4.05c0,.53-.13.75-.61.85s-3.79.35-7,.45c0,3.63,2.11,5.12,4,5.12a4.35,4.35,0,0,0,3-1.33Zm-7.3-5.44c1.49,0,3,0,4.5-.08.48,0,.64-.16.64-.53a2.44,2.44,0,0,0-2.35-2.67C224.49,193,223.32,194.08,222.92,196.24Z" transform="translate(0 -1.3)"/>
    <path class="cls-2" d="M239.42,203.95v-.69c1.57-.16,1.76-.37,1.76-2.21v-4.45c0-1.84-.64-3-2.43-3a4.77,4.77,0,0,0-2.91,1.36v6.26c0,1.81.16,1.92,1.73,2.08v.69h-5.78v-.69c1.81-.19,1.95-.32,1.95-2.08v-5.52c0-1.71-.16-1.79-1.6-2.05V193a16,16,0,0,0,3.71-1.09V194c.53-.4,1.12-.8,1.79-1.25a4.08,4.08,0,0,1,2.21-.8c2.11,0,3.44,1.47,3.44,4.05v5.14c0,1.81.13,1.92,1.68,2.08v.69Z" transform="translate(0 -1.3)"/>
  </g>
  <g class="cls-1">
    <path class="cls-2" d="M48,233.54a6.34,6.34,0,0,1-4.53,2.72,5.33,5.33,0,0,1-5.33-5.57,6.41,6.41,0,0,1,2.67-5.23,7.05,7.05,0,0,1,4-1.49,4,4,0,0,1,2.37.69,1,1,0,0,1,.43.83,1.3,1.3,0,0,1-.88,1.15c-.13,0-.27-.08-.51-.29a3.87,3.87,0,0,0-2.67-1.09c-1.76,0-3.31,1.47-3.31,4.26,0,3.71,2.53,4.93,4,4.93A4.33,4.33,0,0,0,47.51,233Z" transform="translate(0 -1.3)"/>
  </g>
  <g class="cls-1">
    <path class="cls-2" d="M56.24,235.94v-.69c1.55-.16,1.76-.32,1.76-2.05v-4.42c0-2.19-.83-3.28-2.61-3.28a3.76,3.76,0,0,0-2.77,1.36v6.34c0,1.71.13,1.89,1.71,2.05v.69H48.67v-.69c1.6-.13,1.84-.29,1.84-2.05V220.48c0-1.68-.05-1.81-1.81-2v-.61a29.28,29.28,0,0,0,3.92-.93v9A5.83,5.83,0,0,1,56.43,224c2.16,0,3.68,1.36,3.68,4.56v4.67c0,1.76.19,1.92,1.76,2.05v.69Z" transform="translate(0 -1.3)"/>
  </g>
  <g class="cls-1">
    <path class="cls-2" d="M71.67,236.26a2.17,2.17,0,0,1-1.25-.51,2.77,2.77,0,0,1-.64-1.2c-1.07.72-2.35,1.71-3.15,1.71a3.22,3.22,0,0,1-3.2-3.25c0-1.31.69-2.13,2.16-2.64a19.12,19.12,0,0,0,4.13-1.73v-.48c0-1.92-.91-3-2.24-3a1.5,1.5,0,0,0-1.2.53,3.87,3.87,0,0,0-.8,1.76.74.74,0,0,1-.77.61,1.3,1.3,0,0,1-1.17-1.15c0-.4.35-.69.85-1.07a11.91,11.91,0,0,1,4-1.87,3.47,3.47,0,0,1,2.19.72,3.88,3.88,0,0,1,1.2,3.25v5c0,1.2.48,1.6.93,1.6a2,2,0,0,0,1-.29l.27.69Zm-1.95-6.72c-.56.29-1.84.85-2.4,1.12-1,.48-1.63,1-1.63,1.95a2,2,0,0,0,1.89,2.05,3.82,3.82,0,0,0,2.13-1Z" transform="translate(0 -1.3)"/>
  </g>
  <g class="cls-1">
    <path class="cls-2" d="M78.77,226.8c.8-1.33,1.95-2.83,3.23-2.83a1.48,1.48,0,0,1,1.55,1.33,1.5,1.5,0,0,1-.85,1.31.62.62,0,0,1-.72-.05,1.43,1.43,0,0,0-1.12-.56c-.69,0-1.55.8-2.13,2.29v4.88c0,1.76.13,1.92,2.19,2.08v.69H74.77v-.69c1.65-.16,1.84-.32,1.84-2.08v-5.52c0-1.76-.13-1.87-1.65-2.08V225a15.06,15.06,0,0,0,3.76-1.09v2.91Z" transform="translate(0 -1.3)"/>
  </g>
  <g class="cls-1">
    <path class="cls-2" d="M93.07,236.26a2.17,2.17,0,0,1-1.25-.51,2.77,2.77,0,0,1-.64-1.2c-1.07.72-2.35,1.71-3.15,1.71a3.22,3.22,0,0,1-3.2-3.25c0-1.31.69-2.13,2.16-2.64a19.12,19.12,0,0,0,4.13-1.73v-.48c0-1.92-.91-3-2.24-3a1.5,1.5,0,0,0-1.2.53,3.87,3.87,0,0,0-.8,1.76.74.74,0,0,1-.77.61,1.3,1.3,0,0,1-1.17-1.15c0-.4.35-.69.85-1.07a11.91,11.91,0,0,1,4-1.87,3.47,3.47,0,0,1,2.19.72,3.88,3.88,0,0,1,1.2,3.25v5c0,1.2.48,1.6.93,1.6a2,2,0,0,0,1-.29l.27.69Zm-1.95-6.72c-.56.29-1.84.85-2.4,1.12-1,.48-1.63,1-1.63,1.95A2,2,0,0,0,89,234.66a3.82,3.82,0,0,0,2.13-1Z" transform="translate(0 -1.3)"/>
  </g>
  <g class="cls-1">
    <path class="cls-2" d="M115.17,233.54a6.34,6.34,0,0,1-4.53,2.72,5.33,5.33,0,0,1-5.33-5.57,6.41,6.41,0,0,1,2.67-5.23,7.05,7.05,0,0,1,4-1.49,4,4,0,0,1,2.37.69,1,1,0,0,1,.43.83,1.3,1.3,0,0,1-.88,1.15c-.13,0-.27-.08-.51-.29a3.87,3.87,0,0,0-2.67-1.09c-1.76,0-3.31,1.47-3.31,4.26,0,3.71,2.53,4.93,4,4.93a4.33,4.33,0,0,0,3.25-1.47Z" transform="translate(0 -1.3)"/>
  </g>
  <g class="cls-1">
    <path class="cls-2" d="M121.82,235.91a2.72,2.72,0,0,1-1.12.35c-1.68,0-2.61-1.07-2.61-3.17v-7.76h-1.84l-.11-.27.72-.77h1.23v-1.95l1.73-1.76.37.05v3.65h3a.76.76,0,0,1-.16,1H120.2v6.85c0,2.16.88,2.56,1.55,2.56a3.81,3.81,0,0,0,1.65-.45l.24.69Z" transform="translate(0 -1.3)"/>
  </g>
  <g class="cls-1">
    <path class="cls-2" d="M134.22,233.67a6.06,6.06,0,0,1-4.35,2.59c-3.28,0-5.2-2.67-5.2-5.68a6.87,6.87,0,0,1,1.76-4.67,5.41,5.41,0,0,1,3.92-1.95,4.13,4.13,0,0,1,4,4.05c0,.53-.13.75-.61.85s-3.79.35-7,.45c0,3.63,2.11,5.12,4,5.12a4.35,4.35,0,0,0,3-1.33Zm-7.3-5.44c1.49,0,3,0,4.5-.08.48,0,.64-.16.64-.53a2.44,2.44,0,0,0-2.35-2.67C128.49,225,127.32,226.08,126.92,228.24Z" transform="translate(0 -1.3)"/>
  </g>
  <g class="cls-1">
    <path class="cls-2" d="M139.87,226.8c.8-1.33,1.95-2.83,3.23-2.83a1.48,1.48,0,0,1,1.55,1.33,1.5,1.5,0,0,1-.85,1.31.62.62,0,0,1-.72-.05,1.43,1.43,0,0,0-1.12-.56c-.69,0-1.55.8-2.13,2.29v4.88c0,1.76.13,1.92,2.19,2.08v.69h-6.13v-.69c1.65-.16,1.84-.32,1.84-2.08v-5.52c0-1.76-.13-1.87-1.65-2.08V225a15.06,15.06,0,0,0,3.76-1.09v2.91Z" transform="translate(0 -1.3)"/>
  </g>
  <g class="cls-1">
    <path class="cls-2" d="M152.63,227.44c-.51-1.57-1.44-2.64-2.75-2.64a1.74,1.74,0,0,0-1.73,1.84c0,1.2,1.07,1.81,2.27,2.32,2,.83,3.36,1.79,3.36,3.63,0,2.43-2.27,3.68-4.4,3.68a5.35,5.35,0,0,1-3.07-.91,12.57,12.57,0,0,1-.43-3.15l.69-.13c.48,1.76,1.68,3.31,3.28,3.31a1.86,1.86,0,0,0,1.89-1.87c0-1.17-.77-1.81-2.11-2.43-1.6-.75-3.33-1.63-3.33-3.68,0-1.87,1.6-3.44,4.05-3.44a6.19,6.19,0,0,1,2.37.45,20,20,0,0,1,.59,2.85Z" transform="translate(0 -1.3)"/>
    <path class="cls-2" d="M156.12,234.71a1.49,1.49,0,1,1,3,0,1.49,1.49,0,1,1-3,0Z" transform="translate(0 -1.3)"/>
  </g>
</svg>
