<svg id="Layer_1" data-name="Layer 1" xmlns="http://www.w3.org/2000/svg" xmlns:xlink="http://www.w3.org/1999/xlink" width="4.72in" height="4.59in" viewBox="0 0 340.1 330.48">
  <defs>
    <style>
      .cls-1 {
        fill: none;
      }

      .cls-2 {
        clip-path: url(#clip-path);
      }

      .cls-3, .cls-4 {
        fill: #d1232a;
      }

      .cls-4 {
        font-size: 26.55px;
        font-family: MinionPro-Regular, Minion Pro;
      }

      .cls-5 {
        letter-spacing: -0.01em;
      }
    </style>
    <clipPath id="clip-path" transform="translate(0 -1.61)">
      <rect class="cls-1" y="1.61" width="340.1" height="330.48"/>
    </clipPath>
  </defs>
  <title>rule8</title>
  <rect width="340.1" height="330.48"/>
  <g class="cls-2">
    <path class="cls-3" d="M77.67,140.87l.41-1.27c-2.83-1.24-3.09-1.6-2-4.91l2.75-8.48c1.88-5.8-.05-9.28-4.23-10.53-2.5-.76-5.56,0-7.91,1.31L72,100.63a27.23,27.23,0,0,1-4.21-.13l-.22.68c-.32,1-1,1.06-5.09-.25L42.22,94.34c-1.36-.44-1.9-.78-2.23-2.07l-.93-.3c-1,2.65-2.32,5.82-3.43,8.58L37,101A14.32,14.32,0,0,1,40,97.27c1.09-.88,2.11-1,6.45.37l3.07,1-7.72,23.77c-1.35,4.14-1.91,4.39-6.29,3.29L35.05,127l13.69,4.45.43-1.31c-4.34-1.73-4.6-2.25-3.26-6.39L53.63,100,57,101.1c4.34,1.41,6.85,2.28,9.45,3.39l-8,24.5c-1,3.21-1.5,3.44-4.66,2.74L53.46,133l10.42,3.39.41-1.27c-2.83-1.24-2.94-1.71-1.92-4.88L66.1,118.8a6.93,6.93,0,0,1,5.84-.9c3.33,1,4.17,3.56,2.88,7.56l-2.6,8c-1,3.21-1.5,3.45-4.46,2.8l-.41,1.27Z" transform="translate(0 -1.61)"/>
  </g>
  <text class="cls-4" transform="translate(79.55 146.82)"><tspan class="cls-5">o</tspan><tspan x="13.25" y="0">u </tspan></text>
  <g class="cls-2">
    <path class="cls-3" d="M294.63,147.87l-.1-.68c-1.55.06-1.69,0-1.95-1.82l-.71-5.07c-.36-2.55-1.88-3.81-4-3.52a4.08,4.08,0,0,0-2.07,1.1c-.59.54-1.12,1-1.59,1.48l-.3-2.1a16,16,0,0,1-3.5,1.59l.08.6c1.46.06,1.63.12,1.86,1.8l.76,5.44c.24,1.74.13,1.89-1.63,2.32l.1.68,5.71-.8-.1-.68c-1.57.06-1.75,0-2-1.81l-.87-6.18a4.75,4.75,0,0,1,2.68-1.74c1.76-.25,2.56.85,2.81,2.66l.62,4.39c.25,1.81.1,2.05-1.43,2.43l.1.68Zm-19.79,3.08a6.77,6.77,0,0,1,2.57,0,1.92,1.92,0,0,1,1.47,1.7c.23,1.63-.88,3.1-3.38,3.45-1.95.27-3.62-.59-3.82-2a2.87,2.87,0,0,1,.92-2.22,3.18,3.18,0,0,1,2.23-.9m-2.17-11.23c1.5-.21,2.68,1.13,3,3.2s-.59,3.25-1.74,3.44c-1.47.21-2.68-1.13-3-3.18s.58-3.3,1.74-3.46m6.29-1.39a30.92,30.92,0,0,1-3.52.87,5.29,5.29,0,0,0-2.62-.3,4.55,4.55,0,0,0-4.09,5,3.83,3.83,0,0,0,2.81,3.2,5.72,5.72,0,0,1-2.09,1.93,2,2,0,0,0,.44,1.06,3.54,3.54,0,0,0,2.15,1.17,25.57,25.57,0,0,0-1.92,2.15,2.07,2.07,0,0,0-.42,1.56c.24,1.5,2.08,3,5,2.57,3.5-.49,6.22-3.47,5.84-6.13s-2.59-2.8-4.22-2.57l-2.76.41c-1.18.17-1.73-.27-1.8-.79a1.67,1.67,0,0,1,.64-1.19,11,11,0,0,0,1.36-.06c2.24-.31,4.41-2,4-4.85a3.57,3.57,0,0,0-1.12-2.23l1.51-.13a4.19,4.19,0,0,0,1-1.51ZM268,151.61l-.1-.68c-1.7.08-1.91-.05-2.16-1.84L264.48,140a16.73,16.73,0,0,1-3.59,1.55l.09.63c1.61,0,1.71.14,1.94,1.77l.76,5.42c.25,1.79.09,2-1.55,2.36l.1.68ZM263,138a1.36,1.36,0,0,0,1.15-1.53,1.33,1.33,0,0,0-1.51-1.18,1.37,1.37,0,0,0-1.15,1.56A1.39,1.39,0,0,0,263,138m-2,14.65-.1-.68c-1.71.08-1.94,0-2.18-1.79l-2.25-16a20.39,20.39,0,0,1-3.76,1.47l.09.63c1.67-.1,1.84,0,2.09,1.74l1.75,12.44c.24,1.74,0,1.93-1.6,2.32l.1.68Zm-11-.7a3.8,3.8,0,0,1-2,1.24,1.94,1.94,0,0,1-2.15-1.76c-.13-.95.38-1.53,1.33-2.15.52-.34,1.7-1.07,2.21-1.44Zm4.32.6-.36-.65a2,2,0,0,1-.91.42c-.45.06-1-.26-1.14-1.45l-.69-4.89a3.86,3.86,0,0,0-1.63-3,3.47,3.47,0,0,0-2.26-.41,11.85,11.85,0,0,0-3.68,2.4c-.45.44-.75.78-.69,1.17a1.3,1.3,0,0,0,1.32,1,.74.74,0,0,0,.68-.71,3.85,3.85,0,0,1,.54-1.85,1.5,1.5,0,0,1,1.11-.69c1.31-.19,2.36.77,2.63,2.66l.07.47a19.06,19.06,0,0,1-3.84,2.28c-1.38.7-1.95,1.61-1.76,2.9a3.21,3.21,0,0,0,3.61,2.76c.79-.11,1.91-1.26,2.87-2.12a2.76,2.76,0,0,0,.8,1.09,2.16,2.16,0,0,0,1.31.33Zm-19.65-4.91a19.9,19.9,0,0,0-1-2.73,6.17,6.17,0,0,0-2.4-.12c-2.42.34-3.78,2.11-3.52,4,.28,2,2.12,2.65,3.8,3.17,1.4.42,2.25.94,2.41,2.1a1.85,1.85,0,0,1-1.61,2.1c-1.58.22-3-1.14-3.69-2.81l-.67.23a12.53,12.53,0,0,0,.86,3A5.33,5.33,0,0,0,232,157c2.1-.3,4.17-1.85,3.83-4.24-.25-1.81-1.73-2.57-3.82-3.11-1.25-.33-2.39-.79-2.56-2a1.73,1.73,0,0,1,1.45-2.05c1.29-.18,2.36.74,3.07,2.22Zm-8.33-1.83-4.76.67.09.66c1.53,0,1.75.26,1.58,1.31-.32,1.73-1,5-1.5,6.89L218.42,149c-.48-.92-.38-1.21.8-1.59l-.09-.66-5.34.75.09.66c1.48,0,1.79.31,2.54,1.68,1.05,1.76,2.68,4.77,4.16,7.62a1.69,1.69,0,0,1,.19,1.18,10.21,10.21,0,0,1-.56,1.93,5.58,5.58,0,0,1-1.62,2.61c-.41.35-.61.62-.55,1a1.53,1.53,0,0,0,1.68,1.05.79.79,0,0,0,.75-.75,56.84,56.84,0,0,1,1.71-7.51c1.2-4.59,1.71-6.89,2.17-8.38s.71-1.84,2.07-2.25Zm-15.1,11.59a3.8,3.8,0,0,1-2,1.24,1.94,1.94,0,0,1-2.15-1.76c-.13-.95.37-1.53,1.33-2.14.52-.34,1.7-1.07,2.21-1.44Zm4.32.6-.36-.65a2,2,0,0,1-.91.42c-.45.06-1-.26-1.14-1.45l-.69-4.89a3.86,3.86,0,0,0-1.63-3,3.46,3.46,0,0,0-2.26-.41,11.85,11.85,0,0,0-3.69,2.4c-.45.44-.75.78-.69,1.17a1.3,1.3,0,0,0,1.32,1,.74.74,0,0,0,.68-.71,3.86,3.86,0,0,1,.55-1.85,1.5,1.5,0,0,1,1.11-.69c1.31-.18,2.36.77,2.63,2.66l.07.47a19,19,0,0,1-3.84,2.28c-1.38.7-1.95,1.61-1.76,2.9a3.2,3.2,0,0,0,3.61,2.76c.79-.11,1.91-1.26,2.87-2.12a2.76,2.76,0,0,0,.8,1.09,2.17,2.17,0,0,0,1.31.33ZM203,149l-4.76.67.09.66c1.74,0,1.92.13,1.77,1.55-.2,2-.62,4.4-.94,6.3h-.05c-1.5-2.66-3-5.29-4.33-7.89l-.68.1c-.68,3.18-1.27,6-1.89,8.69h-.05c-.94-1.93-1.89-3.92-2.78-5.86-.56-1.13-.45-1.3,1.09-1.79l-.09-.66-5.44.76.09.66c1.29,0,1.55.16,2.22,1.46,1.52,3,3,6,4.34,9l.76-.11c.62-3.06,1.32-5.84,2-8.61,1.47,2.61,2.91,5,4.36,7.73l.74-.1c.71-3.75,1.37-7.41,1.87-9.59.35-1.52.54-1.87,1.83-2.27Zm-16.9,14.09-.1-.68c-1.7.08-1.94,0-2.18-1.78l-2.25-16a20.5,20.5,0,0,1-3.76,1.47l.09.63c1.68-.1,1.84,0,2.1,1.74L181.73,161c.24,1.74,0,1.93-1.61,2.32l.1.68Zm-11-.7a3.79,3.79,0,0,1-2,1.24,1.94,1.94,0,0,1-2.15-1.76c-.13-.95.37-1.53,1.33-2.14.52-.34,1.7-1.07,2.21-1.44Zm4.32.6-.36-.65a2,2,0,0,1-.91.42c-.45.06-1-.27-1.14-1.45l-.69-4.89a3.86,3.86,0,0,0-1.63-3,3.46,3.46,0,0,0-2.26-.41,11.87,11.87,0,0,0-3.69,2.4c-.45.44-.75.78-.69,1.17a1.3,1.3,0,0,0,1.32,1,.74.74,0,0,0,.68-.71,3.86,3.86,0,0,1,.55-1.85,1.5,1.5,0,0,1,1.11-.69c1.31-.19,2.36.77,2.63,2.66l.07.47a19,19,0,0,1-3.84,2.28c-1.38.7-1.95,1.61-1.76,2.9a3.2,3.2,0,0,0,3.61,2.76c.79-.11,1.91-1.26,2.87-2.12a2.76,2.76,0,0,0,.8,1.09,2.17,2.17,0,0,0,1.31.33Zm-17.53,2.54-.33-.65a3.78,3.78,0,0,1-1.57.68c-.66.09-1.58-.18-1.88-2.31l-.95-6.76,2.81-.4a.76.76,0,0,0,0-1l-3,.42-.51-3.6h-.38l-1.46,2,.27,1.92-1.21.17-.6.86.14.25,1.81-.25,1.08,7.65c.29,2.08,1.36,3,3,2.77a2.7,2.7,0,0,0,1.06-.5Zm-7.78,2.06-.1-.68c-1.7.08-1.94,0-2.18-1.79l-2.25-16a20.5,20.5,0,0,1-3.76,1.47l.09.63c1.68-.1,1.84,0,2.09,1.74l1.75,12.44c.24,1.74,0,1.93-1.6,2.32l.1.68Zm-11-.7a3.79,3.79,0,0,1-2,1.24,1.94,1.94,0,0,1-2.15-1.76c-.13-.95.38-1.53,1.33-2.14.52-.34,1.7-1.07,2.21-1.44Zm4.32.6-.36-.65a2,2,0,0,1-.91.42c-.45.06-1-.27-1.14-1.45l-.69-4.89a3.86,3.86,0,0,0-1.63-3,3.46,3.46,0,0,0-2.26-.41,11.87,11.87,0,0,0-3.69,2.4c-.45.44-.75.78-.69,1.17a1.3,1.3,0,0,0,1.32,1,.74.74,0,0,0,.68-.71,3.86,3.86,0,0,1,.54-1.85,1.5,1.5,0,0,1,1.11-.69c1.31-.19,2.36.77,2.63,2.66l.07.47a19,19,0,0,1-3.84,2.28c-1.38.7-1.95,1.61-1.76,2.9a3.21,3.21,0,0,0,3.61,2.76c.79-.11,1.91-1.26,2.87-2.12a2.76,2.76,0,0,0,.8,1.09,2.16,2.16,0,0,0,1.31.33Zm-11.72,2.69-.1-.68c-1.57.09-1.78,0-2-1.78l-.65-4.6c-.44-3.16-2.13-4.29-4.26-4a5.81,5.81,0,0,0-3.49,2.45l-1.24-8.83a29,29,0,0,1-3.74,1.46l.08.6c1.76-.09,1.83,0,2.06,1.69l1.76,12.54c.24,1.74,0,1.93-1.53,2.28l.1.68,5.57-.78-.1-.68c-1.57.06-1.73-.1-2-1.79l-.88-6.26a3.75,3.75,0,0,1,2.55-1.73c1.76-.25,2.73.72,3,2.87l.61,4.36c.24,1.71.05,1.9-1.45,2.27l.1.68Zm-15.82-6.49a19.9,19.9,0,0,0-1-2.73,6.17,6.17,0,0,0-2.4-.12c-2.42.34-3.78,2.11-3.52,4,.28,2,2.12,2.65,3.8,3.17,1.4.42,2.25.94,2.41,2.1a1.85,1.85,0,0,1-1.61,2.1c-1.58.22-3-1.14-3.69-2.81l-.67.23a12.53,12.53,0,0,0,.86,3,5.32,5.32,0,0,0,3.15.47c2.1-.3,4.17-1.85,3.83-4.24-.26-1.81-1.73-2.57-3.82-3.11-1.25-.33-2.39-.79-2.56-2a1.73,1.73,0,0,1,1.45-2.05c1.29-.18,2.36.74,3.07,2.22Z" transform="translate(0 -1.61)"/>
  </g>
  <text class="cls-4" transform="translate(294.63 146.82)"> </text>
  <g class="cls-2">
    <path class="cls-3" d="M214.13,196.26a20,20,0,0,0-.28-2.89,6.19,6.19,0,0,0-2.3-.7c-2.43-.26-4.18,1.14-4.37,3-.21,2,1.41,3.09,2.92,4,1.26.75,2,1.46,1.83,2.62a1.85,1.85,0,0,1-2.07,1.65c-1.58-.17-2.61-1.82-2.9-3.62l-.7.06a12.53,12.53,0,0,0,.09,3.16,5.33,5.33,0,0,0,2.94,1.22c2.11.22,4.49-.78,4.74-3.19.19-1.82-1.06-2.91-3-3.94-1.13-.63-2.13-1.35-2-2.53a1.73,1.73,0,0,1,1.91-1.64c1.29.14,2.11,1.29,2.45,2.9Zm-13.42,5a4.47,4.47,0,0,1-2.63.63c-1.69-.18-3.46-1.91-3.13-5.05.4-3.83,2.73-4.63,3.94-4.5a3.3,3.3,0,0,1,2.58,1.63Zm4,1.33-.84-.17c-1-.21-1.14-.36-1-1.73l1.66-15.77a24.75,24.75,0,0,1-4.22.49l-.07.63c1.89.33,2,.42,1.83,2.17l-.39,3.72a6.15,6.15,0,0,0-1.71-.47,6.8,6.8,0,0,0-7.5,5.83,5.32,5.32,0,0,0,4.29,6.14,4.66,4.66,0,0,0,2.14-.55l1.71-.78-.18,1.72a27.57,27.57,0,0,1,4.2-.57Zm-17.52-9.64.3-2.88a15,15,0,0,1-3.84.69l-.06.58c1.48.37,1.6.49,1.42,2.23l-.58,5.47c-.18,1.74-.38,1.88-2,1.87l-.07.69,6.07.64.07-.69c-2-.37-2.13-.54-1.95-2.29l.51-4.83c.74-1.42,1.66-2.12,2.35-2a1.43,1.43,0,0,1,1.05.67.62.62,0,0,0,.71.13,1.49,1.49,0,0,0,1-1.21,1.48,1.48,0,0,0-1.39-1.48c-1.27-.13-2.56,1.23-3.49,2.46ZM176,189.82c2.3.24,3.27,2.88,2.95,6-.38,3.62-1.85,4.69-3.49,4.52-2.17-.23-3.36-2.86-3-6.19.31-3,1.91-4.47,3.55-4.3m.36-.84a6.05,6.05,0,0,0-6.45,5.73,5.75,5.75,0,0,0,5.17,6.44,5.91,5.91,0,0,0,6.39-5.68,5.76,5.76,0,0,0-5.11-6.49m-6.29-.34-4.78-.5-.07.66c1.69.42,1.83.59,1.35,1.93-.68,1.9-1.66,4.12-2.43,5.89H164c-.81-2.94-1.6-5.86-2.29-8.7l-.69-.07c-1.43,2.92-2.69,5.54-3.94,8h-.05c-.45-2.1-.89-4.26-1.28-6.36-.27-1.23-.12-1.37,1.49-1.47l.07-.66-5.47-.57-.07.66c1.25.32,1.47.53,1.8,2,.75,3.28,1.43,6.5,2,9.75l.77.08c1.34-2.82,2.7-5.35,4-7.89.79,2.89,1.6,5.59,2.36,8.55l.74.08c1.59-3.46,3.12-6.85,4.13-8.86.71-1.39,1-1.69,2.32-1.76Zm-29.74,6.27a4.48,4.48,0,0,1-2.63.63c-1.69-.18-3.46-1.91-3.13-5.06.4-3.83,2.73-4.63,3.94-4.5a3.3,3.3,0,0,1,2.58,1.63Zm4,1.33-.84-.17c-1-.21-1.14-.36-1-1.73l1.66-15.77a24.7,24.7,0,0,1-4.22.49l-.07.63c1.89.33,2,.42,1.83,2.17l-.39,3.72a6.12,6.12,0,0,0-1.71-.47,6.8,6.8,0,0,0-7.5,5.83,5.32,5.32,0,0,0,4.29,6.14,4.66,4.66,0,0,0,2.14-.55l1.71-.78-.18,1.72a27.5,27.5,0,0,1,4.2-.57ZM130,196.09l.07-.69c-1.52-.32-1.64-.44-1.45-2.24l.54-5.1c.27-2.56-.9-4.15-3-4.37a4.07,4.07,0,0,0-2.28.56c-.71.38-1.33.71-1.9,1.06l.22-2.11a16,16,0,0,1-3.79.7l-.06.61c1.4.41,1.55.51,1.37,2.2l-.57,5.47c-.18,1.74-.33,1.86-2.14,1.86l-.07.69,5.73.6.07-.69c-1.54-.32-1.69-.44-1.5-2.24l.65-6.21a4.75,4.75,0,0,1,3-1c1.77.19,2.28,1.44,2.09,3.26l-.46,4.41c-.19,1.82-.4,2-2,2l-.07.69ZM112.29,192a3.8,3.8,0,0,1-2.21.73,1.94,1.94,0,0,1-1.66-2.23c.1-1,.73-1.39,1.81-1.76.58-.21,1.91-.63,2.49-.86Zm4,1.63-.19-.71a2,2,0,0,1-1,.19c-.45,0-.88-.49-.76-1.68l.52-4.91a3.86,3.86,0,0,0-.85-3.35,3.46,3.46,0,0,0-2.09-.94,11.86,11.86,0,0,0-4.16,1.43c-.54.32-.91.57-1,1a1.3,1.3,0,0,0,1,1.26.74.74,0,0,0,.83-.53,3.86,3.86,0,0,1,1-1.66,1.5,1.5,0,0,1,1.24-.4c1.32.14,2.1,1.32,1.9,3.22l0,.48a19.06,19.06,0,0,1-4.27,1.29c-1.51.35-2.28,1.1-2.41,2.39A3.2,3.2,0,0,0,109,194.2c.79.08,2.16-.76,3.29-1.36a2.77,2.77,0,0,0,.51,1.26,2.17,2.17,0,0,0,1.19.63ZM98.46,184.1a20,20,0,0,0-.28-2.89,6.19,6.19,0,0,0-2.3-.7c-2.43-.26-4.18,1.14-4.37,3-.21,2,1.41,3.09,2.92,4,1.26.75,2,1.46,1.83,2.62a1.85,1.85,0,0,1-2.07,1.65c-1.58-.17-2.61-1.82-2.9-3.62l-.7.06a12.53,12.53,0,0,0,.09,3.16,5.33,5.33,0,0,0,2.94,1.22c2.11.22,4.49-.78,4.74-3.19.19-1.82-1.06-2.91-2.95-3.94-1.14-.63-2.13-1.35-2-2.53a1.73,1.73,0,0,1,1.91-1.64c1.29.14,2.11,1.29,2.45,2.9ZM85.2,182.23l.3-2.88a15,15,0,0,1-3.84.69l-.06.58c1.48.37,1.6.49,1.42,2.23l-.57,5.47c-.18,1.74-.38,1.88-2,1.87l-.07.69,6.07.64.07-.69c-2-.37-2.13-.54-1.95-2.29l.51-4.83c.74-1.42,1.66-2.12,2.35-2a1.43,1.43,0,0,1,1.05.67.62.62,0,0,0,.71.13,1.49,1.49,0,0,0,1-1.21,1.48,1.48,0,0,0-1.39-1.48c-1.27-.13-2.56,1.23-3.49,2.46Zm-9.84-2.88a2.44,2.44,0,0,1,2,2.88c0,.37-.21.51-.69.46-1.54-.11-3-.23-4.47-.39.62-2.1,1.9-3.08,3.11-3m3.19,8.51a4.34,4.34,0,0,1-3.15,1c-1.85-.19-3.75-1.89-3.4-5.48,3.15.22,6.48.31,6.94.28s.64-.25.7-.78a4.11,4.11,0,0,0-3.54-4.43A5.39,5.39,0,0,0,72,180a6.84,6.84,0,0,0-2.23,4.44c-.31,3,1.31,5.82,4.56,6.17a6,6,0,0,0,4.57-2.11Zm-10.23.79-.17-.71a3.8,3.8,0,0,1-1.69.28c-.66-.07-1.49-.56-1.26-2.7l.71-6.79,2.83.3a.76.76,0,0,0,.27-1l-3-.31.38-3.62L66,174l-1.9,1.56-.2,1.93-1.21-.13-.79.69.08.28,1.82.19L63,186.2c-.22,2.09.59,3.24,2.26,3.41a2.69,2.69,0,0,0,1.15-.23Zm-7.79-.82-.17-.71a3.81,3.81,0,0,1-1.68.28c-.66-.07-1.49-.56-1.27-2.7l.71-6.79,2.83.3a.76.76,0,0,0,.27-1l-3-.31.38-3.62-.36-.09-1.9,1.56-.2,1.93-1.21-.13-.79.69.08.28,1.82.19-.81,7.68c-.22,2.09.59,3.24,2.26,3.41a2.69,2.69,0,0,0,1.14-.23ZM48.45,176.52a2.44,2.44,0,0,1,2,2.88c0,.37-.21.51-.69.46-1.54-.11-3-.23-4.47-.39.62-2.1,1.9-3.08,3.11-3M51.64,185a4.34,4.34,0,0,1-3.15,1c-1.85-.19-3.75-1.89-3.4-5.48,3.15.22,6.48.31,6.94.28s.64-.25.7-.78a4.11,4.11,0,0,0-3.54-4.43,5.39,5.39,0,0,0-4.08,1.52,6.84,6.84,0,0,0-2.23,4.44c-.31,3,1.31,5.82,4.56,6.17A6,6,0,0,0,52,185.63Zm-10.7,1.71L41,186c-1.67-.34-1.87-.52-1.69-2.26L41,167.73a20.48,20.48,0,0,1-4,.51l-.07.63c1.65.31,1.8.4,1.61,2.2l-1.31,12.49c-.18,1.74-.44,1.88-2.12,1.86l-.07.69Z" transform="translate(0 -1.61)"/>
  </g>
  <text class="cls-4" transform="translate(214.13 178.68)"> </text>
  <g class="cls-2">
    <path class="cls-3" d="M174.16,219.54a1.45,1.45,0,0,0,1.32-1.69,1.49,1.49,0,1,0-3,.31,1.45,1.45,0,0,0,1.64,1.38m-9.28-10.35a2.44,2.44,0,0,1,2.6,2.4c0,.37-.1.54-.58.59-1.53.21-3,.39-4.45.55.17-2.18,1.22-3.41,2.43-3.54m4.89,7.66a4.34,4.34,0,0,1-2.87,1.64c-1.85.19-4.06-1.07-4.47-4.66,3.13-.44,6.4-1,6.85-1.17s.57-.38.52-.91a4.11,4.11,0,0,0-4.38-3.6,5.39,5.39,0,0,0-3.68,2.34,6.84,6.84,0,0,0-1.26,4.8c.31,3,2.49,5.43,5.74,5.08a6,6,0,0,0,4-3Zm-10.24,3.91-.07-.69c-1.55,0-1.69-.09-1.88-1.89l-.54-5.1c-.27-2.56-1.74-3.88-3.83-3.66a4.07,4.07,0,0,0-2.11,1c-.61.52-1.15,1-1.64,1.43l-.22-2.11a16,16,0,0,1-3.56,1.47l.06.61c1.45.11,1.62.18,1.8,1.87l.57,5.47c.18,1.74.07,1.89-1.71,2.26l.07.69,5.73-.6-.07-.69c-1.58,0-1.74-.08-1.93-1.88l-.65-6.21a4.76,4.76,0,0,1,2.74-1.65c1.77-.19,2.53.94,2.72,2.76l.46,4.41c.19,1.82,0,2.05-1.51,2.38l.07.69Zm-14.23,1.5-.07-.69c-1.71,0-1.91-.12-2.1-1.92l-1-9.11a16.73,16.73,0,0,1-3.64,1.42l.07.63c1.61.1,1.7.19,1.87,1.83l.57,5.44c.19,1.8,0,2-1.63,2.31l.07.69Zm-4.58-13.83a1.36,1.36,0,0,0,1.2-1.49,1.33,1.33,0,0,0-1.46-1.23,1.37,1.37,0,0,0-1.2,1.51,1.39,1.39,0,0,0,1.46,1.21M138.24,223l-.07-.69c-1.71,0-1.93-.12-2.12-1.86l-1.69-16.06a20.45,20.45,0,0,1-3.81,1.33l.07.63c1.68,0,1.84,0,2,1.82L134,220.67c.18,1.74,0,1.93-1.69,2.26l.07.69Zm-12.58-9.68a2.44,2.44,0,0,1,2.6,2.4c0,.37-.1.54-.58.59-1.53.21-3,.39-4.45.55.17-2.18,1.22-3.41,2.43-3.54m4.89,7.66a4.34,4.34,0,0,1-2.87,1.64c-1.85.19-4.06-1.07-4.47-4.66,3.13-.44,6.4-1,6.85-1.17s.57-.38.52-.91a4.11,4.11,0,0,0-4.38-3.6,5.39,5.39,0,0,0-3.68,2.34,6.84,6.84,0,0,0-1.26,4.8c.31,3,2.49,5.43,5.74,5.08a6,6,0,0,0,4-3Zm-12.07-4.58a19.92,19.92,0,0,0-.88-2.76,6.17,6.17,0,0,0-2.4-.2c-2.43.26-3.85,2-3.66,3.83.21,2,2,2.72,3.68,3.3,1.38.47,2.22,1,2.34,2.18a1.85,1.85,0,0,1-1.68,2c-1.58.17-2.93-1.24-3.59-2.93l-.67.2a12.52,12.52,0,0,0,.75,3.07,5.32,5.32,0,0,0,3.13.58c2.11-.22,4.23-1.7,4-4.1-.19-1.82-1.64-2.63-3.7-3.24-1.24-.38-2.36-.87-2.49-2.06a1.73,1.73,0,0,1,1.52-2c1.29-.14,2.33.82,3,2.33Zm-12,7.7a3.79,3.79,0,0,1-2,1.17,1.94,1.94,0,0,1-2.09-1.84c-.1-1,.43-1.51,1.41-2.1.53-.32,1.74-1,2.26-1.36Zm4.3.75-.34-.66a2,2,0,0,1-.92.39c-.45,0-1-.3-1.09-1.49l-.52-4.91a3.86,3.86,0,0,0-1.53-3.1,3.46,3.46,0,0,0-2.24-.48,11.85,11.85,0,0,0-3.77,2.26c-.46.42-.78.75-.73,1.14a1.3,1.3,0,0,0,1.28,1,.74.74,0,0,0,.7-.69,3.85,3.85,0,0,1,.61-1.83,1.5,1.5,0,0,1,1.13-.65c1.32-.14,2.33.85,2.53,2.75l.05.47a19,19,0,0,1-3.91,2.15c-1.4.65-2,1.54-1.86,2.84a3.21,3.21,0,0,0,3.51,2.89c.79-.08,2-1.19,2.94-2a2.76,2.76,0,0,0,.76,1.12,2.16,2.16,0,0,0,1.29.37Zm-21.9-6.64a4.42,4.42,0,0,1,2-.72c2.19-.23,4.22,1.32,4.54,4.33s-.88,5.09-3.07,5.32a2.5,2.5,0,0,1-2.51-1.23,2.12,2.12,0,0,1-.25-.88Zm-.08-.79-.86-8.13a21.53,21.53,0,0,1-3.73,1.33l.06.61c1.71,0,1.78.13,1.95,1.77l1.54,14.68a9.27,9.27,0,0,0,4,.54,6.6,6.6,0,0,0,5.93-7.32,5.41,5.41,0,0,0-5.79-5,2.8,2.8,0,0,0-1.06.38Zm-13.45,10a3.8,3.8,0,0,1-2,1.17,1.94,1.94,0,0,1-2.09-1.84c-.1-1,.43-1.51,1.41-2.1.53-.32,1.74-1,2.26-1.36Zm4.3.75-.34-.66a2,2,0,0,1-.92.39c-.45,0-1-.3-1.09-1.49l-.52-4.91a3.86,3.86,0,0,0-1.53-3.1,3.46,3.46,0,0,0-2.24-.49,11.87,11.87,0,0,0-3.77,2.26c-.46.42-.78.75-.73,1.15a1.3,1.3,0,0,0,1.28,1,.74.74,0,0,0,.7-.69,3.85,3.85,0,0,1,.61-1.83,1.5,1.5,0,0,1,1.13-.65c1.32-.14,2.33.85,2.53,2.75l.05.47a19,19,0,0,1-3.91,2.15c-1.4.65-2,1.55-1.86,2.84a3.2,3.2,0,0,0,3.51,2.89c.79-.08,2-1.19,2.94-2a2.76,2.76,0,0,0,.76,1.12,2.17,2.17,0,0,0,1.29.37Zm-18,2.93-.07-.69c-1.55,0-1.69-.09-1.88-1.88l-.54-5.1c-.27-2.56-1.74-3.88-3.83-3.66a4.07,4.07,0,0,0-2.11,1c-.61.52-1.15,1-1.64,1.43l-.22-2.11a16,16,0,0,1-3.56,1.47l.06.61c1.45.11,1.62.18,1.8,1.87l.57,5.47c.18,1.74.07,1.89-1.71,2.26l.07.69,5.73-.6-.07-.69c-1.58,0-1.74-.08-1.93-1.88L51.69,223a4.76,4.76,0,0,1,2.74-1.65c1.77-.19,2.53.94,2.72,2.76l.46,4.41c.19,1.82,0,2.05-1.51,2.37l.07.69ZM40,222.21c2.3-.24,3.8,2.14,4.13,5.23.38,3.62-.84,5-2.48,5.15-2.17.23-3.88-2.1-4.23-5.43-.31-3,.94-4.77,2.58-4.94m.17-.9a6.05,6.05,0,0,0-5.12,6.95,5.75,5.75,0,0,0,6.4,5.23,5.91,5.91,0,0,0,5.07-6.89,5.76,5.76,0,0,0-6.35-5.29" transform="translate(0 -1.61)"/>
  </g>
</svg>
