<?xml version="1.0" encoding="utf-8"?>
<!-- Generator: Adobe Illustrator 20.0.0, svg Export Plug-In . svg Version: 6.00 Build 0)  -->
<svg version="1.1" id="Layer_1" xmlns="http://www.w3.org/2000/svg" xmlns:xlink="http://www.w3.org/1999/xlink" x="0px" y="0px"
	 viewBox="0 0 340.1 333.7" style="enable-background:new 0 0 340.1 333.7;" xml:space="preserve">
<style type="text/css">
	.st0{fill:#FFFFFF;}
	.st1{font-family:'MinionPro-Regular';}
	.st2{font-size:27.0343px;}
	.st3{font-family:'Avenir-Book';}
	.st4{font-family:'Zapfino';}
	.st5{font-size:21.6274px;}
	.st6{font-family:'BodoniSvtyTwoITCTT-Book';}
	.st7{font-family:'Futura-CondensedMedium';}
	.st8{font-family:'Helvetica';}
	.st9{font-family:'Impact';}
	.st10{font-family:'AmericanTypewriter';}
	.st11{font-family:'ArialNarrow';}
	.st12{font-family:'DINCondensed-Bold';}
</style>
<rect x="-1.4" y="1" width="342.9" height="336.5"/>
<path class="st0" d="M66.6,145.9c-2.2,2.4-4.7,3.5-5.7,3.5s-1.5-0.8-0.8-4l1.7-7.5c0.3-1.2,0.2-1.7-0.2-1.7c-1.2,0-3.9,3.2-5.1,5.5
	c-0.4,1.8-1,4.8-1.4,6.9c-1.3,0.1-2.7,0.4-3.9,0.8l-0.2-0.3c1.5-6.8,2.9-13.7,4.2-20.8c-1.5-0.1-3.2-0.2-5.5-0.2h-1.5l-3.3,16.3
	c-0.6,2.9-0.4,3.2,2.4,3.5L47,149H36.9l0.2-1.1c2.5-0.2,2.8-0.7,3.4-3.5l3.5-16.3h-2.2c-2.1,0-2.9,0.4-3.4,1
	c-0.6,0.6-1.1,1.5-1.8,3.1h-1.2c0.7-2.3,1.3-4.7,1.7-6.4h0.8c0.3,0.8,0.7,0.9,1.5,0.9h13.4c2.1,0,2.6-0.2,2.7-0.7l0.1-0.4
	c1.3-0.5,3.1-0.9,3.6-0.9c0.4,0,0.5,0.3,0.3,1c-0.9,4.4-1.8,8.8-2.7,13.2h0.1c1.8-2.4,3.8-4.1,5-4.9c0.9-0.6,1.8-0.9,2.6-0.9
	c0.9,0,2,0.6,1.3,4.1l-1.6,7.4c-0.2,1.1-0.1,1.3,0,1.5c0.2,0,1.1-0.6,1.9-1.3L66.6,145.9z M68.6,143.9c0-4.5,2.3-7.8,4.8-9.2
	c1.4-0.9,3.1-1.4,4.5-1.4c3.1,0,4.7,2.2,4.7,5.5c0,3.1-1.3,6.5-3.7,8.6c-1.4,1.2-3.5,2.2-5.6,2.2C69.6,149.4,68.6,146.5,68.6,143.9z
	 M75.5,147.7c1.3-0.5,2.9-4.1,2.8-9.3c0-2.5-0.7-3.6-1.8-3.6c-0.2,0-0.4,0.1-0.7,0.2c-1,0.5-2.9,3.6-2.9,9.4c0,2.4,0.9,3.6,1.8,3.6
	C75,147.9,75.2,147.8,75.5,147.7z M100.3,145.7c-2.1,2.5-4.3,3.8-5.6,3.8c-1,0-1.4-1.1-0.9-3.2c0.1-0.7,0.3-1.4,0.5-2.1h-0.1
	c-1.7,2.4-3.9,4.1-4.8,4.6c-0.8,0.5-1.6,0.7-2.3,0.7c-1,0-2.2-0.6-1.3-4.8c0.5-2.2,1-4.4,1.6-7c0.2-0.9,0.2-1.2-0.1-1.2
	c-0.3,0-1.3,0.7-2,1.2l-0.4-1c2-1.9,4.4-3.5,5.8-3.5c0.9,0,1.3,0.8,0.6,3.6c-0.5,2.4-1.2,5.2-1.7,7.5c-0.3,1.5-0.1,2,0.3,2
	c1.3,0,3.9-3.2,4.7-4.8c0.6-2.4,1.2-5.1,1.6-7.4l3.6-0.9h0.5c-0.9,3.8-1.8,7.5-2.6,11.6c-0.2,1-0.1,1.3,0.1,1.3c0.3,0,1.3-0.8,2-1.4
	L100.3,145.7z"/>
<text transform="matrix(1 0 0 1 101.0425 148.9902)" class="st0 st1 st2"> </text>
<text transform="matrix(1 0 0 1 107.1802 148.9902)" class="st0 st3 st2">shalt </text>
<text transform="matrix(1 0 0 1 170.7358 148.9902)" class="st0 st4 st5">not</text>
<text transform="matrix(1 0 0 1 209.0713 148.9902)" class="st0 st1 st2"> </text>
<text transform="matrix(1 0 0 1 32.645 181.4307)" class="st0 st6 st2">apply</text>
<text transform="matrix(1 0 0 1 87.0112 181.4307)" class="st0 st1 st2"> </text>
<text transform="matrix(1 0 0 1 93.147 181.4307)" class="st0 st7 st2">mo</text>
<text transform="matrix(1 0 0 1 120.047 181.4307)" class="st0 st7 st2">r</text>
<text transform="matrix(1 0 0 1 127.347 181.4307)" class="st0 st7 st2">e</text>
<text transform="matrix(1 0 0 1 137.3511 181.4307)" class="st0 st1 st2"> </text>
<text transform="matrix(1 0 0 1 143.4878 181.4307)" class="st0 st8 st2">than</text>
<text transform="matrix(1 0 0 1 196.0977 181.4307)" class="st0 st1 st2"> </text>
<text transform="matrix(1 0 0 1 202.2344 181.4307)" class="st0 st9 st2">three</text>
<text transform="matrix(1 0 0 1 261.9531 181.4307)" class="st0 st1 st2"> </text>
<text transform="matrix(1 0 0 1 32.645 213.8721)" class="st0 st10 st2">type</text>
<text transform="matrix(1 0 0 1 90.245 213.8721)" class="st0 st10 st2">f</text>
<text transform="matrix(1 0 0 1 99.245 213.8721)" class="st0 st10 st2">aces</text>
<text transform="matrix(1 0 0 1 155.8394 213.8721)" class="st0 st1 st2"> </text>
<text transform="matrix(1 0 0 1 161.9761 213.8721)" class="st0 st11 st2">in a </text>
<text transform="matrix(1 0 0 1 203.8799 213.8721)" class="st0 st12 st2">document.</text>
</svg>
