<?xml version="1.0" encoding="utf-8"?>
<!-- Generator: Adobe Illustrator 21.0.2, svg Export Plug-In . svg Version: 6.00 Build 0)  -->
<!DOCTYPE svg PUBLIC "-//W3C//DTD svg 1.1//EN" "http://www.w3.org/Graphics/svg/1.1/DTD/svg11.dtd">
<svg version="1.1" id="Layer_1" xmlns="http://www.w3.org/2000/svg" xmlns:xlink="http://www.w3.org/1999/xlink" x="0px" y="0px"
	 viewBox="0 0 69.3 109" style="enable-background:new 0 0 69.3 109;" xml:space="preserve">
<style type="text/css">
	.st0{fill:#ED1C24;}
</style>
<g>
	<path class="st0" d="M64,19.9l-2.3,0c-1.1,10.2-12,18.2-25.1,18.3v66.3h-3.7V38.1C19.8,38,8.7,30,7.6,19.8l-2.3,0l2.1-3.5l2.1-3.5
		l2,3.5l2,3.5l-2.1,0c1.2,8.1,10.5,14.5,21.5,14.5V14.5l-3.1-0.1l2.7-4.5l2.7-4.5l2.6,4.6l2.6,4.6l-3.8-0.1v19.7
		c11.1,0,20.2-6.4,21.4-14.6l-2.1,0l2.1-3.5l2.1-3.5l2,3.5L64,19.9z"/>
</g>
</svg>
