<?xml version="1.0" encoding="utf-8"?>
<!-- Generator: Adobe Illustrator 20.0.0, SVG Export Plug-In . SVG Version: 6.00 Build 0)  -->
<svg version="1.1" id="Layer_1" xmlns="http://www.w3.org/2000/svg" xmlns:xlink="http://www.w3.org/1999/xlink" x="0px" y="0px"
	 viewBox="0 0 340.1 333.7" style="enable-background:new 0 0 340.1 333.7;" xml:space="preserve">
<style type="text/css">
	.st0{enable-background:new    ;}
	.st1{fill:#FFFFFF;}
</style>
<rect x="0.5" y="-1.6" width="341" height="337.6"/>
<g class="st0">
	<path class="st1" d="M38.8,107.4c0-1.3-0.4-1.7-0.9-1.7l-0.9-0.2V103h8.5c5,0,7.5,4.5,7.5,7.7c0,1.8-0.9,3.1-2,3.8h1.9l2.1,2.7v1.6
		c0,3.6-1.2,4.9-3.5,4.9c-1.5,0-3.2-1-4.2-3.2c-0.8-1.7-0.9-4.2-1.1-4.8h-1.3v3.2l1.9,2.3v2.4h-8l-1.8-2.3v-2.5l1.1-0.2
		c0.5-0.1,0.7-0.9,0.7-1.9V107.4z M44.9,113.3c1.3,0,1.7,1.7,1.9,3.3c0.4,3.4,1.2,4.4,3.2,4.4c1.6,0,2.7-1,2.7-4.8V115h-1.6v1.3
		c0,0.6-0.1,1.5-0.5,1.5c-0.4,0-0.6-0.7-0.7-2.3c-0.1-1.5-0.5-2.6-1.4-3.3v-0.1c1.1-0.6,2-1.8,2-4c0-2.8-1.7-4.6-5.2-4.6h-7.8v1.6
		l0.9,0.1c0.6,0.1,0.9,0.9,0.9,2.2v9.6c0,1.3-0.2,2.1-0.9,2.2l-0.9,0.1v1.6h6.8v-1.6l-0.6-0.1c-1-0.1-1.3-1-1.3-2.3v-3.7H44.9z
		 M45.2,104c2.9,0,4.8,1,4.8,4.1c0,2-0.8,3.2-2,3.8c-0.2-0.2-0.6-0.2-1.1,0c0.6,0.4,1,0.8,1.4,1.4c0.3,0.9,0.5,2.2,0.4,4.5
		c-0.4-2.4-1.3-3.7-2.2-4.5c0.2-0.4,0.4-0.9,0.3-1.4c-0.4-0.2-0.8-0.2-1.3,0c-0.5-0.2-1-0.2-1.5,0c-0.5-0.2-1.1-0.2-1.6,0
		c-0.5-0.2-1-0.2-1.5,0c0.1,0.4,0.5,0.9,0.9,1.4c-0.4,0.9-0.7,2.2-0.9,4.5c-0.2-2.4-0.5-3.6-0.9-4.5c0.4-0.4,0.7-1,0.8-1.4
		c-0.4-0.2-0.7-0.2-1,0v-4.5c0-2.1-0.6-2.6-1.1-2.7l-0.7-0.1V104H45.2z M40.8,111.9c0.1-1,0.5-1.5,0.9-1.9c-0.4-0.7-0.7-1.7-0.9-3.7
		c-0.1,2.1-0.4,3.1-0.9,3.7c0.4,0.4,0.7,1,0.8,1.9H40.8z M43.3,105.4c-1.1,0-1.5,0.7-1.5,2.1v3.6h3.4c1,0,2.4-0.9,2.4-2.8
		c0-1.9-1-2.9-2.5-2.9H43.3z M45.3,105.9c0.9,0,1.9,0.7,1.9,2.5c0,1.5-1,2.4-1.9,2.4h-2.9v-3.2c0-1.3,0.4-1.7,0.9-1.7H45.3z
		 M45.4,108.7c-0.3,0-0.5,0.3-0.5,0.9v0.7h0.5c0.5,0,1.1-0.5,1.1-1.1c0-0.3-0.2-0.5-0.4-0.5H45.4z M46.9,111.9
		c0.9-0.6,1.7-1.1,2.5-1.9c0-0.8-0.2-2.1-1-3.7c0.6,1.9,0,3.1-0.5,3.6c-0.1,0.7-0.6,1.5-1.1,2H46.9z"/>
</g>
<g class="st0">
	<path class="st1" d="M55.4,105.7l-0.9-0.2V103h11.8l2.2,2.8v6.5h-2.9l-1.9-2.4v-1c0-0.6-0.1-0.9-0.6-0.9c-0.5,0-0.7,0.4-0.7,1
		l0,0.7l2.4,3.2v1.2h1.4l2.2,2.9v6.7H56.3l-1.8-2.3v-2.5l1.1-0.2c0.5-0.1,0.7-0.9,0.7-1.9v-9.4C56.4,106.1,56,105.8,55.4,105.7z
		 M62.7,112.7v-2h-2.7v-3.6c0-1.3,0.4-1.9,1.8-1.9c1.3,0,2.4,1.1,2.4,3.2v1.2h1.7v-6H55.1v1.6l0.9,0.1c0.6,0.1,0.9,0.9,0.9,2.2v9.6
		c0,1.3-0.2,2.1-0.9,2.2l-0.9,0.1v1.6h10.9v-6.2h-1.7v1.4c0,1.7-0.5,3.1-2.4,3.1c-1.4,0-1.8-0.8-1.8-1.9v-4.5H62.7z M65.5,104v5.1
		h-0.8v-0.7c0-2.9-1.7-3.6-2.9-3.6c-1.9,0-2.3,1.2-2.3,2.4v4.1h2.8v0.7c-0.6-0.2-1.4-0.2-1.9,0c-0.6-0.2-1.2-0.2-1.9,0
		c0.2,0.4,0.5,0.9,0.9,1.4c-0.4,0.9-0.7,2.2-0.9,4.5c-0.2-2.4-0.5-3.6-0.9-4.5c0.4-0.4,0.7-1,0.9-1.4c-0.4-0.2-0.8-0.2-1,0v-4.5
		c0-2.1-0.6-2.6-1.1-2.7l-0.7-0.1V104H65.5z M58.4,111.9c0.2-1,0.5-1.5,0.9-1.9c-0.4-0.7-0.7-1.7-0.9-3.7c-0.2,2.1-0.5,3.1-0.9,3.7
		C57.9,110.3,58.2,110.9,58.4,111.9L58.4,111.9z M62.5,117.4c0,0.4,0.1,0.9,0.4,0.9c0.3,0,0.9-0.7,0.9-2.3v-0.4h-1.2V117.4z"/>
	<path class="st1" d="M76,103l1.9,2.5l0.5-2.5h7l2,2.7v2.2l-0.9,0.1c-0.5,0.1-0.9,0.6-0.9,2.1v9.1l1.8,2.4v2.1h-9.8l-0.8-1.1v1.1
		h-6.3l-1.8-2.3v-2.5l1.1-0.2c0.5-0.1,0.7-0.9,0.7-1.9v-9.4c0-1.3-0.4-1.7-0.9-1.7l-0.9-0.2V103H76z M72.8,107.4L72.8,107.4
		l2.7,13.5h1.8l2.6-13.5H80v9.6c0,1.3-0.2,2-0.9,2.2l-0.6,0.1v1.6h6.4v-1.6l-0.9-0.1c-0.7-0.1-0.9-0.9-0.9-2.2v-9.6
		c0-1.3,0.3-2.1,0.9-2.2l0.9-0.1v-1.6h-6.1l-1.6,8.5l-1.7-8.5h-6.2v1.6l0.9,0.1c0.6,0.1,0.9,0.9,0.9,2.2v9.6c0,1.3-0.2,2.1-0.9,2.2
		l-0.9,0.1v1.6h5.1v-1.6l-0.6-0.1c-0.7-0.2-0.9-0.9-0.9-2.2V107.4z M75,104l1.6,7.9c-0.2-0.2-0.6-0.2-1,0c0.1,0.4,0.5,0.8,1,1.4
		c-0.2,1-0.2,2.2-0.2,4.5c-0.5-2.3-1-3.6-1.5-4.5c0.4-0.5,0.6-1,0.6-1.4c-0.5-0.2-0.9-0.2-1.3,0l-0.9-4.5c-0.1-0.4-0.2-0.8-0.6-0.8
		c-0.3,0-0.4,0.4-0.4,0.8v4.5c-0.2-0.2-0.6-0.2-0.8,0v-4.5c0-2.1-0.6-2.6-1.1-2.7l-0.7-0.1V104H75z M75.6,111.9
		c0-0.6,0.1-1.4,0.4-1.9c-0.8-1.1-1.2-2.2-1.8-3.7c0.1,1.6,0.2,2.9-0.1,3.7C74.9,110.6,75.2,111.2,75.6,111.9L75.6,111.9z M84.4,104
		v0.6l-0.7,0.1c-0.5,0.1-1.1,0.6-1.1,2.7v4.5c-0.3-0.2-0.7-0.2-1,0c0.1,0.4,0.4,0.9,0.9,1.4c-0.4,0.9-0.7,2.2-0.9,4.5
		c-0.2-2.4-0.5-3.6-0.9-4.5c0.4-0.4,0.7-1,0.9-1.4c-0.4-0.2-0.7-0.2-1,0v-4.5c0-0.4-0.1-0.8-0.4-0.8c-0.4,0-0.5,0.4-0.6,0.8
		l-0.9,4.5c-0.2-0.2-0.6-0.2-0.8,0l1.5-7.9H84.4z M81.6,111.9c0.1-1,0.4-1.5,0.8-1.9c-0.4-0.7-0.7-1.7-0.9-3.7
		c-0.2,2.1-0.5,3.1-0.9,3.7c0.4,0.4,0.7,1,0.9,1.9H81.6z"/>
	<path class="st1" d="M88.2,105.7l-0.9-0.2V103h11.8l2.2,2.8v6.5h-2.9l-1.9-2.4v-1c0-0.6-0.1-0.9-0.6-0.9c-0.5,0-0.7,0.4-0.7,1
		l0,0.7l2.4,3.2v1.2h1.4l2.2,2.9v6.7H89.1l-1.8-2.3v-2.5l1.1-0.2c0.5-0.1,0.7-0.9,0.7-1.9v-9.4C89.1,106.1,88.7,105.8,88.2,105.7z
		 M95.4,112.7v-2h-2.7v-3.6c0-1.3,0.4-1.9,1.8-1.9c1.3,0,2.4,1.1,2.4,3.2v1.2h1.7v-6H87.8v1.6l0.9,0.1c0.6,0.1,0.9,0.9,0.9,2.2v9.6
		c0,1.3-0.2,2.1-0.9,2.2l-0.9,0.1v1.6h10.9v-6.2h-1.7v1.4c0,1.7-0.5,3.1-2.4,3.1c-1.4,0-1.8-0.8-1.8-1.9v-4.5H95.4z M98.2,104v5.1
		h-0.8v-0.7c0-2.9-1.7-3.6-2.9-3.6c-1.9,0-2.3,1.2-2.3,2.4v4.1H95v0.7c-0.6-0.2-1.4-0.2-1.9,0c-0.6-0.2-1.2-0.2-1.9,0
		c0.2,0.4,0.5,0.9,0.9,1.4c-0.4,0.9-0.7,2.2-0.9,4.5c-0.2-2.4-0.5-3.6-0.9-4.5c0.4-0.4,0.7-1,0.9-1.4c-0.4-0.2-0.8-0.2-1,0v-4.5
		c0-2.1-0.6-2.6-1.1-2.7l-0.7-0.1V104H98.2z M91.2,111.9c0.2-1,0.5-1.5,0.9-1.9c-0.4-0.7-0.7-1.7-0.9-3.7c-0.2,2.1-0.5,3.1-0.9,3.7
		C90.7,110.3,91,110.9,91.2,111.9L91.2,111.9z M95.2,117.4c0,0.4,0.1,0.9,0.4,0.9c0.3,0,0.9-0.7,0.9-2.3v-0.4h-1.2V117.4z"/>
	<path class="st1" d="M108.7,103l1.9,2.5l0.5-2.5h7l2,2.7v2.2l-0.9,0.1c-0.5,0.1-0.9,0.6-0.9,2.1v9.1l1.8,2.4v2.1h-9.8l-0.8-1.1v1.1
		h-6.3l-1.8-2.3v-2.5l1.1-0.2c0.5-0.1,0.7-0.9,0.7-1.9v-9.4c0-1.3-0.4-1.7-0.9-1.7l-0.9-0.2V103H108.7z M105.6,107.4L105.6,107.4
		l2.7,13.5h1.8l2.6-13.5h0.1v9.6c0,1.3-0.2,2-0.9,2.2l-0.6,0.1v1.6h6.4v-1.6l-0.9-0.1c-0.7-0.1-0.9-0.9-0.9-2.2v-9.6
		c0-1.3,0.3-2.1,0.9-2.2l0.9-0.1v-1.6h-6.1L110,112l-1.7-8.5h-6.2v1.6l0.9,0.1c0.6,0.1,0.9,0.9,0.9,2.2v9.6c0,1.3-0.2,2.1-0.9,2.2
		l-0.9,0.1v1.6h5.1v-1.6l-0.6-0.1c-0.7-0.2-0.9-0.9-0.9-2.2V107.4z M107.8,104l1.6,7.9c-0.2-0.2-0.6-0.2-1,0c0.1,0.4,0.5,0.8,1,1.4
		c-0.2,1-0.2,2.2-0.2,4.5c-0.5-2.3-1-3.6-1.5-4.5c0.4-0.5,0.6-1,0.6-1.4c-0.5-0.2-0.9-0.2-1.3,0l-0.9-4.5c-0.1-0.4-0.2-0.8-0.6-0.8
		c-0.3,0-0.4,0.4-0.4,0.8v4.5c-0.2-0.2-0.6-0.2-0.8,0v-4.5c0-2.1-0.6-2.6-1.1-2.7l-0.7-0.1V104H107.8z M108.4,111.9
		c0-0.6,0.1-1.4,0.4-1.9c-0.8-1.1-1.2-2.2-1.8-3.7c0.1,1.6,0.2,2.9-0.1,3.7C107.6,110.6,108,111.2,108.4,111.9L108.4,111.9z
		 M117.2,104v0.6l-0.7,0.1c-0.5,0.1-1.1,0.6-1.1,2.7v4.5c-0.3-0.2-0.7-0.2-1,0c0.1,0.4,0.4,0.9,0.9,1.4c-0.4,0.9-0.7,2.2-0.9,4.5
		c-0.2-2.4-0.5-3.6-0.9-4.5c0.4-0.4,0.7-1,0.9-1.4c-0.4-0.2-0.7-0.2-1,0v-4.5c0-0.4-0.1-0.8-0.4-0.8c-0.4,0-0.5,0.4-0.6,0.8
		l-0.9,4.5c-0.2-0.2-0.6-0.2-0.8,0l1.5-7.9H117.2z M114.4,111.9c0.1-1,0.4-1.5,0.8-1.9c-0.4-0.7-0.7-1.7-0.9-3.7
		c-0.2,2.1-0.5,3.1-0.9,3.7c0.4,0.4,0.7,1,0.9,1.9H114.4z"/>
	<path class="st1" d="M121.9,107.4c0-1.3-0.4-1.7-0.9-1.7l-0.9-0.2V103h8.5c4.8,0,7.5,4.1,7.5,7.5c0,1.8-0.9,3.1-1.7,3.7
		c1.1,1.3,1.8,2.8,1.8,4.8c0,2.8-1.9,4.7-4.6,4.7h-9.8l-1.8-2.3v-2.5l1.1-0.2c0.5-0.1,0.7-0.9,0.7-1.9V107.4z M122.3,117
		c0,1.3-0.2,2.1-0.9,2.2l-0.9,0.1v1.6h8.5c2.8,0,4.6-1.8,4.6-5.2c0-1.5-0.5-2.8-1.7-3.8v0c0.6-0.4,1.6-1.7,1.6-3.8
		c0-2.8-1.8-4.6-5.2-4.6h-7.8v1.6l0.9,0.1c0.6,0.1,0.9,0.9,0.9,2.2V117z M128.3,104c2.7,0,4.8,1.2,4.8,4.1c0,2-1.2,3.2-1.8,3.8
		c-0.3-0.2-0.7-0.2-1.2,0c0.7,0.2,1.4,0.6,1.9,1.1c0.4,1,0.4,3.1-0.4,4.8c0.4-2.3-0.4-3.8-1.2-4.5c0.1-0.5-0.1-1-0.3-1.4
		c-0.4-0.2-0.9-0.2-1.4,0c-0.5-0.2-1-0.2-1.5,0c-0.5-0.2-1.1-0.2-1.6,0c-0.5-0.2-1-0.2-1.5,0c0.1,0.4,0.5,0.9,0.8,1.4
		c-0.4,0.9-0.7,2.2-0.9,4.5c-0.2-2.4-0.5-3.6-0.9-4.5c0.4-0.4,0.7-1,0.8-1.4c-0.3-0.2-0.7-0.2-1,0v-4.5c0-2.1-0.6-2.6-1.1-2.7
		l-0.7-0.1V104H128.3z M123.9,111.9c0.1-1,0.5-1.5,0.9-1.9c-0.4-0.7-0.7-1.7-0.9-3.7c-0.2,2.1-0.5,3.1-0.9,3.7
		c0.4,0.4,0.7,1,0.8,1.9H123.9z M125,111.3h2.8c2.2,0,3-1.2,3-2.9c0-1.8-1-3.4-2.5-3.4h-1.9c-0.9,0-1.4,1-1.4,2.6V111.3z
		 M125.5,107.5c0-1.4,0.4-2.1,0.9-2.1h2c0.9,0,1.9,1.2,1.9,2.9c0,1.5-0.8,2.4-2.3,2.4h-2.5V107.5z M126.4,119c-0.6,0-0.9-0.7-0.9-2
		v-4.3h2.4c1.5,0,2.4,1.2,2.4,3c0,1.5-0.8,3.3-2.3,3.3H126.4z M128.5,108.3c-0.3,0-0.6,0.5-0.6,1v1h0.5c0.5,0,1.1-0.4,1.1-1
		c0-0.5-0.1-0.9-0.3-0.9H128.5z M128,117.3c0,0.6,0.2,1.1,0.4,1.1c0.5,0,1.2-1,1.2-1.9c0-0.5-0.2-0.9-0.7-0.9l-0.9,0V117.3z
		 M130.1,111.9c1-0.6,1.9-1.3,2.2-1.9c0-1.2-0.2-2.6-0.8-3.7c0.2,1.9,0.1,3-0.5,3.5C130.9,110.6,130.5,111.3,130.1,111.9
		L130.1,111.9z"/>
	<path class="st1" d="M137.6,105.7l-0.9-0.2V103h11.8l2.2,2.8v6.5h-2.9l-1.9-2.4v-1c0-0.6-0.1-0.9-0.6-0.9c-0.5,0-0.7,0.4-0.7,1
		l0,0.7l2.4,3.2v1.2h1.4l2.2,2.9v6.7h-12.1l-1.8-2.3v-2.5l1.1-0.2c0.5-0.1,0.7-0.9,0.7-1.9v-9.4
		C138.5,106.1,138.1,105.8,137.6,105.7z M144.8,112.7v-2h-2.7v-3.6c0-1.3,0.4-1.9,1.8-1.9c1.3,0,2.4,1.1,2.4,3.2v1.2h1.7v-6h-10.9
		v1.6l0.9,0.1c0.6,0.1,0.9,0.9,0.9,2.2v9.6c0,1.3-0.2,2.1-0.9,2.2l-0.9,0.1v1.6H148v-6.2h-1.7v1.4c0,1.7-0.5,3.1-2.4,3.1
		c-1.4,0-1.8-0.8-1.8-1.9v-4.5H144.8z M147.6,104v5.1h-0.8v-0.7c0-2.9-1.7-3.6-2.9-3.6c-1.9,0-2.3,1.2-2.3,2.4v4.1h2.8v0.7
		c-0.6-0.2-1.4-0.2-1.9,0c-0.6-0.2-1.2-0.2-1.9,0c0.2,0.4,0.5,0.9,0.9,1.4c-0.4,0.9-0.7,2.2-0.9,4.5c-0.2-2.4-0.5-3.6-0.9-4.5
		c0.4-0.4,0.7-1,0.9-1.4c-0.4-0.2-0.8-0.2-1,0v-4.5c0-2.1-0.6-2.6-1.1-2.7l-0.7-0.1V104H147.6z M140.5,111.9c0.2-1,0.5-1.5,0.9-1.9
		c-0.4-0.7-0.7-1.7-0.9-3.7c-0.2,2.1-0.5,3.1-0.9,3.7C140,110.3,140.3,110.9,140.5,111.9L140.5,111.9z M144.6,117.4
		c0,0.4,0.1,0.9,0.4,0.9c0.3,0,0.9-0.7,0.9-2.3v-0.4h-1.2V117.4z"/>
	<path class="st1" d="M152.7,107.4c0-1.3-0.4-1.7-0.9-1.7l-0.9-0.2V103h8.5c5,0,7.5,4.5,7.5,7.7c0,1.8-0.9,3.1-2,3.8h1.9l2.1,2.7
		v1.6c0,3.6-1.2,4.9-3.5,4.9c-1.5,0-3.2-1-4.2-3.2c-0.8-1.7-0.9-4.2-1.1-4.8h-1.3v3.2l1.9,2.3v2.4h-8l-1.8-2.3v-2.5l1.1-0.2
		c0.5-0.1,0.7-0.9,0.7-1.9V107.4z M158.9,113.3c1.3,0,1.7,1.7,1.9,3.3c0.4,3.4,1.2,4.4,3.2,4.4c1.6,0,2.7-1,2.7-4.8V115H165v1.3
		c0,0.6-0.1,1.5-0.5,1.5c-0.4,0-0.6-0.7-0.7-2.3c-0.1-1.5-0.5-2.6-1.4-3.3v-0.1c1.1-0.6,2-1.8,2-4c0-2.8-1.7-4.6-5.2-4.6h-7.8v1.6
		l0.9,0.1c0.6,0.1,0.9,0.9,0.9,2.2v9.6c0,1.3-0.2,2.1-0.9,2.2l-0.9,0.1v1.6h6.8v-1.6l-0.6-0.1c-1-0.1-1.3-1-1.3-2.3v-3.7H158.9z
		 M159.2,104c2.9,0,4.8,1,4.8,4.1c0,2-0.8,3.2-2,3.8c-0.2-0.2-0.6-0.2-1.1,0c0.6,0.4,1,0.8,1.4,1.4c0.3,0.9,0.5,2.2,0.4,4.5
		c-0.4-2.4-1.3-3.7-2.2-4.5c0.2-0.4,0.4-0.9,0.3-1.4c-0.4-0.2-0.8-0.2-1.3,0c-0.5-0.2-1-0.2-1.5,0c-0.5-0.2-1.1-0.2-1.6,0
		c-0.5-0.2-1-0.2-1.5,0c0.1,0.4,0.5,0.9,0.9,1.4c-0.4,0.9-0.7,2.2-0.9,4.5c-0.2-2.4-0.5-3.6-0.9-4.5c0.4-0.4,0.7-1,0.8-1.4
		c-0.4-0.2-0.7-0.2-1,0v-4.5c0-2.1-0.6-2.6-1.1-2.7l-0.7-0.1V104H159.2z M154.8,111.9c0.1-1,0.5-1.5,0.9-1.9
		c-0.4-0.7-0.7-1.7-0.9-3.7c-0.1,2.1-0.4,3.1-0.9,3.7c0.4,0.4,0.7,1,0.8,1.9H154.8z M157.3,105.4c-1.1,0-1.5,0.7-1.5,2.1v3.6h3.4
		c1,0,2.4-0.9,2.4-2.8c0-1.9-1-2.9-2.5-2.9H157.3z M159.2,105.9c0.9,0,1.9,0.7,1.9,2.5c0,1.5-1,2.4-1.9,2.4h-2.9v-3.2
		c0-1.3,0.4-1.7,0.9-1.7H159.2z M159.3,108.7c-0.3,0-0.5,0.3-0.5,0.9v0.7h0.5c0.5,0,1.1-0.5,1.1-1.1c0-0.3-0.2-0.5-0.4-0.5H159.3z
		 M160.8,111.9c0.9-0.6,1.7-1.1,2.5-1.9c0-0.8-0.2-2.1-1-3.7c0.6,1.9,0,3.1-0.5,3.6c-0.1,0.7-0.6,1.5-1.1,2H160.8z"/>
</g>
<g class="st0">
	<path class="st1" d="M188.7,105.7v7.5h-2.7l-1.7-2.3v8.4l1.8,2.3v2.1h-7.9l-1.8-2.3v-2.5l1.1-0.2c0.6-0.1,0.7-0.9,0.7-1.9v-3.6
		h-1.8l-2.6-2.3V103h12.9L188.7,105.7z M174.3,110.4h1.6v-1.5c0-1.6,0.4-3.4,1.6-3.4c1.1,0,1.2,1.6,1.2,2.7v8.8
		c0,1.3-0.2,2.1-0.9,2.2l-0.9,0.1v1.6h6.7v-1.6l-0.9-0.1c-0.7-0.1-0.9-0.9-0.9-2.2v-8.8c0-1.1,0.1-2.7,1.2-2.7
		c1.2,0,1.6,1.8,1.6,3.4v1.5h1.6v-6.9h-11.9V110.4z M185.7,104v6H185v-1c0-1.7-0.4-4-2.1-4c-1.2,0-1.6,1-1.6,2.7v4.3
		c-0.2-0.2-0.6-0.2-1,0c0.2,0.4,0.5,0.9,0.9,1.4c-0.4,0.9-0.7,2.2-0.9,4.5c-0.2-2.4-0.5-3.6-0.9-4.5c0.4-0.4,0.7-1,0.9-1.4
		c-0.4-0.2-0.7-0.2-1.1,0v-4.3c0-1.7-0.4-2.7-1.6-2.7c-1.7,0-2.1,2.3-2.1,4v1h-0.7v-6H185.7z M180.3,111.9c0.2-1,0.5-1.5,0.8-1.9
		c-0.4-0.7-0.7-1.7-0.9-3.7c-0.2,2.1-0.5,3.1-0.9,3.7C179.7,110.3,180,110.9,180.3,111.9L180.3,111.9z"/>
	<path class="st1" d="M190.5,107.4c0-1.3-0.4-1.7-0.9-1.7l-0.9-0.2V103H204l2,2.7v2.2l-0.9,0.1c-0.5,0.1-0.9,0.6-0.9,2.1v9.1
		l1.8,2.3v2.1h-7.2l-0.6-0.6v0.6h-7.7l-1.8-2.3v-2.5l1.1-0.2c0.5-0.1,0.7-0.9,0.7-1.9V107.4z M194.1,107.4c0-1.3,0.3-2.1,0.9-2.2
		l0.9-0.1v-1.6h-6.7v1.6l0.9,0.1c0.6,0.1,0.9,0.9,0.9,2.2v9.6c0,1.3-0.2,2.1-0.9,2.2l-0.9,0.1v1.6h6.7v-1.6l-0.9-0.1
		c-0.7-0.1-0.9-0.9-0.9-2.2v-3.8h4.5v3.8c0,1.3-0.2,2.1-0.9,2.2l-0.9,0.1v1.6h6.7v-1.6l-0.9-0.1c-0.7-0.1-0.9-0.9-0.9-2.2v-9.6
		c0-1.3,0.3-2.1,0.9-2.2l0.9-0.1v-1.6h-6.7v1.6l0.9,0.1c0.6,0.1,0.9,0.9,0.9,2.2v3.3h-4.5V107.4z M203,104v0.6l-0.7,0.1
		c-0.7,0.1-1.1,1.1-1.1,2.7v4.5c-0.2-0.2-0.6-0.2-1,0c0.1,0.4,0.4,0.9,0.8,1.4c-0.4,0.9-0.7,2.2-0.9,4.5c-0.2-2.4-0.5-3.6-0.9-4.5
		c0.4-0.4,0.7-1,0.9-1.4c-0.6-0.2-1.3-0.2-1.9,0c-0.6-0.2-1.2-0.2-1.9,0c-0.6-0.2-1.3-0.2-1.9,0c-0.6-0.2-1.2-0.2-1.9,0
		c0.2,0.4,0.5,0.9,0.9,1.4c-0.4,0.9-0.7,2.2-0.9,4.5c-0.2-2.4-0.5-3.6-0.9-4.5c0.4-0.4,0.7-1,0.9-1.4c-0.4-0.2-0.8-0.2-1,0v-4.5
		c0-1.6-0.4-2.6-1.1-2.7l-0.7-0.1V104h5.7v0.6l-0.7,0.1c-0.7,0.1-1.1,1.1-1.1,2.7v3.8h5.5v-3.8c0-1.6-0.4-2.6-1.1-2.7l-0.7-0.1V104
		H203z M192.5,111.9c0.2-1,0.5-1.5,0.9-1.9c-0.4-0.7-0.7-1.7-0.9-3.7c-0.2,2.1-0.5,3.1-0.9,3.7C192,110.3,192.3,110.9,192.5,111.9
		L192.5,111.9z M198.1,110.3v-2.4l-0.6,0.1c-0.7,0.1-0.9,0.7-0.9,2v0.3H198.1z M196.6,118.9l1-0.2c0.4-0.1,0.6-0.6,0.6-1.7v-1h-1.5
		V118.9z M200.2,111.9c0.1-1,0.4-1.5,0.8-1.9c-0.4-0.7-0.7-1.7-0.9-3.7c-0.2,2.1-0.5,3.1-0.9,3.7c0.4,0.4,0.7,1,0.9,1.9H200.2z"/>
</g>
<g class="st0">
	<path class="st1" d="M214.7,103l3.1,3.2l3,11.4c0.2,0.9,0.9,2.2,1.8,2.7v3.4h-7.2l-0.7-1v1h-7l-1.9-2.5v-2.3l0.7-0.2
		c0.7-0.2,1.2-1.1,1.8-3.5l3.3-12.2H214.7z M214.3,115.3l0.2,0.8c0.4,2.1,0.1,2.8-0.6,3l-0.7,0.2v1.6h6.8v-1.6l-0.8-0.3
		c-0.5-0.2-0.9-1-1.4-2.9l-3.3-12.6h-2.6l-3.2,11.8c-0.8,2.8-1.2,3.7-1.9,3.9l-0.6,0.2v1.6h5.9v-1.6l-0.7-0.2c-0.6-0.2-1-1.4-0.6-3
		l0.2-0.8H214.3z M212.3,104h1.7l2.1,7.9c-0.3-0.2-0.7-0.2-1,0c0.2,0.4,0.6,0.9,1.1,1.4c-0.1,1.1-0.2,2.3,0.1,4.5
		c-0.7-2.2-1.2-3.3-1.9-4.5c0.3-0.4,0.6-1,0.6-1.4c-0.4-0.2-0.8-0.2-1,0l-1.2-5.5h-0.1l-1.5,5.5c-0.3-0.2-0.7-0.2-1.1,0L212.3,104z
		 M211.6,112.8l1.2-4.2h0.1l0.9,4.2H211.6z M215.1,111.9c0-1,0.1-1.5,0.3-1.9c-0.5-0.7-0.9-1.7-1.7-3.7c0.2,2.1,0.2,3.1,0.1,3.7
		C214.3,110.3,214.7,110.9,215.1,111.9L215.1,111.9z"/>
</g>
<g class="st0">
	<path class="st1" d="M235.7,105.7v7.5h-2.7l-1.7-2.3v8.4l1.8,2.3v2.1h-7.9l-1.8-2.3v-2.5l1.1-0.2c0.6-0.1,0.7-0.9,0.7-1.9v-3.6
		h-1.8l-2.6-2.3V103h12.9L235.7,105.7z M221.3,110.4h1.6v-1.5c0-1.6,0.4-3.4,1.6-3.4c1.1,0,1.2,1.6,1.2,2.7v8.8
		c0,1.3-0.2,2.1-0.9,2.2l-0.9,0.1v1.6h6.7v-1.6l-0.9-0.1c-0.7-0.1-0.9-0.9-0.9-2.2v-8.8c0-1.1,0.1-2.7,1.2-2.7
		c1.2,0,1.6,1.8,1.6,3.4v1.5h1.6v-6.9h-11.9V110.4z M232.7,104v6H232v-1c0-1.7-0.4-4-2.1-4c-1.2,0-1.6,1-1.6,2.7v4.3
		c-0.2-0.2-0.6-0.2-1,0c0.2,0.4,0.5,0.9,0.9,1.4c-0.4,0.9-0.7,2.2-0.9,4.5c-0.2-2.4-0.5-3.6-0.9-4.5c0.4-0.4,0.7-1,0.9-1.4
		c-0.4-0.2-0.7-0.2-1.1,0v-4.3c0-1.7-0.4-2.7-1.6-2.7c-1.7,0-2.1,2.3-2.1,4v1h-0.7v-6H232.7z M227.3,111.9c0.2-1,0.5-1.5,0.8-1.9
		c-0.4-0.7-0.7-1.7-0.9-3.7c-0.2,2.1-0.5,3.1-0.9,3.7C226.7,110.3,227,110.9,227.3,111.9L227.3,111.9z"/>
</g>
<g class="st0">
	<path class="st1" d="M248.7,103l3.1,3.2l3,11.4c0.2,0.9,0.9,2.2,1.8,2.7v3.4h-7.2l-0.7-1v1h-7l-1.9-2.5v-2.3l0.7-0.2
		c0.7-0.2,1.2-1.1,1.8-3.5l3.3-12.2H248.7z M248.3,115.3l0.2,0.8c0.4,2.1,0.1,2.8-0.6,3l-0.7,0.2v1.6h6.8v-1.6l-0.8-0.3
		c-0.5-0.2-0.9-1-1.4-2.9l-3.3-12.6h-2.6l-3.2,11.8c-0.8,2.8-1.2,3.7-1.9,3.9l-0.6,0.2v1.6h5.9v-1.6l-0.7-0.2c-0.6-0.2-1-1.4-0.6-3
		l0.2-0.8H248.3z M246.3,104h1.7l2.1,7.9c-0.3-0.2-0.7-0.2-1,0c0.2,0.4,0.6,0.9,1.1,1.4c-0.1,1.1-0.2,2.3,0.1,4.5
		c-0.7-2.2-1.2-3.3-1.9-4.5c0.3-0.4,0.6-1,0.6-1.4c-0.4-0.2-0.8-0.2-1,0l-1.2-5.5h-0.1l-1.5,5.5c-0.3-0.2-0.7-0.2-1.1,0L246.3,104z
		 M245.6,112.8l1.2-4.2h0.1l0.9,4.2H245.6z M249.1,111.9c0-1,0.1-1.5,0.3-1.9c-0.5-0.7-0.9-1.7-1.7-3.7c0.2,2.1,0.2,3.1,0.1,3.7
		C248.3,110.3,248.7,110.9,249.1,111.9L249.1,111.9z"/>
</g>
<g class="st0">
	<path class="st1" d="M52.3,138.9v7.5h-2.7l-1.7-2.3v8.4l1.8,2.3v2.1h-7.9l-1.8-2.3V152l1.1-0.2c0.6-0.1,0.7-0.9,0.7-1.9v-3.6H40
		l-2.6-2.3v-7.9h12.9L52.3,138.9z M37.9,143.6h1.6v-1.5c0-1.6,0.4-3.4,1.6-3.4c1.1,0,1.2,1.6,1.2,2.7v8.8c0,1.3-0.2,2.1-0.9,2.2
		l-0.9,0.1v1.6h6.7v-1.6l-0.9-0.1c-0.7-0.1-0.9-0.9-0.9-2.2v-8.8c0-1.1,0.1-2.7,1.2-2.7c1.2,0,1.6,1.8,1.6,3.4v1.5h1.6v-6.9H37.9
		V143.6z M49.3,137.1v6h-0.7v-1c0-1.7-0.4-4-2.1-4c-1.2,0-1.6,1-1.6,2.7v4.3c-0.2-0.2-0.6-0.2-1,0c0.2,0.4,0.5,0.9,0.9,1.4
		c-0.4,0.9-0.7,2.2-0.9,4.5c-0.2-2.4-0.5-3.6-0.9-4.5c0.4-0.4,0.7-1,0.9-1.4c-0.4-0.2-0.7-0.2-1.1,0v-4.3c0-1.7-0.4-2.7-1.6-2.7
		c-1.7,0-2.1,2.3-2.1,4v1h-0.7v-6H49.3z M43.9,145c0.2-1,0.5-1.5,0.8-1.9c-0.4-0.7-0.7-1.7-0.9-3.7c-0.2,2.1-0.5,3.1-0.9,3.7
		C43.3,143.5,43.6,144.1,43.9,145L43.9,145z"/>
</g>
<g class="st0">
	<path class="st1" d="M54.2,140.2c-0.4-0.9-0.8-1.3-1.3-1.4l-0.9-0.1v-2.5h14l2.2,2.7v2l-0.9,0.1c-0.6,0.1-1.4,0.3-2,1.3l-1.8,3.2
		v6.8l1.8,2.3v2.1h-7.9l-1.7-2.3V152l1.1-0.2c0.6-0.1,0.7-0.9,0.7-1.9v-3.9L54.2,140.2z M52.5,138.2l0.7,0.1
		c0.6,0.1,0.9,0.8,1.4,1.9l3.1,5.9v4c0,1.3-0.2,2.1-0.9,2.2l-0.9,0.1v1.6h6.7v-1.6l-0.9-0.1c-0.7-0.1-0.9-0.9-0.9-2.2V145l3.1-5.6
		c0.3-0.5,0.5-1,0.9-1l0.9-0.1v-1.6h-5.5v1.6l0.9,0.1c0.5,0.1,0.6,0.6,0.2,1.3l-1.7,3.1l-1.8-3.2c-0.4-0.6-0.2-1.1,0.4-1.2l0.9-0.1
		v-1.6h-6.7V138.2z M58.6,137.1v0.6l-0.7,0.1c-0.7,0.1-1.1,0.8-0.6,1.8l2,3.6c0.1,0.2,0.4,0.2,0.5,0l2-3.6c0.5-0.9,0.2-1.6-0.6-1.7
		l-0.6-0.1v-0.7h4.6v0.6l-0.6,0.1c-0.5,0.1-0.8,0.6-1.2,1.3l-3.3,5.9c-0.3-0.2-0.6-0.2-0.9,0c0.2,0.4,0.4,0.9,0.9,1.4
		c-0.4,1.5-0.7,3.1-0.9,4.6c-0.2-1.5-0.5-3.1-0.9-4.6c0.5-0.6,0.7-0.9,0.7-1.4c-0.4-0.3-1-0.2-1.3,0l-2.6-4.9
		c-0.6-1.2-1.1-2.2-1.8-2.3l-0.4-0.1v-0.6H58.6z M59.2,145c-0.3-0.7-0.4-1.5-0.4-2.1c-0.9-0.9-2-2.3-2.8-3.6c0.5,1.3,1.1,3,1.2,3.9
		c0.8,0.6,1.3,1.1,1.9,1.8H59.2z"/>
</g>
<g class="st0">
	<path class="st1" d="M77.8,154.8v2.1h-7.9l-1.8-2.3V152l1.1-0.2c0.5-0.1,0.7-0.9,0.7-1.9v-9.4c0-1.3-0.4-1.7-0.9-1.7l-0.9-0.2v-2.5
		h8.5c4.4,0,7.6,4.3,7.6,7.7c0,3.8-2.8,5.6-6,5.6l-2.2,0v3L77.8,154.8z M76,146.5c3.2,0,5.5-1.4,5.6-4.7c0-3.6-1.9-5.1-5.3-5.1h-7.8
		v1.6l0.9,0.1c0.6,0.1,0.9,0.9,0.9,2.2v9.6c0,1.3-0.2,2.1-0.9,2.2l-0.9,0.1v1.6h6.7v-1.6l-0.9-0.1c-0.7-0.1-0.9-0.9-0.9-2.2v-3.7H76
		z M70.8,140.6c0-2.1-0.6-2.6-1.1-2.7l-0.7-0.1v-0.6h7.3c2.9,0,4.8,1.1,4.8,4.7c0,1.5-0.6,2.6-1.4,3.2c-0.4-0.2-0.6-0.2-1.3,0
		c-0.5-0.2-1-0.2-1.5,0c-0.6-0.2-1.1-0.2-1.7,0c-0.5-0.2-1.1-0.2-1.7,0c-0.6-0.2-1-0.2-1.6,0c0.2,0.4,0.5,0.9,0.9,1.4
		c-0.4,0.9-0.7,2.2-0.9,4.5c-0.2-2.4-0.5-3.6-0.9-4.5c0.4-0.4,0.7-1,0.8-1.4c-0.4-0.2-0.7-0.2-1,0V140.6z M71.9,145
		c0.1-1,0.5-1.5,0.8-1.9c-0.4-0.7-0.7-1.7-0.9-3.7c-0.2,2.1-0.5,3.1-0.9,3.7c0.4,0.4,0.7,1,0.8,1.9H71.9z M73,144.3h3.4
		c1.5,0,2.4-1.2,2.4-2.8c0-1.9-1.1-2.9-2.5-2.9h-1.4c-1.1,0-1.9,0.5-1.9,2.1V144.3z M73.4,140.7c0-1.3,0.5-1.7,1.3-1.7h1.6
		c0.9,0,1.9,0.7,1.9,2.5c0,1.3-1,2.3-1.9,2.3h-2.9V140.7z M76.6,141.9c-0.3,0-0.7,0.3-0.7,0.9v0.7h0.4c0.7,0,1.2-0.7,1.2-1.1
		c0-0.3-0.2-0.5-0.4-0.5H76.6z M78.5,145c0.7-0.6,1.4-1.3,2-1.9c0-0.9-0.4-2.1-1-3.7c0.4,2,0.1,3.2-0.5,3.7c0.1,0.6,0,1.2-0.6,1.9
		H78.5z"/>
</g>
<g class="st0">
	<path class="st1" d="M84.2,138.9l-0.9-0.2v-2.5h11.8l2.2,2.8v6.5h-2.9l-1.9-2.4v-1c0-0.6-0.1-0.9-0.6-0.9c-0.5,0-0.7,0.4-0.7,1
		l0,0.7l2.4,3.2v1.2h1.4l2.2,2.9v6.7H85.1l-1.8-2.3V152l1.1-0.2c0.5-0.1,0.7-0.9,0.7-1.9v-9.4C85.2,139.3,84.8,138.9,84.2,138.9z
		 M91.5,145.9v-2h-2.7v-3.6c0-1.3,0.4-1.9,1.8-1.9c1.3,0,2.4,1.1,2.4,3.2v1.2h1.7v-6H83.9v1.6l0.9,0.1c0.6,0.1,0.9,0.9,0.9,2.2v9.6
		c0,1.3-0.2,2.1-0.9,2.2l-0.9,0.1v1.6h10.9v-6.2H93v1.4c0,1.7-0.5,3.1-2.4,3.1c-1.4,0-1.8-0.8-1.8-1.9v-4.5H91.5z M94.3,137.1v5.1
		h-0.8v-0.7c0-2.9-1.7-3.6-2.9-3.6c-1.9,0-2.3,1.2-2.3,2.4v4.1H91v0.7c-0.6-0.2-1.4-0.2-1.9,0c-0.6-0.2-1.2-0.2-1.9,0
		c0.2,0.4,0.5,0.9,0.9,1.4c-0.4,0.9-0.7,2.2-0.9,4.5c-0.2-2.4-0.5-3.6-0.9-4.5c0.4-0.4,0.7-1,0.9-1.4c-0.4-0.2-0.8-0.2-1,0v-4.5
		c0-2.1-0.6-2.6-1.1-2.7l-0.7-0.1v-0.6H94.3z M87.2,145c0.2-1,0.5-1.5,0.9-1.9c-0.4-0.7-0.7-1.7-0.9-3.7c-0.2,2.1-0.5,3.1-0.9,3.7
		C86.7,143.5,87,144.1,87.2,145L87.2,145z M91.3,150.6c0,0.4,0.1,0.9,0.4,0.9c0.3,0,0.9-0.7,0.9-2.3v-0.4h-1.2V150.6z"/>
</g>
<g class="st0">
	<path class="st1" d="M98.4,138.9l-0.9-0.2v-2.5h12.7l2,2.7v6.6H109l-1.7-2.3v-1c0-1-0.3-1.5-0.8-1.5c-0.6,0-1,0.6-0.9,1.5l0,0.6
		l2.8,3.6v2.3l-2.9,0v3.3l1.9,2.4v2.5h-8l-1.8-2.3V152l1.1-0.2c0.5-0.1,0.7-0.9,0.7-1.9v-9.4C99.4,139.3,99,138.9,98.4,138.9z
		 M104.8,138.4c1.3,0,2.9,1,2.9,3.2v1.2h2v-6H98.1v1.6l0.9,0.1c0.6,0.1,0.9,0.9,0.9,2.2v9.6c0,1.3-0.2,2.1-0.9,2.2l-0.9,0.1v1.6h6.9
		v-1.6l-0.9-0.2c-0.9-0.2-1.2-0.9-1.2-2.2v-4.3h2.7v-2h-2.7v-3.6C102.9,139.2,103.4,138.4,104.8,138.4z M109.3,137.1v5.1h-1.1v-0.7
		c0-2.8-1.9-3.6-3.4-3.6c-2.2,0-2.3,1.3-2.3,2.4v4.1h2.8v0.7c-1-0.2-1.6-0.2-2.2,0c-0.5-0.2-1.1-0.2-1.6,0c0.2,0.4,0.5,0.9,0.9,1.4
		c-0.4,0.9-0.7,2.2-0.9,4.5c-0.2-2.4-0.5-3.6-0.9-4.5c0.4-0.4,0.7-1,0.9-1.4c-0.4-0.2-0.7-0.2-1,0v-4.5c0-2.1-0.6-2.6-1.1-2.7
		l-0.7-0.1v-0.6H109.3z M101.4,145c0.2-1,0.5-1.5,0.9-1.9c-0.4-0.7-0.7-1.7-0.9-3.7c-0.2,2.1-0.5,3.1-0.9,3.7
		C100.9,143.5,101.2,144.1,101.4,145L101.4,145z"/>
</g>
<g class="st0">
	<path class="st1" d="M118.6,136.2l3.1,3.2l3,11.4c0.2,0.9,0.9,2.2,1.8,2.7v3.4h-7.2l-0.7-1v1h-7l-1.9-2.5v-2.3l0.7-0.2
		c0.7-0.2,1.2-1.1,1.8-3.5l3.3-12.2H118.6z M118.2,148.4l0.2,0.8c0.4,2.1,0.1,2.8-0.6,3l-0.7,0.2v1.6h6.8v-1.6l-0.8-0.3
		c-0.5-0.2-0.9-1-1.4-2.9l-3.3-12.6h-2.6l-3.2,11.8c-0.8,2.8-1.2,3.7-1.9,3.9l-0.6,0.2v1.6h5.9v-1.6l-0.7-0.2c-0.6-0.2-1-1.4-0.6-3
		l0.2-0.8H118.2z M116.2,137.1h1.7l2.1,7.9c-0.3-0.2-0.7-0.2-1,0c0.2,0.4,0.6,0.9,1.1,1.4c-0.1,1.1-0.2,2.3,0.1,4.5
		c-0.7-2.2-1.2-3.3-1.9-4.5c0.3-0.4,0.6-1,0.6-1.4c-0.4-0.2-0.8-0.2-1,0l-1.2-5.5h-0.1l-1.5,5.5c-0.3-0.2-0.7-0.2-1.1,0L116.2,137.1
		z M115.5,146l1.2-4.2h0.1l0.9,4.2H115.5z M119,145c0-1,0.1-1.5,0.3-1.9c-0.5-0.7-0.9-1.7-1.7-3.7c0.2,2.1,0.2,3.1,0.1,3.7
		C118.2,143.5,118.5,144.1,119,145L119,145z"/>
</g>
<g class="st0">
	<path class="st1" d="M125.7,142.7c0-3.7,2.8-6.7,6.1-6.7c0.9,0,1.7,0.2,2.3,0.5c0.5,0.2,1,0.5,1.2,0.5s0.2-0.3,0.2-0.8h2.5l2.3,2.6
		v8.9h-3.8l-2.1-2.3c-0.1-3.1-0.7-4.9-1.2-4.9c-0.6,0-0.8,0.9-0.8,2v7.7c0,0.8,0.3,1.4,0.8,1.4c0.7,0,1.2-1.3,1.3-3.7h3.7l2.3,2.6
		c-0.6,5.5-3.8,6.6-7.1,6.6c-4,0-7.7-3.9-7.7-9.7V142.7z M137.8,144.8v-8.2h-1.9c0,0.7-0.2,0.9-0.4,0.9c-0.3,0-0.9-0.2-1.3-0.5
		c-0.7-0.4-1.4-0.5-2.2-0.5c-3.5,0-5.7,3.4-5.7,6.3v4.6c0,3.4,1.7,6.9,6,6.9c4,0,5.6-3,5.6-5.9h-2.8c0,3.1-1,4.1-2.7,4.1
		c-1.6,0-2.4-1.6-2.4-3.8v-7.4c0-1.5,0.3-3.1,2-3.1c2.2,0,3,3.8,3,6.5H137.8z M129.4,144.6c-0.3-0.2-0.9-0.2-1.3,0
		c0.1,0.4,0.5,0.9,0.9,1.4c-0.4,0.9-0.7,2.2-0.5,4.5c-0.8-1.9-1.1-3.1-1.3-4.5c0.4-0.4,0.7-1,0.9-1.4c-0.5-0.2-1-0.2-1.4,0v-1.5
		c0-3.1,2.2-6.1,5.3-6.1c0.8,0,1.5,0.2,2,0.5c0.7,0.3,1.2,0.6,1.7,0.6c0.4,0,0.7-0.3,0.7-0.9h0.9v7.2h-1.9c-0.2-3.5-1.3-6.6-3.5-6.6
		c-2.1,0-2.5,1.8-2.5,3.6V144.6z M128.1,144.4c0.1-0.4,0.4-0.9,0.9-1.4c-0.4-1.1-0.5-2.2-0.3-3.7c-0.8,1.3-1.3,2.7-1.5,3.7
		C127.5,143.5,127.9,144,128.1,144.4L128.1,144.4z"/>
	<path class="st1" d="M141.7,138.9l-0.9-0.2v-2.5h11.8l2.2,2.8v6.5h-2.9l-1.9-2.4v-1c0-0.6-0.1-0.9-0.6-0.9c-0.5,0-0.7,0.4-0.7,1
		l0,0.7l2.4,3.2v1.2h1.4l2.2,2.9v6.7h-12.1l-1.8-2.3V152l1.1-0.2c0.5-0.1,0.7-0.9,0.7-1.9v-9.4C142.6,139.3,142.2,138.9,141.7,138.9
		z M148.9,145.9v-2h-2.7v-3.6c0-1.3,0.4-1.9,1.8-1.9c1.3,0,2.4,1.1,2.4,3.2v1.2h1.7v-6h-10.9v1.6l0.9,0.1c0.6,0.1,0.9,0.9,0.9,2.2
		v9.6c0,1.3-0.2,2.1-0.9,2.2l-0.9,0.1v1.6h10.9v-6.2h-1.7v1.4c0,1.7-0.5,3.1-2.4,3.1c-1.4,0-1.8-0.8-1.8-1.9v-4.5H148.9z
		 M151.7,137.1v5.1h-0.8v-0.7c0-2.9-1.7-3.6-2.9-3.6c-1.9,0-2.3,1.2-2.3,2.4v4.1h2.8v0.7c-0.6-0.2-1.4-0.2-1.9,0
		c-0.6-0.2-1.2-0.2-1.9,0c0.2,0.4,0.5,0.9,0.9,1.4c-0.4,0.9-0.7,2.2-0.9,4.5c-0.2-2.4-0.5-3.6-0.9-4.5c0.4-0.4,0.7-1,0.9-1.4
		c-0.4-0.2-0.8-0.2-1,0v-4.5c0-2.1-0.6-2.6-1.1-2.7l-0.7-0.1v-0.6H151.7z M144.7,145c0.2-1,0.5-1.5,0.9-1.9
		c-0.4-0.7-0.7-1.7-0.9-3.7c-0.2,2.1-0.5,3.1-0.9,3.7C144.1,143.5,144.4,144.1,144.7,145L144.7,145z M148.7,150.6
		c0,0.4,0.1,0.9,0.4,0.9c0.3,0,0.9-0.7,0.9-2.3v-0.4h-1.2V150.6z"/>
</g>
<g class="st0">
	<path class="st1" d="M174.5,138.9v7.5h-2.7l-1.7-2.3v8.4l1.8,2.3v2.1H164l-1.8-2.3V152l1.1-0.2c0.6-0.1,0.7-0.9,0.7-1.9v-3.6h-1.8
		l-2.6-2.3v-7.9h12.9L174.5,138.9z M160.1,143.6h1.6v-1.5c0-1.6,0.4-3.4,1.6-3.4c1.1,0,1.2,1.6,1.2,2.7v8.8c0,1.3-0.2,2.1-0.9,2.2
		l-0.9,0.1v1.6h6.7v-1.6l-0.9-0.1c-0.7-0.1-0.9-0.9-0.9-2.2v-8.8c0-1.1,0.1-2.7,1.2-2.7c1.2,0,1.6,1.8,1.6,3.4v1.5h1.6v-6.9h-11.9
		V143.6z M171.5,137.1v6h-0.7v-1c0-1.7-0.4-4-2.1-4c-1.2,0-1.6,1-1.6,2.7v4.3c-0.2-0.2-0.6-0.2-1,0c0.2,0.4,0.5,0.9,0.9,1.4
		c-0.4,0.9-0.7,2.2-0.9,4.5c-0.2-2.4-0.5-3.6-0.9-4.5c0.4-0.4,0.7-1,0.9-1.4c-0.4-0.2-0.7-0.2-1.1,0v-4.3c0-1.7-0.4-2.7-1.6-2.7
		c-1.7,0-2.1,2.3-2.1,4v1h-0.7v-6H171.5z M166.1,145c0.2-1,0.5-1.5,0.8-1.9c-0.4-0.7-0.7-1.7-0.9-3.7c-0.2,2.1-0.5,3.1-0.9,3.7
		C165.5,143.5,165.8,144.1,166.1,145L166.1,145z"/>
	<path class="st1" d="M176.3,140.6c0-1.3-0.4-1.7-0.9-1.7l-0.9-0.2v-2.5h15.3l2,2.7v2.2l-0.9,0.1c-0.5,0.1-0.9,0.6-0.9,2.1v9.1
		l1.8,2.3v2.1h-7.2l-0.6-0.6v0.6h-7.7l-1.8-2.3V152l1.1-0.2c0.5-0.1,0.7-0.9,0.7-1.9V140.6z M179.9,140.6c0-1.3,0.3-2.1,0.9-2.2
		l0.9-0.1v-1.6H175v1.6l0.9,0.1c0.6,0.1,0.9,0.9,0.9,2.2v9.6c0,1.3-0.2,2.1-0.9,2.2l-0.9,0.1v1.6h6.7v-1.6l-0.9-0.1
		c-0.7-0.1-0.9-0.9-0.9-2.2v-3.8h4.5v3.8c0,1.3-0.2,2.1-0.9,2.2l-0.9,0.1v1.6h6.7v-1.6l-0.9-0.1c-0.7-0.1-0.9-0.9-0.9-2.2v-9.6
		c0-1.3,0.3-2.1,0.9-2.2l0.9-0.1v-1.6h-6.7v1.6l0.9,0.1c0.6,0.1,0.9,0.9,0.9,2.2v3.3h-4.5V140.6z M188.8,137.1v0.6l-0.7,0.1
		c-0.7,0.1-1.1,1.1-1.1,2.7v4.5c-0.2-0.2-0.6-0.2-1,0c0.1,0.4,0.4,0.9,0.8,1.4c-0.4,0.9-0.7,2.2-0.9,4.5c-0.2-2.4-0.5-3.6-0.9-4.5
		c0.4-0.4,0.7-1,0.9-1.4c-0.6-0.2-1.3-0.2-1.9,0c-0.6-0.2-1.2-0.2-1.9,0c-0.6-0.2-1.3-0.2-1.9,0c-0.6-0.2-1.2-0.2-1.9,0
		c0.2,0.4,0.5,0.9,0.9,1.4c-0.4,0.9-0.7,2.2-0.9,4.5c-0.2-2.4-0.5-3.6-0.9-4.5c0.4-0.4,0.7-1,0.9-1.4c-0.4-0.2-0.8-0.2-1,0v-4.5
		c0-1.6-0.4-2.6-1.1-2.7l-0.7-0.1v-0.6h5.7v0.6l-0.7,0.1c-0.7,0.1-1.1,1.1-1.1,2.7v3.8h5.5v-3.8c0-1.6-0.4-2.6-1.1-2.7l-0.7-0.1
		v-0.6H188.8z M178.3,145c0.2-1,0.5-1.5,0.9-1.9c-0.4-0.7-0.7-1.7-0.9-3.7c-0.2,2.1-0.5,3.1-0.9,3.7
		C177.8,143.5,178.1,144.1,178.3,145L178.3,145z M183.9,143.5v-2.4l-0.6,0.1c-0.7,0.1-0.9,0.7-0.9,2v0.3H183.9z M182.4,152l1-0.2
		c0.4-0.1,0.6-0.6,0.6-1.7v-1h-1.5V152z M186,145c0.1-1,0.4-1.5,0.8-1.9c-0.4-0.7-0.7-1.7-0.9-3.7c-0.2,2.1-0.5,3.1-0.9,3.7
		c0.4,0.4,0.7,1,0.9,1.9H186z"/>
</g>
<g class="st0">
	<path class="st1" d="M200.5,136.2l3.1,3.2l3,11.4c0.2,0.9,0.9,2.2,1.8,2.7v3.4h-7.2l-0.7-1v1h-7l-1.9-2.5v-2.3l0.7-0.2
		c0.7-0.2,1.2-1.1,1.8-3.5l3.3-12.2H200.5z M200.1,148.4l0.2,0.8c0.4,2.1,0.1,2.8-0.6,3l-0.7,0.2v1.6h6.8v-1.6l-0.8-0.3
		c-0.5-0.2-0.9-1-1.4-2.9l-3.3-12.6h-2.6l-3.2,11.8c-0.8,2.8-1.2,3.7-1.9,3.9l-0.6,0.2v1.6h5.9v-1.6l-0.7-0.2c-0.6-0.2-1-1.4-0.6-3
		l0.2-0.8H200.1z M198.1,137.1h1.7l2.1,7.9c-0.3-0.2-0.7-0.2-1,0c0.2,0.4,0.6,0.9,1.1,1.4c-0.1,1.1-0.2,2.3,0.1,4.5
		c-0.7-2.2-1.2-3.3-1.9-4.5c0.3-0.4,0.6-1,0.6-1.4c-0.4-0.2-0.8-0.2-1,0l-1.2-5.5h-0.1l-1.5,5.5c-0.3-0.2-0.7-0.2-1.1,0L198.1,137.1
		z M197.4,146l1.2-4.2h0.1l0.9,4.2H197.4z M200.9,145c0-1,0.1-1.5,0.3-1.9c-0.5-0.7-0.9-1.7-1.7-3.7c0.2,2.1,0.2,3.1,0.1,3.7
		C200.1,143.5,200.5,144.1,200.9,145L200.9,145z"/>
</g>
<g class="st0">
	<path class="st1" d="M221.5,138.9v7.5h-2.7l-1.7-2.3v8.4l1.8,2.3v2.1H211l-1.8-2.3V152l1.1-0.2c0.6-0.1,0.7-0.9,0.7-1.9v-3.6h-1.8
		l-2.6-2.3v-7.9h12.9L221.5,138.9z M207.1,143.6h1.6v-1.5c0-1.6,0.4-3.4,1.6-3.4c1.1,0,1.2,1.6,1.2,2.7v8.8c0,1.3-0.2,2.1-0.9,2.2
		l-0.9,0.1v1.6h6.7v-1.6l-0.9-0.1c-0.7-0.1-0.9-0.9-0.9-2.2v-8.8c0-1.1,0.1-2.7,1.2-2.7c1.2,0,1.6,1.8,1.6,3.4v1.5h1.6v-6.9h-11.9
		V143.6z M218.5,137.1v6h-0.7v-1c0-1.7-0.4-4-2.1-4c-1.2,0-1.6,1-1.6,2.7v4.3c-0.2-0.2-0.6-0.2-1,0c0.2,0.4,0.5,0.9,0.9,1.4
		c-0.4,0.9-0.7,2.2-0.9,4.5c-0.2-2.4-0.5-3.6-0.9-4.5c0.4-0.4,0.7-1,0.9-1.4c-0.4-0.2-0.7-0.2-1.1,0v-4.3c0-1.7-0.4-2.7-1.6-2.7
		c-1.7,0-2.1,2.3-2.1,4v1h-0.7v-6H218.5z M213.1,145c0.2-1,0.5-1.5,0.8-1.9c-0.4-0.7-0.7-1.7-0.9-3.7c-0.2,2.1-0.5,3.1-0.9,3.7
		C212.5,143.5,212.8,144.1,213.1,145L213.1,145z"/>
	<path class="st1" d="M228.5,140.6c0-1.3-0.4-1.7-0.9-1.7l-0.9-0.2v-2.5h7.7l2,2.7v2.2l-0.9,0.1c-0.5,0.1-0.9,0.6-0.9,2.1v9.1
		l1.8,2.3v2.1h-7.9l-1.8-2.3V152l1.1-0.2c0.5-0.1,0.7-0.9,0.7-1.9V140.6z M229,150.2c0,1.3-0.2,2.1-0.9,2.2l-0.9,0.1v1.6h6.7v-1.6
		l-0.9-0.1c-0.7-0.1-0.9-0.9-0.9-2.2v-9.6c0-1.3,0.3-2.1,0.9-2.2l0.9-0.1v-1.6h-6.7v1.6l0.9,0.1c0.6,0.1,0.9,0.9,0.9,2.2V150.2z
		 M231.6,145.1c-0.3-0.2-0.7-0.2-1,0c0.2,0.4,0.5,0.9,0.9,1.4c-0.4,0.9-0.7,2.2-0.9,4.5c-0.2-2.4-0.5-3.6-0.9-4.5
		c0.4-0.4,0.7-1,0.9-1.4c-0.4-0.2-0.7-0.2-1,0v-4.5c0-2.1-0.6-2.6-1.1-2.7l-0.7-0.1v-0.6h5.7v0.6l-0.7,0.1c-0.5,0.1-1.1,0.6-1.1,2.7
		V145.1z M230.6,145c0.2-1,0.5-1.5,0.9-1.9c-0.4-0.7-0.7-1.7-0.9-3.7c-0.2,2.1-0.5,3.1-0.9,3.7C230.1,143.5,230.4,144.1,230.6,145
		L230.6,145z"/>
	<path class="st1" d="M236.7,141.3c0-3.4,2.6-5.3,5.6-5.3c0.8,0,1.6,0.1,2.1,0.2c0.6,0.1,0.9,0.3,1.2,0.3c0.3,0,0.5-0.2,0.6-0.4h2
		l2,2.8v5.8h-1.8l-2.5-2.3c-0.2-1.2-0.7-2.4-1.8-2.4c-1,0-1.5,0.6-1.5,1.4c0,0.7,0.2,1.2,2.1,1.8c3.9,1.4,6.2,3.9,6.2,8.1
		c0,3.5-2.7,5.8-5.4,5.8c-1.2,0-2.3-0.3-2.8-0.7c-0.4-0.3-0.9-0.6-1.3-0.6c-0.4,0-0.6,0.7-0.8,1.1h-2.4l-1.9-2.4v-6.8h2.4
		c0.5,1,1.2,2.2,1.7,2.7c0.5,0.7,1.4,1.3,2.4,1.3c0.6,0,1.4-0.3,1.4-1.1c0-1-2.3-1.5-3.4-2.1C239.1,147.4,236.7,145.1,236.7,141.3z
		 M240.3,140.4c0-1.1,0.7-2.3,2.3-2.3c1.2,0,2.5,0.9,3,1.5c0.4,0.5,0.7,1.3,0.9,2.1h1.4v-5.2h-1.4c-0.2,0.2-0.4,0.4-0.7,0.4
		c-0.4,0-0.8-0.1-1.3-0.3c-0.5-0.2-1.4-0.3-2.3-0.3c-2.7,0-5,1.8-5,4.8c0,2.8,1,4.3,3.5,5.4l2.2,0.9c0.9,0.4,2.4,1.1,2.4,2.6
		c0,1.1-0.9,2.1-2,2.1c-1.9,0-3.3-0.9-4-2c-0.4-0.7-0.7-1.3-0.9-2H237v5.9h1.4c0.2-0.5,0.6-1.1,1-1.1s0.9,0.2,1.6,0.6
		c0.6,0.3,1.5,0.7,2.6,0.7c2.8,0,5-2.1,5-5.2c0-3.3-1.6-4.8-5.2-5.9C241.2,142.5,240.2,142,240.3,140.4z M246.3,145.1
		c-0.9-0.2-1.4-0.2-1.9,0c-0.6-0.2-1.2-0.2-1.9,0c1.6,0.3,2.8,0.6,3.6,0.9c0.9,1.4,1.1,2.9,0.4,5c-0.1-2.1-1-3.7-2-3.9
		c-0.2-0.6-0.6-1.3-2.1-2c-0.6-0.2-1.2-0.2-1.7,0c-0.6-0.2-1-0.2-1.4,0c-1.2-1-1.6-2.2-1.6-3.8c0-2.6,2.1-4.3,4.4-4.3
		c0.7,0,1.3,0.1,1.9,0.2c0.6,0.2,1.3,0.4,1.8,0.4c0.4,0,0.7-0.2,0.9-0.4h0.7v4.3h-0.5c-0.4-1.9-2.2-3.7-4.3-3.7
		c-2,0-2.7,1.4-2.7,2.7c0,1.5,0.6,2.3,2.3,2.9C243.9,143.9,245.4,144.3,246.3,145.1z M242.5,145c-1.8-0.9-2.5-1.7-2.5-2.8
		c-0.7-0.5-1.1-1.3-1-2.9c-0.4,1.1-0.7,2.3-0.7,3.3c0.7,1,1.9,1.7,4.1,2.3H242.5z"/>
	<path class="st1" d="M266.8,156.9l-1.9-2.5l-1.8-5.1v3.1l1.5,2v2.5h-6.3l-1.8-2.3V152l1.1-0.2c0.5-0.1,0.7-0.9,0.7-1.9v-9.4
		c0-1.3-0.4-1.7-0.9-1.7l-0.9-0.2v-2.5h7.1l1,1.4v-1.4h6.3l2,2.7v2.2l-0.9,0.1c-0.5,0.1-0.9,0.6-0.9,2.1v13.6H266.8z M260.5,140.6
		L260.5,140.6l4.9,13.5h3.2v-13.5c0-1.3,0.3-2.1,0.9-2.2l0.9-0.1v-1.6h-5.3v1.6l0.9,0.1c0.6,0.1,0.9,0.9,0.9,2.2v6h0l-3.6-9.9H257
		v1.6l0.9,0.1c0.6,0.1,0.9,0.9,0.9,2.2v9.6c0,1.3-0.2,2.1-0.9,2.2l-0.9,0.1v1.6h5.1v-1.6l-0.6-0.1c-0.7-0.2-0.9-0.9-0.9-2.2V140.6z
		 M262.8,137.1l2.9,7.9c-0.5-0.2-1-0.2-1.4,0c0.3,0.4,0.7,0.8,1.3,1.4c0.1,1,0.2,2.2,0.7,4.5c-1.1-2.3-1.8-3.6-2.4-4.5
		c0.2-0.5,0.4-1,0.4-1.4c-0.6-0.2-1-0.2-1.4,0l-1.7-4.6c-0.2-0.5-0.3-0.8-0.7-0.8c-0.3,0-0.4,0.4-0.4,0.8v4.5
		c-0.2-0.2-0.6-0.2-0.8,0v-4.5c0-2.1-0.6-2.6-1.1-2.7l-0.7-0.1v-0.6H262.8z M264.2,145c0-1,0-1.5,0-2.1c-0.7-0.9-1.4-2-2.4-3.8
		c0.5,1.9,0.7,3,0.6,4C263.1,143.5,263.6,144.1,264.2,145L264.2,145z M269.9,137.1v0.6l-0.7,0.1c-0.5,0.1-1.1,0.6-1.1,2.7v4.5
		c-0.2-0.2-0.6-0.2-0.8,0v-4.5c0-2.1-0.6-2.6-1.1-2.7l-0.7-0.1v-0.6H269.9z"/>
</g>
<g class="st0">
	<path class="st1" d="M287.9,149.1c0,5.3-2.9,7.9-6.7,7.9c-4,0-7.7-2.9-7.7-9v-5.3c0-4.1,3-6.8,6.2-6.8c5.3,0,8.2,4.7,8.2,8V149.1z
		 M285.4,142.7c0-3.5-2.3-6.2-5.7-6.2s-5.7,3-5.7,6.2l0,5.3c0,3.8,2.3,6.2,5.8,6.2c3.5,0,5.8-3,5.7-6.4V142.7z M277.2,145.1
		c-0.2-0.2-0.8-0.2-1.3,0c0.1,0.4,0.5,0.9,0.9,1.4c-0.4,0.9-0.9,2.7-0.5,4.5c-0.7-2-1.1-3.6-1.3-4.5c0.4-0.4,0.7-1,0.9-1.4
		c-0.5-0.2-1.1-0.2-1.4,0v-2.3c0-2.8,1.9-5.8,5.3-5.8c3.3,0,5.2,3,5.2,5.8v2.3c-0.2-0.2-0.8-0.2-1.4,0c0.2,0.4,0.5,0.9,0.9,1.4
		c-0.2,1-0.4,2.5-1.3,4.5c0.2-2-0.1-3.6-0.5-4.5c0.4-0.4,0.7-1,0.9-1.4c-0.6-0.2-1.1-0.2-1.3,0v-3.7c0-2.7-1.1-3.6-2.5-3.6
		c-1.4,0-2.5,0.9-2.5,3.6V145.1z M275.9,145c0.1-1,0.5-1.5,0.9-1.9c-0.5-1.1-0.5-2.2-0.3-3.7c-0.8,1.3-1.2,2.4-1.5,3.7
		C275.3,143.5,275.6,144,275.9,145L275.9,145z M277.7,141.3c0-1.5,0.3-3.1,2-3.1c1.6,0,2,1.5,2,3.1v7.4c0,1.9-0.3,3.8-2,3.8
		c-1.7,0-2-1.8-2-3.8V141.3z M281.2,142.3c0-1.1-0.1-1.9-0.4-1.9c-0.3,0-0.5,0.6-0.5,2v6.5c0,1.1,0.1,2.3,0.4,2.3
		c0.4,0,0.6-1.2,0.6-2.7V142.3z M283.6,145c0.2-1,0.5-1.5,0.9-1.9c-0.4-1.3-0.7-2.4-1.5-3.7c0.2,1.2,0.2,2.6-0.3,3.7
		C283,143.5,283.3,144,283.6,145L283.6,145z"/>
</g>
<g class="st0">
	<path class="st1" d="M303.5,138.9v7.5h-2.7l-1.7-2.3v8.4l1.8,2.3v2.1H293l-1.8-2.3V152l1.1-0.2c0.6-0.1,0.7-0.9,0.7-1.9v-3.6h-1.8
		l-2.6-2.3v-7.9h12.9L303.5,138.9z M289.1,143.6h1.6v-1.5c0-1.6,0.4-3.4,1.6-3.4c1.1,0,1.2,1.6,1.2,2.7v8.8c0,1.3-0.2,2.1-0.9,2.2
		l-0.9,0.1v1.6h6.7v-1.6l-0.9-0.1c-0.7-0.1-0.9-0.9-0.9-2.2v-8.8c0-1.1,0.1-2.7,1.2-2.7c1.2,0,1.6,1.8,1.6,3.4v1.5h1.6v-6.9h-11.9
		V143.6z M300.5,137.1v6h-0.7v-1c0-1.7-0.4-4-2.1-4c-1.2,0-1.6,1-1.6,2.7v4.3c-0.2-0.2-0.6-0.2-1,0c0.2,0.4,0.5,0.9,0.9,1.4
		c-0.4,0.9-0.7,2.2-0.9,4.5c-0.2-2.4-0.5-3.6-0.9-4.5c0.4-0.4,0.7-1,0.9-1.4c-0.4-0.2-0.7-0.2-1.1,0v-4.3c0-1.7-0.4-2.7-1.6-2.7
		c-1.7,0-2.1,2.3-2.1,4v1h-0.7v-6H300.5z M295.1,145c0.2-1,0.5-1.5,0.8-1.9c-0.4-0.7-0.7-1.7-0.9-3.7c-0.2,2.1-0.5,3.1-0.9,3.7
		C294.5,143.5,294.8,144.1,295.1,145L295.1,145z"/>
</g>
<g class="st0">
	<path class="st1" d="M44.9,183.4c0,0.7,0.6,0.9,1,0.9c0.5,0,1-0.7,1-1.7v-1.5h2.7l2.1,2.8v6.2H38.7l-1.8-2.3v-2.5L38,185
		c0.5-0.1,0.7-0.9,0.7-1.9v-9.4c0-1.3-0.4-1.7-0.9-1.7l-0.9-0.2v-2.5h7.7l2,2.7v2.2l-0.9,0.1c-0.5,0.1-0.9,0.6-0.9,2.1V183.4z
		 M39.2,183.3c0,1.3-0.2,2.1-0.9,2.2l-0.9,0.1v1.6h11.7v-5.7h-1.7v1.5c0,1.3-0.7,2-2.6,2c-2,0-2.4-0.9-2.4-2.5v-8.8
		c0-1.3,0.3-2.1,0.9-2.2l0.9-0.1v-1.6h-6.7v1.6l0.9,0.1c0.6,0.1,0.9,0.9,0.9,2.2V183.3z M39.7,173.8c0-2.1-0.6-2.6-1.1-2.7l-0.7-0.1
		v-0.6h5.7v0.6l-0.7,0.1c-0.5,0.1-1.1,0.6-1.1,2.7v4.5c-0.3-0.2-0.7-0.2-1,0c0.2,0.4,0.5,0.9,0.9,1.4c-0.4,0.9-0.7,2.2-0.9,4.5
		c-0.2-2.4-0.5-3.6-0.9-4.5c0.4-0.4,0.7-1,0.9-1.4c-0.4-0.2-0.7-0.2-1,0V173.8z M40.8,178.2c0.2-1,0.5-1.5,0.9-1.9
		c-0.4-0.7-0.7-1.7-0.9-3.7c-0.2,2.1-0.5,3.1-0.9,3.7C40.3,176.7,40.6,177.2,40.8,178.2L40.8,178.2z"/>
	<path class="st1" d="M52.9,172l-0.9-0.2v-2.5h11.8l2.2,2.8v6.5H63l-1.9-2.4v-1c0-0.6-0.1-0.9-0.6-0.9c-0.5,0-0.7,0.4-0.7,1l0,0.7
		l2.4,3.2v1.2h1.4l2.2,2.9v6.7H53.8l-1.8-2.3v-2.5l1.1-0.2c0.5-0.1,0.7-0.9,0.7-1.9v-9.4C53.8,172.5,53.4,172.1,52.9,172z M60.1,179
		v-2h-2.7v-3.6c0-1.3,0.4-1.9,1.8-1.9c1.3,0,2.4,1.1,2.4,3.2v1.2h1.7v-6H52.5v1.6l0.9,0.1c0.6,0.1,0.9,0.9,0.9,2.2v9.6
		c0,1.3-0.2,2.1-0.9,2.2l-0.9,0.1v1.6h10.9V181h-1.7v1.4c0,1.7-0.5,3.1-2.4,3.1c-1.4,0-1.8-0.8-1.8-1.9V179H60.1z M62.9,170.3v5.1
		h-0.8v-0.7c0-2.9-1.7-3.6-2.9-3.6c-1.9,0-2.3,1.2-2.3,2.4v4.1h2.8v0.7c-0.6-0.2-1.4-0.2-1.9,0c-0.6-0.2-1.2-0.2-1.9,0
		c0.2,0.4,0.5,0.9,0.9,1.4c-0.4,0.9-0.7,2.2-0.9,4.5c-0.2-2.4-0.5-3.6-0.9-4.5c0.4-0.4,0.7-1,0.9-1.4c-0.4-0.2-0.8-0.2-1,0v-4.5
		c0-2.1-0.6-2.6-1.1-2.7l-0.7-0.1v-0.6H62.9z M55.9,178.2c0.2-1,0.5-1.5,0.9-1.9c-0.4-0.7-0.7-1.7-0.9-3.7c-0.2,2.1-0.5,3.1-0.9,3.7
		C55.3,176.7,55.6,177.2,55.9,178.2L55.9,178.2z M59.9,183.7c0,0.4,0.1,0.9,0.4,0.9c0.3,0,0.9-0.7,0.9-2.3v-0.4h-1.2V183.7z"/>
	<path class="st1" d="M79.3,190.1c-0.2-0.3-0.5-0.6-0.9-0.6c-0.3,0-0.7,0.1-1.2,0.3c-0.7,0.3-1.6,0.4-2.3,0.4
		c-4.4,0-8.2-4.1-8.2-9.7v-4.6c0-3.9,2.8-6.7,6.1-6.7c1,0,1.7,0.2,2.4,0.4c0.4,0.2,0.9,0.5,1.1,0.5c0.2,0,0.2-0.4,0.2-0.8H79
		l2.3,2.6v7.8l1.4,1.5v3.1h-1c-0.5,0-0.8,0.3-0.8,0.9v4.8H79.3z M78.4,182.9c0-0.8,0.2-1.4,0.8-1.4h0.9v-2.1h-5.7v2.1h0.4
		c0.6,0,1,0.4,1,1.5c0,2.3-1.3,2.7-2.5,2.7c-1.8,0-2.5-2.2-2.5-3.8v-7.4c0-1.5,0.3-3.1,2-3.1c2.2,0,3,3.8,3,6.5h2.8v-8.2h-1.9
		c0,0.4-0.1,0.9-0.4,0.9c-0.4,0-0.9-0.3-1.3-0.5c-0.7-0.3-1.4-0.5-2.2-0.5c-3.6,0-5.7,3.1-5.7,6.2v4.6c0,3.4,1.7,6.9,5.8,6.9
		c0.9,0,1.7-0.1,2.2-0.3s0.8-0.4,1.1-0.4s0.5,0.2,0.6,0.5h1.5V182.9z M67.7,176.3c0-3.3,2-6.1,5.3-6.1c0.8,0,1.5,0.2,2,0.5
		c0.6,0.3,1.1,0.5,1.7,0.5c0.4,0,0.8-0.5,0.8-0.9h0.9v7.2h-1.9c-0.2-3.5-1.3-6.6-3.5-6.6c-2.1,0-2.5,1.8-2.5,3.6v3.7
		c-0.4-0.2-0.9-0.2-1.3,0c0.1,0.4,0.5,0.9,0.8,1.4c-0.2,1.1-0.4,2.7-0.5,4.5c-0.5-1.8-0.9-3.3-1.3-4.5c0.4-0.4,0.7-1,0.9-1.4
		c-0.5-0.2-1-0.2-1.4,0V176.3z M69.1,178.2c0.1-1,0.5-1.5,0.8-1.9c-0.5-1.1-0.5-2.2-0.2-3.7c-0.8,1.3-1.2,2.7-1.5,3.7
		C68.6,176.7,68.9,177.2,69.1,178.2L69.1,178.2z M75.5,178.2c-0.2-3.8-0.7-4.6-1.3-4.6c-0.7,0-0.7,0.8-0.7,2v7.7
		c0,0.7,0.4,1.4,1.1,1.4c0.7,0,1-0.7,1-1.8c0-0.7-0.5-1-1-1H74v-3h2.1L75.5,178.2z"/>
	<path class="st1" d="M84.3,173.8c0-1.3-0.4-1.7-0.9-1.7l-0.9-0.2v-2.5h7.7l2,2.7v2.2l-0.9,0.1c-0.5,0.1-0.9,0.6-0.9,2.1v9.1
		l1.8,2.3v2.1h-7.9l-1.8-2.3v-2.5l1.1-0.2c0.5-0.1,0.7-0.9,0.7-1.9V173.8z M84.8,183.3c0,1.3-0.2,2.1-0.9,2.2l-0.9,0.1v1.6h6.7v-1.6
		l-0.9-0.1c-0.7-0.1-0.9-0.9-0.9-2.2v-9.6c0-1.3,0.3-2.1,0.9-2.2l0.9-0.1v-1.6H83v1.6l0.9,0.1c0.6,0.1,0.9,0.9,0.9,2.2V183.3z
		 M87.4,178.2c-0.3-0.2-0.7-0.2-1,0c0.2,0.4,0.5,0.9,0.9,1.4c-0.4,0.9-0.7,2.2-0.9,4.5c-0.2-2.4-0.5-3.6-0.9-4.5
		c0.4-0.4,0.7-1,0.9-1.4c-0.4-0.2-0.7-0.2-1,0v-4.5c0-2.1-0.6-2.6-1.1-2.7l-0.7-0.1v-0.6h5.7v0.6l-0.7,0.1c-0.5,0.1-1.1,0.6-1.1,2.7
		V178.2z M86.4,178.2c0.2-1,0.5-1.5,0.9-1.9c-0.4-0.7-0.7-1.7-0.9-3.7c-0.2,2.1-0.5,3.1-0.9,3.7C85.8,176.7,86.1,177.2,86.4,178.2
		L86.4,178.2z"/>
	<path class="st1" d="M93.9,173.8c0-1.3-0.4-1.7-0.9-1.7l-0.9-0.2v-2.5h8.5c4.8,0,7.5,4.1,7.5,7.5c0,1.8-0.9,3.1-1.7,3.7
		c1.1,1.3,1.8,2.8,1.8,4.8c0,2.8-1.9,4.7-4.6,4.7h-9.8l-1.8-2.3v-2.5l1.1-0.2c0.5-0.1,0.7-0.9,0.7-1.9V173.8z M94.3,183.3
		c0,1.3-0.2,2.1-0.9,2.2l-0.9,0.1v1.6h8.5c2.8,0,4.6-1.8,4.6-5.2c0-1.5-0.5-2.8-1.7-3.8v0c0.6-0.4,1.6-1.7,1.6-3.8
		c0-2.8-1.8-4.6-5.2-4.6h-7.8v1.6l0.9,0.1c0.6,0.1,0.9,0.9,0.9,2.2V183.3z M100.3,170.3c2.7,0,4.8,1.2,4.8,4.1c0,2-1.2,3.2-1.8,3.8
		c-0.3-0.2-0.7-0.2-1.2,0c0.7,0.2,1.4,0.6,1.9,1.1c0.4,1,0.4,3.1-0.4,4.8c0.4-2.3-0.4-3.8-1.2-4.5c0.1-0.5-0.1-1-0.3-1.4
		c-0.4-0.2-0.9-0.2-1.4,0c-0.5-0.2-1-0.2-1.5,0c-0.5-0.2-1.1-0.2-1.6,0c-0.5-0.2-1-0.2-1.5,0c0.1,0.4,0.5,0.9,0.8,1.4
		c-0.4,0.9-0.7,2.2-0.9,4.5c-0.2-2.4-0.5-3.6-0.9-4.5c0.4-0.4,0.7-1,0.8-1.4c-0.3-0.2-0.7-0.2-1,0v-4.5c0-2.1-0.6-2.6-1.1-2.7
		l-0.7-0.1v-0.6H100.3z M95.9,178.2c0.1-1,0.5-1.5,0.9-1.9c-0.4-0.7-0.7-1.7-0.9-3.7c-0.2,2.1-0.5,3.1-0.9,3.7
		c0.4,0.4,0.7,1,0.8,1.9H95.9z M97,177.6h2.8c2.2,0,3-1.2,3-2.9c0-1.8-1-3.4-2.5-3.4h-1.9c-0.9,0-1.4,1-1.4,2.6V177.6z M97.4,173.9
		c0-1.4,0.4-2.1,0.9-2.1h2c0.9,0,1.9,1.2,1.9,2.9c0,1.5-0.8,2.4-2.3,2.4h-2.5V173.9z M98.4,185.3c-0.6,0-0.9-0.7-0.9-2V179h2.4
		c1.5,0,2.4,1.2,2.4,3c0,1.5-0.8,3.3-2.3,3.3H98.4z M100.5,174.6c-0.3,0-0.6,0.5-0.6,1v1h0.5c0.5,0,1.1-0.4,1.1-1
		c0-0.5-0.1-0.9-0.3-0.9H100.5z M100,183.7c0,0.6,0.2,1.1,0.4,1.1c0.5,0,1.2-1,1.2-1.9c0-0.5-0.2-0.9-0.7-0.9l-0.9,0V183.7z
		 M102.1,178.2c1-0.6,1.9-1.3,2.2-1.9c0-1.2-0.2-2.6-0.8-3.7c0.2,1.9,0.1,3-0.5,3.5C102.9,177,102.5,177.6,102.1,178.2L102.1,178.2z
		"/>
	<path class="st1" d="M116.6,183.4c0,0.7,0.6,0.9,1,0.9c0.5,0,1-0.7,1-1.7v-1.5h2.7l2.1,2.8v6.2h-12.9l-1.8-2.3v-2.5l1.1-0.2
		c0.5-0.1,0.7-0.9,0.7-1.9v-9.4c0-1.3-0.4-1.7-0.9-1.7l-0.9-0.2v-2.5h7.7l2,2.7v2.2l-0.9,0.1c-0.5,0.1-0.9,0.6-0.9,2.1V183.4z
		 M110.9,183.3c0,1.3-0.2,2.1-0.9,2.2l-0.9,0.1v1.6h11.7v-5.7h-1.7v1.5c0,1.3-0.7,2-2.6,2c-2,0-2.4-0.9-2.4-2.5v-8.8
		c0-1.3,0.3-2.1,0.9-2.2l0.9-0.1v-1.6h-6.7v1.6l0.9,0.1c0.6,0.1,0.9,0.9,0.9,2.2V183.3z M111.4,173.8c0-2.1-0.6-2.6-1.1-2.7
		l-0.7-0.1v-0.6h5.7v0.6l-0.7,0.1c-0.5,0.1-1.1,0.6-1.1,2.7v4.5c-0.3-0.2-0.7-0.2-1,0c0.2,0.4,0.5,0.9,0.9,1.4
		c-0.4,0.9-0.7,2.2-0.9,4.5c-0.2-2.4-0.5-3.6-0.9-4.5c0.4-0.4,0.7-1,0.9-1.4c-0.4-0.2-0.7-0.2-1,0V173.8z M112.5,178.2
		c0.2-1,0.5-1.5,0.9-1.9c-0.4-0.7-0.7-1.7-0.9-3.7c-0.2,2.1-0.5,3.1-0.9,3.7C112,176.7,112.3,177.2,112.5,178.2L112.5,178.2z"/>
	<path class="st1" d="M124.6,172l-0.9-0.2v-2.5h11.8l2.2,2.8v6.5h-2.9l-1.9-2.4v-1c0-0.6-0.1-0.9-0.6-0.9c-0.5,0-0.7,0.4-0.7,1
		l0,0.7l2.4,3.2v1.2h1.4l2.2,2.9v6.7h-12.1l-1.8-2.3v-2.5l1.1-0.2c0.5-0.1,0.7-0.9,0.7-1.9v-9.4C125.5,172.5,125.1,172.1,124.6,172z
		 M131.8,179v-2h-2.7v-3.6c0-1.3,0.4-1.9,1.8-1.9c1.3,0,2.4,1.1,2.4,3.2v1.2h1.7v-6h-10.9v1.6l0.9,0.1c0.6,0.1,0.9,0.9,0.9,2.2v9.6
		c0,1.3-0.2,2.1-0.9,2.2l-0.9,0.1v1.6H135V181h-1.7v1.4c0,1.7-0.5,3.1-2.4,3.1c-1.4,0-1.8-0.8-1.8-1.9V179H131.8z M134.6,170.3v5.1
		h-0.8v-0.7c0-2.9-1.7-3.6-2.9-3.6c-1.9,0-2.3,1.2-2.3,2.4v4.1h2.8v0.7c-0.6-0.2-1.4-0.2-1.9,0c-0.6-0.2-1.2-0.2-1.9,0
		c0.2,0.4,0.5,0.9,0.9,1.4c-0.4,0.9-0.7,2.2-0.9,4.5c-0.2-2.4-0.5-3.6-0.9-4.5c0.4-0.4,0.7-1,0.9-1.4c-0.4-0.2-0.8-0.2-1,0v-4.5
		c0-2.1-0.6-2.6-1.1-2.7l-0.7-0.1v-0.6H134.6z M127.6,178.2c0.2-1,0.5-1.5,0.9-1.9c-0.4-0.7-0.7-1.7-0.9-3.7
		c-0.2,2.1-0.5,3.1-0.9,3.7C127,176.7,127.3,177.2,127.6,178.2L127.6,178.2z M131.6,183.7c0,0.4,0.1,0.9,0.4,0.9
		c0.3,0,0.9-0.7,0.9-2.3v-0.4h-1.2V183.7z"/>
	<path class="st1" d="M145,173.8c0-1.3-0.4-1.7-0.9-1.7l-0.9-0.2v-2.5h7.7l2,2.7v2.2l-0.9,0.1c-0.5,0.1-0.9,0.6-0.9,2.1v9.1l1.8,2.3
		v2.1h-7.9l-1.8-2.3v-2.5l1.1-0.2c0.5-0.1,0.7-0.9,0.7-1.9V173.8z M145.4,183.3c0,1.3-0.2,2.1-0.9,2.2l-0.9,0.1v1.6h6.7v-1.6
		l-0.9-0.1c-0.7-0.1-0.9-0.9-0.9-2.2v-9.6c0-1.3,0.3-2.1,0.9-2.2l0.9-0.1v-1.6h-6.7v1.6l0.9,0.1c0.6,0.1,0.9,0.9,0.9,2.2V183.3z
		 M148.1,178.2c-0.3-0.2-0.7-0.2-1,0c0.2,0.4,0.5,0.9,0.9,1.4c-0.4,0.9-0.7,2.2-0.9,4.5c-0.2-2.4-0.5-3.6-0.9-4.5
		c0.4-0.4,0.7-1,0.9-1.4c-0.4-0.2-0.7-0.2-1,0v-4.5c0-2.1-0.6-2.6-1.1-2.7l-0.7-0.1v-0.6h5.7v0.6l-0.7,0.1c-0.5,0.1-1.1,0.6-1.1,2.7
		V178.2z M147,178.2c0.2-1,0.5-1.5,0.9-1.9c-0.4-0.7-0.7-1.7-0.9-3.7c-0.2,2.1-0.5,3.1-0.9,3.7C146.5,176.7,146.8,177.2,147,178.2
		L147,178.2z"/>
	<path class="st1" d="M153.2,174.5c0-3.4,2.6-5.3,5.6-5.3c0.8,0,1.6,0.1,2.1,0.2c0.6,0.1,0.9,0.3,1.2,0.3c0.3,0,0.5-0.2,0.6-0.4h2
		l2,2.8v5.8H165l-2.5-2.3c-0.2-1.2-0.7-2.4-1.8-2.4c-1,0-1.5,0.6-1.5,1.4c0,0.7,0.2,1.2,2.1,1.8c3.9,1.4,6.2,3.9,6.2,8.1
		c0,3.5-2.7,5.8-5.4,5.8c-1.2,0-2.3-0.3-2.8-0.7c-0.4-0.3-0.9-0.6-1.3-0.6c-0.4,0-0.6,0.7-0.8,1.1h-2.4l-1.9-2.4v-6.8h2.4
		c0.5,1,1.2,2.2,1.7,2.7c0.5,0.7,1.4,1.3,2.4,1.3c0.6,0,1.4-0.3,1.4-1.1c0-1-2.3-1.5-3.4-2.1C155.5,180.6,153.2,178.3,153.2,174.5z
		 M156.7,173.6c0-1.1,0.7-2.3,2.3-2.3c1.2,0,2.5,0.9,3,1.5c0.4,0.5,0.7,1.3,0.9,2.1h1.4v-5.2H163c-0.2,0.2-0.4,0.4-0.7,0.4
		c-0.4,0-0.8-0.1-1.3-0.3c-0.5-0.2-1.4-0.3-2.3-0.3c-2.7,0-5,1.8-5,4.8c0,2.8,1,4.3,3.5,5.4l2.2,0.9c0.9,0.4,2.4,1.1,2.4,2.6
		c0,1.1-0.9,2.1-2,2.1c-1.9,0-3.3-0.9-4-2c-0.4-0.7-0.7-1.3-0.9-2h-1.4v5.9h1.4c0.2-0.5,0.6-1.1,1-1.1s0.9,0.2,1.6,0.6
		c0.6,0.3,1.5,0.7,2.6,0.7c2.8,0,5-2.1,5-5.2c0-3.3-1.6-4.8-5.2-5.9C157.7,175.7,156.7,175.2,156.7,173.6z M162.8,178.2
		c-0.9-0.2-1.4-0.2-1.9,0c-0.6-0.2-1.2-0.2-1.9,0c1.6,0.3,2.8,0.6,3.6,0.9c0.9,1.4,1.1,2.9,0.4,5c-0.1-2.1-1-3.7-2-3.9
		c-0.2-0.6-0.6-1.3-2.1-2c-0.6-0.2-1.2-0.2-1.7,0c-0.6-0.2-1-0.2-1.4,0c-1.2-1-1.6-2.2-1.6-3.8c0-2.6,2.1-4.3,4.4-4.3
		c0.7,0,1.3,0.1,1.9,0.2c0.6,0.2,1.3,0.4,1.8,0.4c0.4,0,0.7-0.2,0.9-0.4h0.7v4.3h-0.5c-0.4-1.9-2.2-3.7-4.3-3.7
		c-2,0-2.7,1.4-2.7,2.7c0,1.5,0.6,2.3,2.3,2.9C160.3,177.1,161.9,177.5,162.8,178.2z M159,178.2c-1.8-0.9-2.5-1.7-2.5-2.8
		c-0.7-0.5-1.1-1.3-1-2.9c-0.4,1.1-0.7,2.3-0.7,3.3c0.7,1,1.9,1.7,4.1,2.3H159z"/>
	<path class="st1" d="M183.3,190.1l-1.9-2.5l-1.8-5.1v3.1l1.5,2v2.5h-6.3l-1.8-2.3v-2.5l1.1-0.2c0.5-0.1,0.7-0.9,0.7-1.9v-9.4
		c0-1.3-0.4-1.7-0.9-1.7l-0.9-0.2v-2.5h7.1l1,1.4v-1.4h6.3l2,2.7v2.2l-0.9,0.1c-0.5,0.1-0.9,0.6-0.9,2.1v13.6H183.3z M177,173.8
		L177,173.8l4.9,13.5h3.2v-13.5c0-1.3,0.3-2.1,0.9-2.2l0.9-0.1v-1.6h-5.3v1.6l0.9,0.1c0.6,0.1,0.9,0.9,0.9,2.2v6h0l-3.6-9.9h-6.2
		v1.6l0.9,0.1c0.6,0.1,0.9,0.9,0.9,2.2v9.6c0,1.3-0.2,2.1-0.9,2.2l-0.9,0.1v1.6h5.1v-1.6l-0.6-0.1c-0.7-0.2-0.9-0.9-0.9-2.2V173.8z
		 M179.2,170.3l2.9,7.9c-0.5-0.2-1-0.2-1.4,0c0.3,0.4,0.7,0.8,1.3,1.4c0.1,1,0.2,2.2,0.7,4.5c-1.1-2.3-1.8-3.6-2.4-4.5
		c0.2-0.5,0.4-1,0.4-1.4c-0.6-0.2-1-0.2-1.4,0l-1.7-4.6c-0.2-0.5-0.3-0.8-0.7-0.8c-0.3,0-0.4,0.4-0.4,0.8v4.5
		c-0.2-0.2-0.6-0.2-0.8,0v-4.5c0-2.1-0.6-2.6-1.1-2.7l-0.7-0.1v-0.6H179.2z M180.7,178.2c0-1,0-1.5,0-2.1c-0.7-0.9-1.4-2-2.4-3.8
		c0.5,1.9,0.7,3,0.6,4C179.6,176.7,180,177.2,180.7,178.2L180.7,178.2z M186.4,170.3v0.6l-0.7,0.1c-0.5,0.1-1.1,0.6-1.1,2.7v4.5
		c-0.2-0.2-0.6-0.2-0.8,0v-4.5c0-2.1-0.6-2.6-1.1-2.7l-0.7-0.1v-0.6H186.4z"/>
</g>
<g class="st0">
	<path class="st1" d="M204.3,182.3c0,5.3-2.9,7.9-6.7,7.9c-4,0-7.7-2.9-7.7-9v-5.3c0-4.1,3-6.8,6.2-6.8c5.3,0,8.2,4.7,8.2,8V182.3z
		 M201.8,175.9c0-3.5-2.3-6.2-5.7-6.2s-5.7,3-5.7,6.2l0,5.3c0,3.8,2.3,6.2,5.8,6.2c3.5,0,5.8-3,5.7-6.4V175.9z M193.6,178.2
		c-0.2-0.2-0.8-0.2-1.3,0c0.1,0.4,0.5,0.9,0.9,1.4c-0.4,0.9-0.9,2.7-0.5,4.5c-0.7-2-1.1-3.6-1.3-4.5c0.4-0.4,0.7-1,0.9-1.4
		c-0.5-0.2-1.1-0.2-1.4,0v-2.3c0-2.8,1.9-5.8,5.3-5.8c3.3,0,5.2,3,5.2,5.8v2.3c-0.2-0.2-0.8-0.2-1.4,0c0.2,0.4,0.5,0.9,0.9,1.4
		c-0.2,1-0.4,2.5-1.3,4.5c0.2-2-0.1-3.6-0.5-4.5c0.4-0.4,0.7-1,0.9-1.4c-0.6-0.2-1.1-0.2-1.3,0v-3.7c0-2.7-1.1-3.6-2.5-3.6
		c-1.4,0-2.5,0.9-2.5,3.6V178.2z M192.3,178.2c0.1-1,0.5-1.5,0.9-1.9c-0.5-1.1-0.5-2.2-0.3-3.7c-0.8,1.3-1.2,2.4-1.5,3.7
		C191.7,176.7,192,177.2,192.3,178.2L192.3,178.2z M194.1,174.5c0-1.5,0.3-3.1,2-3.1c1.6,0,2,1.5,2,3.1v7.4c0,1.9-0.3,3.8-2,3.8
		c-1.7,0-2-1.8-2-3.8V174.5z M197.6,175.5c0-1.1-0.1-1.9-0.4-1.9c-0.3,0-0.5,0.6-0.5,2v6.5c0,1.1,0.1,2.3,0.4,2.3
		c0.4,0,0.6-1.2,0.6-2.7V175.5z M200,178.2c0.2-1,0.5-1.5,0.9-1.9c-0.4-1.3-0.7-2.4-1.5-3.7c0.2,1.2,0.2,2.6-0.3,3.7
		C199.4,176.7,199.7,177.2,200,178.2L200,178.2z"/>
</g>
<g class="st0">
	<path class="st1" d="M219.9,172v7.5h-2.7l-1.7-2.3v8.4l1.8,2.3v2.1h-7.9l-1.8-2.3v-2.5l1.1-0.2c0.6-0.1,0.7-0.9,0.7-1.9v-3.6h-1.8
		l-2.6-2.3v-7.9h12.9L219.9,172z M205.5,176.8h1.6v-1.5c0-1.6,0.4-3.4,1.6-3.4c1.1,0,1.2,1.6,1.2,2.7v8.8c0,1.3-0.2,2.1-0.9,2.2
		l-0.9,0.1v1.6h6.7v-1.6l-0.9-0.1c-0.7-0.1-0.9-0.9-0.9-2.2v-8.8c0-1.1,0.1-2.7,1.2-2.7c1.2,0,1.6,1.8,1.6,3.4v1.5h1.6v-6.9h-11.9
		V176.8z M216.9,170.3v6h-0.7v-1c0-1.7-0.4-4-2.1-4c-1.2,0-1.6,1-1.6,2.7v4.3c-0.2-0.2-0.6-0.2-1,0c0.2,0.4,0.5,0.9,0.9,1.4
		c-0.4,0.9-0.7,2.2-0.9,4.5c-0.2-2.4-0.5-3.6-0.9-4.5c0.4-0.4,0.7-1,0.9-1.4c-0.4-0.2-0.7-0.2-1.1,0V174c0-1.7-0.4-2.7-1.6-2.7
		c-1.7,0-2.1,2.3-2.1,4v1H206v-6H216.9z M211.5,178.2c0.2-1,0.5-1.5,0.8-1.9c-0.4-0.7-0.7-1.7-0.9-3.7c-0.2,2.1-0.5,3.1-0.9,3.7
		C210.9,176.7,211.2,177.2,211.5,178.2L211.5,178.2z"/>
</g>
<g class="st0">
	<path class="st1" d="M239.4,172v7.5h-2.7l-1.7-2.3v8.4l1.8,2.3v2.1h-7.9l-1.8-2.3v-2.5l1.1-0.2c0.6-0.1,0.7-0.9,0.7-1.9v-3.6h-1.8
		l-2.6-2.3v-7.9h12.9L239.4,172z M225,176.8h1.6v-1.5c0-1.6,0.4-3.4,1.6-3.4c1.1,0,1.2,1.6,1.2,2.7v8.8c0,1.3-0.2,2.1-0.9,2.2
		l-0.9,0.1v1.6h6.7v-1.6l-0.9-0.1c-0.7-0.1-0.9-0.9-0.9-2.2v-8.8c0-1.1,0.1-2.7,1.2-2.7c1.2,0,1.6,1.8,1.6,3.4v1.5h1.6v-6.9H225
		V176.8z M236.4,170.3v6h-0.7v-1c0-1.7-0.4-4-2.1-4c-1.2,0-1.6,1-1.6,2.7v4.3c-0.2-0.2-0.6-0.2-1,0c0.2,0.4,0.5,0.9,0.9,1.4
		c-0.4,0.9-0.7,2.2-0.9,4.5c-0.2-2.4-0.5-3.6-0.9-4.5c0.4-0.4,0.7-1,0.9-1.4c-0.4-0.2-0.7-0.2-1.1,0V174c0-1.7-0.4-2.7-1.6-2.7
		c-1.7,0-2.1,2.3-2.1,4v1h-0.7v-6H236.4z M231,178.2c0.2-1,0.5-1.5,0.8-1.9c-0.4-0.7-0.7-1.7-0.9-3.7c-0.2,2.1-0.5,3.1-0.9,3.7
		C230.4,176.7,230.7,177.2,231,178.2L231,178.2z"/>
</g>
<g class="st0">
	<path class="st1" d="M241.4,173.8c0-1.3-0.4-1.7-0.9-1.7l-0.9-0.2v-2.5h8.5c5,0,7.5,4.5,7.5,7.7c0,1.8-0.9,3.1-2,3.8h1.9l2.1,2.7
		v1.6c0,3.6-1.2,4.9-3.5,4.9c-1.5,0-3.2-1-4.2-3.2c-0.8-1.7-0.9-4.2-1.1-4.8h-1.3v3.2l1.9,2.3v2.4h-8l-1.8-2.3v-2.5l1.1-0.2
		c0.5-0.1,0.7-0.9,0.7-1.9V173.8z M247.5,179.7c1.3,0,1.7,1.7,1.9,3.3c0.4,3.4,1.2,4.4,3.2,4.4c1.6,0,2.7-1,2.7-4.8v-1.3h-1.6v1.3
		c0,0.6-0.1,1.5-0.5,1.5c-0.4,0-0.6-0.7-0.7-2.3c-0.1-1.5-0.5-2.6-1.4-3.3v-0.1c1.1-0.6,2-1.8,2-4c0-2.8-1.7-4.6-5.2-4.6h-7.8v1.6
		l0.9,0.1c0.6,0.1,0.9,0.9,0.9,2.2v9.6c0,1.3-0.2,2.1-0.9,2.2l-0.9,0.1v1.6h6.8v-1.6l-0.6-0.1c-1-0.1-1.3-1-1.3-2.3v-3.7H247.5z
		 M247.8,170.3c2.9,0,4.8,1,4.8,4.1c0,2-0.8,3.2-2,3.8c-0.2-0.2-0.6-0.2-1.1,0c0.6,0.4,1,0.8,1.4,1.4c0.3,0.9,0.5,2.2,0.4,4.5
		c-0.4-2.4-1.3-3.7-2.2-4.5c0.2-0.4,0.4-0.9,0.3-1.4c-0.4-0.2-0.8-0.2-1.3,0c-0.5-0.2-1-0.2-1.5,0c-0.5-0.2-1.1-0.2-1.6,0
		c-0.5-0.2-1-0.2-1.5,0c0.1,0.4,0.5,0.9,0.9,1.4c-0.4,0.9-0.7,2.2-0.9,4.5c-0.2-2.4-0.5-3.6-0.9-4.5c0.4-0.4,0.7-1,0.8-1.4
		c-0.4-0.2-0.7-0.2-1,0v-4.5c0-2.1-0.6-2.6-1.1-2.7l-0.7-0.1v-0.6H247.8z M243.4,178.2c0.1-1,0.5-1.5,0.9-1.9
		c-0.4-0.7-0.7-1.7-0.9-3.7c-0.1,2.1-0.4,3.1-0.9,3.7c0.4,0.4,0.7,1,0.8,1.9H243.4z M245.9,171.8c-1.1,0-1.5,0.7-1.5,2.1v3.6h3.4
		c1,0,2.4-0.9,2.4-2.8c0-1.9-1-2.9-2.5-2.9H245.9z M247.9,172.2c0.9,0,1.9,0.7,1.9,2.5c0,1.5-1,2.4-1.9,2.4h-2.9v-3.2
		c0-1.3,0.4-1.7,0.9-1.7H247.9z M248,175.1c-0.3,0-0.5,0.3-0.5,0.9v0.7h0.5c0.5,0,1.1-0.5,1.1-1.1c0-0.3-0.2-0.5-0.4-0.5H248z
		 M249.5,178.2c0.9-0.6,1.7-1.1,2.5-1.9c0-0.8-0.2-2.1-1-3.7c0.6,1.9,0,3.1-0.5,3.6c-0.1,0.7-0.6,1.5-1.1,2H249.5z"/>
</g>
<g class="st0">
	<path class="st1" d="M264.4,169.9v-0.6h6.3l2.1,2.7v2.2l-0.9,0.1c-0.5,0.1-0.9,0.6-0.9,2.1v7.9c0,4.1-2.5,5.9-5.7,5.9
		c-3.8,0-7.2-2.8-7.2-10v-6.6c0-1.3-0.4-1.7-0.9-1.7l-0.9-0.2v-2.5h7.7L264.4,169.9z M256.7,171.4l0.9,0.1c0.6,0.1,0.9,0.9,0.9,2.2
		v6.6c0,4.8,1.1,7.1,5.5,7.1c2.8,0,4.4-1.4,4.4-6.6v-7c0-1.1,0.2-2.1,0.9-2.2l0.9-0.1v-1.6h-5.3v1.6l0.9,0.1
		c0.8,0.1,0.9,1.2,0.9,2.2v7.5c0,3.5-1,4.4-2.5,4.4c-2.2,0-2.6-1.7-2.6-6v-5.9c0-1.3,0.3-2.1,0.9-2.2l0.9-0.1v-1.6h-6.7V171.4z
		 M262.9,170.3v0.6l-0.7,0.1c-0.5,0.1-1.1,0.6-1.1,2.7v4.5c-0.1-0.2-0.6-0.2-1,0c0.2,0.4,0.5,0.9,0.9,1.4c-0.4,0.9-0.7,2.2-0.6,4.5
		c-0.6-2.3-1-3.6-1.3-4.5c0.4-0.4,0.7-1,0.9-1.4c-0.4-0.2-0.9-0.2-1,0v-4.5c0-2.1-0.6-2.6-1.1-2.7l-0.7-0.1v-0.6H262.9z
		 M260.1,178.2c0.2-1,0.5-1.5,0.9-1.9c-0.4-0.7-0.7-1.7-0.9-3.7c-0.2,2.1-0.5,3.1-0.9,3.7C259.5,176.7,259.9,177.2,260.1,178.2
		L260.1,178.2z M264.1,181.3c0,2.9,0.5,3.2,1.2,3.2c0.4,0,0.9-1.1,0.9-3.3v-7.1l-1,0c-0.7,0.1-1,0.8-1,2.2V181.3z M269.7,170.3v0.6
		l-0.4,0.1c-1.2,0.2-1.4,1.2-1.4,2.7v4.5c-0.2-0.2-0.5-0.2-0.8,0v-4.5c0-1.5-0.2-2.5-1.4-2.7l-0.4-0.1v-0.6H269.7z"/>
</g>
<g class="st0">
	<path class="st1" d="M280.4,183.4c0,0.7,0.6,0.9,1,0.9c0.5,0,1-0.7,1-1.7v-1.5h2.7l2.1,2.8v6.2h-12.9l-1.8-2.3v-2.5l1.1-0.2
		c0.5-0.1,0.7-0.9,0.7-1.9v-9.4c0-1.3-0.4-1.7-0.9-1.7l-0.9-0.2v-2.5h7.7l2,2.7v2.2l-0.9,0.1c-0.5,0.1-0.9,0.6-0.9,2.1V183.4z
		 M274.7,183.3c0,1.3-0.2,2.1-0.9,2.2l-0.9,0.1v1.6h11.7v-5.7h-1.7v1.5c0,1.3-0.7,2-2.6,2c-2,0-2.4-0.9-2.4-2.5v-8.8
		c0-1.3,0.3-2.1,0.9-2.2l0.9-0.1v-1.6H273v1.6l0.9,0.1c0.6,0.1,0.9,0.9,0.9,2.2V183.3z M275.2,173.8c0-2.1-0.6-2.6-1.1-2.7l-0.7-0.1
		v-0.6h5.7v0.6l-0.7,0.1c-0.5,0.1-1.1,0.6-1.1,2.7v4.5c-0.3-0.2-0.7-0.2-1,0c0.2,0.4,0.5,0.9,0.9,1.4c-0.4,0.9-0.7,2.2-0.9,4.5
		c-0.2-2.4-0.5-3.6-0.9-4.5c0.4-0.4,0.7-1,0.9-1.4c-0.4-0.2-0.7-0.2-1,0V173.8z M276.3,178.2c0.2-1,0.5-1.5,0.9-1.9
		c-0.4-0.7-0.7-1.7-0.9-3.7c-0.2,2.1-0.5,3.1-0.9,3.7C275.8,176.7,276.1,177.2,276.3,178.2L276.3,178.2z"/>
</g>
<g class="st0">
	<path class="st1" d="M286.5,173.4c-0.4-0.9-0.8-1.3-1.3-1.4l-0.9-0.1v-2.5h14l2.2,2.7v2l-0.9,0.1c-0.6,0.1-1.4,0.3-2,1.3l-1.8,3.2
		v6.8l1.8,2.3v2.1h-7.9l-1.7-2.3v-2.5l1.1-0.2c0.6-0.1,0.7-0.9,0.7-1.9v-3.9L286.5,173.4z M284.8,171.4l0.7,0.1
		c0.6,0.1,0.9,0.8,1.4,1.9l3.1,5.9v4c0,1.3-0.2,2.1-0.9,2.2l-0.9,0.1v1.6h6.7v-1.6l-0.9-0.1c-0.7-0.1-0.9-0.9-0.9-2.2v-5.2l3.1-5.6
		c0.3-0.5,0.5-1,0.9-1l0.9-0.1v-1.6h-5.5v1.6l0.9,0.1c0.5,0.1,0.6,0.6,0.2,1.3l-1.7,3.1l-1.8-3.2c-0.4-0.6-0.2-1.1,0.4-1.2l0.9-0.1
		v-1.6h-6.7V171.4z M290.9,170.3v0.6l-0.7,0.1c-0.7,0.1-1.1,0.8-0.6,1.8l2,3.6c0.1,0.2,0.4,0.2,0.5,0l2-3.6c0.5-0.9,0.2-1.6-0.6-1.7
		L293,171v-0.7h4.6v0.6L297,171c-0.5,0.1-0.8,0.6-1.2,1.3l-3.3,5.9c-0.3-0.2-0.6-0.2-0.9,0c0.2,0.4,0.4,0.9,0.9,1.4
		c-0.4,1.5-0.7,3.1-0.9,4.6c-0.2-1.5-0.5-3.1-0.9-4.6c0.5-0.6,0.7-0.9,0.7-1.4c-0.4-0.3-1-0.2-1.3,0l-2.6-4.9
		c-0.6-1.2-1.1-2.2-1.8-2.3l-0.4-0.1v-0.6H290.9z M291.5,178.2c-0.3-0.7-0.4-1.5-0.4-2.1c-0.9-0.9-2-2.3-2.8-3.6
		c0.5,1.3,1.1,3,1.2,3.9c0.8,0.6,1.3,1.1,1.9,1.8H291.5z"/>
</g>
<g class="st0">
	<path class="st1" d="M45.8,202.5l3.1,3.2l3,11.4c0.2,0.9,0.9,2.2,1.8,2.7v3.4h-7.2l-0.7-1v1h-7l-1.9-2.5v-2.3l0.7-0.2
		c0.7-0.2,1.2-1.1,1.8-3.5l3.3-12.2H45.8z M45.4,214.8l0.2,0.8c0.4,2.1,0.1,2.8-0.6,3l-0.7,0.2v1.6h6.8v-1.6l-0.8-0.3
		c-0.5-0.2-0.9-1-1.4-2.9L45.6,203H43l-3.2,11.8c-0.8,2.8-1.2,3.7-1.9,3.9l-0.6,0.2v1.6h5.9v-1.6l-0.7-0.2c-0.6-0.2-1-1.4-0.6-3
		l0.2-0.8H45.4z M43.4,203.5h1.7l2.1,7.9c-0.3-0.2-0.7-0.2-1,0c0.2,0.4,0.6,0.9,1.1,1.4c-0.1,1.1-0.2,2.3,0.1,4.5
		c-0.7-2.2-1.2-3.3-1.9-4.5c0.3-0.4,0.6-1,0.6-1.4c-0.4-0.2-0.8-0.2-1,0l-1.2-5.5h-0.1l-1.5,5.5c-0.3-0.2-0.7-0.2-1.1,0L43.4,203.5z
		 M42.7,212.3l1.2-4.2H44l0.9,4.2H42.7z M46.2,211.4c0-1,0.1-1.5,0.3-1.9c-0.5-0.7-0.9-1.7-1.7-3.7c0.2,2.1,0.2,3.1,0.1,3.7
		C45.4,209.9,45.8,210.4,46.2,211.4L46.2,211.4z"/>
</g>
<g class="st0">
	<path class="st1" d="M73.7,205.6v7.3h-2.6l-1.7-2.3v8.1l1.7,2.3v2h-7.7l-1.7-2.3v-2.5l1-0.2c0.5-0.1,0.7-0.9,0.7-1.8V213h-1.8
		l-2.5-2.3V203h12.5L73.7,205.6z M59.6,210.2h1.6v-1.5c0-1.6,0.4-3.3,1.6-3.3c1,0,1.1,1.6,1.1,2.6v8.6c0,1.2-0.2,2-0.9,2.2l-0.9,0.1
		v1.5h6.5v-1.5l-0.8-0.1c-0.7-0.1-0.9-0.9-0.9-2.2V208c0-1,0.1-2.6,1.1-2.6c1.2,0,1.6,1.7,1.6,3.3v1.5h1.6v-6.7H59.6V210.2z
		 M70.7,204v5.8h-0.7v-0.9c0-1.7-0.3-3.9-2-3.9c-1.2,0-1.6,1-1.6,2.6v4.1c-0.2-0.2-0.6-0.2-1,0c0.2,0.3,0.5,0.9,0.8,1.3
		c-0.4,0.9-0.7,2.1-0.9,4.4c-0.2-2.3-0.5-3.5-0.9-4.4c0.4-0.4,0.7-1,0.8-1.3c-0.3-0.2-0.7-0.2-1,0v-4.1c0-1.6-0.4-2.6-1.6-2.6
		c-1.7,0-2,2.2-2,3.9v0.9h-0.7V204H70.7z M65.5,211.6c0.2-0.9,0.5-1.5,0.8-1.9c-0.3-0.6-0.6-1.6-0.9-3.6c-0.2,2-0.5,3-0.9,3.6
		C64.9,210.2,65.2,210.7,65.5,211.6L65.5,211.6z"/>
</g>
<g class="st0">
	<path class="st1" d="M75.4,206.9c-0.4-0.8-0.8-1.3-1.2-1.3l-0.9-0.1V203h13.6l2.1,2.6v2l-0.9,0.1c-0.6,0.1-1.4,0.3-1.9,1.3
		l-1.8,3.1v6.6l1.7,2.3v2h-7.7l-1.7-2.3v-2.5l1-0.2c0.5-0.1,0.7-0.9,0.7-1.8v-3.8L75.4,206.9z M73.7,205l0.7,0.1
		c0.6,0.1,0.9,0.8,1.4,1.8l3,5.8v3.9c0,1.2-0.2,2-0.9,2.2l-0.9,0.1v1.5h6.5v-1.5l-0.9-0.1c-0.7-0.1-0.9-0.9-0.9-2.2v-5.1l3-5.4
		c0.3-0.5,0.5-0.9,0.9-1l0.9-0.1v-1.5h-5.4v1.5l0.8,0.1c0.5,0.1,0.6,0.6,0.2,1.3l-1.7,3l-1.7-3.1c-0.3-0.6-0.2-1.1,0.4-1.2l0.8-0.1
		v-1.5h-6.5V205z M79.7,204v0.6l-0.7,0.1c-0.6,0.1-1,0.8-0.5,1.7l2,3.5c0.1,0.2,0.4,0.2,0.5,0l2-3.5c0.5-0.9,0.2-1.6-0.6-1.7
		l-0.6-0.1V204h4.5v0.6l-0.6,0.1c-0.5,0.1-0.8,0.6-1.2,1.3l-3.2,5.8c-0.3-0.2-0.6-0.2-0.9,0c0.2,0.4,0.4,0.8,0.9,1.3
		c-0.4,1.5-0.7,3-0.8,4.5c-0.2-1.5-0.5-3-0.9-4.5c0.5-0.5,0.6-0.9,0.7-1.3c-0.4-0.3-1-0.2-1.3,0l-2.5-4.8c-0.6-1.1-1.1-2.1-1.8-2.2
		l-0.4-0.1V204H79.7z M80.3,211.6c-0.3-0.7-0.4-1.4-0.4-2c-0.9-0.9-1.9-2.3-2.7-3.5c0.5,1.2,1,2.9,1.1,3.8c0.8,0.6,1.3,1,1.9,1.7
		H80.3z"/>
</g>
<g class="st0">
	<path class="st1" d="M98.4,221.1v2h-7.7l-1.7-2.3v-2.5l1-0.2c0.5-0.1,0.7-0.9,0.7-1.8v-9.2c0-1.2-0.4-1.6-0.9-1.7l-0.9-0.2V203h8.3
		c4.3,0,7.4,4.2,7.4,7.5c0,3.7-2.7,5.5-5.8,5.5l-2.2,0v2.9L98.4,221.1z M96.7,213c3.1,0,5.4-1.4,5.4-4.5c0-3.5-1.8-5-5.1-5h-7.6v1.5
		l0.9,0.1c0.5,0.1,0.9,0.9,0.9,2.2v9.3c0,1.2-0.2,2-0.9,2.2l-0.9,0.1v1.5h6.5v-1.5l-0.9-0.1c-0.7-0.1-0.9-0.9-0.9-2.2V213H96.7z
		 M91.6,207.3c0-2-0.6-2.6-1-2.7l-0.7-0.1V204H97c2.8,0,4.7,1.1,4.7,4.6c0,1.5-0.6,2.5-1.4,3.1c-0.4-0.2-0.6-0.2-1.2,0
		c-0.5-0.2-1-0.2-1.5,0c-0.6-0.2-1.1-0.2-1.6,0c-0.5-0.2-1.1-0.2-1.6,0c-0.5-0.2-1-0.2-1.5,0c0.2,0.3,0.5,0.9,0.9,1.3
		c-0.4,0.9-0.7,2.1-0.9,4.4c-0.2-2.3-0.5-3.5-0.9-4.4c0.4-0.4,0.7-1,0.8-1.3c-0.4-0.2-0.7-0.2-1,0V207.3z M92.7,211.6
		c0.1-0.9,0.5-1.5,0.8-1.9c-0.3-0.6-0.7-1.6-0.9-3.6c-0.2,2-0.5,3-0.8,3.6c0.3,0.4,0.6,0.9,0.8,1.9H92.7z M93.7,210.9H97
		c1.4,0,2.3-1.2,2.3-2.7c0-1.9-1-2.9-2.4-2.9h-1.4c-1.1,0-1.8,0.5-1.8,2.1V210.9z M94.2,207.4c0-1.3,0.5-1.6,1.3-1.6H97
		c0.9,0,1.8,0.7,1.8,2.4c0,1.3-0.9,2.2-1.8,2.2h-2.8V207.4z M97.3,208.6c-0.3,0-0.6,0.3-0.6,0.8v0.7H97c0.6,0,1.2-0.7,1.2-1.1
		c0-0.3-0.2-0.5-0.4-0.5H97.3z M99,211.6c0.7-0.6,1.4-1.3,2-1.9c0-0.9-0.3-2-1-3.6c0.3,1.9,0.1,3.1-0.5,3.6c0.1,0.6,0,1.2-0.6,1.9
		H99z"/>
</g>
<g class="st0">
	<path class="st1" d="M104.7,205.6l-0.9-0.2V203h11.4l2.1,2.7v6.3h-2.8l-1.8-2.4v-0.9c0-0.6-0.1-0.9-0.6-0.9c-0.5,0-0.7,0.4-0.6,0.9
		l0,0.7l2.4,3.1v1.2h1.3l2.1,2.8v6.5h-11.8l-1.7-2.3v-2.5l1-0.2c0.5-0.1,0.7-0.9,0.7-1.8v-9.2C105.6,206.1,105.2,205.7,104.7,205.6z
		 M111.7,212.4v-1.9h-2.7V207c0-1.2,0.4-1.9,1.8-1.9c1.3,0,2.3,1,2.3,3.1v1.1h1.7v-5.9h-10.6v1.5l0.9,0.1c0.5,0.1,0.9,0.9,0.9,2.2
		v9.3c0,1.2-0.2,2-0.9,2.2l-0.9,0.1v1.5h10.6v-6.1h-1.7v1.3c0,1.7-0.5,3-2.3,3c-1.4,0-1.8-0.8-1.8-1.9v-4.4H111.7z M114.4,204v4.9
		h-0.8v-0.7c0-2.8-1.6-3.5-2.8-3.5c-1.8,0-2.3,1.2-2.3,2.3v4h2.7v0.6c-0.6-0.2-1.3-0.2-1.9,0c-0.6-0.2-1.2-0.2-1.8,0
		c0.2,0.3,0.5,0.9,0.9,1.3c-0.4,0.9-0.7,2.1-0.9,4.4c-0.2-2.3-0.5-3.5-0.9-4.4c0.4-0.4,0.7-1,0.8-1.3c-0.4-0.2-0.8-0.2-1,0v-4.4
		c0-2-0.6-2.6-1-2.7l-0.7-0.1V204H114.4z M107.6,211.6c0.2-0.9,0.5-1.5,0.8-1.9c-0.4-0.6-0.7-1.6-0.9-3.6c-0.2,2-0.5,3-0.9,3.6
		C107.1,210.2,107.4,210.7,107.6,211.6L107.6,211.6z M111.5,217c0,0.4,0.1,0.8,0.4,0.8c0.3,0,0.8-0.6,0.8-2.2v-0.4h-1.2V217z"/>
</g>
<g class="st0">
	<path class="st1" d="M118.5,205.6l-0.9-0.2V203h12.3l2,2.6v6.5h-3.2l-1.7-2.3v-1c0-0.9-0.3-1.5-0.8-1.5c-0.6,0-0.9,0.6-0.9,1.5
		l0,0.6l2.8,3.5v2.2l-2.8,0v3.2l1.8,2.4v2.4h-7.8l-1.7-2.3v-2.5l1-0.2c0.5-0.1,0.7-0.9,0.7-1.8v-9.2
		C119.4,206.1,119,205.7,118.5,205.6z M124.6,205.2c1.3,0,2.9,1,2.9,3.1v1.1h2v-5.9h-11.4v1.5l0.9,0.1c0.5,0.1,0.9,0.9,0.9,2.2v9.3
		c0,1.2-0.2,2-0.9,2.2l-0.9,0.1v1.5h6.7v-1.5l-0.8-0.2c-0.9-0.2-1.2-0.9-1.2-2.1v-4.2h2.7v-1.9h-2.7V207
		C122.9,206,123.3,205.2,124.6,205.2z M129,204v4.9h-1v-0.7c0-2.7-1.8-3.5-3.3-3.5c-2.1,0-2.3,1.3-2.3,2.3v4h2.7v0.6
		c-0.9-0.2-1.5-0.2-2.1,0c-0.5-0.2-1-0.2-1.6,0c0.2,0.3,0.5,0.9,0.9,1.3c-0.4,0.9-0.7,2.1-0.9,4.4c-0.2-2.3-0.5-3.5-0.9-4.4
		c0.4-0.4,0.7-1,0.8-1.3c-0.3-0.2-0.7-0.2-1,0v-4.4c0-2-0.6-2.6-1-2.7l-0.7-0.1V204H129z M121.4,211.6c0.2-0.9,0.5-1.5,0.8-1.9
		c-0.4-0.6-0.7-1.6-0.9-3.6c-0.2,2-0.5,3-0.9,3.6C120.9,210.2,121.2,210.7,121.4,211.6L121.4,211.6z"/>
</g>
<g class="st0">
	<path class="st1" d="M138.1,203l3,3.1l2.9,11.1c0.2,0.9,0.9,2.1,1.7,2.6v3.3h-7l-0.7-0.9v0.9h-6.8l-1.9-2.5v-2.2l0.7-0.2
		c0.7-0.2,1.2-1.1,1.8-3.4L135,203H138.1z M137.7,214.9l0.2,0.8c0.4,2,0.1,2.7-0.6,3l-0.7,0.2v1.5h6.6v-1.5l-0.8-0.3
		c-0.5-0.2-0.9-0.9-1.4-2.8l-3.2-12.3h-2.5l-3.1,11.4c-0.8,2.8-1.2,3.6-1.9,3.8l-0.6,0.2v1.5h5.7v-1.5l-0.7-0.2
		c-0.6-0.2-1-1.4-0.6-3l0.2-0.8H137.7z M135.8,204h1.7l2,7.7c-0.3-0.2-0.6-0.2-1,0c0.2,0.3,0.6,0.9,1,1.3c-0.1,1.1-0.2,2.2,0.1,4.4
		c-0.7-2.2-1.1-3.2-1.9-4.4c0.3-0.4,0.6-1,0.6-1.3c-0.4-0.2-0.8-0.2-1,0l-1.2-5.4h-0.1l-1.5,5.4c-0.3-0.2-0.7-0.2-1.1,0L135.8,204z
		 M135.1,212.6l1.1-4.1h0.1l0.9,4.1H135.1z M138.5,211.6c0-0.9,0.1-1.5,0.3-1.9c-0.5-0.6-0.9-1.6-1.6-3.6c0.2,2,0.2,3,0.1,3.6
		C137.7,210.2,138.1,210.7,138.5,211.6L138.5,211.6z"/>
</g>
<g class="st0">
	<path class="st1" d="M144.9,209.4c0-3.6,2.7-6.5,5.9-6.5c0.9,0,1.6,0.2,2.3,0.5c0.5,0.2,1,0.5,1.2,0.5c0.2,0,0.2-0.3,0.2-0.8h2.5
		l2.3,2.6v8.6h-3.7l-2-2.3c-0.1-3-0.7-4.7-1.2-4.7c-0.6,0-0.8,0.9-0.8,2v7.5c0,0.8,0.3,1.4,0.8,1.4c0.7,0,1.1-1.3,1.2-3.6h3.6
		l2.3,2.5c-0.6,5.4-3.7,6.4-6.9,6.4c-3.8,0-7.5-3.8-7.5-9.5V209.4z M156.7,211.4v-8h-1.8c0,0.7-0.2,0.9-0.4,0.9
		c-0.3,0-0.9-0.2-1.3-0.5c-0.7-0.3-1.4-0.5-2.2-0.5c-3.4,0-5.6,3.3-5.6,6.1v4.5c0,3.3,1.6,6.7,5.9,6.7c3.9,0,5.4-2.9,5.4-5.8h-2.8
		c0,3-1,4-2.6,4c-1.6,0-2.3-1.6-2.3-3.7V208c0-1.5,0.3-3,1.9-3c2.1,0,3,3.7,3,6.3H156.7z M148.5,211.2c-0.3-0.2-0.8-0.2-1.3,0
		c0.1,0.3,0.5,0.9,0.8,1.3c-0.4,0.9-0.7,2.1-0.5,4.4c-0.8-1.8-1-3-1.2-4.4c0.4-0.4,0.7-1,0.8-1.3c-0.5-0.2-1-0.2-1.3,0v-1.5
		c0-3,2.1-6,5.1-6c0.8,0,1.5,0.2,2,0.5c0.6,0.3,1.2,0.5,1.7,0.5c0.4,0,0.7-0.3,0.7-0.9h0.9v7h-1.8c-0.2-3.4-1.2-6.4-3.4-6.4
		c-2,0-2.4,1.7-2.4,3.5V211.2z M147.2,211c0.1-0.4,0.4-0.9,0.8-1.3c-0.4-1-0.5-2.2-0.3-3.6c-0.8,1.3-1.2,2.6-1.5,3.6
		C146.7,210.2,147.1,210.7,147.2,211L147.2,211z"/>
	<path class="st1" d="M160.5,205.6l-0.9-0.2V203H171l2.1,2.7v6.3h-2.8l-1.8-2.4v-0.9c0-0.6-0.1-0.9-0.6-0.9c-0.5,0-0.7,0.4-0.6,0.9
		l0,0.7l2.4,3.1v1.2h1.3l2.1,2.8v6.5h-11.8l-1.7-2.3v-2.5l1-0.2c0.5-0.1,0.7-0.9,0.7-1.8v-9.2C161.4,206.1,161,205.7,160.5,205.6z
		 M167.5,212.4v-1.9h-2.7V207c0-1.2,0.4-1.9,1.8-1.9c1.3,0,2.3,1,2.3,3.1v1.1h1.7v-5.9h-10.6v1.5l0.9,0.1c0.5,0.1,0.9,0.9,0.9,2.2
		v9.3c0,1.2-0.2,2-0.9,2.2l-0.9,0.1v1.5h10.6v-6.1H169v1.3c0,1.7-0.5,3-2.3,3c-1.4,0-1.8-0.8-1.8-1.9v-4.4H167.5z M170.2,204v4.9
		h-0.8v-0.7c0-2.8-1.6-3.5-2.8-3.5c-1.8,0-2.3,1.2-2.3,2.3v4h2.7v0.6c-0.6-0.2-1.3-0.2-1.9,0c-0.6-0.2-1.2-0.2-1.8,0
		c0.2,0.3,0.5,0.9,0.9,1.3c-0.4,0.9-0.7,2.1-0.9,4.4c-0.2-2.3-0.5-3.5-0.9-4.4c0.4-0.4,0.7-1,0.8-1.3c-0.4-0.2-0.8-0.2-1,0v-4.4
		c0-2-0.6-2.6-1-2.7l-0.7-0.1V204H170.2z M163.4,211.6c0.2-0.9,0.5-1.5,0.8-1.9c-0.4-0.6-0.7-1.6-0.9-3.6c-0.2,2-0.5,3-0.9,3.6
		C162.9,210.2,163.2,210.7,163.4,211.6L163.4,211.6z M167.3,217c0,0.4,0.1,0.8,0.4,0.8c0.3,0,0.8-0.6,0.8-2.2v-0.4h-1.2V217z"/>
	<path class="st1" d="M179.6,221c0.1,1.2-0.8,2.1-1.9,2.1c-1.5,0-3.8-1.9-3.8-4.4c0-1.3,0.8-2.3,2.1-2.3
		C177.6,216.5,179.5,218.9,179.6,221z M174.3,218.8c0,1,0.7,1.8,1.5,1.8c0.8,0,1.5-0.8,1.5-1.8c0-1-0.7-1.8-1.5-1.8
		C175,217,174.3,217.9,174.3,218.8z"/>
</g>
</svg>
