<?xml version="1.0" encoding="utf-8"?>
<!-- Generator: Adobe Illustrator 21.0.2, SVG Export Plug-In . SVG Version: 6.00 Build 0)  -->
<!DOCTYPE svg PUBLIC "-//W3C//DTD SVG 1.1//EN" "http://www.w3.org/Graphics/SVG/1.1/DTD/svg11.dtd">
<svg version="1.1" id="Layer_1" xmlns="http://www.w3.org/2000/svg" xmlns:xlink="http://www.w3.org/1999/xlink" x="0px" y="0px"
	 viewBox="0 0 340.1 333.7" style="enable-background:new 0 0 340.1 333.7;" xml:space="preserve">
<style type="text/css">
	.st0{fill:#231F20;}
	.st1{clip-path:url(#SVGID_2_);fill:#FFFFFF;}
</style>
<rect y="0" class="st0" width="340.1" height="333.7"/>
<g>
	<defs>
		<rect id="SVGID_1_" width="340.1" height="333.7"/>
	</defs>
	<clipPath id="SVGID_2_">
		<use xlink:href="#SVGID_1_"  style="overflow:visible;"/>
	</clipPath>
	<path class="st1" d="M45.4,37.1c0.6,0,1.1-0.4,1.1-1.1c0-0.6-0.5-1.1-1.1-1.1c-0.6,0-1.1,0.5-1.1,1.1
		C44.3,36.7,44.8,37.1,45.4,37.1 M41.4,36.9v-0.5c-1.7-0.1-1.9-0.3-1.9-1.7v-10c-1.1,0.4-2.2,0.8-3.4,1v0.4l0.9,0
		c0.8,0,0.9,0.1,0.9,1.1v7.4c0,1.4-0.1,1.5-1.8,1.7v0.5H41.4z"/>
	<path class="st1" d="M136.2,238.3H134v2.7h2.2V238.3z M130.7,239c-0.5,0-0.8-0.2-0.9-0.5c-0.1-0.2-0.2-0.7-0.2-1.5v-8.1h1.9v-1.8
		h-1.9v-4.9l-1.9,1.4v3.4h-1.4v1.8h1.4v8c0,1.4,0.1,2.3,0.2,2.8c0.2,0.5,0.4,0.8,0.8,1.1c0.4,0.3,1,0.4,1.6,0.4
		c0.4,0,0.9-0.1,1.4-0.2l-0.3-2.1C131.2,238.9,130.9,239,130.7,239 M117,241v-7.6c0-1.7,0.3-2.9,0.8-3.6c0.5-0.7,1.3-1,2.2-1
		c0.5,0,0.9,0.1,1.3,0.4c0.4,0.3,0.6,0.6,0.8,1.1c0.2,0.5,0.3,1.2,0.3,2.2v8.5h1.9v-8.5c0-1.3-0.1-2.2-0.2-2.9
		c-0.2-0.6-0.4-1.1-0.7-1.5c-0.3-0.4-0.7-0.7-1.3-0.9c-0.5-0.2-1.1-0.4-1.7-0.4c-0.8,0-1.5,0.2-2.1,0.6c-0.6,0.4-1.1,0.9-1.5,1.7v-2
		H115V241H117z M105.3,229.8c0.6-0.7,1.3-1.1,2.2-1.1c1,0,1.7,0.4,2.4,1.3c0.4,0.6,0.7,1.5,0.8,2.7h-6.4
		C104.3,231.5,104.6,230.5,105.3,229.8 M107.6,239.4c-0.9,0-1.7-0.4-2.4-1.2c-0.6-0.8-1-2-1.1-3.5h8.5l0-0.6c0-2.3-0.5-4.1-1.5-5.4
		s-2.2-1.9-3.7-1.9c-1.5,0-2.8,0.6-3.8,1.9c-1,1.3-1.5,3.1-1.5,5.5c0,2.3,0.5,4.1,1.5,5.3c1,1.2,2.3,1.8,3.9,1.8
		c1.3,0,2.4-0.4,3.2-1.1c0.9-0.8,1.5-1.9,1.8-3.4l-2-0.3C110,238.4,109,239.4,107.6,239.4 M86.4,241v-7.2c0-1.9,0.3-3.2,0.8-3.9
		c0.5-0.7,1.2-1.1,2.1-1.1c0.6,0,1.1,0.2,1.5,0.7c0.4,0.5,0.5,1.3,0.5,2.4v9h1.9v-8.1c0-1.4,0.3-2.5,0.8-3.1c0.5-0.7,1.2-1,2-1
		c0.4,0,0.8,0.1,1.1,0.3c0.3,0.2,0.6,0.5,0.7,1c0.1,0.4,0.2,1.1,0.2,2.1v8.8h1.9v-9.5c0-1.6-0.3-2.8-0.9-3.6
		c-0.6-0.7-1.5-1.1-2.6-1.1c-0.7,0-1.4,0.2-2,0.6c-0.6,0.4-1.1,1-1.6,1.8c-0.2-0.8-0.6-1.4-1.2-1.8c-0.6-0.4-1.2-0.6-2-0.6
		c-0.7,0-1.4,0.2-2,0.6c-0.6,0.4-1.1,0.9-1.5,1.7v-1.9h-1.7V241H86.4z M81.5,241v-13.9h-1.9v7.4c0,1.7-0.3,2.9-0.8,3.6
		c-0.6,0.8-1.4,1.1-2.3,1.1c-0.5,0-0.9-0.1-1.3-0.4c-0.4-0.3-0.7-0.7-0.8-1.2c-0.1-0.5-0.2-1.4-0.2-2.9v-7.7h-1.9v8.6
		c0,1.3,0.1,2.3,0.3,3c0.2,0.7,0.6,1.4,1.3,1.8c0.6,0.5,1.4,0.7,2.3,0.7c0.8,0,1.4-0.2,2-0.6c0.6-0.4,1.1-1,1.6-1.8v2H81.5z
		 M67.7,238.5c-0.5,0.6-1.1,0.8-1.9,0.8c-0.9,0-1.7-0.4-2.3-1.3c-0.6-0.8-0.9-2.2-0.9-4.1c0-1.8,0.3-3.2,0.9-4
		c0.6-0.8,1.4-1.3,2.4-1.3c0.6,0,1.2,0.2,1.6,0.7c0.5,0.5,0.8,1.2,1,2.1l1.9-0.3c-0.2-1.5-0.7-2.6-1.6-3.3c-0.8-0.7-1.8-1.1-3-1.1
		c-1.5,0-2.8,0.6-3.8,1.8s-1.5,3-1.5,5.4c0,2.4,0.5,4.2,1.4,5.4c1,1.2,2.2,1.8,3.7,1.8c1.2,0,2.3-0.4,3.2-1.3
		c0.9-0.9,1.4-2.1,1.6-3.8l-1.9-0.3C68.6,237.1,68.3,237.9,67.7,238.5 M51.3,230c0.6-0.9,1.4-1.3,2.3-1.3c1,0,1.8,0.4,2.4,1.3
		c0.7,0.9,1,2.2,1,4c0,1.8-0.3,3.1-1,4c-0.7,0.9-1.4,1.3-2.3,1.3c-1,0-1.8-0.4-2.4-1.3c-0.7-0.9-1-2.2-1-4
		C50.3,232.2,50.6,230.9,51.3,230 M49.8,239.5c1,1.2,2.3,1.8,3.8,1.8c1.6,0,2.8-0.6,3.8-1.8c1-1.2,1.5-3.1,1.5-5.6
		c0-2.3-0.5-4.1-1.5-5.3c-1-1.2-2.3-1.8-3.8-1.8c-1.5,0-2.8,0.6-3.8,1.8c-1,1.2-1.5,3-1.5,5.4C48.3,236.4,48.8,238.2,49.8,239.5
		 M39,230c0.6-0.9,1.3-1.3,2.1-1.3c0.9,0,1.7,0.4,2.3,1.3c0.6,0.9,0.9,2.3,0.9,4.3c0,1.7-0.3,3-0.9,3.8c-0.6,0.8-1.3,1.3-2.1,1.3
		c-0.8,0-1.6-0.4-2.2-1.3c-0.6-0.9-0.9-2.2-0.9-4C38.1,232.2,38.4,230.8,39,230 M46,241v-19.2h-2v6.9c-0.4-0.6-0.8-1.1-1.4-1.4
		c-0.5-0.3-1.1-0.5-1.8-0.5c-0.9,0-1.7,0.3-2.4,0.8c-0.7,0.5-1.3,1.3-1.7,2.4c-0.4,1.1-0.7,2.4-0.7,4c0,2.3,0.5,4.1,1.5,5.4
		c1,1.3,2.1,1.9,3.5,1.9c0.6,0,1.2-0.2,1.8-0.5s1-0.9,1.3-1.5v1.8H46z"/>
	<path class="st1" d="M195.6,202.7c0,1.1-0.1,2-0.4,2.6c-0.3,0.6-0.7,1.1-1.3,1.4c-0.6,0.4-1.2,0.5-1.9,0.5c-0.7,0-1.3-0.2-1.7-0.6
		c-0.4-0.4-0.6-0.9-0.6-1.6c0-0.4,0.1-0.8,0.3-1.1c0.2-0.3,0.4-0.6,0.8-0.8s0.9-0.3,1.7-0.5c1.4-0.2,2.4-0.5,3.2-0.9V202.7z
		 M196.1,208.8h2c-0.2-0.5-0.4-1.1-0.5-1.7c-0.1-0.6-0.1-2-0.1-4.2v-3.1c0-1.3-0.1-2.2-0.3-2.9c-0.2-0.7-0.6-1.2-1.3-1.7
		c-0.7-0.5-1.6-0.7-2.8-0.7c-1.5,0-2.7,0.3-3.5,1c-0.8,0.7-1.4,1.8-1.6,3.3l1.9,0.3c0.2-1,0.5-1.7,1-2.1c0.4-0.4,1.1-0.6,2-0.6
		c1,0,1.7,0.3,2.2,0.8c0.3,0.4,0.5,1.1,0.5,2l0,0.6c-0.7,0.3-1.9,0.6-3.5,0.8c-1.2,0.2-2,0.4-2.6,0.8c-0.6,0.3-1,0.8-1.4,1.5
		c-0.3,0.6-0.5,1.3-0.5,2.1c0,1.2,0.4,2.2,1.1,2.9c0.7,0.7,1.7,1.1,2.8,1.1c0.8,0,1.5-0.2,2.2-0.5c0.7-0.3,1.4-0.8,2-1.5
		C195.8,207.8,195.9,208.3,196.1,208.8 M171.9,208.8v-7.6c0-1.7,0.3-2.9,0.8-3.6c0.6-0.7,1.3-1,2.2-1c0.5,0,0.9,0.1,1.3,0.4
		c0.4,0.3,0.6,0.6,0.8,1.1c0.2,0.5,0.3,1.2,0.3,2.2v8.5h1.9v-8.5c0-1.3-0.1-2.2-0.2-2.9c-0.2-0.6-0.4-1.1-0.7-1.5
		c-0.3-0.4-0.7-0.7-1.3-0.9c-0.5-0.2-1.1-0.4-1.7-0.4c-0.8,0-1.5,0.2-2.1,0.6c-0.6,0.4-1.1,0.9-1.5,1.7v-2H170v13.9H171.9z
		 M167,194.9h-1.9v13.9h1.9V194.9z M167,189.6h-1.9v2.7h1.9V189.6z M147.4,196.1c-0.9,0.8-1.4,1.8-1.4,3c0,1.3,0.5,2.2,1.4,2.8
		c1,0.5,2.4,0.9,4.2,1.1c1.9,0.2,2.9,0.9,2.9,2.1c0,0.7-0.3,1.2-0.9,1.7c-0.6,0.4-1.3,0.7-2.2,0.7c-1.2,0-2.2-0.2-3-0.7
		c-0.8-0.5-1.2-1.1-1.2-1.9c0-0.8-0.1-1.2-0.2-1.4c-0.1-0.2-0.3-0.3-0.7-0.3c-0.6,0-0.9,0.3-0.9,0.9c0,0.2,0,0.5,0.1,0.9
		c0.1,0.4,0.1,0.8,0.1,1.2c0,0.3,0,0.5-0.1,0.8c-0.1,1.1-0.2,1.5-0.2,1.4c0,0.7,0.3,1.1,1,1.1c0.6,0,0.9-0.3,0.9-1V208
		c1.1,0.8,2.4,1.3,3.8,1.3c1.6,0,2.9-0.4,3.8-1.2s1.5-1.8,1.5-3.1c0-2.1-1.5-3.4-4.6-3.8l-1.6-0.2c-1.6-0.2-2.4-0.9-2.4-2
		c0-0.6,0.3-1.1,0.8-1.6c0.6-0.4,1.2-0.6,2.1-0.6c0.8,0,1.5,0.2,2.1,0.6c0.6,0.4,0.9,0.8,0.9,1.4v0.9c0,0.6,0.3,0.9,0.9,0.9
		c0.6,0,0.9-0.3,0.9-1c0-0.2,0-0.5-0.1-0.9c0-0.4-0.1-0.7-0.1-0.9c0-0.4,0-0.7,0.1-1.1c0-0.4,0-0.7,0-0.8c0-0.6-0.3-0.9-0.9-0.9
		c-0.6,0-0.9,0.3-0.9,1v0.1c-0.8-0.6-1.8-0.9-3-0.9C149.5,194.9,148.3,195.3,147.4,196.1 M134.9,197.8c0.8-0.7,1.7-1.1,2.7-1.1
		c1,0,1.8,0.3,2.5,1c0.7,0.7,1.1,1.5,1.1,2.5c0,0.2-0.2,0.4-0.6,0.4h-6.4c-0.4,0-0.6-0.1-0.6-0.4
		C133.7,199.3,134.1,198.5,134.9,197.8 M141.8,196.6c-1.1-1.1-2.5-1.7-4.2-1.7c-1.9,0-3.4,0.7-4.6,2c-1.2,1.4-1.8,3.1-1.8,5.3
		c0,2.1,0.6,3.8,1.7,5.1c1.1,1.3,2.6,1.9,4.5,1.9c1.5,0,2.8-0.5,4-1.4c1.2-0.9,1.8-1.9,1.8-3.1c0-0.7-0.3-1-1-1
		c-0.5,0-0.8,0.2-0.9,0.6l-0.2,0.8c-0.2,0.7-0.6,1.2-1.3,1.6c-0.7,0.4-1.4,0.6-2.2,0.6c-1.2,0-2.2-0.4-3-1.3c-0.8-0.9-1.2-2-1.2-3.4
		c0-0.1,0-0.2,0.1-0.3c0.1-0.1,0.2-0.1,0.5-0.1h8.5c0.4,0,0.7-0.1,0.8-0.2c0.1-0.2,0.1-0.6,0.1-1.2
		C143.4,199.2,142.9,197.8,141.8,196.6 M125.8,201c0.3,0.3,0.7,0.4,1.1,0.4c0.6,0,1-0.2,1.4-0.6c0.4-0.4,0.5-1,0.5-1.6
		c0-1.2-0.5-2.2-1.4-3c-0.9-0.8-2.1-1.2-3.6-1.2c-1.9,0-3.4,0.7-4.6,2c-1.2,1.3-1.7,3.1-1.7,5.3c0,2.1,0.6,3.8,1.7,5.1
		c1.1,1.3,2.6,1.9,4.4,1.9c1.7,0,3-0.6,4.1-1.7c0.4-0.4,0.7-0.9,1-1.6c0.3-0.6,0.4-1.2,0.4-1.6c0-0.3-0.1-0.6-0.3-0.8
		c-0.2-0.2-0.4-0.3-0.8-0.3c-0.4,0-0.7,0.2-0.9,0.5c0,0.1-0.1,0.4-0.3,1.1c-0.2,0.8-0.6,1.4-1.2,1.8c-0.6,0.4-1.3,0.7-2.1,0.7
		c-1.3,0-2.2-0.5-2.9-1.4s-1.1-2.3-1.1-4c0-1.6,0.4-2.9,1.1-3.9c0.8-1,1.7-1.5,3-1.5c0.8,0,1.5,0.2,2,0.5c0.5,0.4,0.8,0.8,0.9,1.5
		c-0.9,0.1-1.3,0.5-1.3,1.2C125.4,200.4,125.5,200.7,125.8,201 M110,206.5c-0.7,0.7-1.6,1-2.8,1c-0.8,0-1.5-0.2-2-0.6
		c-0.5-0.4-0.7-0.9-0.7-1.6c0-1.3,1-2.1,3-2.3c1.1-0.1,1.9-0.2,2.3-0.4c0.4-0.1,0.8-0.4,1.2-0.8v1.9C111,205,110.6,205.9,110,206.5
		 M116.7,206.6v-1.5v-0.1c0-0.9-0.3-1.3-0.9-1.3c-0.5,0-0.8,0.3-0.8,0.9v1.3c0,1.1-0.3,1.7-0.9,1.7c-0.5,0-0.8-0.3-0.9-0.9
		c0-0.2-0.1-0.7-0.1-1.5v-5.4c0-3.1-1.6-4.7-4.9-4.7c-1.4,0-2.6,0.4-3.6,1.1c-1,0.7-1.5,1.6-1.5,2.6c0,0.5,0.2,0.9,0.5,1.2
		c0.3,0.3,0.7,0.5,1.2,0.5c0.4,0,0.7-0.1,1-0.3c0.3-0.2,0.4-0.5,0.4-0.9c0-0.4-0.1-0.7-0.4-0.9c-0.2-0.1-0.2-0.2-0.2-0.3
		c0-0.2,0.1-0.4,0.4-0.6c0.7-0.4,1.4-0.7,2.3-0.7c0.9,0,1.6,0.2,2.1,0.6s0.8,1,0.8,1.7c0,0.8-0.2,1.3-0.7,1.6
		c-0.5,0.3-1.4,0.5-2.9,0.7c-1.1,0.1-1.8,0.2-2.1,0.3c-0.3,0.1-0.8,0.3-1.2,0.5c-1.3,0.7-1.9,1.8-1.9,3.3c0,1.2,0.4,2.2,1.3,2.9
		c0.9,0.7,2,1.1,3.5,1.1c1.9,0,3.4-0.7,4.3-2c0.3,1.3,1.2,1.9,2.7,1.9C115.8,209.2,116.7,208.3,116.7,206.6 M101.8,193.8
		c0.2,0.2,0.5,0.3,0.9,0.3c0.4,0,0.7-0.1,0.9-0.4c0.2-0.2,0.4-0.6,0.4-1c0-0.8-0.3-1.4-1-1.8c-0.7-0.5-1.6-0.7-2.7-0.7
		c-1.4,0-2.4,0.4-3.2,1.1c-0.8,0.8-1.1,1.8-1.1,3.2v0.5c0,0.2-0.1,0.3-0.3,0.3h-1.5c-0.6,0-1,0.3-1,0.9c0,0.7,0.3,1,0.9,1h1.3
		c0.3,0,0.5,0.2,0.5,0.5v5.6c0,1.6-0.1,2.7-0.2,3.1c-0.1,0.4-0.3,0.6-0.6,0.6c-0.2,0-0.4,0-0.6-0.1c-0.2-0.1-0.4-0.1-0.6-0.1
		c-0.3,0-0.5,0.1-0.7,0.3c-0.2,0.2-0.3,0.4-0.3,0.6c0,0.6,0.4,0.9,1.2,0.9c0.2,0,0.6,0,1.3-0.1c0.4-0.1,0.9-0.1,1.4-0.1
		c0.3,0,0.8,0,1.4,0.1c0.6,0.1,1.1,0.1,1.4,0.1c0.7,0,1.1-0.3,1.1-0.9c0-0.6-0.3-0.9-0.9-0.9c-0.1,0-0.3,0-0.5,0.1
		c-0.4,0.1-0.6,0.1-0.7,0.1c-0.4,0-0.6-0.2-0.7-0.7c0-0.1,0-0.5,0-1.2v-7.5c0-0.3,0.2-0.5,0.5-0.5h2c0.6,0,0.9-0.3,0.9-1
		c0-0.6-0.3-1-0.9-1h-2.1c-0.2,0-0.3-0.1-0.3-0.3v-0.5c0-0.9,0.2-1.6,0.7-2.1c0.4-0.5,1-0.7,1.8-0.7c0.6,0,1,0.1,1.3,0.4
		c-0.2,0.2-0.3,0.4-0.3,0.7C101.4,193.3,101.6,193.6,101.8,193.8 M83,197.8c0.8-0.7,1.7-1.1,2.7-1.1c1,0,1.8,0.3,2.5,1
		c0.7,0.7,1.1,1.5,1.1,2.5c0,0.2-0.2,0.4-0.6,0.4h-6.4c-0.4,0-0.6-0.1-0.6-0.4C81.8,199.3,82.2,198.5,83,197.8 M89.9,196.6
		c-1.1-1.1-2.5-1.7-4.2-1.7c-1.9,0-3.4,0.7-4.6,2c-1.2,1.4-1.8,3.1-1.8,5.3c0,2.1,0.6,3.8,1.7,5.1s2.6,1.9,4.5,1.9
		c1.5,0,2.8-0.5,4-1.4c1.2-0.9,1.8-1.9,1.8-3.1c0-0.7-0.3-1-1-1c-0.5,0-0.8,0.2-0.9,0.6l-0.2,0.8c-0.2,0.7-0.6,1.2-1.3,1.6
		c-0.7,0.4-1.4,0.6-2.2,0.6c-1.2,0-2.2-0.4-3-1.3c-0.8-0.9-1.2-2-1.2-3.4c0-0.1,0-0.2,0.1-0.3c0.1-0.1,0.2-0.1,0.5-0.1h8.5
		c0.4,0,0.7-0.1,0.8-0.2c0.1-0.2,0.1-0.6,0.1-1.2C91.5,199.2,91,197.8,89.9,196.6 M69,197.5c0.7-0.5,1.4-0.8,2.3-0.8
		c2.5,0,3.8,1.8,3.8,5.4c0,1.7-0.4,3.1-1.1,4c-0.7,0.9-1.7,1.4-3,1.4c-0.9,0-1.6-0.2-2.2-0.6c-0.6-0.4-1-0.9-1.2-1.5
		c-0.2-0.5-0.3-1.4-0.3-2.6v-0.4c0-0.2,0-0.3,0-0.4c0-1,0.1-1.9,0.3-2.5C68,198.7,68.4,198,69,197.5 M66.7,195.4c-0.1,0-0.4,0-0.7,0
		c-0.3,0-0.5,0-0.7,0c-0.2,0-0.5,0-1-0.1c-0.2,0-0.4,0-0.6,0c-0.8,0-1.2,0.3-1.2,0.9c0,0.6,0.3,0.9,1,0.9c0.1,0,0.3,0,0.6-0.1
		c0.3-0.1,0.4-0.1,0.6-0.1c0.4,0,0.7,0.4,0.7,1.2v10.3c0,1.6-0.1,2.6-0.1,2.9c-0.1,0.3-0.3,0.5-0.6,0.5c-0.1,0-0.4,0-0.7-0.1
		c-0.2,0-0.4-0.1-0.5-0.1c-0.6,0-0.9,0.3-0.9,0.8c0,0.2,0.1,0.5,0.3,0.6c0.2,0.2,0.5,0.3,0.8,0.3c0.2,0,0.7,0,1.4-0.1
		c0.3,0,0.6-0.1,1.1-0.1c0.8,0,1.4,0,1.8,0.1c0.5,0.1,0.9,0.1,1.2,0.1c0.7,0,1.1-0.3,1.1-0.9c0-0.6-0.3-0.9-0.9-0.9
		c-0.1,0-0.3,0-0.6,0.1c-0.3,0.1-0.4,0.1-0.6,0.1c-0.4,0-0.7-0.3-0.8-0.8c0-0.2-0.1-0.6-0.1-1.3v-2.2c1,1.1,2.2,1.6,3.8,1.6
		c1.9,0,3.4-0.7,4.5-2c1.1-1.3,1.7-3.2,1.7-5.4c0-2.1-0.5-3.8-1.6-5c-1.1-1.2-2.5-1.8-4.3-1.8c-1.7,0-3.1,0.7-4.1,2.1v-0.9
		C67.4,195.7,67.1,195.4,66.7,195.4 M51.3,197.4c0-0.2,0.1-0.4,0.4-0.4c0.1,0,0.3,0,0.5,0.1c0.2,0,0.4,0.1,0.5,0.1
		c0.7,0,1-0.3,1-0.9c0-0.6-0.4-0.9-1.1-0.9c-0.2,0-0.5,0-1.1,0.1c-0.7,0.1-1.4,0.1-2.1,0.1c-0.1,0-0.2,0-0.3,0h-0.2l-1.1-0.2
		c-0.1,0-0.3,0-0.6,0c-0.8,0-1.2,0.3-1.2,0.9c0,0.6,0.3,0.9,0.9,0.9c0.1,0,0.3,0,0.5-0.1c0.3,0,0.5-0.1,0.6-0.1c0.4,0,0.7,0.4,1,1.2
		l0.3,0.9l2.9,7.5c0.5,1.2,0.7,2,0.7,2.5c0,0.9-0.4,1.7-1.1,2.4c-0.8,0.7-1.6,1.1-2.6,1.1c-0.8,0-1.3-0.2-1.5-0.6
		c0.5-0.2,0.8-0.5,0.8-1.1c0-0.4-0.1-0.7-0.4-0.9c-0.3-0.2-0.6-0.4-1-0.4c-0.5,0-0.9,0.2-1.3,0.5c-0.3,0.3-0.5,0.8-0.5,1.4
		c0,0.8,0.4,1.5,1.1,2c0.7,0.6,1.7,0.8,2.7,0.8c1.8,0,3.3-0.8,4.6-2.3c0.7-0.9,1.5-2.4,2.3-4.4l3.6-9.1c0.4-0.9,0.7-1.4,1-1.4
		c0.1,0,0.2,0,0.5,0.1c0.1,0,0.2,0.1,0.4,0.1c0.6,0,0.9-0.3,0.9-0.9c0-0.6-0.4-0.9-1.2-0.9c-0.3,0-0.8,0-1.3,0.1
		c-0.6,0.1-1,0.1-1.3,0.1c-0.3,0-0.6,0-0.8-0.1l-1-0.1c-0.2,0-0.4-0.1-0.5-0.1c-0.8,0-1.2,0.3-1.2,0.9c0,0.6,0.3,0.9,0.9,0.9
		c0.1,0,0.3,0,0.6-0.1c0.1,0,0.3-0.1,0.5-0.1c0.4,0,0.6,0.2,0.6,0.5c0,0.1,0,0.3-0.1,0.6l-3.3,8.9l-3.1-9.1
		C51.3,197.8,51.3,197.6,51.3,197.4 M41.9,207.4c-1.3,0-1.9-0.9-1.9-2.8V198c0-0.4,0.1-0.6,0.4-0.6h2.9c0.7,0,1.1-0.3,1.1-1
		c0-0.6-0.3-0.9-1-0.9h-2.9c-0.3,0-0.5-0.1-0.5-0.4v-2.9c0-0.7-0.3-1-1-1c-0.7,0-1,0.3-1,1v2.8c0,0.3-0.2,0.5-0.5,0.5h-1
		c-0.2,0-0.4,0.1-0.6,0.3c-0.2,0.2-0.3,0.4-0.3,0.7c0,0.3,0.1,0.5,0.3,0.7c0.2,0.2,0.4,0.3,0.7,0.3h0.9c0.3,0,0.5,0.2,0.5,0.6v6.4
		c0,1.6,0.2,2.7,0.7,3.4c0.6,0.9,1.6,1.4,3,1.4c1.5,0,2.7-0.5,3.3-1.6c0.5-0.8,0.7-2.1,0.7-4.1c0-0.8-0.3-1.2-0.9-1.2
		c-0.6,0-0.9,0.4-1,1.1v1.7C43.8,206.6,43.2,207.4,41.9,207.4"/>
	<path class="st1" d="M195.2,165.4v-1.3c0-1,0-1.6,0.1-1.8c0.1-0.2,0.3-0.3,0.7-0.3c0.3,0,0.5,0.1,0.6,0.4c0.1,0.3,0.1,0.8,0.1,1.7
		v1.3H195.2z M202,166c0-1.7-0.2-3-0.6-3.9c-0.4-0.9-1.1-1.7-2-2.2c-1-0.6-2.2-0.8-3.7-0.8c-1.2,0-2.3,0.2-3.2,0.7
		c-0.9,0.5-1.6,1.1-2,2c-0.4,0.9-0.6,2.1-0.6,3.6v5.1c0,1.3,0.1,2.3,0.3,3c0.2,0.7,0.5,1.3,1,1.9c0.5,0.6,1.1,1,2,1.3
		c0.9,0.3,1.8,0.5,3,0.5c1.2,0,2.1-0.2,2.9-0.5c0.8-0.3,1.4-0.8,1.9-1.5c0.5-0.7,0.8-1.3,0.9-1.8c0.1-0.6,0.2-1.4,0.2-2.5v-1.3h-5
		v2.3c0,0.9-0.1,1.4-0.2,1.7c-0.1,0.3-0.4,0.5-0.8,0.5c-0.3,0-0.5-0.1-0.7-0.3c-0.1-0.2-0.2-0.7-0.2-1.5v-3.8h6.8V166z M181.4,165.4
		v-1.3c0-1,0-1.6,0.1-1.8c0.1-0.2,0.3-0.3,0.7-0.3c0.3,0,0.5,0.1,0.6,0.4c0.1,0.3,0.1,0.8,0.1,1.7v1.3H181.4z M188.3,166
		c0-1.7-0.2-3-0.6-3.9c-0.4-0.9-1.1-1.7-2-2.2c-1-0.6-2.2-0.8-3.7-0.8c-1.2,0-2.3,0.2-3.2,0.7c-0.9,0.5-1.6,1.1-2,2
		c-0.4,0.9-0.6,2.1-0.6,3.6v5.1c0,1.3,0.1,2.3,0.3,3c0.2,0.7,0.5,1.3,1,1.9s1.1,1,2,1.3c0.9,0.3,1.8,0.5,3,0.5
		c1.2,0,2.1-0.2,2.9-0.5c0.8-0.3,1.4-0.8,1.9-1.5c0.5-0.7,0.8-1.3,0.9-1.8c0.1-0.6,0.2-1.4,0.2-2.5v-1.3h-5v2.3
		c0,0.9-0.1,1.4-0.2,1.7c-0.1,0.3-0.4,0.5-0.8,0.5c-0.3,0-0.5-0.1-0.7-0.3c-0.1-0.2-0.2-0.7-0.2-1.5v-3.8h6.8V166z M166.7,159.3
		v17.4h5.3v-6.9c0-1.7,0.1-2.8,0.2-3.2c0.1-0.5,0.4-0.8,0.8-1.1c0.5-0.3,1.2-0.4,2.1-0.4v-6.1c-1.5,0.1-2.6,1-3.3,2.6l0.2-2.3H166.7
		z M152.7,155.4v21.2h5.3v-12.4c0-0.9,0.1-1.5,0.2-1.8c0.1-0.3,0.3-0.4,0.7-0.4c0.3,0,0.6,0.1,0.7,0.4c0.1,0.3,0.1,0.9,0.1,2v12.2
		h5.3v-12c0-1.6-0.1-2.8-0.2-3.4c-0.1-0.6-0.5-1.2-1.2-1.6c-0.7-0.5-1.4-0.7-2.4-0.7c-0.6,0-1.2,0.1-1.7,0.3c-0.5,0.2-1,0.5-1.5,0.9
		v-4.8H152.7z M144.8,156.9v2.7h-1.1v2.7h1.1v8.8c0,1.7,0,2.8,0.1,3.3c0.1,0.5,0.3,0.9,0.7,1.2c0.4,0.4,0.8,0.6,1.4,0.7
		c0.5,0.1,1.4,0.2,2.6,0.2h2.1v-2.8c-0.9,0-1.4-0.1-1.5-0.2c-0.1-0.1-0.2-0.8-0.2-1.9v-9.3h1.4v-2.7h-1.4v-2.7H144.8z M124.3,176.6
		h2.4v-7.3c0-0.9,0.1-1.6,0.2-2.1c0.1-0.5,0.4-1,0.8-1.4c0.5-0.6,1.1-1,1.7-1.2c0.4-0.1,0.8-0.2,1.4-0.2c1.1,0,1.9,0.4,2.3,1.3
		c0.3,0.5,0.4,1.2,0.4,2.1v8.8h2.4v-9c0-1.4-0.2-2.5-0.6-3.3c-0.7-1.4-2-2.1-4-2.1c-0.9,0-1.7,0.2-2.5,0.5c-0.7,0.4-1.4,0.9-2.1,1.8
		v-2h-2.2V176.6z M113.1,168.6c-1.3,0.2-2.4,0.6-3.2,1.3c-0.8,0.7-1.2,1.7-1.2,3c0,1.2,0.4,2.2,1.2,3c0.8,0.8,1.9,1.2,3.2,1.2
		c1.1,0,2.1-0.2,3-0.7c0.9-0.5,1.6-1,2.1-1.6c0.1,0.6,0.2,1,0.4,1.3c0.4,0.6,1,0.9,1.8,0.9c0.3,0,0.6,0,0.8,0c0.2,0,0.5-0.1,0.8-0.2
		V175c-0.1,0-0.3,0-0.4,0.1c-0.1,0-0.2,0-0.4,0c-0.3,0-0.5-0.1-0.6-0.2c-0.1-0.1-0.2-0.3-0.2-0.6v-8.1c0-1.3-0.5-2.3-1.5-2.9
		c-1-0.6-2.4-0.9-4-0.9c-1.4,0-2.7,0.3-3.7,1c-1.1,0.7-1.6,1.9-1.7,3.6h2.2c0.1-0.7,0.3-1.3,0.6-1.6c0.5-0.7,1.4-1,2.6-1
		c1.1,0,1.9,0.2,2.4,0.5c0.6,0.4,0.9,0.9,0.9,1.8c0,0.4-0.1,0.7-0.2,0.9c-0.2,0.4-0.5,0.6-1.1,0.7L113.1,168.6z M111.2,172.9
		c0-0.9,0.4-1.5,1.1-2c0.4-0.2,1.1-0.4,1.9-0.5l1.4-0.2c0.4-0.1,0.9-0.1,1.3-0.3c0.5-0.1,0.8-0.3,1.1-0.5v1.9c0,1.4-0.7,2.5-2,3.1
		c-0.8,0.4-1.6,0.6-2.4,0.6c-0.7,0-1.3-0.2-1.8-0.6C111.4,174.1,111.2,173.6,111.2,172.9 M94.5,176.6h2.4v-7.4
		c0-1.9,0.4-3.1,1.2-3.8s1.7-1,2.7-1c1.2,0,2,0.4,2.4,1.2c0.3,0.5,0.4,1.2,0.4,2.3v8.8h2.4v-9c0-1.4-0.2-2.5-0.6-3.2
		c-0.7-1.4-2.1-2.1-4.1-2.1c-1.1,0-2.1,0.2-2.8,0.7c-0.4,0.3-0.9,0.8-1.5,1.5v-7.2h-2.4V176.6z M87.5,162.6h-1.9v1.9h1.9v9.3
		c0,0.9,0.2,1.6,0.6,2.2s1.1,0.8,2.2,0.8c0.3,0,0.7,0,0.9-0.1c0.3,0,0.6-0.1,0.8-0.2v-1.9c-0.2,0-0.3,0-0.5,0c-0.1,0-0.3,0-0.4,0
		c-0.4,0-0.7,0-0.9-0.1c-0.3-0.2-0.5-0.5-0.5-1v-9.2h2.2v-1.9h-2.2v-3.9h-2.4V162.6z M72.7,168.5c0.1-1.4,0.3-2.4,0.5-2.8
		c0.2-0.5,0.6-0.7,1.1-0.7c0.5,0,0.9,0.2,1.1,0.7c0.2,0.4,0.4,1.4,0.5,2.8H72.7z M74.4,174.7c-1.2,0-1.7-1.4-1.7-4.3h5.7V170
		c0-4.8-1.4-7.2-4.1-7.2c-1.4,0-2.4,0.6-3.1,1.7c-0.7,1.2-1,2.9-1,5.3c0,1.2,0.1,2.2,0.2,3.1c0.2,0.9,0.4,1.6,0.8,2.2
		c0.3,0.6,0.8,1,1.3,1.3c0.5,0.3,1.1,0.4,1.9,0.4c2.4,0,3.7-1.6,3.9-4.8H76C76,173.8,75.5,174.7,74.4,174.7 M63.5,176.6H66v-8.2
		c0-1.1,0.2-1.9,0.6-2.4c0.4-0.5,1-0.7,1.9-0.7c0.1,0,0.3,0,0.4,0v-2.6c-0.7,0-1.2,0.2-1.7,0.5c-0.4,0.3-0.8,0.8-1.3,1.5v-1.7h-2.5
		V176.6z M58.2,173.5c-0.2,0.7-0.7,1-1.2,1c-0.6,0-1-0.3-1.3-1c-0.2-0.7-0.4-1.9-0.4-3.6s0.1-3,0.4-3.7c0.3-0.7,0.7-1,1.3-1
		c0.6,0,1,0.4,1.3,1.1c0.2,0.7,0.4,1.9,0.4,3.7C58.6,171.6,58.5,172.8,58.2,173.5 M60.9,166.8c-0.2-0.9-0.4-1.6-0.8-2.2
		c-0.3-0.6-0.8-1-1.3-1.3c-0.5-0.3-1.2-0.4-1.9-0.4c-2.8,0-4.2,2.3-4.2,7c0,4.7,1.4,7,4.3,7s4.3-2.3,4.3-6.9
		C61.2,168.7,61.1,167.7,60.9,166.8 M36.8,176.6h2.5v-8.9c0-0.9,0.1-1.6,0.4-2c0.2-0.4,0.7-0.6,1.2-0.6c0.3,0,0.5,0,0.7,0.1
		c0.2,0.1,0.3,0.2,0.4,0.4c0.1,0.2,0.2,0.5,0.2,0.8c0,0.3,0.1,0.7,0.1,1.2v8.9h2.6v-8.9c0-1,0.1-1.7,0.3-2c0.2-0.4,0.6-0.6,1.2-0.6
		c0.5,0,0.9,0.2,1.1,0.5c0.2,0.3,0.3,1,0.3,2.1v8.9h2.5v-10.8c0-1-0.3-1.7-0.8-2.2c-0.5-0.5-1.2-0.8-2.2-0.8c-1.2,0-2.2,0.6-2.8,1.9
		c-0.4-1.3-1.3-1.9-2.5-1.9c-1.1,0-2.1,0.6-2.7,1.9v-1.7h-2.5V176.6z"/>
	<path class="st1" d="M260.8,132.7c-0.1,0-0.3,0-0.4,0.1c-0.1,0-0.3,0.1-0.6,0.1h-0.8c-0.4,0-0.9,0-1.5-0.1c-0.1,0-0.1,0-0.2,0
		c-0.2,0-0.3,0.1-0.3,0.2c0,0.1,0.1,0.2,0.3,0.2c0.6,0,1,0,1.1,0.1c0.1,0,0.2,0.1,0.2,0.3c0,0.3-0.9,3.1-2.6,8.5
		c-0.2-0.6-0.4-1.1-0.6-1.6c-0.5-1.4-0.8-2.3-1-2.7l-0.5-1.3c-0.2-0.4-0.3-0.9-0.5-1.3c-0.4-1-0.5-1.5-0.5-1.6
		c0-0.2,0.3-0.2,0.8-0.3c0.7,0,1-0.1,1-0.2c0-0.2-0.1-0.2-0.3-0.2l-1.4,0c-0.7,0-1.2,0-1.6,0.1h-0.5c-0.2,0-0.5,0-0.9-0.1
		c-0.4,0-0.7-0.1-0.9-0.1c-0.2,0-0.3,0.1-0.3,0.2c0,0.2,0.2,0.3,0.7,0.3c0.5,0,0.8,0,0.9,0.1c0.1,0,0.4,0.9,1.1,2.7
		c0.9,2.6,2.1,5.6,3.4,9.1c-0.3,1-0.7,2.2-1.2,3.5c-0.3,0.9-0.6,1.3-0.8,1.3c-0.1,0-0.2-0.2-0.4-0.5c-0.2-0.4-0.6-0.6-1-0.6
		c-0.4,0-0.6,0.1-0.9,0.3c-0.2,0.2-0.3,0.5-0.3,0.8c0,0.4,0.1,0.7,0.4,1c0.3,0.2,0.6,0.4,1.1,0.4c1,0,1.8-0.8,2.4-2.3
		c0.9-2.5,2.1-6,3.5-10.6c0.5-1.6,0.9-2.9,1.1-3.7l0.2-0.7l0.2-0.5c0.1-0.3,0.2-0.4,0.3-0.5c0.1-0.1,0.4-0.1,0.8-0.1
		c0.4,0,0.6-0.1,0.6-0.2C261.1,132.8,261,132.7,260.8,132.7 M248.8,144.1c-0.6,0-1,0-1-0.1c-0.1,0-0.2-0.1-0.2-0.2c0-0.1,0-0.4,0-1
		v-13.1v-1.9c0-1.1,0-1.8-0.2-2.4l-0.2,0.1l-0.6,0.3c-0.7,0.3-1.5,0.5-2.4,0.6c-0.4,0-0.7,0.1-0.7,0.2c0,0.2,0.1,0.2,0.4,0.2h0.8
		h0.2c0.2,0,0.4,0.1,0.4,0.2c0,0.1,0.1,0.4,0.1,1v13.6c0,1.3,0,2,0,2.1c0,0.2-0.2,0.3-0.8,0.3h-0.7c-0.2,0-0.3,0.1-0.3,0.2
		c0,0.2,0.1,0.2,0.4,0.2c0.1,0,0.2,0,0.3,0c1.3,0,2,0,2.1,0h0.8c0.9,0,1.4,0.1,1.4,0.1h0.3c0.2,0,0.3-0.1,0.3-0.2
		C249.4,144.2,249.2,144.1,248.8,144.1 M239.1,143.1c-0.5,0.8-1.2,1.2-2.1,1.2c-0.8,0-1.5-0.4-2-1.1c-0.2-0.3-0.3-0.5-0.4-0.8
		c0-0.3-0.1-1-0.1-2.3c-0.1-2.5-0.1-4.2,0-5c0-0.6,0.3-1.2,0.7-1.6c0.4-0.4,1-0.7,1.6-0.7c1.2,0,2.1,0.7,2.7,2
		c0.4,1,0.6,2.2,0.6,3.6C240.2,140.4,239.8,141.9,239.1,143.1 M241.1,134.2c-1-1.1-2.3-1.7-3.8-1.7c-1.2,0-2.2,0.5-2.8,1.4
		c0-0.7,0-1.1-0.1-1.2c0-0.1-0.1-0.2-0.3-0.2c-0.1,0-0.3,0.1-0.5,0.2c-0.8,0.5-1.7,0.7-2.7,0.7c-0.4,0-0.6,0.1-0.6,0.3
		c0,0.1,0.1,0.2,0.2,0.2h1.1c0.5,0,0.7,0.2,0.7,0.7v13.4c0,1.5,0,2.4,0,2.5c0,0.2-0.3,0.3-0.8,0.3h-0.8c-0.2,0-0.3,0.1-0.3,0.3
		c0,0.1,0.3,0.2,0.8,0.2h1.4h1.1h0.9h0.7h0.6h0.5c0.2,0,0.3-0.1,0.3-0.2c0-0.2-0.1-0.2-0.3-0.2c-0.8,0-1.3,0-1.6-0.1
		c-0.1-0.1-0.2-0.1-0.3-0.2c0-0.1,0-0.3,0-0.7v-6.2c0.6,0.9,1.6,1.3,2.7,1.3c1.5,0,2.8-0.6,3.8-1.8c1-1.2,1.5-2.7,1.5-4.5
		C242.6,136.7,242.1,135.3,241.1,134.2 M226,143.1c-0.5,0.8-1.2,1.2-2.1,1.2c-0.8,0-1.5-0.4-2-1.1c-0.2-0.3-0.3-0.5-0.4-0.8
		c0-0.3-0.1-1-0.1-2.3c-0.1-2.5-0.1-4.2,0-5c0-0.6,0.3-1.2,0.7-1.6c0.4-0.4,1-0.7,1.6-0.7c1.2,0,2.1,0.7,2.7,2
		c0.4,1,0.6,2.2,0.6,3.6C227.1,140.4,226.7,141.9,226,143.1 M228,134.2c-1-1.1-2.3-1.7-3.8-1.7c-1.2,0-2.2,0.5-2.8,1.4
		c0-0.7,0-1.1-0.1-1.2c0-0.1-0.1-0.2-0.3-0.2c-0.1,0-0.3,0.1-0.5,0.2c-0.8,0.5-1.7,0.7-2.7,0.7c-0.4,0-0.6,0.1-0.6,0.3
		c0,0.1,0.1,0.2,0.2,0.2h1.1c0.5,0,0.7,0.2,0.7,0.7v13.4c0,1.5,0,2.4,0,2.5c0,0.2-0.3,0.3-0.8,0.3h-0.8c-0.2,0-0.3,0.1-0.3,0.3
		c0,0.1,0.3,0.2,0.8,0.2h1.4h1.1h0.9h0.7h0.6h0.5c0.2,0,0.3-0.1,0.3-0.2c0-0.2-0.1-0.2-0.3-0.2c-0.8,0-1.3,0-1.6-0.1
		c-0.1-0.1-0.2-0.1-0.3-0.2c0-0.1,0-0.3,0-0.7v-6.2c0.6,0.9,1.6,1.3,2.7,1.3c1.5,0,2.8-0.6,3.8-1.8c1-1.2,1.5-2.7,1.5-4.5
		C229.5,136.7,229,135.3,228,134.2 M213.1,142.3c-0.5,0.9-1.1,1.3-1.8,1.3c-0.5,0-0.9-0.2-1.2-0.5c-0.3-0.4-0.5-0.8-0.5-1.4
		c0-0.8,0.3-1.5,0.9-2c0.6-0.5,1.5-0.9,2.8-1.2v2C213.3,141.5,213.2,142.1,213.1,142.3 M217.9,143.1c-0.1,0-0.2,0.1-0.4,0.3
		c-0.3,0.4-0.7,0.5-1.2,0.5c-0.4,0-0.7-0.3-0.8-1c0-0.1,0-0.6,0-1.4v-5c0-1.2-0.1-2-0.2-2.4c-0.4-1.1-1.7-1.6-3.6-1.6
		c-1.3,0-2.3,0.3-3.1,1c-0.7,0.6-1,1.3-1,2.2c0,0.4,0.1,0.8,0.4,1.1c0.3,0.3,0.6,0.4,1,0.4c0.8,0,1.2-0.4,1.2-1.2
		c0-0.3-0.1-0.5-0.3-0.7c-0.2-0.2-0.4-0.3-0.6-0.3c-0.2,0-0.3-0.1-0.3-0.2c0-0.5,0.2-0.9,0.6-1.3c0.4-0.3,0.9-0.5,1.6-0.5
		c1,0,1.6,0.5,1.9,1.4c0.2,0.5,0.2,1.5,0.2,3.1v0.7c-1.5,0.3-2.5,0.6-3.1,0.9c-1.8,0.9-2.6,2-2.6,3.5c0,0.7,0.2,1.3,0.7,1.8
		c0.5,0.5,1.1,0.7,1.9,0.7c1.4,0,2.5-0.7,3.1-2c0.1,1.3,0.7,1.9,1.9,1.9c0.6,0,1.2-0.2,1.8-0.5c0.6-0.3,0.9-0.6,0.9-1
		C218,143.1,218,143.1,217.9,143.1 M199.9,131.9h-3.6v-3.5h-1.8v3.5h-2.7v1.6h2.7v7.9c0,0.7,0.1,1.3,0.3,1.7c0.2,0.4,0.4,0.8,0.8,1
		c0.3,0.3,0.6,0.4,1,0.5c0.4,0.1,0.7,0.1,1.1,0.1c0.9,0,1.7-0.2,2.4-0.5l-0.1-1.6c-0.3,0.1-0.6,0.3-0.9,0.3
		c-0.3,0.1-0.6,0.1-0.9,0.1c-0.3,0-0.5,0-0.7-0.1c-0.2-0.1-0.4-0.2-0.6-0.3c-0.2-0.2-0.3-0.4-0.4-0.7c-0.1-0.3-0.1-0.7-0.1-1.1v-7.4
		h3.6V131.9z M189.7,135.6c-0.3-0.8-0.8-1.5-1.4-2.1s-1.3-1.1-2.1-1.4c-0.8-0.3-1.7-0.5-2.7-0.5c-1,0-1.9,0.2-2.7,0.5
		c-0.8,0.3-1.5,0.8-2.1,1.4s-1.1,1.3-1.4,2.1c-0.3,0.8-0.5,1.7-0.5,2.6c0,0.9,0.2,1.8,0.5,2.6c0.3,0.8,0.8,1.5,1.4,2.1
		s1.3,1.1,2.1,1.4c0.8,0.3,1.7,0.5,2.7,0.5c1,0,1.9-0.2,2.7-0.5c0.8-0.3,1.5-0.8,2.1-1.4s1.1-1.3,1.4-2.1c0.3-0.8,0.5-1.7,0.5-2.6
		C190.2,137.2,190.1,136.4,189.7,135.6 M188,140.1c-0.2,0.6-0.5,1.1-1,1.6c-0.4,0.4-0.9,0.8-1.5,1.1c-0.6,0.3-1.2,0.4-2,0.4
		s-1.4-0.1-2-0.4c-0.6-0.3-1.1-0.6-1.5-1.1c-0.4-0.4-0.7-1-0.9-1.6c-0.2-0.6-0.3-1.3-0.3-2c0-0.7,0.1-1.3,0.3-2
		c0.2-0.6,0.5-1.1,0.9-1.6c0.4-0.4,0.9-0.8,1.5-1.1c0.6-0.3,1.2-0.4,2-0.4s1.4,0.1,2,0.4c0.6,0.3,1.1,0.6,1.5,1.1
		c0.4,0.4,0.7,1,1,1.6c0.2,0.6,0.3,1.3,0.3,2C188.3,138.9,188.2,139.5,188,140.1 M162.5,131.9c0,0.5,0.1,1,0.1,1.5
		c0,0.5,0,0.9,0,1.3v9.8h1.8V138c0-1.1,0.2-2,0.5-2.7c0.4-0.6,0.8-1.1,1.2-1.4c0.5-0.3,0.9-0.5,1.3-0.6c0.4-0.1,0.7-0.1,0.8-0.1
		c1.3,0,2.2,0.4,2.7,1.1c0.5,0.7,0.7,1.8,0.7,3.2v6.9h1.8v-8c0-1.6-0.4-2.8-1.2-3.6c-0.8-0.8-2-1.3-3.6-1.3c-0.4,0-0.8,0.1-1.2,0.2
		c-0.4,0.1-0.8,0.3-1.2,0.5c-0.4,0.2-0.7,0.5-1,0.7c-0.3,0.3-0.6,0.6-0.8,0.9h-0.1c0-0.3,0-0.7,0-1c0-0.3,0-0.7-0.1-1H162.5z
		 M152.8,131.9h-3.6v-3.5h-1.8v3.5h-2.7v1.6h2.7v7.9c0,0.7,0.1,1.3,0.3,1.7c0.2,0.4,0.4,0.8,0.8,1c0.3,0.3,0.6,0.4,1,0.5
		c0.4,0.1,0.7,0.1,1.1,0.1c0.9,0,1.7-0.2,2.4-0.5l-0.1-1.6c-0.3,0.1-0.6,0.3-0.9,0.3c-0.3,0.1-0.6,0.1-0.9,0.1c-0.3,0-0.5,0-0.7-0.1
		c-0.2-0.1-0.4-0.2-0.6-0.3c-0.2-0.2-0.3-0.4-0.4-0.7c-0.1-0.3-0.1-0.7-0.1-1.1v-7.4h3.6V131.9z M142,124.2h-1.8v20.3h1.8V124.2z
		 M133.1,136.8c-0.8,0-1.6,0-2.5,0.1c-0.9,0.1-1.8,0.2-2.5,0.5s-1.5,0.7-2,1.3c-0.5,0.6-0.8,1.4-0.8,2.4c0,0.6,0.1,1.1,0.4,1.6
		c0.2,0.5,0.6,0.8,1,1.2c0.4,0.3,0.9,0.5,1.4,0.7c0.5,0.2,1.1,0.2,1.6,0.2c1,0,1.9-0.2,2.6-0.6s1.3-1,1.8-1.8h0.1c0,0.3,0,0.7,0,1
		c0,0.4,0.1,0.7,0.1,1h1.7c-0.1-0.3-0.1-0.8-0.1-1.3c0-0.5-0.1-1-0.1-1.5V136c0-0.8-0.1-1.4-0.4-2c-0.3-0.6-0.6-1-1-1.4
		c-0.4-0.4-0.9-0.6-1.5-0.8s-1.1-0.3-1.8-0.3c-2.4,0-4.1,0.6-5.3,1.8l1.1,1.3c1.1-1,2.4-1.5,3.8-1.5c2.1,0,3.2,1.1,3.2,3.2v0.3
		H133.1z M134,138.2v0.9c0,0.6-0.1,1.1-0.2,1.6c-0.2,0.5-0.4,0.9-0.7,1.3c-0.3,0.4-0.7,0.7-1.2,0.9c-0.5,0.2-1,0.3-1.7,0.3
		c-0.4,0-0.7,0-1.1-0.1c-0.3-0.1-0.7-0.2-1-0.4c-0.3-0.2-0.5-0.4-0.7-0.7c-0.2-0.3-0.3-0.6-0.3-1.1c0-0.6,0.2-1.1,0.7-1.5
		c0.4-0.4,1-0.6,1.6-0.8c0.6-0.2,1.3-0.3,1.9-0.3c0.7,0,1.2-0.1,1.7-0.1H134z M111,144.5h1.8V138c0-1.1,0.2-2,0.5-2.7
		c0.4-0.6,0.8-1.1,1.2-1.4c0.5-0.3,0.9-0.5,1.3-0.6c0.4-0.1,0.7-0.1,0.8-0.1c1.3,0,2.2,0.4,2.7,1.1c0.5,0.7,0.7,1.8,0.7,3.2v6.9h1.8
		v-8c0-1.6-0.4-2.8-1.2-3.6c-0.8-0.8-2-1.3-3.6-1.3c-0.4,0-0.8,0.1-1.2,0.2c-0.4,0.1-0.8,0.3-1.2,0.5c-0.4,0.2-0.7,0.5-1,0.7
		c-0.3,0.3-0.6,0.6-0.8,0.9h-0.1v-9.7H111V144.5z M107.9,133.8c-0.4-0.8-1-1.4-1.7-1.7c-0.8-0.3-1.6-0.5-2.4-0.5
		c-0.6,0-1.2,0.1-1.7,0.2c-0.6,0.2-1.1,0.4-1.5,0.7c-0.4,0.3-0.8,0.7-1,1.2c-0.3,0.5-0.4,1-0.4,1.7c0,0.6,0.1,1.1,0.4,1.5
		c0.2,0.4,0.5,0.7,0.9,1c0.3,0.3,0.7,0.4,1.1,0.6c0.4,0.1,0.7,0.2,0.9,0.3l1.7,0.4c0.7,0.2,1.2,0.4,1.7,0.7c0.5,0.3,0.7,0.7,0.7,1.4
		c0,0.4-0.1,0.7-0.3,0.9c-0.2,0.3-0.4,0.5-0.7,0.7c-0.3,0.2-0.6,0.3-1,0.4c-0.4,0.1-0.7,0.1-1.1,0.1c-0.8,0-1.4-0.2-1.9-0.5
		c-0.5-0.3-1-0.8-1.4-1.4l-1.5,1c0.6,0.9,1.3,1.5,2.1,1.9s1.7,0.6,2.7,0.6c0.6,0,1.2-0.1,1.8-0.2c0.6-0.1,1.1-0.4,1.6-0.7
		c0.5-0.3,0.8-0.7,1.1-1.2c0.3-0.5,0.4-1.1,0.4-1.8c0-0.9-0.3-1.6-0.9-2.2s-1.3-1-2.2-1.2l-1.8-0.4c-0.8-0.2-1.4-0.4-1.8-0.7
		c-0.4-0.3-0.6-0.7-0.6-1.3c0-0.3,0.1-0.6,0.2-0.9c0.2-0.2,0.4-0.4,0.6-0.6c0.2-0.2,0.5-0.3,0.8-0.3c0.3-0.1,0.6-0.1,0.9-0.1
		c0.6,0,1.2,0.2,1.6,0.5c0.4,0.3,0.8,0.7,1.1,1.2L107.9,133.8z M91.3,143.1l-0.8-0.1c-1-0.1-1.2-0.2-1.2-1.6v-9
		c-1.4,0.3-2.8,0.4-4.2,0.5v0.6c1.9,0.3,2.1,0.4,2.1,1.9v6.2c-0.9,0.9-1.9,1.3-2.9,1.3c-1.2,0-2.4-0.6-2.4-3v-3.6
		c0-1.8,0-3.1,0.1-3.9c-1.3,0.2-2.6,0.4-3.8,0.5v0.6c1.5,0.3,1.6,0.4,1.6,1.9v5.3c0,2.9,1.5,4,3.3,4c0.7,0,1.3-0.2,2.1-0.7
		c0.8-0.5,1.4-0.9,2-1.4v1.9l0.2,0.2c1.3-0.4,2.7-0.8,3.9-1V143.1z M70.6,133.3c2.3,0,3.6,2.5,3.6,5.7c0,3.7-1.4,4.9-3,4.9
		c-2.2,0-3.7-2.5-3.7-5.9C67.5,135,68.9,133.3,70.6,133.3 M70.9,132.4c-2.4,0-5.9,2-5.9,6.4c0,3,2.2,5.9,5.9,5.9
		c2.7,0,5.8-2.1,5.8-6.4C76.7,135.1,74.2,132.4,70.9,132.4 M63.6,144.5v-0.7c-1.6-0.2-1.8-0.3-1.8-2.1V137c0-3.2-1.5-4.6-3.8-4.6
		c-1.4,0-2.8,0.9-3.7,1.9v-9c-0.8,0.3-1.6,0.5-2.1,0.6v0.4c0,0.5-0.3,0.7-2.6,0.7H38.4c-0.8,0-1.1-0.1-1.4-0.7h-0.5
		c-0.1,1.5-0.2,3.3-0.3,4.8h0.8c0.3-1.2,0.5-1.8,0.9-2.3c0.4-0.6,0.9-0.9,3.3-0.9h1.7v13.1c0,2.3-0.2,2.5-2.6,2.7v0.7h7.5v-0.7
		c-2.4-0.2-2.7-0.4-2.7-2.7V128h1.9c2.4,0,3.8,0,5.3,0.2v13.5c0,1.8-0.2,2-1.9,2.1v0.7H56v-0.7c-1.6-0.2-1.7-0.4-1.7-2.1v-6.3
		C55,134.5,56,134,57,134c1.8,0,2.7,1.1,2.7,3.3v4.4c0,1.8-0.2,2-1.8,2.1v0.7H63.6z"/>
</g>
</svg>
