<?xml version="1.0" encoding="utf-8"?>
<!-- Generator: Adobe Illustrator 21.0.2, SVG Export Plug-In . SVG Version: 6.00 Build 0)  -->
<!DOCTYPE svg PUBLIC "-//W3C//DTD SVG 1.1//EN" "http://www.w3.org/Graphics/SVG/1.1/DTD/svg11.dtd">
<svg version="1.1" id="Layer_1" xmlns="http://www.w3.org/2000/svg" xmlns:xlink="http://www.w3.org/1999/xlink" x="0px" y="0px"
	 viewBox="0 0 340.1 333.7" style="enable-background:new 0 0 340.1 333.7;" xml:space="preserve">
<style type="text/css">
	.st0{fill:#231F20;}
	.st1{clip-path:url(#SVGID_2_);fill:#FFFFFF;}
</style>
<rect x="0" class="st0" width="340.1" height="333.7"/>
<g>
	<defs>
		<rect id="SVGID_1_" x="0" width="340.1" height="333.7"/>
	</defs>
	<clipPath id="SVGID_2_">
		<use xlink:href="#SVGID_1_"  style="overflow:visible;"/>
	</clipPath>
	<path class="st1" d="M45.4,37.1c0.6,0,1.1-0.4,1.1-1.1c0-0.6-0.5-1.1-1.1-1.1s-1.1,0.5-1.1,1.1C44.3,36.7,44.8,37.1,45.4,37.1
		 M42.6,25h-7.3c-0.1,0.8-0.2,1.8-0.3,2.8h0.6c0.5-1.3,0.6-1.4,1.8-1.4h4.1c-1.5,3.3-3.7,7.3-5.7,10.6l0.1,0.2l1.4-0.2
		c1.8-3.9,3.6-7.9,5.4-11.7L42.6,25z"/>
	<path class="st1" d="M183.3,234c0.9,0,1.5-0.6,1.5-1.6c0-0.9-0.6-1.5-1.5-1.5c-0.9,0-1.5,0.7-1.5,1.5
		C181.8,233.4,182.4,234,183.3,234 M183,216.2H177v0.8c2.1,0.2,2.2,0.4,1.6,1.8c-0.8,1.6-2.2,4.3-3.2,6c-1.2-2-2.5-4.2-3.6-6.4
		c-0.5-0.9-0.6-1.2,1.3-1.4v-0.8h-6.4v0.8c1.6,0.2,1.9,0.5,3,2.3c1.5,2.5,2.4,4.2,3.4,5.9c0.5,0.8,0.6,1,0.6,1.6v3.6
		c0,2.3-0.2,2.4-2.6,2.6v0.8h7.6v-0.8c-2.5-0.2-2.7-0.3-2.7-2.6v-3.6c0-0.7,0.1-1,0.4-1.7c1.3-2.4,2.2-3.9,3.4-5.9
		c1-1.6,1.3-1.9,3.2-2.1V216.2z M156.9,218.7c0-0.8,0.1-1.1,0.3-1.3c0.2-0.2,0.8-0.3,1.5-0.3c2.2,0,4,1.2,4,4.1
		c0,3.4-2.1,4.3-3.9,4.3c-0.9,0-1.6-0.2-2-0.3V218.7z M152.5,216.2v0.8c2,0.1,2.2,0.2,2.2,2.6v10.7c0,2.2-0.2,2.4-2.4,2.6v0.8h7.3
		v-0.8c-2.4-0.2-2.7-0.3-2.7-2.6v-4.2l2,0.5c0.3,0,0.8,0,1.2,0c2.6-0.3,5.2-2,5.2-5.5c0-1.8-0.7-3-1.7-3.8c-1.1-0.8-2.6-1.1-4.5-1.1
		H152.5z M141.1,216.8c3.5,0,6.5,3,6.5,8.7c0,5.1-2.7,7.6-5.7,7.6c-3.8,0-6.5-3.7-6.5-8.7C135.4,219.4,138.1,216.8,141.1,216.8
		 M141.7,215.8c-5.6,0-9,4.5-9,9.3c0,5.1,3.9,8.9,8.7,8.9c4.9,0,9-3.5,9-9.3C150.3,219.4,146.2,215.8,141.7,215.8 M129.9,228.9
		c-1.3,2.7-2.8,4.2-5.5,4.2c-4.1,0-7-3.4-7-8.4c0-4.1,2.4-7.9,6.9-7.9c2.9,0,4.5,1.2,5.2,4l0.8-0.2c-0.2-1.4-0.3-2.5-0.5-4
		c-0.8-0.1-2.6-0.7-4.7-0.7c-6,0-10.3,3.7-10.3,9.4c0,4.3,2.9,8.9,9.6,8.9c1.9,0,4.2-0.5,4.9-0.7c0.5-0.9,1.2-2.9,1.5-4.1
		L129.9,228.9z M107,216.2h-5.9v0.8c2.1,0.2,2.2,0.4,1.6,1.8c-0.8,1.6-2.2,4.3-3.2,6c-1.2-2-2.5-4.2-3.6-6.4
		c-0.5-0.9-0.6-1.2,1.3-1.4v-0.8h-6.4v0.8c1.6,0.2,1.9,0.5,3,2.3c1.5,2.5,2.4,4.2,3.4,5.9c0.5,0.8,0.6,1,0.6,1.6v3.6
		c0,2.3-0.2,2.4-2.6,2.6v0.8h7.6v-0.8c-2.5-0.2-2.7-0.3-2.7-2.6v-3.6c0-0.7,0.1-1,0.4-1.7c1.3-2.4,2.2-3.9,3.4-5.9
		c1-1.6,1.3-1.9,3.2-2.1V216.2z M77.2,219c0-1,0.1-1.3,0.3-1.5s1-0.3,2.1-0.3c1.8,0,3.4,0.3,4.6,1.1c2.1,1.3,3.2,3.6,3.2,6.4
		c0,4.3-2.3,8-7.3,8c-2,0-2.8-0.5-2.8-2.5V219z M72.6,216.2v0.8c2.1,0.2,2.3,0.3,2.3,2.6v10.8c0,2.3-0.2,2.4-2.5,2.6v0.7h6.4
		c3.3,0,6-0.7,8-2.2c2.1-1.6,3.3-3.9,3.3-7.2c0-2.5-0.9-4.5-2.3-5.8c-1.7-1.6-4.2-2.3-7.6-2.3H72.6z M61.3,216.8
		c3.5,0,6.5,3,6.5,8.7c0,5.1-2.7,7.6-5.7,7.6c-3.8,0-6.5-3.7-6.5-8.7C55.6,219.4,58.3,216.8,61.3,216.8 M61.9,215.8
		c-5.6,0-9,4.5-9,9.3c0,5.1,3.9,8.9,8.7,8.9c4.9,0,9-3.5,9-9.3C70.5,219.4,66.4,215.8,61.9,215.8 M41.1,224.8h1.2
		c3.3,0,5.1,1.2,5.1,4c0,2.8-2,3.9-4.2,3.9c-1.7,0-2.2-0.5-2.2-2.4V224.8z M41.1,224v-5.3c0-0.9,0.1-1.2,0.3-1.3
		c0.3-0.2,0.9-0.3,1.5-0.3c2.5,0,3.6,1.6,3.6,3.4c0,2.3-1.2,3.4-4.2,3.4H41.1z M45.4,224.2c1.5-0.4,3.6-1.4,3.6-4
		c0-1.2-0.5-2.4-1.5-3.1c-0.8-0.6-2-0.9-4-0.9h-6.9v0.8c2.1,0.2,2.3,0.3,2.3,2.5v10.8c0,2.3-0.2,2.4-2.5,2.6v0.8h5.9
		c2.1,0,3.9-0.3,5.3-1.1c1.6-0.9,2.6-2.3,2.6-4C50.1,225.9,48,224.7,45.4,224.2L45.4,224.2z"/>
	<path class="st1" d="M300.9,188.1c-0.1-1.6-0.3-3.5-0.3-4.7h-0.6c-0.4,0.5-0.6,0.7-1.4,0.7h-10.6c-0.8,0-1.1-0.1-1.5-0.7h-0.5
		c-0.1,1.5-0.2,3.2-0.3,4.8h0.8c0.3-1.2,0.5-1.9,0.9-2.4c0.3-0.6,0.9-0.8,3.1-0.8h1.7v13.2c0,2.1-0.2,2.4-2.7,2.5v0.8h7.7v-0.8
		c-2.5-0.2-2.8-0.4-2.8-2.5V185h1.9c2,0,2.5,0.2,2.9,0.8c0.3,0.4,0.6,1.1,0.9,2.4L300.9,188.1z M283.6,188c-0.2-1.7-0.3-2.7-0.5-3.7
		c-1-0.3-2.1-0.6-3.4-0.6c-3.5,0-5.5,2.2-5.5,4.8c0,3,2.7,4.4,4.4,5.3c2,1.1,3.5,2,3.5,4c0,2-1.2,3.2-3.2,3.2c-2.8,0-4-2.7-4.4-4.3
		l-0.8,0.2c0.2,1.3,0.5,3.6,0.7,4.2c0.2,0.1,0.6,0.3,1.3,0.6c0.7,0.2,1.5,0.4,2.6,0.4c3.6,0,6-2.3,6-5.1c0-3-2.5-4.3-4.6-5.3
		c-2.1-1.1-3.4-2-3.4-4c0-1.4,0.9-2.9,3-2.9c2.3,0,3,1.8,3.5,3.6L283.6,188z M265.4,194h-4.9c0.8-2.2,1.7-4.5,2.5-6.8h0.1L265.4,194
		z M272.2,201.5v-0.8c-1.7-0.2-2.1-0.4-2.9-2.7c-1.7-4.7-3.5-9.8-5.2-14.4l-0.8,0.2l-5.5,14.1c-0.9,2.4-1.3,2.5-3,2.8v0.8h5.8v-0.8
		c-2-0.2-2.3-0.5-1.7-2.1c0.3-1.1,0.8-2.3,1.2-3.5h5.7c0.6,1.6,1.1,3.1,1.5,4.1c0.3,1,0.1,1.3-1.6,1.5v0.8H272.2z M257,184.1h-6v0.8
		c2.2,0.3,2.3,0.5,1.8,2c-0.9,2.7-2.9,7.9-4.2,11.3h-0.1c-1.8-4.6-3.8-9.8-4.5-11.7c-0.4-1.2-0.3-1.4,1.6-1.6v-0.8h-6.6v0.8
		c1.6,0.1,2,0.3,2.8,2.4c1.6,3.9,3.8,9.7,5.5,14.6h0.8c2-5.5,4.9-12.3,5.6-14.1c1-2.4,1.4-2.7,3.2-2.9V184.1z M231.9,193.4h-6.8v0.7
		c2.6,0.2,2.8,0.4,2.8,2.3v2.3c0,1.1-0.3,1.4-0.9,1.7c-0.6,0.3-1.4,0.5-2.3,0.5c-5.2,0-7.5-4.5-7.5-8.4c0-5,3-8,7.1-8
		c2.5,0,4.6,0.9,5.2,4.2l0.8-0.2c-0.2-1.8-0.3-3.2-0.4-4.2c-0.9-0.2-2.9-0.8-5.1-0.8c-5.3,0-10.2,3-10.2,9.2c0,5.3,3.9,9,9.8,9
		c2.1,0,4.3-0.6,6-1c-0.2-0.7-0.2-1.6-0.2-2.5v-2.3c0-1.6,0.1-1.7,1.7-2V193.4z M212.9,184.1h-6.3v0.8c1.8,0.1,2.5,0.5,2.6,1.7
		c0.1,0.8,0.2,2,0.2,4.5v6.6h-0.1l-11.2-13.5h-4v0.8c1.3,0.1,1.8,0.3,2.4,1c0.5,0.6,0.5,0.8,0.5,2.7v5.9c0,2.5-0.1,3.8-0.2,4.6
		c-0.1,1.3-0.8,1.7-2.4,1.7v0.8h6.4v-0.8c-1.8-0.1-2.4-0.4-2.6-1.8c-0.1-0.8-0.2-2.1-0.2-4.5v-6.7h0.1l11.4,14h0.8v-10.8
		c0-2.5,0.1-3.7,0.2-4.5c0.1-1.2,0.8-1.5,2.3-1.6V184.1z M192.6,201.5v-0.8c-2.2-0.2-2.4-0.3-2.4-2.6v-10.7c0-2.3,0.2-2.4,2.4-2.6
		v-0.8h-7.1v0.8c2.2,0.2,2.4,0.3,2.4,2.6v10.7c0,2.3-0.2,2.4-2.4,2.6v0.8H192.6z M183.8,188.1c-0.1-1.6-0.3-3.5-0.3-4.7H183
		c-0.4,0.5-0.6,0.7-1.4,0.7H171c-0.8,0-1.1-0.1-1.5-0.7H169c-0.1,1.5-0.2,3.2-0.3,4.8h0.8c0.3-1.2,0.5-1.9,0.9-2.4
		c0.3-0.6,0.9-0.8,3.1-0.8h1.7v13.2c0,2.1-0.2,2.4-2.7,2.5v0.8h7.7v-0.8c-2.5-0.2-2.8-0.4-2.8-2.5V185h1.9c2,0,2.5,0.2,2.9,0.8
		c0.3,0.4,0.6,1.1,0.9,2.4L183.8,188.1z M166.6,188.1c-0.1-1.6-0.3-3.5-0.3-4.7h-0.6c-0.4,0.5-0.6,0.7-1.4,0.7h-10.6
		c-0.8,0-1.1-0.1-1.5-0.7h-0.5c-0.1,1.5-0.2,3.2-0.3,4.8h0.8c0.3-1.2,0.5-1.9,0.9-2.4c0.3-0.6,0.9-0.8,3.1-0.8h1.7v13.2
		c0,2.1-0.2,2.4-2.7,2.5v0.8h7.7v-0.8c-2.5-0.2-2.8-0.4-2.8-2.5V185h1.9c2,0,2.5,0.2,2.9,0.8c0.3,0.4,0.6,1.1,0.9,2.4L166.6,188.1z
		 M149.4,197.1c-0.3,1.1-0.9,2-1.3,2.5c-0.6,0.7-1.3,0.9-3.4,0.9c-1.3,0-2.3,0-2.8-0.3c-0.5-0.3-0.6-0.9-0.6-2.2V193h2.5
		c2.3,0,2.5,0.2,2.9,2.1h0.8v-5.1h-0.8c-0.3,1.8-0.5,2-2.9,2h-2.5v-6.1c0-0.8,0.1-0.9,0.9-0.9h2c1.9,0,2.7,0.2,3,0.8
		c0.3,0.6,0.6,1.2,0.9,2.3l0.8-0.1c-0.1-1.4-0.2-3.2-0.2-3.9h-12v0.8c2.1,0.2,2.3,0.3,2.3,2.7v10.7c0,2.2-0.2,2.4-2.7,2.6v0.8h12.9
		c0.2-0.8,0.8-3.4,0.9-4.2L149.4,197.1z M134.2,188c-0.2-1.7-0.3-2.7-0.5-3.7c-1-0.3-2.1-0.6-3.4-0.6c-3.5,0-5.5,2.2-5.5,4.8
		c0,3,2.7,4.4,4.4,5.3c2,1.1,3.5,2,3.5,4c0,2-1.2,3.2-3.2,3.2c-2.8,0-4-2.7-4.4-4.3l-0.8,0.2c0.2,1.3,0.5,3.6,0.7,4.2
		c0.2,0.1,0.6,0.3,1.3,0.6c0.7,0.2,1.5,0.4,2.6,0.4c3.6,0,6-2.3,6-5.1c0-3-2.5-4.3-4.6-5.3c-2.1-1.1-3.4-2-3.4-4
		c0-1.4,0.9-2.9,3-2.9c2.3,0,3,1.8,3.5,3.6L134.2,188z M116.5,184.1h-6.3v0.8c1.8,0.1,2.5,0.5,2.6,1.7c0.1,0.8,0.2,2,0.2,4.5v6.6
		h-0.1l-11.2-13.5h-4v0.8c1.3,0.1,1.8,0.3,2.4,1c0.5,0.6,0.5,0.8,0.5,2.7v5.9c0,2.5-0.1,3.8-0.2,4.6c-0.1,1.3-0.8,1.7-2.4,1.7v0.8
		h6.4v-0.8c-1.8-0.1-2.4-0.4-2.6-1.8c-0.1-0.8-0.2-2.1-0.2-4.5v-6.7h0.1l11.4,14h0.8v-10.8c0-2.5,0.1-3.7,0.2-4.5
		c0.1-1.2,0.8-1.5,2.3-1.6V184.1z M95.8,197.1c-0.3,1.1-0.9,2-1.3,2.5c-0.6,0.7-1.3,0.9-3.4,0.9c-1.3,0-2.3,0-2.8-0.3
		c-0.5-0.3-0.6-0.9-0.6-2.2V193h2.5c2.3,0,2.5,0.2,2.9,2.1h0.8v-5.1h-0.8c-0.3,1.8-0.5,2-2.9,2h-2.5v-6.1c0-0.8,0.1-0.9,0.9-0.9h2
		c1.9,0,2.7,0.2,3,0.8c0.3,0.6,0.6,1.2,0.9,2.3l0.8-0.1c-0.1-1.4-0.2-3.2-0.2-3.9h-12v0.8c2.1,0.2,2.3,0.3,2.3,2.7v10.7
		c0,2.2-0.2,2.4-2.7,2.6v0.8h12.9c0.2-0.8,0.8-3.4,0.9-4.2L95.8,197.1z M81,184.1h-7v0.8c2.1,0.2,2.3,0.3,2.3,2.5v4.3h-9.1v-4.3
		c0-2.2,0.2-2.4,2.3-2.5v-0.8h-6.9v0.8c2.2,0.2,2.4,0.3,2.4,2.5v10.8c0,2.3-0.2,2.4-2.4,2.5v0.8h7.1v-0.8c-2.2-0.2-2.4-0.3-2.4-2.5
		v-5.4h9.1v5.4c0,2.3-0.2,2.4-2.5,2.5v0.8h7.2v-0.8c-2.2-0.2-2.4-0.3-2.4-2.5v-10.8c0-2.2,0.2-2.4,2.4-2.5V184.1z M61,184.1h-5.9
		v0.8c2.1,0.2,2.2,0.5,1.8,2.1c-0.4,1.9-1.9,7.2-3,10.7h-0.1c-1.6-4.6-3.2-9-4.7-13.4h-0.8c-1.4,4.4-2.9,8.8-4.3,13.4H44
		c-1.2-3.8-2.2-7.4-3.3-11c-0.4-1.4-0.3-1.6,1.6-1.8v-0.8h-6.5v0.8c1.6,0.2,2,0.4,2.7,2.6c1.5,4.8,3,9.5,4.4,14.3h0.8
		c1.4-4.3,2.9-8.6,4.4-13.4h0.1c1.4,3.9,3.2,9.1,4.7,13.4h0.8c2.2-7.5,3.8-12.5,4.4-14.3c0.8-2.2,1-2.4,2.9-2.7V184.1z"/>
	<path class="st1" d="M283.2,155.8c-0.2-1.7-0.3-2.7-0.5-3.7c-1-0.3-2.1-0.6-3.4-0.6c-3.5,0-5.5,2.2-5.5,4.8c0,3,2.7,4.4,4.4,5.3
		c2,1.1,3.5,2,3.5,4c0,2-1.2,3.2-3.2,3.2c-2.8,0-4-2.7-4.4-4.3l-0.8,0.2c0.2,1.3,0.5,3.6,0.7,4.2c0.2,0.1,0.6,0.3,1.3,0.6
		c0.7,0.2,1.5,0.4,2.6,0.4c3.6,0,6-2.3,6-5.1c0-3-2.5-4.3-4.6-5.3c-2.1-1.1-3.4-2-3.4-4c0-1.4,0.9-2.9,3-2.9c2.3,0,3,1.8,3.5,3.6
		L283.2,155.8z M271.1,164.9c-0.4,1.2-0.9,2.1-1.4,2.6c-0.6,0.7-1.5,0.8-3,0.8c-1.1,0-2-0.1-2.6-0.3c-0.5-0.3-0.6-0.8-0.6-2.3v-10.6
		c0-2.3,0.2-2.4,2.4-2.6v-0.8h-7v0.8c2.2,0.2,2.4,0.3,2.4,2.6v10.7c0,2.3-0.2,2.5-2.5,2.6v0.8h12.1c0.2-0.8,0.8-3.4,1-4.2
		L271.1,164.9z M250.5,161.8h-4.9c0.8-2.2,1.7-4.5,2.5-6.8h0.1L250.5,161.8z M257.3,169.3v-0.8c-1.7-0.2-2.1-0.4-2.9-2.7
		c-1.7-4.7-3.5-9.8-5.2-14.4l-0.8,0.2l-5.5,14.1c-0.9,2.4-1.3,2.5-3,2.8v0.8h5.8v-0.8c-2-0.2-2.3-0.5-1.7-2.1
		c0.3-1.1,0.8-2.3,1.2-3.5h5.7c0.6,1.6,1.1,3.1,1.5,4.1c0.3,1,0.1,1.3-1.6,1.5v0.8H257.3z M240.6,156c-0.1-1.6-0.3-3.5-0.3-4.7h-0.6
		c-0.4,0.5-0.6,0.7-1.4,0.7h-10.6c-0.8,0-1.1-0.1-1.5-0.7h-0.5c-0.1,1.5-0.2,3.2-0.3,4.8h0.8c0.3-1.2,0.5-1.9,0.9-2.4
		c0.3-0.6,0.9-0.8,3.1-0.8h1.7V166c0,2.1-0.2,2.4-2.7,2.5v0.8h7.7v-0.8c-2.5-0.2-2.8-0.4-2.8-2.5v-13.2h1.9c2,0,2.5,0.2,2.9,0.8
		c0.3,0.4,0.6,1.1,0.9,2.4L240.6,156z M223.7,169.3v-0.8c-2.2-0.2-2.4-0.3-2.4-2.6v-10.7c0-2.3,0.2-2.4,2.4-2.6v-0.8h-7.1v0.8
		c2.2,0.2,2.4,0.3,2.4,2.6V166c0,2.3-0.2,2.4-2.4,2.6v0.8H223.7z M206.3,154.3c0-0.8,0.1-1.1,0.3-1.3c0.2-0.2,0.8-0.3,1.5-0.3
		c2.2,0,4,1.2,4,4.1c0,3.4-2.1,4.3-3.9,4.3c-0.9,0-1.6-0.2-2-0.3V154.3z M201.8,151.9v0.8c2,0.1,2.2,0.2,2.2,2.6V166
		c0,2.2-0.2,2.4-2.4,2.6v0.8h7.3v-0.8c-2.4-0.2-2.7-0.3-2.7-2.6v-4.2l2,0.5c0.3,0,0.8,0,1.2,0c2.6-0.3,5.2-2,5.2-5.5
		c0-1.8-0.7-3-1.7-3.8c-1.1-0.8-2.6-1.1-4.5-1.1H201.8z M193.3,161.8h-4.9c0.8-2.2,1.7-4.5,2.5-6.8h0.1L193.3,161.8z M200.1,169.3
		v-0.8c-1.7-0.2-2.1-0.4-2.9-2.7c-1.7-4.7-3.5-9.8-5.2-14.4l-0.8,0.2l-5.5,14.1c-0.9,2.4-1.3,2.5-3,2.8v0.8h5.8v-0.8
		c-2-0.2-2.3-0.5-1.7-2.1c0.3-1.1,0.8-2.3,1.2-3.5h5.7c0.6,1.6,1.1,3.1,1.5,4.1c0.3,1,0.1,1.3-1.6,1.5v0.8H200.1z M180.7,164.6
		c-1.3,2.7-2.8,4.2-5.5,4.2c-4.1,0-7-3.4-7-8.4c0-4.1,2.4-7.9,6.9-7.9c2.9,0,4.5,1.2,5.2,4l0.8-0.2c-0.2-1.4-0.3-2.5-0.5-4
		c-0.8-0.1-2.6-0.7-4.7-0.7c-6,0-10.3,3.7-10.3,9.4c0,4.3,2.9,8.9,9.6,8.9c1.9,0,4.2-0.5,4.9-0.7c0.5-0.9,1.2-2.9,1.5-4.1
		L180.7,164.6z M157.8,151.9h-5.9v0.8c2.1,0.2,2.2,0.4,1.6,1.8c-0.8,1.6-2.2,4.3-3.2,6c-1.2-2-2.5-4.2-3.6-6.4
		c-0.5-0.9-0.6-1.2,1.3-1.4v-0.8h-6.4v0.8c1.6,0.2,1.9,0.5,3,2.3c1.5,2.5,2.4,4.2,3.4,5.9c0.5,0.8,0.6,1,0.6,1.6v3.6
		c0,2.3-0.2,2.4-2.6,2.6v0.8h7.6v-0.8c-2.5-0.2-2.7-0.3-2.7-2.6v-3.6c0-0.7,0.1-1,0.4-1.7c1.3-2.4,2.2-3.9,3.4-5.9
		c1-1.6,1.3-1.9,3.2-2.1V151.9z M141.8,164.9c-0.4,1.2-0.9,2.1-1.4,2.6c-0.6,0.7-1.5,0.8-3,0.8c-1.1,0-2-0.1-2.6-0.3
		c-0.5-0.3-0.6-0.8-0.6-2.3v-10.6c0-2.3,0.2-2.4,2.4-2.6v-0.8h-7v0.8c2.2,0.2,2.4,0.3,2.4,2.6v10.7c0,2.3-0.2,2.5-2.5,2.6v0.8h12.1
		c0.2-0.8,0.8-3.4,1-4.2L141.8,164.9z M127.9,151.9h-6.3v0.8c1.8,0.1,2.5,0.5,2.6,1.7c0.1,0.8,0.2,2,0.2,4.5v6.6h-0.1l-11.2-13.5h-4
		v0.8c1.3,0.1,1.8,0.3,2.4,1c0.5,0.6,0.5,0.8,0.5,2.7v5.9c0,2.5-0.1,3.8-0.2,4.6c-0.1,1.3-0.8,1.7-2.4,1.7v0.8h6.4v-0.8
		c-1.8-0.1-2.4-0.4-2.6-1.8c-0.1-0.8-0.2-2.1-0.2-4.5v-6.7h0.1l11.4,14h0.8v-10.8c0-2.5,0.1-3.7,0.2-4.5c0.1-1.2,0.8-1.5,2.3-1.6
		V151.9z M98.5,152.5c3.5,0,6.5,3,6.5,8.7c0,5.1-2.7,7.6-5.7,7.6c-3.8,0-6.5-3.7-6.5-8.7C92.7,155,95.5,152.5,98.5,152.5 M99,151.5
		c-5.6,0-9,4.5-9,9.3c0,5.1,3.9,8.9,8.7,8.9c4.9,0,9-3.5,9-9.3C107.7,155,103.6,151.5,99,151.5 M81.3,165c-0.3,1.1-0.9,2-1.3,2.5
		c-0.6,0.7-1.3,0.9-3.4,0.9c-1.3,0-2.3,0-2.8-0.3c-0.5-0.3-0.6-0.9-0.6-2.2v-5.1h2.5c2.3,0,2.5,0.2,2.9,2.1h0.8v-5.1h-0.8
		c-0.3,1.8-0.5,2-2.9,2h-2.5v-6.1c0-0.8,0.1-0.9,0.9-0.9h2c1.9,0,2.7,0.2,3,0.8c0.3,0.6,0.6,1.2,0.9,2.3l0.8-0.1
		c-0.1-1.4-0.2-3.2-0.2-3.9h-12v0.8c2.1,0.2,2.3,0.3,2.3,2.7V166c0,2.2-0.2,2.4-2.7,2.6v0.8h12.9c0.2-0.8,0.8-3.4,0.9-4.2L81.3,165z
		 M66.1,155.8c-0.2-1.7-0.3-2.7-0.5-3.7c-1-0.3-2.1-0.6-3.4-0.6c-3.5,0-5.5,2.2-5.5,4.8c0,3,2.7,4.4,4.4,5.3c2,1.1,3.5,2,3.5,4
		c0,2-1.2,3.2-3.2,3.2c-2.8,0-4-2.7-4.4-4.3l-0.8,0.2c0.2,1.3,0.5,3.6,0.7,4.2c0.2,0.1,0.6,0.3,1.3,0.6c0.7,0.2,1.5,0.4,2.6,0.4
		c3.6,0,6-2.3,6-5.1c0-3-2.5-4.3-4.6-5.3c-2.1-1.1-3.4-2-3.4-4c0-1.4,0.9-2.9,3-2.9c2.3,0,3,1.8,3.5,3.6L66.1,155.8z M54.6,151.9
		h-6.4v0.8c1.9,0.1,2.4,0.5,2.6,1.5c0.1,0.8,0.2,2,0.2,4.4v2c0,4.4-1.2,7.6-5.1,7.6c-3.3,0-5-2.5-5-6.8v-6.1c0-2.4,0.2-2.6,2.3-2.7
		v-0.8h-6.9v0.8c2.1,0.2,2.3,0.3,2.3,2.7v6.7c0,3.1,0.8,5.1,2.4,6.4c1.2,0.9,2.7,1.3,4.3,1.3c1.8,0,3.6-0.6,4.8-1.8
		c1.6-1.6,2-3.9,2-7.1v-2.2c0-2.5,0.1-3.6,0.1-4.3c0.1-1.1,0.8-1.5,2.4-1.6V151.9z"/>
	<path class="st1" d="M259,123.8c-0.1-1.6-0.3-3.5-0.3-4.7h-0.6c-0.4,0.5-0.6,0.7-1.4,0.7h-10.6c-0.8,0-1.1-0.1-1.5-0.7h-0.5
		c-0.1,1.5-0.2,3.2-0.3,4.8h0.8c0.3-1.2,0.5-1.9,0.9-2.4c0.3-0.6,0.9-0.8,3.1-0.8h1.7v13.2c0,2.1-0.2,2.4-2.7,2.5v0.8h7.7v-0.8
		c-2.5-0.2-2.8-0.4-2.8-2.5v-13.2h1.9c2,0,2.5,0.2,2.9,0.8c0.3,0.4,0.6,1.1,0.9,2.4L259,123.8z M232.9,120.3c3.5,0,6.5,3,6.5,8.7
		c0,5.1-2.7,7.6-5.7,7.6c-3.8,0-6.5-3.7-6.5-8.7C227.2,122.9,229.9,120.3,232.9,120.3 M233.4,119.3c-5.6,0-9,4.5-9,9.3
		c0,5.1,3.9,8.9,8.7,8.9c4.9,0,9-3.5,9-9.3C242.1,122.9,238,119.3,233.4,119.3 M222.8,119.7h-6.3v0.8c1.8,0.1,2.5,0.5,2.6,1.7
		c0.1,0.8,0.2,2,0.2,4.5v6.6h-0.1L208,119.7h-4v0.8c1.3,0.1,1.8,0.3,2.4,1c0.5,0.6,0.5,0.8,0.5,2.7v5.9c0,2.5-0.1,3.8-0.2,4.6
		c-0.1,1.3-0.8,1.7-2.4,1.7v0.8h6.4v-0.8c-1.8-0.1-2.4-0.4-2.6-1.8c-0.1-0.8-0.2-2.1-0.2-4.5v-6.7h0.1l11.4,14h0.8v-10.8
		c0-2.5,0.1-3.7,0.2-4.5c0.1-1.2,0.8-1.5,2.3-1.6V119.7z M196.8,123.8c-0.1-1.6-0.3-3.5-0.3-4.7h-0.6c-0.4,0.5-0.6,0.7-1.4,0.7H184
		c-0.8,0-1.1-0.1-1.5-0.7H182c-0.1,1.5-0.2,3.2-0.3,4.8h0.8c0.3-1.2,0.5-1.9,0.9-2.4c0.3-0.6,0.9-0.8,3.1-0.8h1.7v13.2
		c0,2.1-0.2,2.4-2.7,2.5v0.8h7.7v-0.8c-2.5-0.2-2.8-0.4-2.8-2.5v-13.2h1.9c2,0,2.5,0.2,2.9,0.8c0.3,0.4,0.6,1.1,0.9,2.4L196.8,123.8
		z M181.4,132.8c-0.4,1.2-0.9,2.1-1.4,2.6c-0.6,0.7-1.5,0.8-3,0.8c-1.1,0-2-0.1-2.6-0.3c-0.5-0.3-0.6-0.8-0.6-2.3V123
		c0-2.3,0.2-2.4,2.4-2.6v-0.8h-7v0.8c2.2,0.2,2.4,0.3,2.4,2.6v10.7c0,2.3-0.2,2.5-2.5,2.6v0.8h12.1c0.2-0.8,0.8-3.4,1-4.2
		L181.4,132.8z M160.9,129.6h-4.9c0.8-2.2,1.7-4.5,2.5-6.8h0.1L160.9,129.6z M167.7,137.1v-0.8c-1.7-0.2-2.1-0.4-2.9-2.7
		c-1.7-4.7-3.5-9.8-5.2-14.4l-0.8,0.2l-5.5,14.1c-0.9,2.4-1.3,2.5-3,2.8v0.8h5.8v-0.8c-2-0.2-2.3-0.5-1.7-2.1
		c0.3-1.1,0.8-2.3,1.2-3.5h5.7c0.6,1.6,1.1,3.1,1.5,4.1c0.3,1,0.1,1.3-1.6,1.5v0.8H167.7z M149.6,119.7h-7v0.8
		c2.1,0.2,2.3,0.3,2.3,2.5v4.3h-9.1V123c0-2.2,0.2-2.4,2.3-2.5v-0.8h-6.9v0.8c2.2,0.2,2.4,0.3,2.4,2.5v10.8c0,2.3-0.2,2.4-2.4,2.5
		v0.8h7.1v-0.8c-2.2-0.2-2.4-0.3-2.4-2.5v-5.4h9.1v5.4c0,2.3-0.2,2.4-2.5,2.5v0.8h7.2v-0.8c-2.2-0.2-2.4-0.3-2.4-2.5V123
		c0-2.2,0.2-2.4,2.4-2.5V119.7z M128.7,123.6c-0.2-1.7-0.3-2.7-0.5-3.7c-1-0.3-2.1-0.6-3.4-0.6c-3.5,0-5.5,2.2-5.5,4.8
		c0,3,2.7,4.4,4.4,5.3c2,1.1,3.5,2,3.5,4c0,2-1.2,3.2-3.2,3.2c-2.8,0-4-2.7-4.4-4.3l-0.8,0.2c0.2,1.3,0.5,3.6,0.7,4.2
		c0.2,0.1,0.6,0.3,1.3,0.6c0.7,0.2,1.5,0.4,2.6,0.4c3.6,0,6-2.3,6-5.1c0-3-2.5-4.3-4.6-5.3c-2.1-1.1-3.4-2-3.4-4
		c0-1.4,0.9-2.9,3-2.9c2.3,0,3,1.8,3.5,3.6L128.7,123.6z M111.1,119.7h-6.4v0.8c1.9,0.1,2.4,0.5,2.6,1.5c0.1,0.8,0.2,2,0.2,4.4v2
		c0,4.4-1.2,7.6-5.1,7.6c-3.3,0-5-2.5-5-6.8v-6.1c0-2.4,0.2-2.6,2.3-2.7v-0.8h-6.9v0.8c2.1,0.2,2.3,0.3,2.3,2.7v6.7
		c0,3.1,0.8,5.1,2.4,6.4c1.2,0.9,2.7,1.3,4.3,1.3c1.8,0,3.6-0.6,4.8-1.8c1.6-1.6,2-3.9,2-7.1v-2.2c0-2.5,0.1-3.6,0.1-4.3
		c0.1-1.1,0.8-1.5,2.4-1.6V119.7z M81.8,120.3c3.5,0,6.5,3,6.5,8.7c0,5.1-2.7,7.6-5.7,7.6c-3.8,0-6.5-3.7-6.5-8.7
		C76.1,122.9,78.8,120.3,81.8,120.3 M82.3,119.3c-5.6,0-9,4.5-9,9.3c0,5.1,3.9,8.9,8.7,8.9c4.9,0,9-3.5,9-9.3
		C91,122.9,86.9,119.3,82.3,119.3 M71.5,119.7h-7v0.8c2.1,0.2,2.3,0.3,2.3,2.5v4.3h-9.1V123c0-2.2,0.2-2.4,2.3-2.5v-0.8h-6.9v0.8
		c2.2,0.2,2.4,0.3,2.4,2.5v10.8c0,2.3-0.2,2.4-2.4,2.5v0.8h7.1v-0.8c-2.2-0.2-2.4-0.3-2.4-2.5v-5.4h9.1v5.4c0,2.3-0.2,2.4-2.5,2.5
		v0.8h7.2v-0.8c-2.2-0.2-2.4-0.3-2.4-2.5V123c0-2.2,0.2-2.4,2.4-2.5V119.7z M51.3,123.8c-0.1-1.6-0.3-3.5-0.3-4.7h-0.6
		c-0.4,0.5-0.6,0.7-1.4,0.7H38.5c-0.8,0-1.1-0.1-1.5-0.7h-0.5c-0.1,1.5-0.2,3.2-0.3,4.8h0.8c0.3-1.2,0.5-1.9,0.9-2.4
		c0.3-0.6,0.9-0.8,3.1-0.8h1.7v13.2c0,2.1-0.2,2.4-2.7,2.5v0.8h7.7v-0.8c-2.5-0.2-2.8-0.4-2.8-2.5v-13.2h1.9c2,0,2.5,0.2,2.9,0.8
		c0.3,0.4,0.6,1.1,0.9,2.4L51.3,123.8z"/>
</g>
</svg>
