<?xml version="1.0" encoding="utf-8"?>
<!-- Generator: Adobe Illustrator 21.0.2, SVG Export Plug-In . SVG Version: 6.00 Build 0)  -->
<!DOCTYPE svg PUBLIC "-//W3C//DTD SVG 1.1//EN" "http://www.w3.org/Graphics/SVG/1.1/DTD/svg11.dtd">
<svg version="1.1" id="Layer_1" xmlns="http://www.w3.org/2000/svg" xmlns:xlink="http://www.w3.org/1999/xlink" x="0px" y="0px"
	 viewBox="0 0 340.1 333.7" style="enable-background:new 0 0 340.1 333.7;" xml:space="preserve">
<style type="text/css">
	.st0{fill:#FFFFFF;}
	.st1{clip-path:url(#SVGID_2_);fill:#231F20;}
</style>
<rect class="st0" width="340.1" height="333.7"/>
<g>
	<defs>
		<rect id="SVGID_1_" y="0" width="340.1" height="333.7"/>
	</defs>
	<clipPath id="SVGID_2_">
		<use xlink:href="#SVGID_1_"  style="overflow:visible;"/>
	</clipPath>
	<path class="st1" d="M54.6,37.1c0.6,0,1.1-0.4,1.1-1.1c0-0.6-0.5-1.1-1.1-1.1c-0.6,0-1.1,0.5-1.1,1.1C53.5,36.7,54,37.1,54.6,37.1
		 M47.8,25.4c1.7,0,2.2,2.8,2.2,5.6c0,2.7-0.5,5.6-2.2,5.6c-1.7,0-2.2-2.9-2.2-5.6C45.6,28.2,46,25.4,47.8,25.4 M47.8,24.7
		c-2.9,0-3.9,3.4-3.9,6.2c0,3,1,6.2,3.9,6.2c2.9,0,3.9-3.4,3.9-6.2C51.7,28,50.7,24.7,47.8,24.7 M41.4,36.9v-0.5
		c-1.7-0.1-1.9-0.3-1.9-1.7v-10c-1.1,0.4-2.2,0.8-3.4,1v0.4l0.9,0c0.8,0,0.9,0.1,0.9,1.1v7.4c0,1.4-0.1,1.5-1.8,1.7v0.5H41.4z"/>
	<path class="st1" d="M188.7,301.1c0.7,0,1.2-0.5,1.2-1.2c0-0.7-0.5-1.2-1.2-1.2s-1.2,0.5-1.2,1.2
		C187.5,300.6,188,301.1,188.7,301.1 M181.4,301.1c0.9,0,1.5,0.1,2,0.3c0.6,0.3,1,0.8,1,1.5c0,1.3-1,2.4-3.1,2.4
		c-1.6,0-2.8-0.9-2.8-2c0-0.6,0.4-1.2,1-1.7C180,301.2,180.4,301.1,181.4,301.1 M181,292c1.2,0,2,1.2,2,2.9c0,1.7-0.8,2.5-1.8,2.5
		c-1.2,0-2-1.2-2-2.8C179.2,292.9,180,292,181,292 M186.1,291.6c-0.8,0.1-1.8,0.3-2.9,0.3c-0.6-0.3-1.3-0.5-2-0.5
		c-1.6,0-3.8,1.1-3.8,3.5c0,1.4,0.9,2.4,1.9,2.8c-0.3,0.4-1,1-1.9,1.3c0,0.2,0,0.6,0.2,0.9c0.3,0.4,0.8,0.9,1.6,1.2
		c-0.5,0.4-1.3,1.1-1.8,1.5c-0.3,0.3-0.5,0.7-0.5,1.2c0,1.2,1.3,2.6,3.7,2.6c2.8,0,5.3-2.1,5.3-4.2c0-2.1-1.7-2.5-3.1-2.5
		c-0.7,0-1.5,0-2.2,0c-1,0-1.3-0.4-1.3-0.8c0-0.3,0.3-0.7,0.6-0.9c0.3,0,0.7,0.1,1.1,0.1c1.8,0,3.7-1.1,3.7-3.4
		c0-0.8-0.2-1.4-0.6-1.9l1.2,0.1c0.3-0.2,0.8-0.7,1-1.1L186.1,291.6z M176,300.9v-0.6c-1.2-0.1-1.3-0.2-1.3-1.7v-4.1
		c0-2.1-1.1-3.2-2.7-3.2c-0.6,0-1.2,0.3-1.8,0.6c-0.5,0.4-1,0.7-1.4,1v-1.7c-0.9,0.4-1.9,0.7-2.9,0.9v0.5c1.1,0.2,1.3,0.3,1.3,1.6
		v4.4c0,1.4-0.1,1.5-1.5,1.7v0.6h4.6v-0.6c-1.3-0.1-1.4-0.2-1.4-1.7v-5c0.6-0.6,1.5-1.1,2.3-1.1c1.4,0,1.9,1,1.9,2.4v3.5
		c0,1.5-0.1,1.6-1.4,1.8v0.6H176z M159.5,292c1.8,0,2.8,2,2.8,4.5c0,2.9-1.1,3.9-2.4,3.9c-1.7,0-2.9-2-2.9-4.7
		C157.1,293.3,158.2,292,159.5,292 M159.8,291.3c-1.9,0-4.6,1.6-4.6,5.1c0,2.4,1.7,4.7,4.6,4.7c2.1,0,4.6-1.6,4.6-5
		C164.4,293.4,162.4,291.3,159.8,291.3 M154,300.9v-0.6c-1.4-0.1-1.5-0.3-1.5-1.7v-12.9c-0.7,0.3-2,0.6-3.1,0.7v0.5
		c1.3,0.1,1.5,0.2,1.5,1.6v10c0,1.4-0.2,1.5-1.5,1.7v0.6H154z"/>
	<path class="st1" d="M178.5,266.6c1.8,0,2.8,2,2.8,4.5c0,2.9-1.1,3.9-2.4,3.9c-1.7,0-2.9-2-2.9-4.7
		C176.1,267.9,177.2,266.6,178.5,266.6 M178.7,265.9c-1.9,0-4.6,1.6-4.6,5.1c0,2.4,1.7,4.7,4.6,4.7c2.1,0,4.6-1.6,4.6-5
		C183.3,268,181.4,265.9,178.7,265.9 M167.5,266.6c1.8,0,2.8,2,2.8,4.5c0,2.9-1.1,3.9-2.4,3.9c-1.7,0-2.9-2-2.9-4.7
		C165.1,267.9,166.2,266.6,167.5,266.6 M167.7,265.9c-1.9,0-4.6,1.6-4.6,5.1c0,2.4,1.7,4.7,4.6,4.7c2.1,0,4.6-1.6,4.6-5
		C172.3,268,170.4,265.9,167.7,265.9 M162.3,274.6l-0.2-0.6c-0.3,0.1-0.8,0.4-1.3,0.4s-1.2-0.3-1.2-2V267h2.3
		c0.3-0.1,0.3-0.6,0.1-0.8h-2.4v-2.9l-0.3,0l-1.4,1.4v1.5h-1l-0.6,0.6l0.1,0.2h1.5v6.2c0,1.7,0.7,2.5,2.1,2.5c0.2,0,0.5-0.1,0.9-0.3
		L162.3,274.6z"/>
	<path class="st1" d="M175.2,242.7v-2.3c-1,0.4-2,0.7-3,0.9v0.5c1.2,0.2,1.3,0.3,1.3,1.7v4.4c0,1.4-0.1,1.5-1.5,1.7v0.6h4.9v-0.6
		c-1.6-0.1-1.7-0.3-1.7-1.7v-3.9c0.5-1.2,1.1-1.8,1.7-1.8c0.3,0,0.6,0.1,0.9,0.4c0.1,0.1,0.3,0.1,0.6,0c0.4-0.2,0.7-0.6,0.7-1
		c0-0.5-0.5-1.1-1.2-1.1C176.8,240.4,175.9,241.6,175.2,242.7L175.2,242.7z M166,241.1c1.8,0,2.8,2,2.8,4.5c0,2.9-1.1,3.9-2.4,3.9
		c-1.7,0-2.9-2-2.9-4.7C163.6,242.4,164.7,241.1,166,241.1 M166.3,240.4c-1.9,0-4.6,1.6-4.6,5.1c0,2.4,1.7,4.7,4.6,4.7
		c2.1,0,4.6-1.6,4.6-5C170.9,242.5,168.9,240.4,166.3,240.4"/>
	<path class="st1" d="M191.9,223.7l-0.2-0.6c-0.3,0.1-0.8,0.4-1.3,0.4c-0.5,0-1.2-0.3-1.2-2v-5.4h2.3c0.3-0.1,0.3-0.6,0.1-0.8h-2.4
		v-2.9l-0.3,0l-1.4,1.4v1.5h-1l-0.6,0.6l0.1,0.2h1.5v6.2c0,1.7,0.7,2.5,2.1,2.5c0.2,0,0.5-0.1,0.9-0.3L191.9,223.7z M181.4,217.2
		v-2.3c-1,0.4-2,0.7-3,0.9v0.5c1.2,0.2,1.3,0.3,1.3,1.7v4.4c0,1.4-0.1,1.5-1.5,1.7v0.6h4.9V224c-1.6-0.1-1.7-0.3-1.7-1.7v-3.9
		c0.5-1.2,1.1-1.8,1.7-1.8c0.3,0,0.6,0.1,0.9,0.4c0.1,0.1,0.3,0.1,0.6,0c0.4-0.2,0.7-0.6,0.7-1c0-0.5-0.5-1.1-1.2-1.1
		C183,215,182,216.2,181.4,217.2L181.4,217.2z M172.2,215.7c1.8,0,2.8,2,2.8,4.5c0,2.9-1.1,3.9-2.4,3.9c-1.7,0-2.9-2-2.9-4.7
		C169.7,217,170.9,215.7,172.2,215.7 M172.4,215c-1.9,0-4.6,1.6-4.6,5.1c0,2.4,1.7,4.7,4.6,4.7c2.1,0,4.6-1.6,4.6-5
		C177,217.1,175,215,172.4,215 M166.6,224.5V224c-1.3-0.1-1.4-0.2-1.4-1.6v-3.7c0-2.5-1.2-3.6-2.9-3.6c-1.1,0-2.3,0.8-3,1.5v-7.1
		c-0.8,0.3-2.1,0.6-3.1,0.7v0.5c1.4,0.1,1.4,0.2,1.4,1.6v10.1c0,1.4-0.2,1.5-1.5,1.6v0.6h4.5V224c-1.3-0.1-1.4-0.3-1.4-1.6v-5
		c0.6-0.7,1.4-1.1,2.2-1.1c1.4,0,2.1,0.9,2.1,2.6v3.5c0,1.4-0.2,1.5-1.4,1.6v0.6H166.6z M154.8,217.6c-0.1-0.5-0.3-1.8-0.5-2.3
		c-0.4-0.2-1-0.4-1.9-0.4c-2,0-3.2,1.3-3.2,2.7c0,1.6,1.4,2.3,2.7,2.9c1.1,0.5,1.7,1,1.7,1.9c0,0.9-0.7,1.5-1.5,1.5
		c-1.3,0-2.2-1.2-2.6-2.6l-0.6,0.1c0,0.8,0.2,2.2,0.3,2.5c0.4,0.3,1.4,0.7,2.4,0.7c1.7,0,3.5-1,3.5-2.9c0-1.5-1.1-2.2-2.7-2.9
		c-1-0.4-1.8-0.9-1.8-1.8c0-0.8,0.6-1.5,1.4-1.5c1,0,1.8,0.8,2.2,2.1L154.8,217.6z"/>
	<path class="st1" d="M178.5,190.2c1.8,0,2.8,2,2.8,4.5c0,2.9-1.1,3.9-2.4,3.9c-1.7,0-2.9-2-2.9-4.7
		C176.1,191.5,177.2,190.2,178.5,190.2 M178.7,189.5c-1.9,0-4.6,1.6-4.6,5.1c0,2.4,1.7,4.7,4.6,4.7c2.1,0,4.6-1.6,4.6-5
		C183.3,191.6,181.4,189.5,178.7,189.5 M167.5,190.2c1.8,0,2.8,2,2.8,4.5c0,2.9-1.1,3.9-2.4,3.9c-1.7,0-2.9-2-2.9-4.7
		C165.1,191.5,166.2,190.2,167.5,190.2 M167.7,189.5c-1.9,0-4.6,1.6-4.6,5.1c0,2.4,1.7,4.7,4.6,4.7c2.1,0,4.6-1.6,4.6-5
		C172.3,191.6,170.4,189.5,167.7,189.5 M162.3,198.3l-0.2-0.6c-0.3,0.1-0.8,0.4-1.3,0.4s-1.2-0.3-1.2-2v-5.5h2.3
		c0.3-0.1,0.3-0.6,0.1-0.8h-2.4v-2.9l-0.3,0l-1.4,1.4v1.5h-1l-0.6,0.6l0.1,0.2h1.5v6.2c0,1.7,0.7,2.5,2.1,2.5c0.2,0,0.5-0.1,0.9-0.3
		L162.3,198.3z"/>
	<path class="st1" d="M188.7,166.7c-0.1-0.5-0.3-1.8-0.5-2.3c-0.4-0.2-1-0.4-1.9-0.4c-2,0-3.2,1.3-3.2,2.7c0,1.6,1.4,2.3,2.7,2.9
		c1.1,0.5,1.7,1,1.7,1.9c0,0.9-0.7,1.5-1.5,1.5c-1.3,0-2.2-1.2-2.6-2.6l-0.6,0.1c0,0.8,0.2,2.2,0.3,2.5c0.4,0.3,1.4,0.7,2.4,0.7
		c1.7,0,3.5-1,3.5-2.9c0-1.5-1.1-2.2-2.7-2.9c-1-0.4-1.8-0.9-1.8-1.8c0-0.8,0.6-1.5,1.4-1.5c1,0,1.8,0.8,2.2,2.1L188.7,166.7z
		 M177.7,164.9c1.2,0,1.9,1,1.9,2.1c0,0.3-0.1,0.4-0.5,0.4c-1.2,0-2.4,0.1-3.6,0.1C175.8,165.8,176.7,164.9,177.7,164.9 M181,171.4
		c-0.8,0.7-1.6,1.1-2.4,1.1c-1.5,0-3.1-1.2-3.2-4.1c2.5-0.1,5.2-0.3,5.5-0.4c0.4-0.1,0.5-0.3,0.5-0.7c0-1.7-1.4-3.2-3.2-3.2
		c-1.1,0-2.2,0.6-3.1,1.5c-0.9,1-1.4,2.2-1.4,3.7c0,2.4,1.5,4.5,4.1,4.5c0.7,0,2.1-0.4,3.5-2.1L181,171.4z M172.5,173.6v-0.6
		c-1.2-0.1-1.3-0.2-1.3-1.7v-4.1c0-2.1-1.1-3.2-2.7-3.2c-0.6,0-1.2,0.3-1.8,0.6c-0.5,0.4-1,0.7-1.4,1V164c-0.9,0.4-1.9,0.7-2.9,0.9
		v0.5c1.1,0.2,1.3,0.3,1.3,1.6v4.4c0,1.4-0.1,1.5-1.5,1.7v0.6h4.6v-0.6c-1.3-0.1-1.4-0.2-1.4-1.7v-5c0.6-0.6,1.5-1.1,2.3-1.1
		c1.4,0,1.9,1,1.9,2.4v3.5c0,1.5-0.1,1.6-1.4,1.8v0.6H172.5z M161.1,173.6v-0.6c-1.4-0.1-1.5-0.3-1.5-1.7V164
		c-0.9,0.4-1.9,0.7-3,0.8v0.5c1.3,0.2,1.3,0.3,1.3,1.6v4.4c0,1.4-0.1,1.6-1.5,1.7v0.6H161.1z M158.6,162.2c0.6,0,1.1-0.5,1.1-1.1
		c0-0.6-0.5-1.1-1.1-1.1c-0.6,0-1.1,0.5-1.1,1.1C157.5,161.7,158,162.2,158.6,162.2 M155.4,173.6v-0.6c-1.4-0.1-1.5-0.3-1.5-1.7
		v-12.9c-0.7,0.3-2,0.6-3.1,0.7v0.5c1.3,0.1,1.5,0.2,1.5,1.6v10c0,1.4-0.2,1.5-1.5,1.7v0.6H155.4z"/>
	<path class="st1" d="M188.9,139.4c1.2,0,1.9,1,1.9,2.1c0,0.3-0.1,0.4-0.5,0.4c-1.2,0-2.4,0.1-3.6,0.1
		C187,140.3,187.9,139.4,188.9,139.4 M192.1,145.9c-0.8,0.7-1.6,1.1-2.4,1.1c-1.5,0-3.1-1.2-3.2-4.1c2.5-0.1,5.2-0.3,5.5-0.4
		c0.4-0.1,0.5-0.3,0.5-0.7c0-1.7-1.4-3.2-3.2-3.2c-1.1,0-2.2,0.6-3.1,1.5c-0.9,1-1.4,2.2-1.4,3.7c0,2.4,1.5,4.5,4.1,4.5
		c0.7,0,2.1-0.4,3.5-2.1L192.1,145.9z M184.6,148.2v-0.6c-0.8,0-1.4-0.4-2.1-1.2c-0.7-0.7-2.9-3.2-3.3-3.9c0.9-1.1,1.3-1.5,1.8-2
		c0.8-0.8,1.3-1,2.7-1.3v-0.5l-4.3,0.2v0.6c1,0.1,1.1,0.3,0.6,0.9c-0.4,0.6-1,1.4-1.5,1.9c-0.3,0.3-0.7,0.6-1.3,0.7v-10
		c-0.8,0.3-2,0.6-3.1,0.7v0.5c1.3,0.1,1.4,0.2,1.4,1.6v10c0,1.4-0.1,1.5-1.5,1.7v0.6h4.8v-0.6c-1.4-0.1-1.5-0.3-1.5-1.7v-2.4
		c0.1,0,0.3-0.1,0.3-0.1c0.2,0,0.4,0.1,0.7,0.5c1.2,1.4,2.5,3.1,3.5,4.2L184.6,148.2z M170.2,146.4c-0.4,0.4-1.1,0.7-1.7,0.8
		c-0.7,0-1.5-0.5-1.5-1.6c0-0.8,0.5-1.2,1.3-1.5c0.4-0.2,1.5-0.7,1.9-0.9V146.4z M173.5,147.3l-0.2-0.6c-0.2,0.1-0.5,0.2-0.8,0.2
		c-0.4,0-0.7-0.3-0.7-1.3v-3.9c0-1.1-0.2-2-1-2.6c-0.5-0.4-1.1-0.6-1.7-0.6c-1.2,0.2-2.6,1.1-3.2,1.5c-0.4,0.3-0.7,0.5-0.7,0.8
		c0,0.5,0.6,0.9,0.9,0.9c0.3,0,0.5-0.1,0.6-0.5c0.2-0.7,0.4-1.1,0.6-1.4c0.2-0.3,0.5-0.4,1-0.4c1.1,0,1.8,0.9,1.8,2.4v0.4
		c-0.5,0.4-2,1-3.3,1.4c-1.2,0.4-1.7,1.1-1.7,2.1c0,1.3,1,2.6,2.5,2.6c0.6,0,1.7-0.8,2.5-1.4c0.1,0.4,0.2,0.7,0.5,1
		c0.2,0.2,0.7,0.4,1,0.4L173.5,147.3z M163.9,148.2v-0.6c-1.2-0.1-1.4-0.2-1.4-1.6v-4.1c0-2.1-1-3.2-2.7-3.2c-0.6,0-1.1,0.3-1.6,0.6
		c-0.5,0.3-1.1,0.7-1.8,1.2c-0.4-1.1-1.3-1.7-2.4-1.7c-0.7,0-1.2,0.2-1.7,0.6c-0.6,0.4-1.1,0.8-1.5,1.1v-1.7c-0.9,0.4-2,0.7-2.9,0.9
		v0.5c1.2,0.2,1.3,0.3,1.3,1.7v4.4c0,1.4-0.2,1.5-1.6,1.6v0.6h4.5v-0.6c-1-0.1-1.2-0.3-1.2-1.6v-5c0.6-0.5,1.5-1.1,2.3-1.1
		c1.3,0,1.8,0.9,1.8,2.4v3.6c0,1.4-0.2,1.5-1.5,1.6v0.6h4.5v-0.6c-1.2-0.1-1.4-0.3-1.4-1.6v-4.1c0-0.4,0-0.6-0.1-0.9
		c0.8-0.7,1.6-1.1,2.4-1.1c1.3,0,1.9,1,1.9,2.5v3.5c0,1.5-0.2,1.6-1.5,1.7v0.6H163.9z"/>
	<path class="st1" d="M184.2,121.9l-0.2-0.6c-0.3,0.1-0.8,0.4-1.3,0.4s-1.2-0.3-1.2-2v-5.5h2.3c0.3-0.1,0.3-0.6,0.1-0.8h-2.4v-2.9
		l-0.3,0l-1.4,1.4v1.5h-1l-0.6,0.6l0.1,0.2h1.5v6.2c0,1.7,0.7,2.5,2.1,2.5c0.2,0,0.5-0.1,0.9-0.3L184.2,121.9z M172.5,113.9
		c1.8,0,2.8,2,2.8,4.5c0,2.9-1.1,3.9-2.4,3.9c-1.7,0-2.9-2-2.9-4.7C170,115.2,171.2,113.9,172.5,113.9 M172.7,113.2
		c-1.9,0-4.6,1.6-4.6,5.1c0,2.4,1.7,4.7,4.6,4.7c2.1,0,4.6-1.6,4.6-5C177.3,115.3,175.3,113.2,172.7,113.2 M166.9,122.7v-0.6
		c-1.2-0.1-1.3-0.2-1.3-1.7v-4.1c0-2.1-1.1-3.2-2.7-3.2c-0.6,0-1.2,0.3-1.8,0.6c-0.5,0.4-1,0.7-1.4,1v-1.7c-0.9,0.4-1.9,0.7-2.9,0.9
		v0.5c1.1,0.2,1.3,0.3,1.3,1.6v4.4c0,1.4-0.1,1.5-1.5,1.7v0.6h4.6v-0.6c-1.3-0.1-1.4-0.2-1.4-1.7v-5c0.6-0.6,1.5-1.1,2.3-1.1
		c1.4,0,1.9,1,1.9,2.4v3.5c0,1.5-0.1,1.6-1.4,1.8v0.6H166.9z"/>
	<path class="st1" d="M189.9,96.5l-0.2-0.6c-0.3,0.1-0.8,0.4-1.3,0.4c-0.5,0-1.2-0.3-1.2-2v-5.4h2.3c0.3-0.1,0.3-0.6,0.1-0.8h-2.4
		v-2.9l-0.3,0l-1.4,1.4V88h-1l-0.6,0.6l0.1,0.2h1.5V95c0,1.7,0.7,2.5,2.1,2.5c0.2,0,0.5-0.1,0.9-0.3L189.9,96.5z M183.5,97.3v-0.6
		c-1.4-0.1-1.5-0.3-1.5-1.7V82.2c-0.7,0.3-2,0.6-3.1,0.7v0.5c1.3,0.1,1.5,0.2,1.5,1.6v10c0,1.4-0.2,1.5-1.5,1.7v0.6H183.5z
		 M174.9,95.5c-0.4,0.4-1.1,0.7-1.7,0.8c-0.7,0-1.5-0.5-1.5-1.6c0-0.8,0.5-1.2,1.3-1.5c0.4-0.2,1.5-0.7,1.9-0.9V95.5z M178.2,96.4
		l-0.2-0.6c-0.2,0.1-0.5,0.2-0.8,0.2c-0.4,0-0.7-0.3-0.7-1.3v-3.9c0-1.1-0.2-2-1-2.6c-0.5-0.4-1.1-0.6-1.7-0.6
		c-1.2,0.2-2.6,1.1-3.2,1.5c-0.4,0.3-0.7,0.5-0.7,0.8c0,0.5,0.6,0.9,0.9,0.9c0.3,0,0.5-0.1,0.6-0.5c0.2-0.7,0.4-1.1,0.6-1.4
		c0.2-0.3,0.5-0.4,1-0.4c1.1,0,1.8,0.9,1.8,2.4v0.4c-0.5,0.4-2,1-3.3,1.4c-1.2,0.4-1.7,1.1-1.7,2.1c0,1.3,1,2.6,2.5,2.6
		c0.6,0,1.7-0.8,2.5-1.4c0.1,0.4,0.2,0.7,0.5,1c0.2,0.2,0.7,0.4,1,0.4L178.2,96.4z M168.6,97.3v-0.6c-1.3-0.1-1.4-0.2-1.4-1.6v-3.7
		c0-2.5-1.2-3.6-2.9-3.6c-1.1,0-2.3,0.8-3,1.5v-7.1c-0.8,0.3-2.1,0.6-3.1,0.7v0.5c1.4,0.1,1.4,0.2,1.4,1.6v10.1
		c0,1.4-0.2,1.5-1.5,1.6v0.6h4.5v-0.6c-1.3-0.1-1.4-0.3-1.4-1.6v-5c0.6-0.7,1.4-1.1,2.2-1.1c1.4,0,2.1,0.9,2.1,2.6v3.5
		c0,1.4-0.2,1.5-1.4,1.6v0.6H168.6z M156.9,90.4c-0.1-0.5-0.3-1.8-0.5-2.3c-0.4-0.2-1-0.4-1.9-0.4c-2,0-3.2,1.3-3.2,2.7
		c0,1.6,1.4,2.3,2.7,2.9c1.1,0.5,1.7,1,1.7,1.9c0,0.9-0.7,1.5-1.5,1.5c-1.3,0-2.2-1.2-2.6-2.6l-0.6,0.1c0,0.8,0.2,2.2,0.3,2.5
		c0.4,0.3,1.4,0.7,2.4,0.7c1.7,0,3.5-1,3.5-2.9c0-1.5-1.1-2.2-2.7-2.9c-1-0.4-1.8-0.9-1.8-1.8c0-0.8,0.6-1.5,1.4-1.5
		c1,0,1.8,0.8,2.2,2.1L156.9,90.4z"/>
	<path class="st1" d="M192,70.8l-0.6,0c-0.8,0-1-0.2-1-1.3v-7.1c-1.1,0.2-2.2,0.3-3.3,0.4v0.5c1.5,0.2,1.7,0.3,1.7,1.5v4.9
		c-0.7,0.7-1.5,1-2.3,1c-1,0-1.9-0.5-1.9-2.4v-2.8c0-1.4,0-2.4,0.1-3.1c-1,0.2-2,0.3-3,0.4v0.5c1.2,0.2,1.3,0.3,1.3,1.5v4.2
		c0,2.3,1.2,3.2,2.6,3.2c0.6,0,1-0.2,1.6-0.5c0.6-0.4,1.1-0.7,1.6-1.1v1.5l0.1,0.1c1.1-0.3,2.1-0.6,3.1-0.8V70.8z M175.7,63
		c1.8,0,2.8,2,2.8,4.5c0,2.9-1.1,3.9-2.4,3.9c-1.7,0-2.9-2-2.9-4.7C173.2,64.3,174.3,63,175.7,63 M175.9,62.3
		c-1.9,0-4.6,1.6-4.6,5.1c0,2.4,1.7,4.7,4.6,4.7c2.1,0,4.6-1.6,4.6-5C180.5,64.4,178.5,62.3,175.9,62.3 M170.1,71.8v-0.6
		c-1.3-0.1-1.4-0.2-1.4-1.7v-3.7c0-2.5-1.2-3.6-3-3.6c-1.1,0-2.2,0.7-2.9,1.5v-7.1c-0.6,0.2-1.3,0.4-1.7,0.5v0.3
		c0,0.4-0.3,0.6-2,0.6h-8.8c-0.6,0-0.8-0.1-1.1-0.5h-0.4c0,1.2-0.2,2.6-0.3,3.8h0.6c0.2-1,0.4-1.4,0.7-1.8c0.3-0.5,0.7-0.7,2.6-0.7
		h1.3v10.3c0,1.8-0.2,2-2.1,2.1v0.6h6v-0.6c-1.9-0.1-2.1-0.3-2.1-2.1V58.8h1.5c1.9,0,3,0,4.2,0.1v10.7c0,1.4-0.1,1.5-1.5,1.7v0.6
		h4.5v-0.6c-1.3-0.1-1.4-0.3-1.4-1.7v-5c0.6-0.7,1.4-1.1,2.2-1.1c1.4,0,2.1,0.9,2.1,2.6v3.5c0,1.4-0.1,1.5-1.4,1.7v0.6H170.1z"/>
</g>
</svg>
