<svg id="Layer_1" data-name="Layer 1" xmlns="http://www.w3.org/2000/svg" width="4.74in" height="4.61in" viewBox="0 0 341.5 332.1">
  <defs>
    <style>
      .cls-1 {
        fill: #fff;
      }

      .cls-2 {
        isolation: isolate;
      }
    </style>
  </defs>
  <title>rule3</title>
  <rect width="341.5" height="332.1"/>
  <path class="cls-1" d="M62.6,136.2v-.8c1.8-.2,2-.4,2-2.4v-5c0-2.5-.9-3.8-3-3.7a4.14,4.14,0,0,0-3.1,1.6v7.2c0,2,.2,2.2,2,2.4v.8H54v-.8c1.9-.2,2.1-.4,2.1-2.4V117.8a50.77,50.77,0,0,0-6-.2H48v14.9c0,2.6.2,2.8,3,3v.8H42.4v-.8c2.7-.2,3-.4,3-3V117.6H43.5c-2.7,0-3.3.3-3.7,1a9.62,9.62,0,0,0-1,2.7h-.9c.1-1.8.3-3.8.4-5.5h.6c.4.7.8.8,1.6.8H53.2c2.5,0,2.9-.2,2.9-.8v-.4a15.26,15.26,0,0,0,2.4-.7v10.2a6.23,6.23,0,0,1,4.2-2.2c2.6-.1,4.3,1.6,4.3,5.2v5.3c0,2.1.2,2.2,2,2.4v.8H62.6Zm21.3-6.9c0,4.9-3.6,7.3-6.6,7.3a6.63,6.63,0,0,1-6.7-6.7,7,7,0,0,1,6.7-7.3A6.44,6.44,0,0,1,83.9,129.3Zm-10.4-.5c0,3.8,1.7,6.7,4.2,6.7,1.9,0,3.4-1.4,3.4-5.6,0-3.6-1.4-6.5-4.1-6.5C75.1,123.5,73.5,125.4,73.5,128.8Zm27,6.6a26.75,26.75,0,0,0-4.5,1.1l-.2-.2v-2.2a22.89,22.89,0,0,1-2.3,1.6,4.55,4.55,0,0,1-2.3.8c-2,0-3.8-1.2-3.8-4.5v-6c0-1.7-.1-1.8-1.9-2.1v-.7c1.4-.1,2.9-.3,4.4-.5-.1.9-.1,2.4-.1,4.5v4.1c0,2.7,1.3,3.4,2.7,3.4a4.76,4.76,0,0,0,3.3-1.5V126c0-1.7-.2-1.9-2.4-2.2v-.7a39.06,39.06,0,0,0,4.8-.5v10.2c0,1.5.2,1.7,1.4,1.8l.9.1Zm16.3-9c-.6-1.8-1.6-3-3.1-3a2,2,0,0,0-2,2.1c0,1.4,1.2,2.1,2.6,2.7,2.3.9,3.8,2,3.8,4.1,0,2.8-2.6,4.2-5,4.2a6.32,6.32,0,0,1-3.5-1,14.73,14.73,0,0,1-.5-3.6l.8-.2c.5,2,1.9,3.8,3.7,3.8a2.2,2.2,0,0,0,2.2-2.1c0-1.3-.9-2.1-2.4-2.8-1.8-.9-3.8-1.9-3.8-4.2,0-2.1,1.8-3.9,4.6-3.9a8.09,8.09,0,0,1,2.7.5,32,32,0,0,1,.7,3.3Zm11.3,9.8v-.8c1.8-.2,2-.4,2-2.3V128c0-2.5-.9-3.7-3-3.7a4.34,4.34,0,0,0-3.2,1.6v7.3c0,2,.2,2.2,2,2.3v.8h-6.5v-.8c1.8-.2,2.1-.3,2.1-2.3V118.7c0-1.9-.1-2.1-2.1-2.3v-.7a27,27,0,0,0,4.5-1.1v10.2a6.68,6.68,0,0,1,4.4-2.2c2.5,0,4.2,1.6,4.2,5.2v5.3c0,2,.2,2.2,2,2.3v.8Zm17.6.3a2.25,2.25,0,0,1-1.4-.6,2.67,2.67,0,0,1-.7-1.4c-1.2.8-2.7,2-3.6,2a3.69,3.69,0,0,1-3.7-3.7c0-1.5.8-2.4,2.5-3s4.1-1.4,4.7-2v-.5c0-2.2-1-3.4-2.6-3.4a1.68,1.68,0,0,0-1.4.6,4.14,4.14,0,0,0-.9,2,.86.86,0,0,1-.9.7,1.48,1.48,0,0,1-1.3-1.3c0-.5.4-.8,1-1.2a13.16,13.16,0,0,1,4.6-2.1,4.38,4.38,0,0,1,2.5.8,4.32,4.32,0,0,1,1.4,3.7v5.7c0,1.4.5,1.8,1.1,1.8a3.54,3.54,0,0,0,1.1-.3l.3.8Zm-2.2-7.7c-.6.3-2.1,1-2.7,1.3-1.2.5-1.9,1.1-1.9,2.2a2.17,2.17,0,0,0,2.2,2.3,3.59,3.59,0,0,0,2.4-1.1Zm5.6,7.4v-.8c1.9-.2,2.2-.4,2.2-2.4V118.6c0-2.1-.2-2.2-2.1-2.3v-.7a21.15,21.15,0,0,0,4.5-1.1V133c0,2,.2,2.2,2.2,2.4v.8Zm13.9-.1a2.69,2.69,0,0,1-1.3.4c-1.9,0-3-1.2-3-3.6V124h-2.1l-.1-.3.8-.9h1.4v-2.2l2-2,.4.1v4.2h3.4a.83.83,0,0,1-.2,1.2H161v7.8c0,2.5,1,2.9,1.8,2.9a4.34,4.34,0,0,0,1.9-.5l.3.8Zm21.3-2.5c-1.9,2.4-4,3-5,3-3.7,0-5.9-3-5.9-6.5a7.86,7.86,0,0,1,2-5.3,6.1,6.1,0,0,1,4.5-2.2,4.79,4.79,0,0,1,4.6,4.6c0,.6-.2.9-.7,1s-4.3.4-8,.5c0,4.1,2.4,5.9,4.5,5.9a5.21,5.21,0,0,0,3.5-1.5Zm-8.4-6.3c1.7,0,3.4,0,5.2-.1.5,0,.7-.2.7-.6a2.76,2.76,0,0,0-2.7-3C177.7,123.6,176.4,124.9,175.9,127.3Zm27.1,8.9v-.8c1.8-.2,2.1-.3,2.1-2.5v-5.1c0-2.2-.8-3.5-2.7-3.5a5.34,5.34,0,0,0-3.4,1.6,4.89,4.89,0,0,1,.1,1.3v5.9c0,1.9.3,2.1,2,2.3v.8h-6.5v-.8c1.9-.2,2.2-.3,2.2-2.3v-5.2c0-2.3-.8-3.5-2.7-3.5a5.43,5.43,0,0,0-3.3,1.6v7.2c0,2,.2,2.2,1.7,2.3v.8H186v-.8c2-.2,2.3-.4,2.3-2.3v-6.3c0-2-.1-2.1-1.9-2.4v-.7a16.6,16.6,0,0,0,4.2-1.2v2.5c.6-.4,1.3-1,2.2-1.6a4.38,4.38,0,0,1,2.5-.8,3.6,3.6,0,0,1,3.4,2.5c.9-.7,1.8-1.2,2.5-1.7a4.23,4.23,0,0,1,2.3-.8c2.4,0,3.9,1.7,3.9,4.7v5.9c0,2,.2,2.2,2,2.3v.8H203Zm14.5-13.3a3.32,3.32,0,0,1,1.5-.5c3.4,0,5.4,2.7,5.4,5.8,0,4.6-3.6,7.6-7.6,8.3a5,5,0,0,1-2.1-.5v4c0,2.3.2,2.5,2.6,2.7v.8h-7.2v-.8c2-.2,2.2-.4,2.2-2.4V126.5c0-2-.1-2-2-2.3v-.7a19.79,19.79,0,0,0,4.4-1.3v2.4Zm-2.8,10.9a4.25,4.25,0,0,0,2.9,1.2c2.6,0,4.3-2.2,4.3-5.6s-1.9-5.1-4.1-5.1a5.77,5.77,0,0,0-3,1.3l-.1,8.2Zm11.1,2.4v-.8c1.9-.2,2.2-.4,2.2-2.4V118.6c0-2.1-.2-2.2-2.1-2.3v-.7a21.15,21.15,0,0,0,4.5-1.1V133c0,2,.2,2.2,2.2,2.4v.8Zm21.7-6.9c0,4.9-3.6,7.3-6.6,7.3a6.63,6.63,0,0,1-6.7-6.7,7,7,0,0,1,6.7-7.3A6.49,6.49,0,0,1,247.5,129.3Zm-10.5-.5c0,3.8,1.7,6.7,4.2,6.7,1.9,0,3.4-1.4,3.4-5.6,0-3.6-1.4-6.5-4.1-6.5C238.7,123.5,237,125.4,237,128.8Zm25.7-5.2c-1.6.2-1.9.5-2.7,2.2s-1.7,4.1-3.8,9.2c-2,4.9-2.7,6.6-3.1,8.3a.87.87,0,0,1-1,.7,1.66,1.66,0,0,1-1.7-1.5c0-.5.3-.8.8-1.1a7,7,0,0,0,2.3-2.7,8.78,8.78,0,0,0,.9-2.1,1.71,1.71,0,0,0,0-1.4c-1.2-3.5-2.6-7.2-3.5-9.3-.6-1.7-.9-2.1-2.6-2.3v-.8h6.2v.8c-1.4.2-1.6.5-1.2,1.7l2.8,7.7c.9-2.1,2.2-5.7,2.8-7.6.4-1.2.2-1.5-1.6-1.7v-.8h5.5l-.1.7Zm15.9,12.6v-.8c1.8-.2,2-.4,2-2.5v-5.1c0-2.1-.7-3.5-2.8-3.5a5.43,5.43,0,0,0-3.3,1.6v7.2c0,2.1.2,2.2,2,2.4v.8h-6.6v-.8c2.1-.2,2.2-.4,2.2-2.4v-6.3c0-2-.2-2-1.8-2.3v-.7a18.58,18.58,0,0,0,4.2-1.2V125c.6-.5,1.3-.9,2-1.4a5.08,5.08,0,0,1,2.5-.9c2.4,0,3.9,1.7,3.9,4.6v5.9c0,2.1.2,2.2,1.9,2.4v.8h-6.2v-.2Zm21.4-6.9c0,4.9-3.6,7.3-6.6,7.3a6.63,6.63,0,0,1-6.7-6.7,7,7,0,0,1,6.7-7.3A6.44,6.44,0,0,1,300,129.3Zm-10.4-.5c0,3.8,1.7,6.7,4.2,6.7,1.9,0,3.4-1.4,3.4-5.6,0-3.6-1.4-6.5-4.1-6.5C291.2,123.5,289.6,125.4,289.6,128.8Z" transform="translate(1.2 -1.2)"/>
  <g class="cls-2">
    <path class="cls-1" d="M48.17,159.17A5.26,5.26,0,0,1,43,164.79a5.12,5.12,0,0,1-5.18-5.22A5.39,5.39,0,0,1,43,153.9,5.13,5.13,0,0,1,48.17,159.17Zm-8.11-.35c0,3,1.3,5.2,3.24,5.2,1.47,0,2.67-1.09,2.67-4.33,0-2.77-1.11-5-3.17-5C41.33,154.68,40.06,156.14,40.06,158.81Z" transform="translate(1.2 -1.2)"/>
  </g>
  <g class="cls-2">
    <path class="cls-1" d="M54.22,164.49a2.39,2.39,0,0,1-1,.31c-1.49,0-2.32-.95-2.32-2.81V155.1H49.28l-.09-.24.64-.69h1.09v-1.73l1.54-1.56.33,0v3.24h2.67a.67.67,0,0,1-.14.92H52.78v6.07c0,1.92.78,2.27,1.37,2.27a3.37,3.37,0,0,0,1.47-.4l.21.62Z" transform="translate(1.2 -1.2)"/>
  </g>
  <g class="cls-2">
    <path class="cls-1" d="M63.22,164.51v-.61c1.37-.14,1.56-.28,1.56-1.82v-3.92c0-1.94-.73-2.91-2.32-2.91A3.33,3.33,0,0,0,60,156.45v5.63c0,1.51.12,1.68,1.51,1.82v.61h-5v-.61c1.42-.12,1.63-.26,1.63-1.82V150.8c0-1.49,0-1.61-1.61-1.75v-.54a25.73,25.73,0,0,0,3.47-.83v7.94a5.17,5.17,0,0,1,3.38-1.73c1.91,0,3.26,1.21,3.26,4v4.14c0,1.56.17,1.7,1.56,1.82v.61Z" transform="translate(1.2 -1.2)"/>
  </g>
  <g class="cls-2">
    <path class="cls-1" d="M78,162.5a5.36,5.36,0,0,1-3.85,2.29c-2.91,0-4.61-2.36-4.61-5a6.08,6.08,0,0,1,1.56-4.14,4.8,4.8,0,0,1,3.47-1.73,3.66,3.66,0,0,1,3.54,3.59c0,.47-.12.66-.54.76s-3.36.31-6.17.4c0,3.21,1.87,4.54,3.52,4.54A3.86,3.86,0,0,0,77.64,162Zm-6.48-4.82c1.32,0,2.62,0,4-.07.43,0,.57-.14.57-.47A2.17,2.17,0,0,0,74,154.77C72.94,154.77,71.9,155.77,71.55,157.68Z" transform="translate(1.2 -1.2)"/>
    <path class="cls-1" d="M83.05,156.4c.71-1.18,1.73-2.5,2.86-2.5a1.22,1.22,0,0,1,.61,2.34.55.55,0,0,1-.64,0,1.27,1.27,0,0,0-1-.5c-.61,0-1.37.71-1.89,2v4.33c0,1.56.12,1.7,1.94,1.84v.61H79.51v-.61c1.47-.14,1.63-.28,1.63-1.84v-4.89c0-1.56-.12-1.65-1.47-1.84v-.52a13.4,13.4,0,0,0,3.33-1v2.58Z" transform="translate(1.2 -1.2)"/>
  </g>
  <g class="cls-2">
    <path class="cls-1" d="M98.22,164.49a2.39,2.39,0,0,1-1,.31c-1.49,0-2.32-.95-2.32-2.81V155.1H93.28l-.09-.24.64-.69h1.09v-1.73l1.54-1.56.33,0v3.24h2.67a.67.67,0,0,1-.14.92H96.78v6.07c0,1.92.78,2.27,1.37,2.27a3.37,3.37,0,0,0,1.47-.4l.21.62Z" transform="translate(1.2 -1.2)"/>
  </g>
  <g class="cls-2">
    <path class="cls-1" d="M111.38,154.77c-1.25.19-1.47.38-2.1,1.73s-1.32,3.21-3,7.11a50.71,50.71,0,0,0-2.43,6.41.7.7,0,0,1-.76.57,1.36,1.36,0,0,1-1.35-1.13c0-.38.21-.59.61-.85a5,5,0,0,0,1.75-2.1,9,9,0,0,0,.73-1.63,1.5,1.5,0,0,0,0-1.06c-.95-2.69-2-5.55-2.72-7.23-.5-1.3-.73-1.61-2-1.8v-.59h4.8v.59c-1.09.19-1.21.43-.9,1.3l2.15,5.93c.66-1.61,1.68-4.4,2.17-5.88.28-.9.12-1.16-1.23-1.35v-.59h4.28Z" transform="translate(1.2 -1.2)"/>
  </g>
  <g class="cls-2">
    <path class="cls-1" d="M117.05,154.25a2.64,2.64,0,0,1,1.16-.35,4.21,4.21,0,0,1,4.18,4.47c0,3.57-2.81,5.86-5.89,6.43a4,4,0,0,1-1.63-.42v3.1c0,1.8.17,1.92,2,2.08v.64h-5.6v-.64c1.51-.14,1.73-.28,1.73-1.84V157c0-1.54-.09-1.58-1.56-1.77v-.57a17.92,17.92,0,0,0,3.43-1v1.87Zm-2.17,8.46a3.27,3.27,0,0,0,2.22.92c2,0,3.31-1.7,3.31-4.37s-1.44-3.95-3.17-3.95a4.63,4.63,0,0,0-2.36,1Z" transform="translate(1.2 -1.2)"/>
  </g>
  <g class="cls-2">
    <path class="cls-1" d="M132.82,162.5a5.36,5.36,0,0,1-3.85,2.29c-2.91,0-4.61-2.36-4.61-5a6.08,6.08,0,0,1,1.56-4.14,4.8,4.8,0,0,1,3.47-1.73,3.66,3.66,0,0,1,3.54,3.59c0,.47-.12.66-.54.76s-3.36.31-6.17.4c0,3.21,1.87,4.54,3.52,4.54a3.86,3.86,0,0,0,2.69-1.18Zm-6.48-4.82c1.32,0,2.62,0,4-.07.43,0,.57-.14.57-.47a2.17,2.17,0,0,0-2.08-2.36C127.74,154.77,126.7,155.77,126.35,157.68Z" transform="translate(1.2 -1.2)"/>
    <path class="cls-1" d="M145.84,157c-.45-1.39-1.28-2.34-2.43-2.34a1.54,1.54,0,0,0-1.54,1.63c0,1.06.95,1.61,2,2.06,1.77.73,3,1.58,3,3.21,0,2.15-2,3.26-3.9,3.26a4.74,4.74,0,0,1-2.72-.8,11.15,11.15,0,0,1-.38-2.79l.61-.12c.43,1.56,1.49,2.93,2.91,2.93a1.65,1.65,0,0,0,1.68-1.65c0-1-.69-1.61-1.87-2.15-1.42-.66-3-1.44-3-3.26,0-1.65,1.42-3,3.59-3a5.51,5.51,0,0,1,2.1.4,17.78,17.78,0,0,1,.52,2.53Z" transform="translate(1.2 -1.2)"/>
    <path class="cls-1" d="M148.32,164.51v-.61c1.49-.14,1.65-.28,1.65-1.89v-4.87c0-1.47-.07-1.56-1.49-1.8v-.57a14.86,14.86,0,0,0,3.36-.92V162c0,1.61.17,1.75,1.68,1.89v.61Zm1.25-13.87a1.22,1.22,0,0,1,1.21-1.23,1.18,1.18,0,0,1,1.18,1.23,1.21,1.21,0,0,1-1.21,1.21A1.24,1.24,0,0,1,149.57,150.64Z" transform="translate(1.2 -1.2)"/>
    <path class="cls-1" d="M163.66,161.53c-.35.92-.73,2-1.09,3h-7.8l-.14-.35c2-3,3.95-6,5.89-9.19h-2.1c-1.7,0-2,.38-2.67,1.7l-.33.64-.59-.21c.26-.9.61-2.41.8-3.43h.5c.14.38.43.52,1.3.52h5.44l.14.33c-1.94,3-3.83,6.05-5.77,9.22h2.34c1.8,0,2.27-.5,3.17-1.91l.31-.57Z" transform="translate(1.2 -1.2)"/>
    <path class="cls-1" d="M173.16,162.5a5.37,5.37,0,0,1-3.85,2.29c-2.91,0-4.61-2.36-4.61-5a6.08,6.08,0,0,1,1.56-4.14,4.8,4.8,0,0,1,3.47-1.73,3.66,3.66,0,0,1,3.55,3.59c0,.47-.12.66-.54.76s-3.36.31-6.17.4c0,3.21,1.87,4.54,3.52,4.54a3.86,3.86,0,0,0,2.69-1.18Zm-6.48-4.82c1.32,0,2.62,0,4-.07.43,0,.57-.14.57-.47a2.17,2.17,0,0,0-2.08-2.36C168.08,154.77,167,155.77,166.68,157.68Z" transform="translate(1.2 -1.2)"/>
  </g>
  <g class="cls-2">
    <path class="cls-1" d="M184.72,164.49a2.39,2.39,0,0,1-1,.31c-1.49,0-2.32-.95-2.32-2.81V155.1h-1.63l-.09-.24.64-.69h1.09v-1.73l1.54-1.56.33,0v3.24H186a.67.67,0,0,1-.14.92h-2.53v6.07c0,1.92.78,2.27,1.37,2.27a3.37,3.37,0,0,0,1.47-.4l.21.62Z" transform="translate(1.2 -1.2)"/>
  </g>
  <g class="cls-2">
    <path class="cls-1" d="M193.72,164.51v-.61c1.37-.14,1.56-.28,1.56-1.82v-3.92c0-1.94-.73-2.91-2.32-2.91a3.33,3.33,0,0,0-2.46,1.21v5.63c0,1.51.12,1.68,1.51,1.82v.61h-5v-.61c1.42-.12,1.63-.26,1.63-1.82V150.8c0-1.49,0-1.61-1.61-1.75v-.54a25.73,25.73,0,0,0,3.47-.83v7.94a5.17,5.17,0,0,1,3.38-1.73c1.91,0,3.26,1.21,3.26,4v4.14c0,1.56.17,1.7,1.56,1.82v.61Z" transform="translate(1.2 -1.2)"/>
  </g>
  <g class="cls-2">
    <path class="cls-1" d="M207.41,164.79a1.92,1.92,0,0,1-1.11-.45,2.45,2.45,0,0,1-.57-1.06c-.95.64-2.08,1.51-2.79,1.51a2.85,2.85,0,0,1-2.84-2.88,2.36,2.36,0,0,1,1.91-2.34,17,17,0,0,0,3.66-1.54v-.42c0-1.7-.8-2.67-2-2.67a1.33,1.33,0,0,0-1.06.47,3.44,3.44,0,0,0-.71,1.56.66.66,0,0,1-.69.54,1.16,1.16,0,0,1-1-1c0-.35.31-.61.76-.95a10.56,10.56,0,0,1,3.54-1.65,3.08,3.08,0,0,1,1.94.64,3.44,3.44,0,0,1,1.06,2.88v4.4c0,1.06.43,1.42.83,1.42a1.8,1.8,0,0,0,.85-.26l.24.61Zm-1.72-6c-.5.26-1.63.76-2.13,1-.92.42-1.44.87-1.44,1.73a1.73,1.73,0,0,0,1.68,1.82,3.38,3.38,0,0,0,1.89-.85Z" transform="translate(1.2 -1.2)"/>
  </g>
  <g class="cls-2">
    <path class="cls-1" d="M216.73,164.51v-.61c1.39-.14,1.56-.33,1.56-2V158c0-1.63-.57-2.69-2.15-2.69a4.23,4.23,0,0,0-2.58,1.21v5.55c0,1.61.14,1.7,1.54,1.84v.61H210v-.61c1.61-.17,1.73-.28,1.73-1.84v-4.89c0-1.51-.14-1.58-1.42-1.82v-.54a14.22,14.22,0,0,0,3.29-1v1.89c.47-.35,1-.71,1.58-1.11a3.62,3.62,0,0,1,2-.71c1.87,0,3,1.3,3,3.59v4.56c0,1.61.12,1.7,1.49,1.84v.61Z" transform="translate(1.2 -1.2)"/>
    <path class="cls-1" d="M237.29,153a2.9,2.9,0,0,1-.69,1.89,10.71,10.71,0,0,1-1.87,1.51c1.63.92,3.12,2.06,3.12,4.11,0,2.76-2.67,4.28-4.68,4.28-2.53,0-4.54-1.46-4.54-4a3,3,0,0,1,1.06-2.25,18.56,18.56,0,0,1,2.08-1.51c-1.54-.87-2.55-2-2.55-3.66a4,4,0,0,1,4.21-3.88A3.63,3.63,0,0,1,237.29,153ZM236,161.13c0-1.77-1.68-2.79-3.5-3.71a4,4,0,0,0-1.94,3.24c0,2.17,1.39,3.38,2.88,3.38A2.6,2.6,0,0,0,236,161.13Zm-5-8.44c0,1.75,1.39,2.53,3.07,3.36a3.52,3.52,0,0,0,1.44-2.93c0-2-1.23-2.86-2.32-2.86A2.29,2.29,0,0,0,231,152.69Z" transform="translate(1.2 -1.2)"/>
  </g>
  <g class="cls-2">
    <path class="cls-1" d="M245.15,154.25a2.65,2.65,0,0,1,1.16-.35,4.21,4.21,0,0,1,4.18,4.47c0,3.57-2.81,5.86-5.88,6.43a4,4,0,0,1-1.63-.42v3.1c0,1.8.17,1.92,2,2.08v.64h-5.6v-.64c1.51-.14,1.73-.28,1.73-1.84V157c0-1.54-.09-1.58-1.56-1.77v-.57a17.92,17.92,0,0,0,3.43-1v1.87ZM243,162.72a3.27,3.27,0,0,0,2.22.92c2,0,3.31-1.7,3.31-4.37s-1.44-3.95-3.17-3.95a4.63,4.63,0,0,0-2.36,1Z" transform="translate(1.2 -1.2)"/>
  </g>
  <g class="cls-2">
    <path class="cls-1" d="M256.52,164.49a2.39,2.39,0,0,1-1,.31c-1.49,0-2.32-.95-2.32-2.81V155.1h-1.63l-.09-.24.64-.69h1.09v-1.73l1.54-1.56.33,0v3.24h2.67a.67.67,0,0,1-.14.92h-2.53v6.07c0,1.92.78,2.27,1.37,2.27a3.37,3.37,0,0,0,1.47-.4l.21.62Z" transform="translate(1.2 -1.2)"/>
  </g>
  <g class="cls-2">
    <path class="cls-1" d="M269.12,164.49a2.39,2.39,0,0,1-1,.31c-1.49,0-2.32-.95-2.32-2.81V155.1h-1.63l-.09-.24.64-.69h1.09v-1.73l1.54-1.56.33,0v3.24h2.67a.67.67,0,0,1-.14.92h-2.53v6.07c0,1.92.78,2.27,1.37,2.27a3.37,3.37,0,0,0,1.46-.4l.21.62Z" transform="translate(1.2 -1.2)"/>
  </g>
  <g class="cls-2">
    <path class="cls-1" d="M282,159.17a5.26,5.26,0,0,1-5.13,5.63,5.12,5.12,0,0,1-5.18-5.22,5.39,5.39,0,0,1,5.18-5.67A5.13,5.13,0,0,1,282,159.17Zm-8.11-.35c0,3,1.3,5.2,3.24,5.2,1.47,0,2.67-1.09,2.67-4.33,0-2.77-1.11-5-3.17-5C275.13,154.68,273.86,156.14,273.86,158.81Z" transform="translate(1.2 -1.2)"/>
  </g>
  <g class="cls-2">
    <path class="cls-1" d="M39.56,196.53v-.64c2.15-.17,2.27-.36,2.27-2.06v-9.1c0-1.23-.09-1.35-1.13-1.39l-1.13,0v-.54a20.84,20.84,0,0,0,4.21-1.23v12.31c0,1.7.14,1.89,2.29,2.06v.64Z" transform="translate(1.2 -1.2)"/>
    <path class="cls-1" d="M58.8,189.16c0,3.45-1.25,7.66-4.8,7.66s-4.85-3.9-4.85-7.63c0-3.45,1.3-7.66,4.85-7.66S58.8,185.52,58.8,189.16Zm-7.54,0c0,3.31.69,6.88,2.74,6.88s2.69-3.55,2.69-6.85S56.1,182.3,54,182.3,51.26,185.85,51.26,189.13Z" transform="translate(1.2 -1.2)"/>
  </g>
  <g class="cls-2">
    <path class="cls-1" d="M65.85,186.28a2.64,2.64,0,0,1,1.16-.35,4.21,4.21,0,0,1,4.18,4.47c0,3.57-2.81,5.86-5.89,6.43a4,4,0,0,1-1.63-.42v3.1c0,1.8.17,1.92,2,2.08v.64h-5.6v-.64c1.51-.14,1.73-.28,1.73-1.84V189c0-1.54-.09-1.58-1.56-1.77v-.57a17.92,17.92,0,0,0,3.43-1v1.87Zm-2.17,8.46a3.27,3.27,0,0,0,2.22.92c2,0,3.31-1.7,3.31-4.37s-1.44-3.95-3.17-3.95a4.63,4.63,0,0,0-2.36,1Z" transform="translate(1.2 -1.2)"/>
  </g>
  <g class="cls-2">
    <path class="cls-1" d="M77.22,196.51a2.39,2.39,0,0,1-1,.31c-1.49,0-2.32-.95-2.32-2.81v-6.88H72.28l-.09-.24.64-.69h1.09v-1.73l1.54-1.56.33,0v3.24h2.67a.67.67,0,0,1-.14.92H75.78v6.07c0,1.92.78,2.27,1.37,2.27a3.37,3.37,0,0,0,1.47-.4l.21.62Z" transform="translate(1.2 -1.2)"/>
  </g>
  <g class="cls-2">
    <path class="cls-1" d="M86.77,186.2v-.52a6.63,6.63,0,0,1,.26-1.94A5.7,5.7,0,0,1,88.85,181a4.82,4.82,0,0,1,2.6-1.28,2.56,2.56,0,0,1,1.87.8.77.77,0,0,1,.12.83,1.35,1.35,0,0,1-.45.57.42.42,0,0,1-.64-.07,3,3,0,0,0-1.91-.87,1.37,1.37,0,0,0-1.25.71,7.24,7.24,0,0,0-.54,3.59v.95h2.79a.82.82,0,0,1-.24.92H88.64v6.81c0,1.75.17,1.82,2,2v.59H85.09v-.61c1.51-.14,1.68-.26,1.68-1.82v-7H85.12l-.09-.24.64-.69Z" transform="translate(1.2 -1.2)"/>
  </g>
  <g class="cls-2">
    <path class="cls-1" d="M102.37,191.19a5.26,5.26,0,0,1-5.13,5.63,5.12,5.12,0,0,1-5.18-5.22,5.39,5.39,0,0,1,5.18-5.67A5.13,5.13,0,0,1,102.37,191.19Zm-8.11-.35c0,3,1.3,5.2,3.24,5.2,1.47,0,2.67-1.09,2.67-4.33,0-2.77-1.11-5-3.17-5C95.53,186.7,94.26,188.17,94.26,190.84Z" transform="translate(1.2 -1.2)"/>
  </g>
  <g class="cls-2">
    <path class="cls-1" d="M107.31,188.43c.71-1.18,1.73-2.5,2.86-2.5a1.22,1.22,0,0,1,.61,2.34.55.55,0,0,1-.64,0,1.27,1.27,0,0,0-1-.5c-.61,0-1.37.71-1.89,2v4.33c0,1.56.12,1.7,1.94,1.84v.61h-5.44v-.61c1.47-.14,1.63-.28,1.63-1.84v-4.89c0-1.56-.12-1.65-1.47-1.84v-.52a13.4,13.4,0,0,0,3.33-1v2.58Z" transform="translate(1.2 -1.2)"/>
  </g>
  <g class="cls-2">
    <path class="cls-1" d="M122.59,186.16a2.48,2.48,0,0,1,1-.24,4.81,4.81,0,0,1,4.66,5,5.88,5.88,0,0,1-5.93,5.93,8.25,8.25,0,0,1-3.47-.85V182.82c0-1.46,0-1.61-1.56-1.75v-.54a19.12,19.12,0,0,0,3.43-.83V187Zm-1.91,7.63a1.89,1.89,0,0,0,.14.8,2.22,2.22,0,0,0,2.1,1.32c2,0,3.21-1.68,3.21-4.42s-1.65-4.25-3.62-4.25a3.93,3.93,0,0,0-1.84.45Z" transform="translate(1.2 -1.2)"/>
    <path class="cls-1" d="M140.48,191.19a5.26,5.26,0,0,1-5.13,5.63,5.12,5.12,0,0,1-5.18-5.22,5.39,5.39,0,0,1,5.18-5.67A5.13,5.13,0,0,1,140.48,191.19Zm-8.11-.35c0,3,1.3,5.2,3.24,5.2,1.47,0,2.67-1.09,2.67-4.33,0-2.77-1.11-5-3.17-5C133.65,186.7,132.38,188.17,132.38,190.84Z" transform="translate(1.2 -1.2)"/>
  </g>
  <g class="cls-2">
    <path class="cls-1" d="M153.71,195.92a24.5,24.5,0,0,0-3.66.9v-1.54l-1.44.85a4.15,4.15,0,0,1-1.84.68,4.74,4.74,0,0,1-4.37-5,6.05,6.05,0,0,1,6.1-5.86,5.44,5.44,0,0,1,1.56.26v-3.33c0-1.56-.12-1.63-1.82-1.75v-.57a21.92,21.92,0,0,0,3.69-.83v14.11c0,1.23.17,1.35,1,1.44l.76.07ZM150,188a2.94,2.94,0,0,0-2.43-1.21c-1.09,0-3.07.92-3.07,4.35,0,2.81,1.73,4.18,3.24,4.18a4,4,0,0,0,2.27-.8Z" transform="translate(1.2 -1.2)"/>
  </g>
  <g class="cls-2">
    <path class="cls-1" d="M165.18,186.79c-1.25.19-1.47.38-2.1,1.73s-1.32,3.21-3,7.11a50.68,50.68,0,0,0-2.43,6.41.7.7,0,0,1-.76.57,1.36,1.36,0,0,1-1.35-1.13c0-.38.21-.59.61-.85a5,5,0,0,0,1.75-2.1,9,9,0,0,0,.73-1.63,1.5,1.5,0,0,0,0-1.06c-.95-2.69-2-5.55-2.72-7.23-.5-1.3-.73-1.61-2-1.8v-.59h4.8v.59c-1.09.19-1.21.43-.9,1.3L160,194c.66-1.61,1.68-4.4,2.17-5.88.28-.9.12-1.16-1.23-1.35v-.59h4.28Z" transform="translate(1.2 -1.2)"/>
    <path class="cls-1" d="M179.74,194.41a5.62,5.62,0,0,1-4,2.41,4.73,4.73,0,0,1-4.73-4.94,5.68,5.68,0,0,1,2.36-4.63,6.25,6.25,0,0,1,3.57-1.32,3.53,3.53,0,0,1,2.1.61.87.87,0,0,1,.38.73,1.15,1.15,0,0,1-.78,1c-.12,0-.24-.07-.45-.26a3.43,3.43,0,0,0-2.36-1c-1.56,0-2.93,1.3-2.93,3.78,0,3.29,2.25,4.37,3.57,4.37a3.84,3.84,0,0,0,2.88-1.3Z" transform="translate(1.2 -1.2)"/>
  </g>
  <g class="cls-2">
    <path class="cls-1" d="M191.26,191.19a5.26,5.26,0,0,1-5.13,5.63,5.12,5.12,0,0,1-5.18-5.22,5.39,5.39,0,0,1,5.18-5.67A5.13,5.13,0,0,1,191.26,191.19Zm-8.11-.35c0,3,1.3,5.2,3.24,5.2,1.47,0,2.67-1.09,2.67-4.33,0-2.77-1.11-5-3.17-5C184.43,186.7,183.16,188.17,183.16,190.84Z" transform="translate(1.2 -1.2)"/>
  </g>
  <g class="cls-2">
    <path class="cls-1" d="M198.05,186.28a2.64,2.64,0,0,1,1.16-.35,4.21,4.21,0,0,1,4.18,4.47c0,3.57-2.81,5.86-5.89,6.43a4,4,0,0,1-1.63-.42v3.1c0,1.8.17,1.92,2,2.08v.64h-5.6v-.64c1.51-.14,1.73-.28,1.73-1.84V189c0-1.54-.09-1.58-1.56-1.77v-.57a17.92,17.92,0,0,0,3.43-1v1.87Zm-2.17,8.46a3.27,3.27,0,0,0,2.22.92c2,0,3.31-1.7,3.31-4.37s-1.44-3.95-3.17-3.95a4.63,4.63,0,0,0-2.36,1Z" transform="translate(1.2 -1.2)"/>
  </g>
  <g class="cls-2">
    <path class="cls-1" d="M215.18,186.79c-1.25.19-1.47.38-2.1,1.73s-1.32,3.21-3,7.11a50.77,50.77,0,0,0-2.43,6.41.7.7,0,0,1-.76.57,1.36,1.36,0,0,1-1.35-1.13c0-.38.21-.59.62-.85a5,5,0,0,0,1.75-2.1,9,9,0,0,0,.73-1.63,1.5,1.5,0,0,0,0-1.06c-.95-2.69-2-5.55-2.72-7.23-.5-1.3-.73-1.61-2-1.8v-.59h4.8v.59c-1.09.19-1.21.43-.9,1.3L210,194c.66-1.61,1.68-4.4,2.17-5.88.28-.9.12-1.16-1.23-1.35v-.59h4.28Z" transform="translate(1.2 -1.2)"/>
  </g>
  <g class="cls-2">
    <path class="cls-1" d="M214.36,195.45a1.32,1.32,0,1,1,2.65,0,1.32,1.32,0,1,1-2.65,0Z" transform="translate(1.2 -1.2)"/>
  </g>
  <path class="cls-1" d="M41.5,213.9v-.1c.3,0,.4-.1.4-.4v-.9c0-.4-.2-.7-.5-.7a.55.55,0,0,0-.5.3v1.3c0,.3,0,.4.3.4v.1H40.1v-.1c.3,0,.4-.1.4-.4v-2.7H39.1v2.6c0,.5,0,.5.5.5v.1H38.1v-.1c.5,0,.5-.1.5-.5v-2.6h-.3c-.5,0-.6,0-.7.2s-.1.2-.2.5h-.2c0-.3.1-.7.1-1h.1c.1.1.1.1.3.1h2.2c.4,0,.5,0,.5-.1v-.1c.1,0,.3-.1.4-.1V212a1.27,1.27,0,0,1,.7-.4c.5,0,.8.3.8.9v.9c0,.4,0,.4.4.4v.1Zm3.7-1.2A1.18,1.18,0,0,1,44,214a1.22,1.22,0,0,1-1.2-1.2,1.24,1.24,0,0,1,1.2-1.3A1.16,1.16,0,0,1,45.2,212.7Zm-1.8-.1c0,.7.3,1.2.7,1.2s.6-.2.6-1c0-.6-.3-1.1-.7-1.1S43.4,212,43.4,212.6Zm4.7,1.2a3.09,3.09,0,0,0-.8.2h0v-.4a1.38,1.38,0,0,1-.4.3.76.76,0,0,1-.4.1c-.4,0-.7-.2-.7-.8v-1c0-.3,0-.3-.3-.4v-.1a2.2,2.2,0,0,0,.8-.1v1.5c0,.5.2.6.5.6a.86.86,0,0,0,.6-.3v-1.2c0-.3,0-.3-.4-.4v-.1a2,2,0,0,0,.8-.1v1.8c0,.3,0,.3.2.3l.1.1Zm2.9-1.6c-.1-.3-.3-.5-.5-.5s-.3.2-.3.4.2.4.5.5.7.4.7.7c0,.5-.5.7-.9.7a.85.85,0,0,1-.6-.2c0-.1-.1-.4-.1-.6h.1c.1.4.3.7.7.7a.37.37,0,0,0,.4-.4.66.66,0,0,0-.4-.5c-.3-.1-.7-.3-.7-.7a.71.71,0,0,1,.8-.7.75.75,0,0,1,.5.1c0,.1.1.4.1.6Zm1.9,1.7v-.1c.3,0,.4-.1.4-.4v-.9c0-.4-.2-.7-.5-.7a.86.86,0,0,0-.6.3v1.3c0,.3,0,.4.3.4v.1H51.4v-.1c.3,0,.4-.1.4-.4v-2.5c0-.3,0-.4-.4-.4v-.1a1.88,1.88,0,0,0,.8-.2V212a1.23,1.23,0,0,1,.8-.4c.4,0,.7.3.7.9v.9c0,.4,0,.4.4.4v.1Zm3.1.1a.37.37,0,0,1-.3-.1c-.1-.1-.1-.1-.1-.2a3.29,3.29,0,0,1-.6.3c-.4,0-.6-.3-.6-.7s.1-.4.4-.5.7-.3.8-.3v-.1c0-.4-.2-.6-.4-.6s-.2,0-.2.1-.1.2-.2.4-.1.1-.2.1a.22.22,0,0,1-.2-.2c0-.1.1-.1.2-.2a2.93,2.93,0,0,1,.8-.4c.2,0,.3,0,.4.1a.84.84,0,0,1,.2.7v1c0,.2.1.3.2.3s.1,0,.2-.1l.1.1Zm-.4-1.4a1.06,1.06,0,0,1-.5.2c-.2.1-.3.2-.3.4a.37.37,0,0,0,.4.4.76.76,0,0,0,.4-.2Zm1,1.3v-.1c.3,0,.4-.1.4-.4v-2.5c0-.4,0-.4-.4-.4v-.1a1.88,1.88,0,0,0,.8-.2v3.2c0,.4,0,.4.4.4v.1Zm2.4,0a.35.35,0,0,0-.2.1c-.3,0-.5-.2-.5-.6v-1.6h-.4v-.1l.1-.2h.2v-.4l.3-.4h.1v.7h.6v.2h-.6V213c0,.4.2.5.3.5a1,1,0,0,0,.3-.1v.1Zm3.8-.4a1.19,1.19,0,0,1-.9.5,1.14,1.14,0,0,1-.6-2,1.23,1.23,0,0,1,.8-.4.86.86,0,0,1,.8.8c0,.1,0,.1-.1.2s-.8.1-1.4.1c0,.7.4,1,.8,1a1.42,1.42,0,0,0,.6-.2Zm-1.5-1.1h.9c.1,0,.1,0,.1-.1a.47.47,0,0,0-.5-.5C61.6,211.7,61.4,211.9,61.3,212.4Zm4.7,1.5v-.1c.3,0,.4-.1.4-.4v-.9c0-.4-.1-.6-.5-.6a.86.86,0,0,0-.6.3v1.2c0,.3,0,.4.3.4v.1H64.5v-.1c.3,0,.4-.1.4-.4v-.9c0-.4-.1-.6-.5-.6a.86.86,0,0,0-.6.3v1.3c0,.3,0,.4.3.4v.1H63v-.1c.4,0,.4-.1.4-.4v-1.1c0-.3,0-.4-.3-.4v-.1a1.85,1.85,0,0,0,.7-.2v.4a1.38,1.38,0,0,1,.4-.3.6.6,0,0,1,.4-.1.68.68,0,0,1,.6.4,1.38,1.38,0,0,0,.4-.3.6.6,0,0,1,.4-.1.71.71,0,0,1,.7.8v1c0,.4,0,.4.3.4v.1l-1-.1Zm2.6-2.3a.37.37,0,0,1,.3-.1.92.92,0,0,1,.9,1,1.6,1.6,0,0,1-1.3,1.5c-.2,0-.3-.1-.4-.1v.7c0,.4,0,.4.5.5v.1H67.3V215c.3,0,.4-.1.4-.4v-2.4c0-.3,0-.4-.4-.4v-.1a3.09,3.09,0,0,0,.8-.2v.4Zm-.5,1.9a.76.76,0,0,0,.5.2c.4,0,.7-.4.7-1s-.3-.9-.7-.9a.76.76,0,0,0-.5.2Zm1.9.4v-.1c.3,0,.4-.1.4-.4v-2.5c0-.4,0-.4-.4-.4v-.1a1.88,1.88,0,0,0,.8-.2v3.2c0,.4,0,.4.4.4v.1Zm3.8-1.2a1.18,1.18,0,0,1-1.2,1.3,1.22,1.22,0,0,1-1.2-1.2,1.24,1.24,0,0,1,1.2-1.3A1.16,1.16,0,0,1,73.8,212.7Zm-1.8-.1c0,.7.3,1.2.7,1.2s.6-.2.6-1c0-.6-.3-1.1-.7-1.1S72,212,72,212.6Zm4.5-.9c-.3,0-.3.1-.5.4s-.3.7-.7,1.6a4.42,4.42,0,0,0-.5,1.4c0,.1-.1.1-.2.1a.32.32,0,0,1-.3-.3c0-.1,0-.1.1-.2a.7.7,0,0,0,.4-.5c.1-.2.1-.3.2-.4v-.2c-.2-.6-.5-1.3-.6-1.6s-.2-.4-.5-.4v-.1H75v.1c-.2,0-.3.1-.2.3l.5,1.3c.1-.4.4-1,.5-1.3s0-.3-.3-.3v-.1h1Zm2.8,2.2v-.1c.3,0,.4-.1.4-.4v-.9c0-.4-.1-.6-.5-.6a.86.86,0,0,0-.6.3v1.3c0,.4,0,.4.3.4v.1H77.7v-.1c.4,0,.4-.1.4-.4v-1.1c0-.3,0-.4-.3-.4v-.1a1.45,1.45,0,0,0,.7-.2v.4a1.38,1.38,0,0,1,.4-.3.76.76,0,0,1,.4-.2.71.71,0,0,1,.7.8v1c0,.4,0,.4.3.4v.1Zm3.7-1.2a1.18,1.18,0,0,1-1.2,1.3,1.22,1.22,0,0,1-1.2-1.2,1.24,1.24,0,0,1,1.2-1.3A1.16,1.16,0,0,1,83,212.7Zm-1.8-.1c0,.7.3,1.2.7,1.2s.6-.2.6-1c0-.6-.3-1.1-.7-1.1S81.2,212,81.2,212.6Zm5.7.1a1.18,1.18,0,0,1-1.2,1.3,1.22,1.22,0,0,1-1.2-1.2,1.24,1.24,0,0,1,1.2-1.3A1.1,1.1,0,0,1,86.9,212.7Zm-1.8-.1c0,.7.3,1.2.7,1.2s.6-.2.6-1c0-.6-.3-1.1-.7-1.1S85.1,212,85.1,212.6Zm3.2,1.3a.35.35,0,0,0-.2.1c-.3,0-.5-.2-.5-.6v-1.6h-.4v-.1l.1-.2h.2v-.4l.3-.4h.1v.7h.6v.2H88V213c0,.4.2.5.3.5a1,1,0,0,0,.3-.1v.1Zm2.1,0v-.1c.3,0,.4-.1.4-.4v-.9c0-.4-.2-.7-.5-.7a.86.86,0,0,0-.6.3v1.3c0,.3,0,.4.3.4v.1H88.9v-.1c.3,0,.4-.1.4-.4v-2.5c0-.3,0-.4-.4-.4v-.1a1.88,1.88,0,0,0,.8-.2V212a1.23,1.23,0,0,1,.8-.4c.4,0,.7.3.7.9v.9c0,.4,0,.4.4.4v.1Zm3.3-.4a1.19,1.19,0,0,1-.9.5,1.14,1.14,0,0,1-.6-2,1.23,1.23,0,0,1,.8-.4.86.86,0,0,1,.8.8c0,.1,0,.1-.1.2s-.8.1-1.4.1c0,.7.4,1,.8,1a1.42,1.42,0,0,0,.6-.2Zm-1.5-1.1h.9c.1,0,.1,0,.1-.1a.47.47,0,0,0-.5-.5C92.5,211.7,92.3,211.9,92.2,212.4Zm2.6-.3c.2-.3.4-.6.6-.6a.27.27,0,0,1,.3.3c0,.1-.1.2-.2.3h-.1c-.1-.1-.1-.1-.2-.1s-.3.2-.4.5v1c0,.4,0,.4.4.4v.1H94v-.1c.3,0,.4-.1.4-.4v-1.1c0-.4,0-.4-.3-.4v-.1a2.35,2.35,0,0,0,.8-.2l-.1.4Zm3.5,1.8a.35.35,0,0,0-.2.1c-.3,0-.5-.2-.5-.6v-1.6h-.4v-.1l.1-.2h.2v-.4l.3-.4h.1v.7h.6v.2h-.6V213c0,.4.2.5.3.5a1,1,0,0,0,.3-.1v.1Zm2.9-2.2c-.3,0-.3.1-.5.4s-.3.7-.7,1.6a4.42,4.42,0,0,0-.5,1.4c0,.1-.1.1-.2.1a.32.32,0,0,1-.3-.3c0-.1,0-.1.1-.2a.7.7,0,0,0,.4-.5c.1-.2.1-.3.2-.4v-.2c-.2-.6-.5-1.3-.6-1.6s-.2-.4-.5-.4v-.1h1.1v.1c-.2,0-.3.1-.2.3l.5,1.3c.1-.4.4-1,.5-1.3s0-.3-.3-.3v-.1h1Zm1.3-.1a.37.37,0,0,1,.3-.1.92.92,0,0,1,.9,1,1.6,1.6,0,0,1-1.3,1.5c-.2,0-.3-.1-.4-.1v.7c0,.4,0,.4.5.5v.1h-1.3V215c.3,0,.4-.1.4-.4v-2.4c0-.3,0-.4-.4-.4v-.1a3.09,3.09,0,0,0,.8-.2v.4Zm-.5,1.9a.76.76,0,0,0,.5.2c.4,0,.7-.4.7-1s-.3-.9-.7-.9a.76.76,0,0,0-.5.2Zm4.1,0a1.19,1.19,0,0,1-.9.5,1.14,1.14,0,0,1-.6-2,1.23,1.23,0,0,1,.8-.4.86.86,0,0,1,.8.8c0,.1,0,.1-.1.2s-.8.1-1.4.1c0,.7.4,1,.8,1a1.42,1.42,0,0,0,.6-.2Zm-1.5-1.1h.9c.1,0,.1,0,.1-.1a.47.47,0,0,0-.5-.5C104.9,211.7,104.7,211.9,104.6,212.4Zm4.4-.2c-.1-.3-.3-.5-.5-.5s-.3.2-.3.4.2.4.5.5.7.4.7.7c0,.5-.5.7-.9.7a.85.85,0,0,1-.6-.2c0-.1-.1-.4-.1-.6h.1c.1.4.3.7.7.7a.37.37,0,0,0,.4-.4.66.66,0,0,0-.4-.5c-.3-.1-.7-.3-.7-.7a.71.71,0,0,1,.8-.7.75.75,0,0,1,.5.1c0,.1.1.4.1.6Zm.6,1.7v-.1c.3,0,.4-.1.4-.4v-1.1c0-.3,0-.4-.3-.4v-.1a2.35,2.35,0,0,0,.8-.2v1.8c0,.4,0,.4.4.4v.1Zm.3-3.1a.27.27,0,0,1,.3-.3.3.3,0,0,1,0,.6Q109.9,210.95,109.9,210.8Zm3.1,2.4a1.85,1.85,0,0,0-.2.7H111v-.1a23.92,23.92,0,0,0,1.3-2.1h-.5c-.4,0-.5.1-.6.4l-.1.1H111c.1-.2.1-.5.2-.8h.1c0,.1.1.1.3.1h1.2v.1c-.4.7-.9,1.4-1.3,2.1h.5a.67.67,0,0,0,.7-.4l.1-.1Zm2.2.3a1.19,1.19,0,0,1-.9.5,1.14,1.14,0,0,1-.6-2,1.23,1.23,0,0,1,.8-.4.86.86,0,0,1,.8.8c0,.1,0,.1-.1.2s-.8.1-1.4.1c0,.7.4,1,.8,1a1.42,1.42,0,0,0,.6-.2Zm-1.5-1.1h.9c.1,0,.1,0,.1-.1a.47.47,0,0,0-.5-.5C114,211.7,113.8,211.9,113.7,212.4Zm4.1,1.5a.35.35,0,0,0-.2.1c-.3,0-.5-.2-.5-.6v-1.6h-.4v-.1l.1-.2h.2v-.4l.3-.4h.1v.7h.6v.2h-.6V213c0,.4.2.5.3.5a1,1,0,0,0,.3-.1v.1Zm2,0v-.1c.3,0,.4-.1.4-.4v-.9c0-.4-.2-.7-.5-.7a.86.86,0,0,0-.6.3v1.3c0,.3,0,.4.3.4v.1h-1.1v-.1c.3,0,.4-.1.4-.4v-2.5c0-.3,0-.4-.4-.4v-.1a1.88,1.88,0,0,0,.8-.2V212a1.23,1.23,0,0,1,.8-.4c.4,0,.7.3.7.9v.9c0,.4,0,.4.4.4v.1Zm3.1.1a.37.37,0,0,1-.3-.1c-.1-.1-.1-.1-.1-.2a3.29,3.29,0,0,1-.6.3c-.4,0-.6-.3-.6-.7s.1-.4.4-.5.7-.3.8-.3v-.1c0-.4-.2-.6-.4-.6s-.2,0-.2.1-.1.2-.2.4-.1.1-.2.1a.22.22,0,0,1-.2-.2c0-.1.1-.1.2-.2a2.93,2.93,0,0,1,.8-.4c.2,0,.3,0,.4.1a.84.84,0,0,1,.2.7v1c0,.2.1.3.2.3s.1,0,.2-.1l.1.1Zm-.4-1.4a1.06,1.06,0,0,1-.5.2c-.2.1-.3.2-.3.4a.37.37,0,0,0,.4.4.76.76,0,0,0,.4-.2Zm2.5,1.3v-.1c.3,0,.4-.1.4-.4v-.9c0-.4-.1-.6-.5-.6a.86.86,0,0,0-.6.3v1.3c0,.4,0,.4.3.4v.1h-1.2v-.1c.4,0,.4-.1.4-.4v-1.1c0-.3,0-.4-.3-.4v-.1a1.45,1.45,0,0,0,.7-.2v.4a1.38,1.38,0,0,1,.4-.3.76.76,0,0,1,.4-.2.71.71,0,0,1,.7.8v1c0,.4,0,.4.3.4v.1Zm4.7-2.6a.52.52,0,0,1-.2.4,1.87,1.87,0,0,1-.4.3,1.07,1.07,0,0,1,.7.9,1.09,1.09,0,0,1-1.1,1c-.6,0-1-.3-1-.9a.76.76,0,0,1,.2-.5,2.19,2.19,0,0,1,.5-.3c-.3-.2-.6-.5-.6-.8a1,1,0,0,1,1-.9A.88.88,0,0,1,129.7,211.3Zm-.3,1.8c0-.4-.4-.6-.8-.8a.75.75,0,0,0-.4.7.71.71,0,0,0,.7.8C129.1,213.8,129.4,213.6,129.4,213.1Zm-1.2-1.9c0,.4.3.6.7.8.2-.1.3-.3.3-.7a.56.56,0,0,0-.5-.6A.54.54,0,0,0,128.2,211.2Zm3.2.4a.37.37,0,0,1,.3-.1.92.92,0,0,1,.9,1,1.6,1.6,0,0,1-1.3,1.5c-.2,0-.3-.1-.4-.1v.7c0,.4,0,.4.5.5v.1h-1.3V215c.3,0,.4-.1.4-.4v-2.4c0-.3,0-.4-.4-.4v-.1a3.09,3.09,0,0,0,.8-.2v.4Zm-.5,1.9a.76.76,0,0,0,.5.2c.4,0,.7-.4.7-1s-.3-.9-.7-.9a.76.76,0,0,0-.5.2Zm3.1.4a.35.35,0,0,0-.2.1c-.3,0-.5-.2-.5-.6v-1.6h-.4v-.1l.1-.2h.2v-.4l.3-.4h.1v.7h.6v.2h-.6V213c0,.4.2.5.3.5a1,1,0,0,0,.3-.1v.1Zm2.8,0a.35.35,0,0,0-.2.1c-.3,0-.5-.2-.5-.6v-1.6h-.4v-.1l.1-.2h.2v-.4l.3-.4h.1v.7h.6v.2h-.6V213c0,.4.2.5.3.5a1,1,0,0,0,.3-.1v.1Zm2.9-1.2a1.18,1.18,0,0,1-1.2,1.3,1.22,1.22,0,0,1-1.2-1.2,1.24,1.24,0,0,1,1.2-1.3A1.16,1.16,0,0,1,139.7,212.7Zm-1.8-.1c0,.7.3,1.2.7,1.2s.6-.2.6-1c0-.6-.3-1.1-.7-1.1S137.9,212,137.9,212.6Zm3.8,1.3v-.1c.5,0,.5-.1.5-.5v-2.1c0-.3,0-.3-.3-.3h-.3v-.1c.3-.1.7-.2,1-.3v2.8c0,.4,0,.4.5.5v.1Zm4.4-1.7c0,.8-.3,1.7-1.1,1.7s-1.1-.9-1.1-1.7.3-1.7,1.1-1.7S146.1,211.4,146.1,212.2Zm-1.7,0c0,.7.2,1.6.6,1.6s.6-.8.6-1.5-.1-1.5-.6-1.5S144.4,211.5,144.4,212.2Zm3.3-.6a.37.37,0,0,1,.3-.1.92.92,0,0,1,.9,1,1.6,1.6,0,0,1-1.3,1.5c-.2,0-.3-.1-.4-.1v.7c0,.4,0,.4.5.5v.1h-1.3V215c.3,0,.4-.1.4-.4v-2.4c0-.3,0-.4-.4-.4v-.1a3.09,3.09,0,0,0,.8-.2v.4Zm-.5,1.9a.76.76,0,0,0,.5.2c.4,0,.7-.4.7-1s-.3-.9-.7-.9a.76.76,0,0,0-.5.2Zm3,.4a.35.35,0,0,0-.2.1c-.3,0-.5-.2-.5-.6v-1.6h-.4v-.1l.1-.2h.2v-.4l.3-.4h.1v.7h.6v.2h-.6V213c0,.4.2.5.3.5a1,1,0,0,0,.3-.1v.1Zm2.2-2.3v-.1c0-.2,0-.3.1-.4a.87.87,0,0,1,.4-.6.86.86,0,0,1,.6-.3.52.52,0,0,1,.4.2c0,.1.1.1,0,.2a.1.1,0,0,1-.1.1h-.1a.76.76,0,0,0-.4-.2c-.1,0-.2.1-.3.2s-.1.4-.1.8v.2h.6s0,.2-.1.2h-.6v1.5c0,.4,0,.4.5.5v.1H152v-.1c.3,0,.4-.1.4-.4v-1.6H152v-.1l.1-.2Zm3.5,1.1a1.18,1.18,0,0,1-1.2,1.3,1.22,1.22,0,0,1-1.2-1.2,1.24,1.24,0,0,1,1.2-1.3A1.16,1.16,0,0,1,155.9,212.7Zm-1.8-.1c0,.7.3,1.2.7,1.2s.6-.2.6-1c0-.6-.3-1.1-.7-1.1S154.1,212,154.1,212.6Zm2.9-.5c.2-.3.4-.6.6-.6a.27.27,0,0,1,.3.3c0,.1-.1.2-.2.3h-.1c-.1-.1-.1-.1-.2-.1s-.3.2-.4.5v1c0,.4,0,.4.4.4v.1h-1.2v-.1c.3,0,.4-.1.4-.4v-1.1c0-.4,0-.4-.3-.4v-.1a2.35,2.35,0,0,0,.8-.2l-.1.4Zm3.5-.5a.35.35,0,0,0,.2-.1,1.11,1.11,0,0,1,1.1,1.1,1.26,1.26,0,0,1-1.3,1.3,3.09,3.09,0,0,1-.8-.2v-3c0-.3,0-.4-.4-.4v-.1a1.88,1.88,0,0,0,.8-.2v1.6Zm-.5,1.7v.2c0,.1.2.3.5.3s.7-.4.7-1a.92.92,0,0,0-.8-1,.6.6,0,0,0-.4.1Zm4.5-.6a1.18,1.18,0,0,1-1.2,1.3,1.22,1.22,0,0,1-1.2-1.2,1.24,1.24,0,0,1,1.2-1.3A1.16,1.16,0,0,1,164.5,212.7Zm-1.8-.1c0,.7.3,1.2.7,1.2s.6-.2.6-1c0-.6-.3-1.1-.7-1.1S162.7,212,162.7,212.6Zm4.8,1.2a4.5,4.5,0,0,0-.8.2v-.3l-.3.2-.4.2a1.09,1.09,0,0,1-1-1.1,1.42,1.42,0,0,1,1.4-1.3.76.76,0,0,1,.4.1V211c0-.4,0-.4-.4-.4v-.1a1.88,1.88,0,0,0,.8-.2v3.2c0,.3,0,.3.2.3Zm-.8-1.8a.55.55,0,0,0-.5-.3c-.2,0-.7.2-.7,1a.81.81,0,0,0,.7.9.76.76,0,0,0,.5-.2Zm3.4-.3c-.3,0-.3.1-.5.4s-.3.7-.7,1.6a4.42,4.42,0,0,0-.5,1.4c0,.1-.1.1-.2.1a.32.32,0,0,1-.3-.3c0-.1,0-.1.1-.2a.7.7,0,0,0,.4-.5c.1-.2.1-.3.2-.4v-.2c-.2-.6-.5-1.3-.6-1.6s-.2-.4-.5-.4v-.1h1.1v.1c-.2,0-.3.1-.2.3l.5,1.3c.1-.4.4-1,.5-1.3s0-.3-.3-.3v-.1h1Zm3.3,1.7a1.19,1.19,0,0,1-.9.5,1,1,0,0,1-1.1-1.1,1.23,1.23,0,0,1,.5-1,1.6,1.6,0,0,1,.8-.3,4.33,4.33,0,0,1,.5.1c.1.1.1.1.1.2a.22.22,0,0,1-.2.2.1.1,0,0,1-.1-.1c-.2-.1-.3-.2-.5-.2-.4,0-.7.3-.7.9a.91.91,0,0,0,.8,1,1.33,1.33,0,0,0,.7-.3Zm2.6-.7a1.18,1.18,0,0,1-1.2,1.3,1.22,1.22,0,0,1-1.2-1.2,1.24,1.24,0,0,1,1.2-1.3A1.16,1.16,0,0,1,176,212.7Zm-1.9-.1c0,.7.3,1.2.7,1.2s.6-.2.6-1c0-.6-.3-1.1-.7-1.1S174.1,212,174.1,212.6Zm3.4-1a.37.37,0,0,1,.3-.1.92.92,0,0,1,.9,1,1.6,1.6,0,0,1-1.3,1.5c-.2,0-.3-.1-.4-.1v.7c0,.4,0,.4.5.5v.1h-1.3V215c.3,0,.4-.1.4-.4v-2.4c0-.3,0-.4-.4-.4v-.1a3.09,3.09,0,0,0,.8-.2v.4Zm-.5,1.9a.76.76,0,0,0,.5.2c.4,0,.7-.4.7-1s-.3-.9-.7-.9a.76.76,0,0,0-.5.2Zm4.4-1.8c-.3,0-.3.1-.5.4s-.3.7-.7,1.6a4.42,4.42,0,0,0-.5,1.4c0,.1-.1.1-.2.1a.32.32,0,0,1-.3-.3c0-.1,0-.1.1-.2a.7.7,0,0,0,.4-.5c.1-.2.1-.3.2-.4v-.2c-.2-.6-.5-1.3-.6-1.6s-.2-.4-.5-.4v-.1h1.1v.1c-.2,0-.3.1-.2.3l.5,1.3c.1-.4.4-1,.5-1.3s0-.3-.3-.3v-.1h1Zm-.2,2a.3.3,0,1,1,.3.3A.27.27,0,0,1,181.2,213.7Z" transform="translate(1.2 -1.2)"/>
</svg>
