<?xml version="1.0" encoding="utf-8"?>
<!-- Generator: Adobe Illustrator 21.0.2, SVG Export Plug-In . SVG Version: 6.00 Build 0)  -->
<!DOCTYPE svg PUBLIC "-//W3C//DTD SVG 1.1//EN" "http://www.w3.org/Graphics/SVG/1.1/DTD/svg11.dtd">
<svg version="1.1" id="Layer_1" xmlns="http://www.w3.org/2000/svg" xmlns:xlink="http://www.w3.org/1999/xlink" x="0px" y="0px"
	 viewBox="0 0 340.1 333.7" style="enable-background:new 0 0 340.1 333.7;" xml:space="preserve">
<style type="text/css">
	.st0{fill:#231F20;}
	.st1{clip-path:url(#SVGID_2_);fill:#FFFFFF;}
</style>
<rect y="0" class="st0" width="340.1" height="333.7"/>
<g>
	<defs>
		<rect id="SVGID_1_" y="0" width="340.1" height="333.7"/>
	</defs>
	<clipPath id="SVGID_2_">
		<use xlink:href="#SVGID_1_"  style="overflow:visible;"/>
	</clipPath>
	<path class="st1" d="M45.4,37.1c0.6,0,1.1-0.4,1.1-1.1c0-0.6-0.5-1.1-1.1-1.1c-0.6,0-1.1,0.5-1.1,1.1
		C44.3,36.7,44.8,37.1,45.4,37.1 M38.4,25.4c1.9,0,2.4,2.4,2.4,4.1c0,0.4,0,0.8-0.1,1.3c-0.4,0.3-1.1,0.5-1.7,0.5
		c-1.6,0-2.6-1.4-2.6-3.1C36.4,27,36.9,25.4,38.4,25.4 M38.6,24.7c-2.5,0-3.9,2.2-3.9,4.1c0,2,1.4,3.5,3.4,3.5
		c0.4,0,0.7-0.1,1.1-0.3l1.3-0.7c-0.6,2.9-2.7,4.8-5.5,5.3l0.1,0.6c0.5,0,1.6-0.2,2.7-0.6c2.6-1,4.5-3.5,4.5-7
		C42.4,26.9,41,24.7,38.6,24.7"/>
	<path class="st1" d="M301.7,201.8c0.9,0,1.5-0.6,1.5-1.6c0-0.9-0.6-1.5-1.5-1.5c-0.9,0-1.5,0.7-1.5,1.5
		C300.1,201.2,300.8,201.8,301.7,201.8 M298.4,200.5l-0.2-0.7c-0.4,0.2-1,0.5-1.7,0.5s-1.6-0.4-1.6-2.6v-6.9h2.9
		c0.3-0.2,0.4-0.8,0.2-1h-3v-3.7l-0.4-0.1l-1.7,1.8v2h-1.2l-0.7,0.8l0.1,0.3h1.8v7.8c0,2.1,0.9,3.2,2.6,3.2c0.2,0,0.7-0.1,1.1-0.3
		L298.4,200.5z M290.3,201.5v-0.7c-1.6-0.2-1.7-0.3-1.7-2.1v-5.2c0-2.6-1.3-4.1-3.5-4.1c-0.8,0-1.5,0.3-2.2,0.8
		c-0.7,0.5-1.3,0.9-1.8,1.3v-2.1c-1.2,0.5-2.4,0.9-3.7,1.1v0.6c1.4,0.3,1.6,0.3,1.6,2.1v5.5c0,1.8-0.1,1.9-2,2.1v0.7h5.8v-0.7
		c-1.6-0.2-1.7-0.3-1.7-2.1v-6.3c0.8-0.7,1.8-1.4,2.9-1.4c1.8,0,2.4,1.2,2.4,3.1v4.5c0,1.8-0.2,2.1-1.8,2.2v0.7H290.3z M270.9,190.4
		c1.5,0,2.4,1.3,2.4,2.7c0,0.4-0.2,0.5-0.6,0.5c-1.6,0.1-3,0.1-4.5,0.1C268.5,191.6,269.7,190.4,270.9,190.4 M275,198.6
		c-1,0.9-2,1.3-3.1,1.3c-1.9,0-4-1.5-4-5.1c3.2-0.1,6.5-0.4,7-0.5c0.5-0.1,0.6-0.3,0.6-0.9c0-2.1-1.8-4.1-4-4.1
		c-1.4,0-2.8,0.7-3.9,2c-1.1,1.2-1.8,2.8-1.8,4.7c0,3,1.9,5.7,5.2,5.7c0.8,0,2.7-0.5,4.4-2.6L275,198.6z M264.4,201.5v-0.7
		c-1.5-0.2-1.7-0.3-1.7-2.1v-5.2c0-2.6-1.3-4.1-3.4-4.1c-0.8,0-1.4,0.3-2,0.7c-0.7,0.4-1.4,0.9-2.2,1.5c-0.5-1.4-1.7-2.2-3-2.2
		c-0.9,0-1.5,0.3-2.2,0.7c-0.8,0.5-1.4,1-2,1.4v-2.2c-1.2,0.5-2.5,0.9-3.7,1.1v0.6c1.6,0.2,1.6,0.4,1.6,2.1v5.5c0,1.7-0.2,1.9-2,2.1
		v0.7h5.7v-0.7c-1.3-0.2-1.5-0.3-1.5-2.1v-6.3c0.8-0.7,1.8-1.4,2.9-1.4c1.6,0,2.3,1.1,2.3,3.1v4.6c0,1.8-0.2,1.9-1.9,2.1v0.7h5.7
		v-0.7c-1.5-0.2-1.7-0.3-1.7-2v-5.2c0-0.5,0-0.8-0.1-1.1c1-0.9,2-1.4,3-1.4c1.7,0,2.4,1.2,2.4,3.1v4.5c0,1.9-0.3,2-1.9,2.2v0.7
		H264.4z M242.4,201.5v-0.7c-1.6-0.2-1.7-0.3-1.7-2.1v-5.2c0-2.6-1.3-4.1-3.5-4.1c-0.8,0-1.5,0.3-2.2,0.8c-0.7,0.5-1.3,0.9-1.8,1.3
		v-2.1c-1.2,0.5-2.4,0.9-3.7,1.1v0.6c1.4,0.3,1.6,0.3,1.6,2.1v5.5c0,1.8-0.1,1.9-2,2.1v0.7h5.8v-0.7c-1.6-0.2-1.7-0.3-1.7-2.1v-6.3
		c0.8-0.7,1.8-1.4,2.9-1.4c1.8,0,2.4,1.2,2.4,3.1v4.5c0,1.8-0.2,2.1-1.8,2.2v0.7H242.4z M222.2,201.8c1.1,0,1.9,0.1,2.6,0.3
		c0.8,0.3,1.2,1,1.2,1.9c0,1.7-1.3,3-3.9,3c-2,0-3.5-1.1-3.5-2.5c0-0.8,0.5-1.5,1.2-2.1C220.3,201.9,220.9,201.8,222.2,201.8
		 M221.6,190.3c1.5,0,2.5,1.5,2.5,3.6c0,2.1-1,3.2-2.2,3.2c-1.5,0-2.5-1.5-2.5-3.6S220.4,190.3,221.6,190.3 M228.1,189.7
		c-1,0.2-2.3,0.3-3.6,0.4c-0.8-0.4-1.7-0.7-2.6-0.7c-2.1,0-4.8,1.4-4.8,4.5c0,1.8,1.2,3.1,2.4,3.6c-0.4,0.5-1.3,1.2-2.4,1.6
		c0,0.3,0.1,0.7,0.3,1.1c0.3,0.6,1,1.2,2,1.5c-0.6,0.5-1.7,1.3-2.2,1.9c-0.4,0.4-0.6,0.9-0.6,1.5c0,1.5,1.7,3.3,4.6,3.3
		c3.6,0,6.7-2.6,6.7-5.3c0-2.6-2.2-3.2-3.9-3.2c-0.9,0-1.8,0-2.8,0c-1.2,0-1.7-0.5-1.7-1c0-0.4,0.4-0.9,0.8-1.1
		c0.4,0.1,0.9,0.1,1.4,0.1c2.3,0,4.7-1.4,4.7-4.3c0-1-0.3-1.8-0.8-2.4l1.5,0.1c0.4-0.2,1-0.9,1.2-1.4L228.1,189.7z M215.2,201.5
		v-0.7c-1.7-0.2-1.9-0.3-1.9-2.1v-9.2c-1.2,0.5-2.4,0.8-3.8,1v0.6c1.6,0.3,1.7,0.4,1.7,2v5.5c0,1.8-0.2,2-1.9,2.1v0.7H215.2z
		 M212.1,187.1c0.8,0,1.4-0.6,1.4-1.4c0-0.8-0.6-1.4-1.3-1.4c-0.7,0-1.4,0.6-1.4,1.4C210.8,186.5,211.4,187.1,212.1,187.1
		 M208.1,201.5v-0.7c-1.7-0.2-1.9-0.3-1.9-2.1v-16.3c-0.9,0.3-2.6,0.8-4,0.9v0.6c1.7,0.1,1.8,0.2,1.8,2v12.7c0,1.8-0.2,1.9-1.9,2.1
		v0.7H208.1z M197.2,199.2c-0.5,0.5-1.4,0.9-2.1,1c-0.8,0-1.9-0.7-1.9-2.1c0-1,0.6-1.5,1.6-2c0.6-0.3,1.8-0.8,2.4-1.1V199.2z
		 M201.4,200.4l-0.3-0.7c-0.3,0.2-0.6,0.3-1,0.3c-0.5,0-0.9-0.4-0.9-1.6v-5c0-1.4-0.3-2.5-1.2-3.3c-0.6-0.5-1.4-0.7-2.2-0.7
		c-1.5,0.3-3.3,1.3-4,1.9c-0.5,0.4-0.9,0.7-0.9,1.1c0,0.6,0.7,1.2,1.2,1.2c0.4,0,0.7-0.2,0.8-0.6c0.2-0.8,0.5-1.4,0.8-1.8
		c0.3-0.3,0.7-0.5,1.2-0.5c1.3,0,2.3,1.1,2.3,3v0.5c-0.6,0.5-2.5,1.2-4.2,1.7c-1.5,0.5-2.2,1.3-2.2,2.7c0,1.7,1.3,3.3,3.2,3.3
		c0.8,0,2.1-1,3.2-1.7c0.1,0.5,0.3,0.8,0.6,1.2c0.3,0.3,0.9,0.5,1.3,0.5L201.4,200.4z"/>
	<path class="st1" d="M299.4,158.3c1.5,0,2.4,1.3,2.4,2.7c0,0.4-0.2,0.5-0.6,0.5c-1.6,0.1-3,0.1-4.5,0.1
		C297,159.4,298.1,158.3,299.4,158.3 M303.5,166.5c-1,0.9-2,1.3-3.1,1.3c-1.9,0-4-1.5-4-5.1c3.2-0.1,6.5-0.4,7-0.5
		c0.5-0.1,0.6-0.3,0.6-0.9c0-2.1-1.8-4.1-4-4.1c-1.4,0-2.8,0.7-3.9,2c-1.1,1.2-1.8,2.8-1.8,4.7c0,3,1.9,5.7,5.2,5.7
		c0.8,0,2.7-0.5,4.4-2.6L303.5,166.5z M283.6,160c0.7-0.5,1.8-1.1,2.7-1.1c2,0,3.6,1.6,3.6,4.5c0,3-1.5,5-3.8,5
		c-0.9,0-1.9-0.4-2.5-1V160z M283.6,159.1V157c-1.3,0.5-2.8,1-3.9,1.2v0.6c1.7,0.2,1.8,0.3,1.8,2v12.1c0,1.8-0.2,1.9-2,2.1v0.7h6.4
		V175c-2.1-0.2-2.3-0.3-2.3-2.4v-3.5c0.3,0.2,1.1,0.5,1.8,0.5c3.5-0.6,6.7-3.2,6.7-7.3c0-2.7-1.8-5.1-4.7-5.1
		c-0.3,0-0.8,0.1-1.3,0.4L283.6,159.1z M279.5,157.6h-4.9v0.7c1.5,0.2,1.7,0.5,1.4,1.5c-0.6,1.7-1.7,4.9-2.5,6.7l-2.4-6.7
		c-0.3-1-0.2-1.3,1-1.5v-0.7h-5.4v0.7c1.5,0.2,1.7,0.6,2.3,2c0.8,1.9,2,5.1,3.1,8.2c0.2,0.5,0.2,0.8,0,1.2c-0.1,0.3-0.3,0.9-0.8,1.8
		c-0.6,1.2-1.2,1.8-2,2.4c-0.5,0.3-0.7,0.5-0.7,1c0,0.6,0.8,1.3,1.5,1.3c0.4,0,0.7-0.1,0.9-0.6c0.4-1.4,1-3,2.8-7.3
		c1.8-4.4,2.7-6.6,3.4-8.1c0.7-1.5,1-1.7,2.4-2V157.6z M266.5,168.4l-0.2-0.7c-0.4,0.2-1,0.5-1.7,0.5s-1.6-0.4-1.6-2.6v-6.9h2.9
		c0.3-0.2,0.4-0.8,0.2-1h-3v-3.7l-0.4-0.1l-1.7,1.8v2h-1.2l-0.7,0.8l0.1,0.3h1.8v7.8c0,2.1,0.9,3.2,2.6,3.2c0.2,0,0.7-0.1,1.1-0.3
		L266.5,168.4z M252.2,168.4l-0.2-0.7c-0.4,0.2-1,0.5-1.7,0.5c-0.7,0-1.6-0.4-1.6-2.6v-6.9h2.9c0.3-0.2,0.4-0.8,0.2-1h-3v-3.7
		l-0.4-0.1l-1.7,1.8v2h-1.2l-0.7,0.8l0.1,0.3h1.8v7.8c0,2.1,0.9,3.2,2.6,3.2c0.2,0,0.7-0.1,1.1-0.3L252.2,168.4z M244.1,169.3v-0.7
		c-1.6-0.1-1.8-0.3-1.8-2.1v-4.7c0-3.2-1.5-4.6-3.7-4.6c-1.4,0-2.9,1-3.8,2v-9c-1,0.3-2.7,0.8-3.9,0.9v0.6c1.8,0.2,1.8,0.3,1.8,2
		v12.8c0,1.8-0.2,1.9-1.8,2.1v0.7h5.7v-0.7c-1.6-0.2-1.7-0.3-1.7-2.1v-6.4c0.8-0.9,1.8-1.4,2.8-1.4c1.8,0,2.6,1.1,2.6,3.3v4.5
		c0,1.7-0.2,1.9-1.8,2.1v0.7H244.1z M224.1,169.6c1.1,0,1.9,0.1,2.6,0.3c0.8,0.3,1.2,1,1.2,1.9c0,1.7-1.3,3-3.9,3
		c-2,0-3.5-1.1-3.5-2.5c0-0.8,0.5-1.5,1.2-2.1C222.3,169.8,222.9,169.6,224.1,169.6 M223.6,158.1c1.5,0,2.5,1.5,2.5,3.6
		c0,2.1-1,3.2-2.2,3.2c-1.5,0-2.5-1.5-2.5-3.6C221.3,159.2,222.4,158.1,223.6,158.1 M230,157.6c-1,0.2-2.3,0.3-3.6,0.4
		c-0.8-0.4-1.7-0.7-2.6-0.7c-2.1,0-4.8,1.4-4.8,4.5c0,1.8,1.2,3.1,2.4,3.6c-0.4,0.5-1.3,1.2-2.4,1.6c0,0.3,0.1,0.7,0.3,1.1
		c0.3,0.6,1,1.2,2,1.5c-0.6,0.5-1.7,1.3-2.2,1.9c-0.4,0.4-0.6,0.9-0.6,1.5c0,1.5,1.7,3.3,4.6,3.3c3.6,0,6.7-2.6,6.7-5.3
		c0-2.6-2.2-3.2-3.9-3.2c-0.9,0-1.8,0-2.8,0c-1.2,0-1.7-0.5-1.7-1c0-0.4,0.4-0.9,0.8-1.1c0.4,0.1,0.9,0.1,1.4,0.1
		c2.3,0,4.7-1.4,4.7-4.3c0-1-0.3-1.8-0.8-2.4l1.5,0.1c0.4-0.2,1-0.9,1.2-1.4L230,157.6z M217.2,169.3v-0.7c-1.7-0.2-1.9-0.3-1.9-2.1
		v-9.2c-1.2,0.5-2.4,0.8-3.8,1v0.6c1.6,0.3,1.7,0.4,1.7,2v5.5c0,1.8-0.2,2-1.9,2.1v0.7H217.2z M214.1,154.9c0.8,0,1.4-0.6,1.4-1.4
		c0-0.8-0.6-1.4-1.3-1.4c-0.7,0-1.4,0.6-1.4,1.4C212.8,154.3,213.4,154.9,214.1,154.9 M205.2,160.1v-2.9c-1.3,0.6-2.5,0.9-3.8,1.1
		v0.6c1.5,0.2,1.7,0.3,1.7,2.1v5.5c0,1.8-0.2,1.9-1.8,2.1v0.7h6.2v-0.7c-2.1-0.2-2.2-0.3-2.2-2.1v-4.9c0.6-1.5,1.4-2.3,2.1-2.3
		c0.4,0,0.8,0.2,1.1,0.6c0.2,0.2,0.4,0.2,0.7,0.1c0.5-0.2,0.9-0.8,0.9-1.3c0-0.6-0.6-1.3-1.6-1.3
		C207.2,157.3,206.1,158.8,205.2,160.1L205.2,160.1z M198.9,162.5h-6.1l-0.4,1.5h6.1L198.9,162.5z M186.4,167
		c-0.6,0.5-1.6,0.9-2.6,0.9c-1.7,0-3.7-1.6-3.7-4.7c0-3.9,2.3-4.9,3.5-4.9c1,0,2.1,0.4,2.8,1.4V167z M190.5,167.9l-0.9-0.1
		c-1-0.1-1.2-0.2-1.2-1.6v-16c-1,0.3-2.8,0.8-4.2,0.9v0.6c1.9,0.1,2.1,0.2,2.1,2v3.8c-0.6-0.2-1.4-0.3-1.8-0.3
		c-3.6,0-6.9,2.9-6.9,6.6c0,3.8,2.8,5.7,5,5.7c0.3,0,1-0.2,2.1-0.8l1.6-1v1.7c1.6-0.6,3.6-0.9,4.2-1V167.9z M171.2,158.3
		c1.5,0,2.4,1.3,2.4,2.7c0,0.4-0.2,0.5-0.6,0.5c-1.6,0.1-3,0.1-4.5,0.1C168.8,159.4,170,158.3,171.2,158.3 M175.3,166.5
		c-1,0.9-2,1.3-3.1,1.3c-1.9,0-4-1.5-4-5.1c3.2-0.1,6.5-0.4,7-0.5c0.5-0.1,0.6-0.3,0.6-0.9c0-2.1-1.8-4.1-4-4.1
		c-1.4,0-2.8,0.7-3.9,2c-1.1,1.2-1.8,2.8-1.8,4.7c0,3,1.9,5.7,5.2,5.7c0.8,0,2.7-0.5,4.4-2.6L175.3,166.5z M159.3,169.6
		c1.1,0,1.9,0.1,2.6,0.3c0.8,0.3,1.2,1,1.2,1.9c0,1.7-1.3,3-3.9,3c-2,0-3.5-1.1-3.5-2.5c0-0.8,0.5-1.5,1.2-2.1
		C157.4,169.8,158,169.6,159.3,169.6 M158.7,158.1c1.5,0,2.5,1.5,2.5,3.6c0,2.1-1,3.2-2.2,3.2c-1.5,0-2.5-1.5-2.5-3.6
		C156.5,159.2,157.5,158.1,158.7,158.1 M165.2,157.6c-1,0.2-2.3,0.3-3.6,0.4c-0.8-0.4-1.7-0.7-2.6-0.7c-2.1,0-4.8,1.4-4.8,4.5
		c0,1.8,1.2,3.1,2.4,3.6c-0.4,0.5-1.3,1.2-2.4,1.6c0,0.3,0.1,0.7,0.3,1.1c0.3,0.6,1,1.2,2,1.5c-0.6,0.5-1.7,1.3-2.2,1.9
		c-0.4,0.4-0.6,0.9-0.6,1.5c0,1.5,1.7,3.3,4.6,3.3c3.6,0,6.7-2.6,6.7-5.3c0-2.6-2.2-3.2-3.9-3.2c-0.9,0-1.8,0-2.8,0
		c-1.2,0-1.7-0.5-1.7-1c0-0.4,0.4-0.9,0.8-1.1c0.4,0.1,0.9,0.1,1.4,0.1c2.3,0,4.7-1.4,4.7-4.3c0-1-0.3-1.8-0.8-2.4l1.5,0.1
		c0.4-0.2,1-0.9,1.2-1.4L165.2,157.6z M146.6,169.6c1.1,0,1.9,0.1,2.6,0.3c0.8,0.3,1.2,1,1.2,1.9c0,1.7-1.3,3-3.9,3
		c-2,0-3.5-1.1-3.5-2.5c0-0.8,0.5-1.5,1.2-2.1C144.7,169.8,145.3,169.6,146.6,169.6 M146,158.1c1.5,0,2.5,1.5,2.5,3.6
		c0,2.1-1,3.2-2.2,3.2c-1.5,0-2.5-1.5-2.5-3.6C143.8,159.2,144.8,158.1,146,158.1 M152.5,157.6c-1,0.2-2.3,0.3-3.6,0.4
		c-0.8-0.4-1.7-0.7-2.6-0.7c-2.1,0-4.8,1.4-4.8,4.5c0,1.8,1.2,3.1,2.4,3.6c-0.4,0.5-1.3,1.2-2.4,1.6c0,0.3,0.1,0.7,0.3,1.1
		c0.3,0.6,1,1.2,2,1.5c-0.6,0.5-1.7,1.3-2.2,1.9c-0.4,0.4-0.6,0.9-0.6,1.5c0,1.5,1.7,3.3,4.6,3.3c3.6,0,6.7-2.6,6.7-5.3
		c0-2.6-2.2-3.2-3.9-3.2c-0.9,0-1.8,0-2.8,0c-1.2,0-1.7-0.5-1.7-1c0-0.4,0.4-0.9,0.8-1.1c0.4,0.1,0.9,0.1,1.4,0.1
		c2.3,0,4.7-1.4,4.7-4.3c0-1-0.3-1.8-0.8-2.4l1.5,0.1c0.4-0.2,1-0.9,1.2-1.4L152.5,157.6z M135.8,167.1c-0.5,0.5-1.4,0.9-2.1,1
		c-0.8,0-1.9-0.7-1.9-2.1c0-1,0.6-1.5,1.6-2c0.6-0.3,1.8-0.8,2.4-1.1V167.1z M140.1,168.3l-0.3-0.7c-0.3,0.2-0.6,0.3-1,0.3
		c-0.5,0-0.9-0.4-0.9-1.6v-5c0-1.4-0.3-2.5-1.2-3.3c-0.6-0.5-1.4-0.7-2.2-0.7c-1.5,0.3-3.3,1.3-4,1.9c-0.5,0.4-0.9,0.7-0.9,1.1
		c0,0.6,0.7,1.2,1.2,1.2c0.4,0,0.7-0.2,0.8-0.6c0.2-0.8,0.5-1.4,0.8-1.8c0.3-0.3,0.7-0.5,1.2-0.5c1.3,0,2.3,1.1,2.3,3v0.5
		c-0.6,0.5-2.5,1.2-4.2,1.7c-1.5,0.5-2.2,1.3-2.2,2.7c0,1.7,1.3,3.3,3.2,3.3c0.8,0,2.1-1,3.2-1.7c0.1,0.5,0.3,0.8,0.6,1.2
		c0.3,0.3,0.9,0.5,1.3,0.5L140.1,168.3z M123.4,160.1v-2.9c-1.3,0.6-2.5,0.9-3.8,1.1v0.6c1.5,0.2,1.7,0.3,1.7,2.1v5.5
		c0,1.8-0.2,1.9-1.8,2.1v0.7h6.2v-0.7c-2.1-0.2-2.2-0.3-2.2-2.1v-4.9c0.6-1.5,1.4-2.3,2.1-2.3c0.4,0,0.8,0.2,1.1,0.6
		c0.2,0.2,0.4,0.2,0.7,0.1c0.5-0.2,0.9-0.8,0.9-1.3c0-0.6-0.6-1.3-1.6-1.3C125.4,157.3,124.2,158.8,123.4,160.1L123.4,160.1z
		 M108.8,165.9c-0.6,0-1.3,0.4-1.3,1.1c0,0.5,0.2,0.6,0.3,0.7c0.9,0.2,1.7,0.8,1.7,1.8c0,1-0.8,1.7-2.1,2.3l0.3,0.8
		c1.6-0.5,3.5-1.6,3.5-3.7C111.3,166.9,109.8,165.9,108.8,165.9 M106.2,168.4l-0.2-0.7c-0.4,0.2-1,0.5-1.7,0.5
		c-0.7,0-1.6-0.4-1.6-2.6v-6.9h2.9c0.3-0.2,0.4-0.8,0.2-1.1h-3.1V154l-0.4-0.1l-1.7,1.8v1.8h-5.1v-0.7c0-2.7,0.3-3.9,0.6-4.5
		c0.3-0.5,0.8-0.8,1.4-0.8c0.7,0,1.6,0.5,2.1,0.9c0.2,0.2,0.4,0.2,0.6,0.1c0.3-0.2,0.5-0.5,0.6-0.7c0.1-0.3,0.1-0.7-0.2-1
		c-0.4-0.4-1-0.8-2-0.8c-1,0.1-1.9,0.6-2.9,1.4c-1.5,1.2-2,2.6-2.1,3.2c-0.2,0.6-0.3,1.2-0.3,2.1v0.7h-1.3l-0.7,0.8l0.1,0.3h1.9v7.9
		c0,1.7-0.2,1.9-1.9,2.1v0.7h6v-0.7c-1.8-0.2-2-0.4-2-2.1v-7.8h5.1v7.8c0,2.1,0.9,3.2,2.6,3.2c0.2,0,0.6-0.1,1.1-0.3L106.2,168.4z
		 M85.4,158.3c1.5,0,2.4,1.3,2.4,2.7c0,0.4-0.2,0.5-0.6,0.5c-1.6,0.1-3,0.1-4.5,0.1C83,159.4,84.2,158.3,85.4,158.3 M89.5,166.5
		c-1,0.9-2,1.3-3.1,1.3c-1.9,0-4-1.5-4-5.1c3.2-0.1,6.5-0.4,7-0.5c0.5-0.1,0.6-0.3,0.6-0.9c0-2.1-1.8-4.1-4-4.1
		c-1.4,0-2.8,0.7-3.9,2c-1.1,1.2-1.8,2.8-1.8,4.7c0,3,1.9,5.7,5.2,5.7c0.8,0,2.7-0.5,4.4-2.6L89.5,166.5z M78.9,169.3v-0.7
		c-1.7-0.2-1.9-0.3-1.9-2.1v-16.3c-0.9,0.3-2.6,0.8-4,0.9v0.6c1.7,0.1,1.8,0.2,1.8,2v12.7c0,1.8-0.2,1.9-1.9,2.1v0.7H78.9z"/>
	<path class="st1" d="M303.2,130.4h-6.1l-0.4,1.5h6.1L303.2,130.4z M294.6,137.1v-0.7c-1.6-0.1-1.8-0.3-1.8-2.1v-4.7
		c0-3.2-1.5-4.6-3.7-4.6c-1.4,0-2.9,1-3.8,2v-9c-1,0.3-2.7,0.8-3.9,0.9v0.6c1.8,0.2,1.8,0.3,1.8,2v12.8c0,1.8-0.2,1.9-1.8,2.1v0.7
		h5.7v-0.7c-1.6-0.2-1.7-0.3-1.7-2.1V128c0.8-0.9,1.8-1.4,2.8-1.4c1.8,0,2.6,1.1,2.6,3.3v4.5c0,1.7-0.2,1.9-1.8,2.1v0.7H294.6z
		 M279.7,128.4c-0.1-0.7-0.4-2.3-0.6-2.9c-0.6-0.2-1.3-0.5-2.4-0.5c-2.5,0-4.1,1.6-4.1,3.5c0,2.1,1.7,2.9,3.4,3.7
		c1.3,0.6,2.1,1.3,2.1,2.4c0,1.1-0.9,1.9-1.9,1.9c-1.6,0-2.8-1.6-3.3-3.3l-0.7,0.1c0,1,0.2,2.8,0.4,3.2c0.5,0.4,1.7,0.9,3.1,0.9
		c2.1,0,4.4-1.3,4.4-3.7c0-1.8-1.4-2.8-3.4-3.6c-1.2-0.5-2.3-1.1-2.3-2.3c0-1,0.7-1.8,1.7-1.8c1.3,0,2.3,1.1,2.8,2.7L279.7,128.4z
		 M270.8,135.8l-0.8-0.1c-1-0.1-1.2-0.2-1.2-1.6v-9c-1.4,0.3-2.8,0.4-4.2,0.5v0.6c1.9,0.3,2.1,0.4,2.1,1.9v6.2
		c-0.9,0.9-1.9,1.3-2.9,1.3c-1.2,0-2.4-0.6-2.4-3v-3.6c0-1.8,0-3.1,0.1-3.9c-1.3,0.2-2.6,0.4-3.8,0.5v0.6c1.5,0.3,1.6,0.4,1.6,1.9
		v5.3c0,2.9,1.5,4,3.3,4c0.7,0,1.3-0.2,2.1-0.7c0.8-0.5,1.4-0.9,2-1.4v1.9l0.2,0.2c1.3-0.4,2.7-0.8,3.9-1V135.8z M256.9,137.1v-0.7
		c-1.7-0.2-1.9-0.3-1.9-2v-16.2l-0.2-0.1c-0.4,0.2-0.8,0.5-1.2,0.6c-0.5-0.3-1.4-0.6-2.2-0.6c-1.1,0.1-2.1,0.6-3.1,1.4
		c-1.5,1.2-2,2.4-2.2,3.1c-0.2,0.6-0.3,1.3-0.3,2.4v0.5h-1.3l-0.7,0.8l0.1,0.3h1.9v8c0,1.7-0.2,1.8-1.9,2v0.7h5.8v-0.7
		c-1.6-0.2-1.8-0.3-1.8-2v-8h2.9c0.3-0.2,0.4-0.8,0.3-1h-3.1V124c0-2,0.4-3.2,0.8-3.8c0.4-0.6,1-1,1.8-1c1,0,1.9,0.5,2.4,1.2v14
		c0,1.7-0.2,1.8-1.7,2v0.7H256.9z M231.6,126.1c1.5,0,2.4,1.3,2.4,2.7c0,0.4-0.2,0.5-0.6,0.5c-1.6,0.1-3,0.1-4.5,0.1
		C229.2,127.2,230.3,126.1,231.6,126.1 M235.7,134.3c-1,0.9-2,1.3-3.1,1.3c-1.9,0-4-1.5-4-5.1c3.2-0.1,6.5-0.4,7-0.5
		c0.5-0.1,0.6-0.3,0.6-0.9c0-2.1-1.8-4.1-4-4.1c-1.4,0-2.8,0.7-3.9,2c-1.1,1.2-1.8,2.8-1.8,4.7c0,3,1.9,5.7,5.2,5.7
		c0.8,0,2.7-0.5,4.4-2.6L235.7,134.3z M224,128.4c-0.1-0.7-0.4-2.3-0.6-2.9c-0.6-0.2-1.3-0.5-2.4-0.5c-2.5,0-4.1,1.6-4.1,3.5
		c0,2.1,1.7,2.9,3.4,3.7c1.3,0.6,2.1,1.3,2.1,2.4c0,1.1-0.9,1.9-1.9,1.9c-1.6,0-2.8-1.6-3.3-3.3l-0.7,0.1c0,1,0.2,2.8,0.4,3.2
		c0.5,0.4,1.7,0.9,3.1,0.9c2.1,0,4.4-1.3,4.4-3.7c0-1.8-1.4-2.8-3.4-3.6c-1.2-0.5-2.3-1.1-2.3-2.3c0-1,0.7-1.8,1.7-1.8
		c1.3,0,2.3,1.1,2.8,2.7L224,128.4z M215.2,135.8l-0.8-0.1c-1-0.1-1.2-0.2-1.2-1.6v-9c-1.4,0.3-2.8,0.4-4.2,0.5v0.6
		c1.9,0.3,2.1,0.4,2.1,1.9v6.2c-0.9,0.9-1.9,1.3-2.9,1.3c-1.2,0-2.4-0.6-2.4-3v-3.6c0-1.8,0-3.1,0.1-3.9c-1.3,0.2-2.6,0.4-3.8,0.5
		v0.6c1.5,0.3,1.6,0.4,1.6,1.9v5.3c0,2.9,1.5,4,3.3,4c0.7,0,1.3-0.2,2.1-0.7c0.8-0.5,1.4-0.9,2-1.4v1.9l0.2,0.2
		c1.3-0.4,2.7-0.8,3.9-1V135.8z M195,136.2l-0.2-0.7c-0.4,0.2-1,0.5-1.7,0.5c-0.7,0-1.6-0.4-1.6-2.6v-6.9h2.9c0.3-0.2,0.4-0.8,0.2-1
		h-3v-3.7l-0.4-0.1l-1.7,1.8v2h-1.2l-0.7,0.8l0.1,0.3h1.8v7.8c0,2.1,0.9,3.2,2.6,3.2c0.2,0,0.7-0.1,1.1-0.3L195,136.2z M187,137.1
		v-0.7c-1.7-0.2-1.9-0.3-1.9-2.1v-16.3c-0.9,0.3-2.6,0.8-4,0.9v0.6c1.7,0.1,1.8,0.2,1.8,2v12.7c0,1.8-0.2,1.9-1.9,2.1v0.7H187z
		 M176.1,134.9c-0.5,0.5-1.4,0.9-2.1,1c-0.8,0-1.9-0.7-1.9-2.1c0-1,0.6-1.5,1.6-2c0.6-0.3,1.8-0.8,2.4-1.1V134.9z M180.3,136.1
		l-0.3-0.7c-0.3,0.2-0.6,0.3-1,0.3c-0.5,0-0.9-0.4-0.9-1.6v-5c0-1.4-0.3-2.5-1.2-3.3c-0.6-0.5-1.4-0.7-2.2-0.7
		c-1.5,0.3-3.3,1.3-4,1.9c-0.5,0.4-0.9,0.7-0.9,1.1c0,0.6,0.7,1.2,1.2,1.2c0.4,0,0.7-0.2,0.8-0.6c0.2-0.8,0.5-1.4,0.8-1.8
		c0.3-0.3,0.7-0.5,1.2-0.5c1.3,0,2.3,1.1,2.3,3v0.5c-0.6,0.5-2.5,1.2-4.2,1.7c-1.5,0.5-2.2,1.3-2.2,2.7c0,1.7,1.3,3.3,3.2,3.3
		c0.8,0,2.1-1,3.2-1.7c0.1,0.5,0.3,0.8,0.6,1.2c0.3,0.3,0.9,0.5,1.3,0.5L180.3,136.1z M168.2,137.1v-0.7c-1.6-0.1-1.8-0.3-1.8-2.1
		v-4.7c0-3.2-1.5-4.6-3.7-4.6c-1.4,0-2.9,1-3.8,2v-9c-1,0.3-2.7,0.8-3.9,0.9v0.6c1.8,0.2,1.8,0.3,1.8,2v12.8c0,1.8-0.2,1.9-1.8,2.1
		v0.7h5.7v-0.7c-1.6-0.2-1.7-0.3-1.7-2.1V128c0.8-0.9,1.8-1.4,2.8-1.4c1.8,0,2.6,1.1,2.6,3.3v4.5c0,1.7-0.2,1.9-1.8,2.1v0.7H168.2z
		 M153.3,128.4c-0.1-0.7-0.4-2.3-0.6-2.9c-0.6-0.2-1.3-0.5-2.4-0.5c-2.5,0-4.1,1.6-4.1,3.5c0,2.1,1.7,2.9,3.4,3.7
		c1.3,0.6,2.1,1.3,2.1,2.4c0,1.1-0.9,1.9-1.9,1.9c-1.6,0-2.8-1.6-3.3-3.3l-0.7,0.1c0,1,0.2,2.8,0.4,3.2c0.5,0.4,1.7,0.9,3.1,0.9
		c2.1,0,4.4-1.3,4.4-3.7c0-1.8-1.4-2.8-3.4-3.6c-1.2-0.5-2.3-1.1-2.3-2.3c0-1,0.7-1.8,1.7-1.8c1.3,0,2.3,1.1,2.8,2.7L153.3,128.4z
		 M138.3,135.8l-0.8-0.1c-1-0.1-1.2-0.2-1.2-1.6v-9c-1.4,0.3-2.8,0.4-4.2,0.5v0.6c1.9,0.3,2.1,0.4,2.1,1.9v6.2
		c-0.9,0.9-1.9,1.3-2.9,1.3c-1.2,0-2.4-0.6-2.4-3v-3.6c0-1.8,0-3.1,0.1-3.9c-1.3,0.2-2.6,0.4-3.8,0.5v0.6c1.5,0.3,1.6,0.4,1.6,1.9
		v5.3c0,2.9,1.5,4,3.3,4c0.7,0,1.3-0.2,2.1-0.7c0.8-0.5,1.4-0.9,2-1.4v1.9l0.2,0.2c1.3-0.4,2.7-0.8,3.9-1V135.8z M117.6,126
		c2.3,0,3.6,2.5,3.6,5.7c0,3.7-1.4,4.9-3,4.9c-2.2,0-3.7-2.5-3.7-5.9C114.5,127.7,115.9,126,117.6,126 M117.9,125.1
		c-2.4,0-5.9,2-5.9,6.4c0,3,2.2,5.9,5.9,5.9c2.7,0,5.8-2.1,5.8-6.4C123.7,127.8,121.2,125.1,117.9,125.1 M110.6,137.1v-0.7
		c-1.6-0.2-1.8-0.3-1.8-2.1v-4.7c0-3.2-1.5-4.6-3.8-4.6c-1.4,0-2.8,0.9-3.7,1.9v-9c-0.8,0.3-1.6,0.5-2.1,0.6v0.4
		c0,0.5-0.3,0.7-2.6,0.7H85.4c-0.8,0-1.1-0.1-1.4-0.7h-0.5c-0.1,1.5-0.2,3.3-0.3,4.8h0.8c0.3-1.2,0.5-1.8,0.9-2.3
		c0.4-0.6,0.9-0.9,3.3-0.9h1.7v13.1c0,2.3-0.2,2.5-2.6,2.7v0.7h7.5v-0.7c-2.4-0.2-2.7-0.4-2.7-2.7v-13.1h1.9c2.4,0,3.8,0,5.3,0.2
		v13.5c0,1.8-0.2,2-1.9,2.1v0.7h5.7v-0.7c-1.6-0.2-1.7-0.4-1.7-2.1V128c0.7-0.9,1.8-1.4,2.8-1.4c1.8,0,2.7,1.1,2.7,3.3v4.4
		c0,1.8-0.2,2-1.8,2.1v0.7H110.6z"/>
</g>
</svg>
