<?xml version="1.0" encoding="utf-8"?>
<!-- Generator: Adobe Illustrator 21.0.2, SVG Export Plug-In . SVG Version: 6.00 Build 0)  -->
<!DOCTYPE svg PUBLIC "-//W3C//DTD SVG 1.1//EN" "http://www.w3.org/Graphics/SVG/1.1/DTD/svg11.dtd">
<svg version="1.1" id="Layer_1" xmlns="http://www.w3.org/2000/svg" xmlns:xlink="http://www.w3.org/1999/xlink" x="0px" y="0px"
	 viewBox="0 0 340.1 333.7" style="enable-background:new 0 0 340.1 333.7;" xml:space="preserve">
<style type="text/css">
	.st0{fill:#FFFFFF;}
	.st1{clip-path:url(#SVGID_2_);fill:#231F20;}
</style>
<rect class="st0" width="340.1" height="333.7"/>
<g>
	<defs>
		<rect id="SVGID_1_" width="340.1" height="333.7"/>
	</defs>
	<clipPath id="SVGID_2_">
		<use xlink:href="#SVGID_1_"  style="overflow:visible;"/>
	</clipPath>
	<path class="st1" d="M45.4,36.8c0.6,0,1.1-0.4,1.1-1.1c0-0.6-0.5-1.1-1.1-1.1c-0.6,0-1.1,0.5-1.1,1.1
		C44.3,36.4,44.8,36.8,45.4,36.8 M38.4,30.2c1.7,0,2.5,1.6,2.5,3.1c0,1.3-0.5,2.8-2,2.8c-1.6,0-2.5-1.9-2.5-4.1c0-0.5,0-0.9,0.1-1.3
		C37,30.5,37.6,30.2,38.4,30.2 M36.6,30.1c0.6-2.6,2.4-3.8,3.5-4.4c0.7-0.3,1.5-0.6,2.1-0.7l-0.1-0.6c-0.8,0.1-1.7,0.3-2.5,0.6
		c-2,0.7-4.9,2.9-4.9,7c0,2.9,1.7,4.7,3.9,4.7c2.3,0,3.9-1.9,3.9-4.2c0-2-1.4-3.5-3.4-3.5c-0.4,0-0.8,0.1-1.2,0.3L36.6,30.1z"/>
	<path class="st1" d="M216.6,205.2c0.9,0,1.5-0.6,1.5-1.5c0-0.9-0.6-1.5-1.5-1.5c-0.9,0-1.5,0.7-1.5,1.5
		C215.1,204.6,215.7,205.2,216.6,205.2 M208.1,206.1c1.2,0,2.4-0.5,3.5-1.5c1.1-1,2-2.2,2.7-3.8l-0.3-0.3c-0.7,1.4-1.5,2.5-2.4,3.3
		c-0.9,0.8-1.8,1.2-2.7,1.2c-0.5,0-0.9-0.2-1.2-0.5c-0.2-0.3-0.3-0.9-0.3-1.7c0-1.6,0.5-3.6,1.5-5.8h0.4h0.1c1.2,0,2.7-0.1,4.6-0.3
		v-0.5c-1.1,0.1-2.4,0.2-3.8,0.2h-1c0.4-0.9,0.9-1.9,1.6-2.9c0.6-1.1,1.1-2,1.5-2.6c0.3-0.7,0.5-1.1,0.5-1.4c0-0.2-0.1-0.3-0.2-0.4
		c-0.1-0.1-0.2-0.2-0.4-0.2c-0.5,0-1.2,0.7-2.1,2.2c-0.9,1.5-1.7,3.2-2.5,5.2c-0.1,0-0.5,0-1.2-0.1v0.5c0.2,0.1,0.5,0.1,1,0.2
		c-1,2.7-1.6,4.9-1.6,6.4C205.8,205.2,206.6,206.1,208.1,206.1 M195.2,201.5l0.6-1.1c0.3-0.5,0.5-0.9,0.6-1.1
		c0.1-0.2,0.3-0.4,0.5-0.8c0.2-0.3,0.5-0.5,0.7-0.6c0.2-0.1,0.4-0.2,0.7-0.2c0.2,0,0.4,0.1,0.5,0.2c0.1,0.1,0.2,0.4,0.3,0.7
		c0.1,0.4,0.1,0.7,0.2,0.9c0,0.3,0.1,0.7,0.2,1.2c-2.7,2.9-4,4.7-4,5.3c0,0.3,0.1,0.4,0.3,0.4c0.1,0,0.2-0.1,0.3-0.2l3.6-4.3
		c0.1,1.1,0.4,2,0.7,2.7c0.3,0.6,0.8,1,1.5,1c0.9,0,1.8-0.5,2.7-1.5c0.9-1,1.6-2.1,2-3.3l-0.3-0.3c-0.4,0.9-1,1.8-1.8,2.7
		c-0.7,0.9-1.4,1.3-2,1.3c-0.2,0-0.3,0-0.5-0.1c-0.1-0.1-0.3-0.2-0.3-0.4c-0.1-0.2-0.2-0.3-0.2-0.5c-0.1-0.2-0.1-0.4-0.2-0.7
		c0-0.3-0.1-0.6-0.1-0.8c0-0.2-0.1-0.5-0.1-0.9c0-0.4-0.1-0.7-0.1-0.9c2.2-2.5,3.7-3.8,4.2-3.8c0-0.1-0.1-0.2-0.3-0.2
		c-0.2-0.1-0.3-0.1-0.4-0.1c-0.4,0-1.7,1-3.7,3.1c-0.2-1.7-0.9-2.5-2-2.5c-0.4,0-0.8,0.1-1.2,0.3c-0.3,0.2-0.6,0.4-0.9,0.8
		c-0.3,0.4-0.5,0.7-0.6,1c-0.2,0.3-0.4,0.7-0.6,1.2l-0.5,1.1L195.2,201.5z M189.4,197.9c1-1.2,1.9-1.7,2.7-1.7
		c0.4,0,0.6,0.2,0.6,0.6c0,1-0.6,2-1.7,2.8c-1.1,0.9-2.3,1.5-3.6,2C187.7,200.3,188.4,199.1,189.4,197.9 M186.2,205.2
		c0.6,0.6,1.4,0.9,2.4,0.9c1.3,0,2.6-0.5,3.9-1.4c1.3-1,2.3-2.2,3-3.8l-0.3-0.2c-0.7,1.3-1.6,2.4-2.7,3.3c-1.1,0.9-2.2,1.4-3.3,1.4
		c-1.4,0-2.1-0.7-2.1-2.2c0-0.3,0-0.7,0.1-1c1.6-0.2,3.2-0.7,4.5-1.7c1.4-1,2.1-2.1,2.1-3.4c0-1.1-0.6-1.6-1.7-1.6
		c-1.5,0-3.1,0.9-4.6,2.6c-1.5,1.7-2.3,3.4-2.3,5C185.4,203.9,185.6,204.6,186.2,205.2 M180.4,206.1c1.2,0,2.4-0.5,3.5-1.5
		c1.1-1,2-2.2,2.7-3.8l-0.3-0.3c-0.7,1.4-1.5,2.5-2.4,3.3c-0.9,0.8-1.8,1.2-2.7,1.2c-0.5,0-0.9-0.2-1.2-0.5
		c-0.2-0.3-0.3-0.9-0.3-1.7c0-1.6,0.5-3.6,1.5-5.8h0.4h0.1c1.2,0,2.7-0.1,4.6-0.3v-0.5c-1.1,0.1-2.4,0.2-3.8,0.2h-1
		c0.4-0.9,0.9-1.9,1.6-2.9c0.6-1.1,1.1-2,1.5-2.6c0.3-0.7,0.5-1.1,0.5-1.4c0-0.2-0.1-0.3-0.2-0.4c-0.1-0.1-0.2-0.2-0.4-0.2
		c-0.5,0-1.2,0.7-2.1,2.2c-0.9,1.5-1.7,3.2-2.5,5.2c-0.1,0-0.5,0-1.2-0.1v0.5c0.2,0.1,0.5,0.1,1,0.2c-1,2.7-1.6,4.9-1.6,6.4
		C178,205.2,178.8,206.1,180.4,206.1 M171.5,204.9v-0.6c-1.2-0.1-1.4-0.2-1.4-1.7v-4.1c0-2.1-1.1-3.2-2.8-3.2
		c-0.6,0-1.2,0.3-1.8,0.6c-0.5,0.4-1,0.7-1.4,1v-1.7c-0.9,0.4-2,0.7-3,0.9v0.5c1.2,0.2,1.3,0.3,1.3,1.6v4.4c0,1.4-0.1,1.5-1.6,1.7
		v0.6h4.7v-0.6c-1.3-0.1-1.4-0.2-1.4-1.7v-5c0.6-0.6,1.5-1.1,2.3-1.1c1.4,0,2,1,2,2.4v3.5c0,1.5-0.2,1.6-1.4,1.8v0.6H171.5z
		 M159.9,204.9v-0.6c-1.4-0.1-1.5-0.3-1.5-1.7v-7.3c-0.9,0.4-2,0.7-3,0.8v0.5c1.3,0.2,1.4,0.3,1.4,1.6v4.4c0,1.4-0.2,1.6-1.5,1.7
		v0.6H159.9z M157.4,193.5c0.6,0,1.1-0.5,1.1-1.1c0-0.6-0.5-1.1-1.1-1.1c-0.6,0-1.1,0.5-1.1,1.1C156.3,193,156.9,193.5,157.4,193.5
		 M154.1,204.9v-0.6c-1.3-0.1-1.4-0.2-1.4-1.6V199c0-2.6-1.2-3.6-3-3.6c-1.2,0-2.3,0.8-3.1,1.6v-7.1c-0.8,0.3-2.1,0.6-3.2,0.7v0.5
		c1.4,0.1,1.5,0.2,1.5,1.6v10.1c0,1.4-0.2,1.5-1.5,1.6v0.6h4.5v-0.6c-1.3-0.1-1.4-0.3-1.4-1.6v-5.1c0.6-0.7,1.4-1.1,2.2-1.1
		c1.4,0,2.1,0.9,2.1,2.6v3.5c0,1.4-0.2,1.5-1.4,1.6v0.6H154.1z M142.8,204.1l-0.2-0.6c-0.3,0.1-0.8,0.4-1.3,0.4
		c-0.5,0-1.2-0.3-1.2-2v-5.5h2.3c0.3-0.1,0.3-0.6,0.1-0.8H140v-2.9l-0.3,0l-1.4,1.4v1.6h-1l-0.6,0.6l0.1,0.2h1.5v6.2
		c0,1.7,0.8,2.5,2.1,2.5c0.2,0,0.5-0.1,0.9-0.3L142.8,204.1z M136.3,204.9v-0.6c-1.4-0.1-1.5-0.3-1.5-1.7v-7.3c-0.9,0.4-2,0.7-3,0.8
		v0.5c1.3,0.2,1.4,0.3,1.4,1.6v4.4c0,1.4-0.2,1.6-1.5,1.7v0.6H136.3z M133.8,193.5c0.6,0,1.1-0.5,1.1-1.1c0-0.6-0.5-1.1-1.1-1.1
		c-0.6,0-1.1,0.5-1.1,1.1C132.7,193,133.3,193.5,133.8,193.5 M131.1,195.6h-3.9v0.5c1.4,0.2,1.5,0.3,1.2,1.4c-0.4,1.6-1,3.4-1.5,4.9
		h0c-0.9-2.3-1.8-4.5-2.6-6.7h-0.6c-0.9,2.4-1.7,4.6-2.5,6.7h0c-0.5-1.6-1.1-3.3-1.6-5c-0.3-1-0.2-1.1,1.1-1.3v-0.5h-4.4v0.5
		c1,0.1,1.2,0.3,1.6,1.4c0.9,2.6,1.7,5.1,2.5,7.6h0.6c0.8-2.4,1.7-4.5,2.5-6.6c0.9,2.2,1.8,4.3,2.6,6.6h0.6c1-2.9,1.9-5.7,2.6-7.4
		c0.5-1.2,0.6-1.4,1.7-1.6V195.6z M110.3,198c-0.1-0.5-0.3-1.8-0.5-2.3c-0.5-0.2-1-0.4-1.9-0.4c-2,0-3.3,1.3-3.3,2.7
		c0,1.6,1.4,2.3,2.7,2.9c1.1,0.5,1.7,1,1.7,1.9c0,0.9-0.7,1.5-1.5,1.5c-1.3,0-2.3-1.2-2.6-2.6l-0.6,0.1c0,0.8,0.2,2.2,0.3,2.5
		c0.4,0.3,1.4,0.7,2.5,0.7c1.7,0,3.5-1,3.5-2.9c0-1.5-1.1-2.2-2.7-2.9c-1-0.4-1.8-0.9-1.8-1.8c0-0.8,0.6-1.5,1.4-1.5
		c1.1,0,1.8,0.9,2.2,2.1L110.3,198z M103.3,204.1l-0.2-0.6c-0.3,0.1-0.8,0.4-1.3,0.4c-0.5,0-1.2-0.3-1.2-2v-5.5h2.3
		c0.3-0.1,0.3-0.6,0.1-0.8h-2.4v-2.9l-0.3,0l-1.4,1.4v1.6h-1l-0.6,0.6l0.1,0.2h1.5v6.2c0,1.7,0.8,2.5,2.1,2.5c0.2,0,0.5-0.1,0.9-0.3
		L103.3,204.1z M96.8,204.9v-0.6c-1.2-0.1-1.4-0.2-1.4-1.7v-4.1c0-2.1-1.1-3.2-2.8-3.2c-0.6,0-1.2,0.3-1.8,0.6c-0.5,0.4-1,0.7-1.4,1
		v-1.7c-0.9,0.4-2,0.7-3,0.9v0.5c1.2,0.2,1.3,0.3,1.3,1.6v4.4c0,1.4-0.1,1.5-1.6,1.7v0.6h4.7v-0.6c-1.3-0.1-1.4-0.2-1.4-1.7v-5
		c0.6-0.6,1.5-1.1,2.3-1.1c1.4,0,2,1,2,2.4v3.5c0,1.5-0.2,1.6-1.4,1.8v0.6H96.8z M81.3,196.1c1.2,0,1.9,1,1.9,2.1
		c0,0.3-0.1,0.4-0.5,0.4c-1.2,0-2.4,0.1-3.6,0.1C79.4,197,80.3,196.1,81.3,196.1 M84.6,202.6c-0.8,0.7-1.6,1.1-2.4,1.1
		c-1.5,0-3.2-1.2-3.2-4.1c2.6-0.1,5.2-0.3,5.6-0.4c0.4-0.1,0.5-0.3,0.5-0.7c0-1.7-1.4-3.2-3.2-3.2c-1.1,0-2.3,0.6-3.2,1.6
		c-0.9,1-1.4,2.3-1.4,3.7c0,2.4,1.5,4.5,4.2,4.5c0.7,0,2.1-0.4,3.5-2.1L84.6,202.6z M76,204.9v-0.6c-1.2-0.1-1.4-0.2-1.4-1.6v-4.1
		c0-2.1-1.1-3.3-2.7-3.3c-0.6,0-1.2,0.3-1.6,0.6c-0.5,0.3-1.2,0.7-1.8,1.2c-0.4-1.1-1.4-1.7-2.4-1.7c-0.7,0-1.2,0.2-1.8,0.6
		c-0.6,0.4-1.1,0.8-1.6,1.1v-1.7c-0.9,0.4-2,0.7-3,0.9v0.5c1.2,0.2,1.3,0.3,1.3,1.7v4.4c0,1.4-0.2,1.5-1.6,1.6v0.6h4.5v-0.6
		c-1.1-0.1-1.2-0.3-1.2-1.6v-5c0.6-0.5,1.5-1.1,2.3-1.1c1.3,0,1.9,0.9,1.9,2.4v3.7c0,1.4-0.2,1.5-1.5,1.6v0.6h4.6v-0.6
		c-1.2-0.1-1.4-0.3-1.4-1.6v-4.1c0-0.4,0-0.6-0.1-0.9c0.8-0.7,1.6-1.1,2.4-1.1c1.4,0,1.9,1,1.9,2.5v3.5c0,1.5-0.2,1.6-1.5,1.7v0.6
		H76z M54.7,196.1c1.2,0,1.9,1,1.9,2.1c0,0.3-0.1,0.4-0.5,0.4c-1.2,0-2.4,0.1-3.6,0.1C52.8,197,53.7,196.1,54.7,196.1 M58,202.6
		c-0.8,0.7-1.6,1.1-2.4,1.1c-1.5,0-3.2-1.2-3.2-4.1c2.6-0.1,5.2-0.3,5.6-0.4c0.4-0.1,0.5-0.3,0.5-0.7c0-1.7-1.4-3.2-3.2-3.2
		c-1.1,0-2.3,0.6-3.2,1.6c-0.9,1-1.4,2.3-1.4,3.7c0,2.4,1.5,4.5,4.2,4.5c0.7,0,2.1-0.4,3.5-2.1L58,202.6z M49.5,204.9v-0.6
		c-1.4-0.1-1.5-0.3-1.5-1.7v-12.9c-0.7,0.3-2.1,0.6-3.2,0.7v0.5c1.4,0.1,1.5,0.2,1.5,1.6v10.1c0,1.4-0.2,1.5-1.5,1.7v0.6H49.5z
		 M40.2,196.1c1.2,0,1.9,1,1.9,2.1c0,0.3-0.1,0.4-0.5,0.4c-1.2,0-2.4,0.1-3.6,0.1C38.3,197,39.2,196.1,40.2,196.1 M43.5,202.6
		c-0.8,0.7-1.6,1.1-2.4,1.1c-1.5,0-3.2-1.2-3.2-4.1c2.6-0.1,5.2-0.3,5.6-0.4c0.4-0.1,0.5-0.3,0.5-0.7c0-1.7-1.4-3.2-3.2-3.2
		c-1.1,0-2.3,0.6-3.2,1.6c-0.9,1-1.4,2.3-1.4,3.7c0,2.4,1.5,4.5,4.2,4.5c0.7,0,2.1-0.4,3.5-2.1L43.5,202.6z"/>
	<path class="st1" d="M301.1,170.7v-0.6c-1.2-0.1-1.4-0.2-1.4-1.7v-4.1c0-2.1-1.1-3.2-2.8-3.2c-0.6,0-1.2,0.3-1.8,0.6
		c-0.5,0.4-1,0.7-1.4,1v-1.7c-0.9,0.4-2,0.7-3,0.9v0.5c1.2,0.2,1.3,0.3,1.3,1.6v4.4c0,1.4-0.1,1.5-1.6,1.7v0.6h4.7v-0.6
		c-1.3-0.1-1.4-0.2-1.4-1.7v-5c0.6-0.6,1.5-1.1,2.3-1.1c1.4,0,2,1,2,2.4v3.5c0,1.5-0.2,1.6-1.4,1.8v0.6H301.1z M284.5,161.9
		c1.9,0,2.9,2,2.9,4.5c0,2.9-1.1,3.9-2.4,3.9c-1.8,0-2.9-2-2.9-4.7C282,163.2,283.1,161.9,284.5,161.9 M284.7,161.2
		c-2,0-4.7,1.6-4.7,5.1c0,2.4,1.8,4.7,4.7,4.7c2.1,0,4.7-1.6,4.7-5.1C289.3,163.3,287.3,161.2,284.7,161.2 M271.4,163.4
		c0.6-0.4,1.5-0.9,2.1-0.9c1.6,0,2.9,1.3,2.9,3.5c0,2.4-1.2,3.9-3,3.9c-0.7,0-1.5-0.3-2-0.8V163.4z M271.4,162.7V161
		c-1,0.4-2.2,0.8-3.1,0.9v0.5c1.3,0.2,1.4,0.2,1.4,1.6v9.6c0,1.4-0.2,1.5-1.6,1.7v0.6h5.1v-0.6c-1.7-0.1-1.8-0.3-1.8-1.9v-2.8
		c0.3,0.1,0.9,0.4,1.5,0.4c2.8-0.5,5.3-2.6,5.3-5.8c0-2.1-1.4-4-3.8-4c-0.3,0-0.7,0.1-1.1,0.3L271.4,162.7z M267.7,169.7l-0.6,0
		c-0.8,0-1-0.2-1-1.3v-7.1c-1.1,0.2-2.3,0.3-3.4,0.4v0.5c1.5,0.2,1.7,0.3,1.7,1.5v5c-0.7,0.7-1.5,1-2.3,1c-1,0-1.9-0.5-1.9-2.4v-2.8
		c0-1.4,0-2.4,0.1-3.1c-1,0.2-2.1,0.3-3.1,0.4v0.5c1.2,0.2,1.3,0.3,1.3,1.5v4.2c0,2.3,1.2,3.2,2.7,3.2c0.6,0,1-0.2,1.7-0.5
		c0.6-0.4,1.1-0.7,1.6-1.1v1.5l0.1,0.1c1.1-0.3,2.2-0.6,3.2-0.8V169.7z M250.9,161.5h-3.9v0.5c1.2,0.2,1.4,0.4,1.1,1.2
		c-0.5,1.3-1.4,3.8-2,5.3l-2-5.3c-0.3-0.8-0.2-1,0.8-1.2v-0.5h-4.4v0.5c1.2,0.2,1.4,0.4,1.8,1.6c0.6,1.5,1.6,4.1,2.5,6.5
		c0.1,0.4,0.1,0.6,0,1c-0.1,0.3-0.3,0.7-0.7,1.5c-0.5,0.9-0.9,1.5-1.6,1.9c-0.4,0.2-0.6,0.4-0.6,0.8c0,0.5,0.6,1,1.2,1
		c0.3,0,0.6-0.1,0.7-0.5c0.3-1.1,0.8-2.4,2.2-5.8c1.5-3.5,2.1-5.3,2.7-6.4c0.6-1.2,0.8-1.4,1.9-1.6V161.5z M240.5,170.7v-0.6
		c-1.4-0.1-1.5-0.3-1.5-1.7v-12.9c-0.7,0.3-2.1,0.6-3.2,0.7v0.5c1.4,0.1,1.5,0.2,1.5,1.6v10.1c0,1.4-0.2,1.5-1.5,1.7v0.6H240.5z
		 M235.1,170l-0.2-0.6c-0.3,0.1-0.8,0.4-1.3,0.4c-0.5,0-1.2-0.3-1.2-2v-5.5h2.3c0.3-0.1,0.3-0.6,0.1-0.8h-2.4v-2.9l-0.3,0l-1.4,1.4
		v1.6h-1l-0.6,0.6l0.1,0.2h1.5v6.2c0,1.7,0.8,2.5,2.1,2.5c0.2,0,0.5-0.1,0.9-0.3L235.1,170z M224.5,162c1.2,0,1.9,1,1.9,2.1
		c0,0.3-0.1,0.4-0.5,0.4c-1.2,0-2.4,0.1-3.6,0.1C222.6,162.9,223.5,162,224.5,162 M227.8,168.5c-0.8,0.7-1.6,1.1-2.4,1.1
		c-1.5,0-3.2-1.2-3.2-4.1c2.6-0.1,5.2-0.3,5.6-0.4c0.4-0.1,0.5-0.3,0.5-0.7c0-1.7-1.4-3.2-3.2-3.2c-1.1,0-2.3,0.6-3.2,1.6
		c-0.9,1-1.4,2.3-1.4,3.7c0,2.4,1.5,4.5,4.2,4.5c0.7,0,2.1-0.4,3.5-2.1L227.8,168.5z M215.3,162c1.2,0,1.9,1,1.9,2.1
		c0,0.3-0.1,0.4-0.5,0.4c-1.2,0-2.4,0.1-3.6,0.1C213.3,162.9,214.3,162,215.3,162 M218.5,168.5c-0.8,0.7-1.6,1.1-2.4,1.1
		c-1.5,0-3.2-1.2-3.2-4.1c2.6-0.1,5.2-0.3,5.6-0.4c0.4-0.1,0.5-0.3,0.5-0.7c0-1.7-1.4-3.2-3.2-3.2c-1.1,0-2.3,0.6-3.2,1.6
		c-0.9,1-1.4,2.3-1.4,3.7c0,2.4,1.5,4.5,4.2,4.5c0.7,0,2.1-0.4,3.5-2.1L218.5,168.5z M206.6,163.4v-2.3c-1,0.4-2,0.7-3,0.9v0.5
		c1.2,0.2,1.3,0.3,1.3,1.7v4.4c0,1.4-0.2,1.5-1.5,1.7v0.6h4.9v-0.6c-1.7-0.1-1.8-0.3-1.8-1.7v-3.9c0.5-1.2,1.2-1.8,1.7-1.8
		c0.3,0,0.6,0.1,0.9,0.4c0.1,0.1,0.3,0.1,0.6,0c0.4-0.2,0.7-0.6,0.7-1c0-0.5-0.5-1.1-1.2-1.1C208.2,161.2,207.3,162.4,206.6,163.4
		L206.6,163.4z M202,168.4c-1,0.9-1.7,1.2-2.6,1.2c-1.2,0-3.2-1-3.2-3.9c0-2.2,1.2-3.4,2.7-3.4c0.8,0,1.5,0.3,2.1,0.9
		c0.2,0.2,0.3,0.2,0.4,0.2c0.2,0,0.7-0.5,0.7-0.9c0-0.2-0.1-0.4-0.3-0.7c-0.3-0.3-1.1-0.6-1.9-0.6c-0.8,0-2.1,0.3-3.2,1.2
		c-1.4,1.1-2.1,2.5-2.1,4.2c0,2.3,1.6,4.4,4.3,4.4c1.3,0,2.7-0.9,3.6-2.2L202,168.4z M192.5,163.8c-0.1-0.5-0.3-1.8-0.5-2.3
		c-0.5-0.2-1-0.4-1.9-0.4c-2,0-3.3,1.3-3.3,2.7c0,1.6,1.4,2.3,2.7,2.9c1.1,0.5,1.7,1,1.7,1.9c0,0.9-0.7,1.5-1.5,1.5
		c-1.3,0-2.3-1.2-2.6-2.6l-0.6,0.1c0,0.8,0.2,2.2,0.3,2.5c0.4,0.3,1.4,0.7,2.5,0.7c1.7,0,3.5-1,3.5-2.9c0-1.5-1.1-2.2-2.7-2.9
		c-1-0.4-1.8-0.9-1.8-1.8c0-0.8,0.6-1.5,1.4-1.5c1.1,0,1.8,0.9,2.2,2.1L192.5,163.8z M185.3,170.7v-0.6c-1.4-0.1-1.5-0.3-1.5-1.7
		v-7.3c-0.9,0.4-2,0.7-3,0.8v0.5c1.3,0.2,1.4,0.3,1.4,1.6v4.4c0,1.4-0.2,1.6-1.5,1.7v0.6H185.3z M182.8,159.3c0.6,0,1.1-0.5,1.1-1.1
		c0-0.6-0.5-1.1-1.1-1.1c-0.6,0-1.1,0.5-1.1,1.1C181.8,158.8,182.3,159.3,182.8,159.3 M176.4,168.9c-0.5,0.4-1.3,0.7-2.1,0.7
		c-1.4,0-2.9-1.2-2.9-3.8c0-3.1,1.8-3.9,2.8-3.9c0.8,0,1.7,0.3,2.2,1.1V168.9z M179.7,169.7l-0.7-0.1c-0.8-0.1-0.9-0.2-0.9-1.3
		v-12.7c-0.8,0.3-2.2,0.6-3.3,0.7v0.5c1.5,0.1,1.7,0.2,1.7,1.6v3c-0.5-0.2-1.1-0.2-1.4-0.2c-2.9,0-5.5,2.3-5.5,5.3
		c0,3,2.3,4.5,4,4.5c0.3,0,0.8-0.1,1.7-0.6l1.3-0.8v1.4c1.2-0.4,2.9-0.7,3.3-0.8V169.7z M159.8,152c-0.2-1.4-0.8-4.8-1.3-6.2
		c-1.2-0.5-2.8-1-5.2-1c-5.4,0-8.8,3.4-8.8,7.4c0,4.4,3.8,6.3,7.3,8c2.9,1.3,4.6,2.7,4.6,5.2c0,2.4-2,4-4.1,4
		c-3.5,0-6.1-3.3-7.2-7.2l-1.5,0.3c0,2.1,0.5,6,0.9,6.8c1,0.9,3.7,2,6.7,2c4.7,0,9.6-2.7,9.6-8c0-4-3-6.1-7.3-7.8
		c-2.6-1.1-4.9-2.4-4.9-5c0-2.2,1.6-4,3.8-4c2.9,0,4.9,2.3,6,5.7L159.8,152z M138.7,152c-0.2-1.4-0.8-4.8-1.3-6.2
		c-1.2-0.5-2.8-1-5.2-1c-5.4,0-8.8,3.4-8.8,7.4c0,4.4,3.8,6.3,7.3,8c2.9,1.3,4.6,2.7,4.6,5.2c0,2.4-2,4-4.1,4
		c-3.5,0-6.1-3.3-7.2-7.2l-1.5,0.3c0,2.1,0.5,6,0.9,6.8c1,0.9,3.7,2,6.7,2c4.7,0,9.6-2.7,9.6-8c0-4-3-6.1-7.3-7.8
		c-2.6-1.1-4.9-2.4-4.9-5c0-2.2,1.6-4,3.8-4c2.9,0,4.9,2.3,6,5.7L138.7,152z M108.5,147c3.2,0,5.2,2.8,5.1,5.8
		c0,0.8-0.3,1.2-1.4,1.2c-3.4,0.1-6.6,0.2-9.8,0.2C103.3,149.4,105.8,147,108.5,147 M117.4,164.6c-2.1,2-4.3,2.9-6.6,2.9
		c-4.1,0-8.6-3.2-8.7-11.1c6.9-0.2,14.2-0.8,15.2-1c1-0.2,1.3-0.7,1.3-1.8c0-4.5-3.9-8.8-8.7-8.8c-3,0-6.2,1.6-8.6,4.2
		c-2.4,2.6-3.8,6.1-3.8,10.1c0,6.5,4.2,12.3,11.4,12.3c1.8,0,5.8-1,9.5-5.6L117.4,164.6z M85,151v-6.3c-2.8,1.2-5.4,1.9-8.2,2.4v1.3
		c3.3,0.5,3.6,0.7,3.6,4.5v11.9c0,3.8-0.4,4.2-4,4.5v1.5h13.4v-1.5c-4.5-0.3-4.8-0.7-4.8-4.5v-10.6c1.3-3.2,3.1-5,4.7-5
		c0.9,0,1.6,0.3,2.4,1.2c0.3,0.3,0.9,0.4,1.6,0.1c1.1-0.5,1.9-1.7,1.9-2.8c0-1.4-1.4-2.9-3.4-2.9c-2.8,0-5.3,3.2-7,6.1H85z
		 M73.8,168.7l-0.5-1.5c-0.8,0.4-2.2,1-3.6,1s-3.4-0.9-3.4-5.5v-14.8h6.2c0.7-0.4,0.9-1.7,0.3-2.2h-6.6v-7.9l-0.8-0.1l-3.8,3.8v4.2
		H59l-1.6,1.7l0.2,0.6h4v16.8c0,4.6,2,6.9,5.7,6.9c0.5,0,1.5-0.2,2.4-0.7L73.8,168.7z M54,152c-0.2-1.4-0.8-4.8-1.3-6.2
		c-1.2-0.5-2.8-1-5.2-1c-5.4,0-8.8,3.4-8.8,7.4c0,4.4,3.8,6.3,7.3,8c2.9,1.3,4.6,2.7,4.6,5.2c0,2.4-2,4-4.1,4
		c-3.5,0-6.1-3.3-7.2-7.2l-1.5,0.3c0,2.1,0.5,6,0.9,6.8c1,0.9,3.7,2,6.7,2c4.7,0,9.6-2.7,9.6-8c0-4-3-6.1-7.3-7.8
		c-2.6-1.1-4.9-2.4-4.9-5c0-2.2,1.6-4,3.8-4c2.9,0,4.9,2.3,6,5.7L54,152z"/>
	<path class="st1" d="M176.9,122.7H173v0.5c1.2,0.2,1.4,0.4,1.1,1.2c-0.5,1.3-1.4,3.8-2,5.3l-2-5.3c-0.3-0.8-0.2-1,0.8-1.2v-0.5
		h-4.4v0.5c1.2,0.2,1.4,0.4,1.8,1.6c0.6,1.5,1.6,4.1,2.5,6.5c0.1,0.4,0.1,0.6,0,1c-0.1,0.3-0.3,0.7-0.7,1.5
		c-0.5,0.9-0.9,1.5-1.6,1.9c-0.4,0.2-0.6,0.4-0.6,0.8c0,0.5,0.6,1,1.2,1c0.3,0,0.6-0.1,0.7-0.5c0.3-1.1,0.8-2.4,2.2-5.8
		c1.5-3.5,2.1-5.3,2.7-6.4c0.6-1.2,0.8-1.4,1.9-1.6V122.7z M163.5,130.2c-0.4,0.4-1.2,0.7-1.7,0.8c-0.7,0-1.5-0.5-1.5-1.6
		c0-0.8,0.5-1.2,1.3-1.6c0.5-0.2,1.5-0.7,1.9-0.9V130.2z M166.9,131.2l-0.2-0.6c-0.2,0.1-0.5,0.2-0.8,0.2c-0.4,0-0.8-0.3-0.8-1.3v-4
		c0-1.1-0.2-2-1-2.6c-0.5-0.4-1.1-0.6-1.8-0.6c-1.2,0.2-2.6,1.1-3.2,1.5c-0.4,0.3-0.7,0.5-0.7,0.9c0,0.5,0.6,0.9,0.9,0.9
		c0.3,0,0.5-0.1,0.6-0.5c0.2-0.7,0.4-1.1,0.6-1.4c0.2-0.3,0.5-0.4,1-0.4c1.1,0,1.8,0.9,1.8,2.4v0.4c-0.5,0.4-2,1-3.3,1.4
		c-1.2,0.4-1.7,1.1-1.7,2.1c0,1.3,1.1,2.6,2.6,2.6c0.6,0,1.7-0.8,2.5-1.4c0.1,0.4,0.2,0.7,0.5,1c0.2,0.2,0.7,0.4,1,0.4L166.9,131.2z
		 M157.3,132v-0.6c-1.4-0.1-1.5-0.3-1.5-1.7v-12.9c-0.7,0.3-2.1,0.6-3.2,0.7v0.5c1.4,0.1,1.5,0.2,1.5,1.6v10.1
		c0,1.4-0.2,1.5-1.5,1.7v0.6H157.3z M147.1,131.3l-0.2-0.6c-0.3,0.1-0.8,0.4-1.3,0.4s-1.2-0.3-1.2-2v-5.5h2.3
		c0.3-0.1,0.3-0.6,0.1-0.8h-2.4v-2.9l-0.3,0l-1.4,1.4v1.6h-1l-0.6,0.6l0.1,0.2h1.5v6.2c0,1.7,0.8,2.5,2.1,2.5c0.2,0,0.5-0.1,0.9-0.3
		L147.1,131.3z M140.7,132v-0.6c-1.4-0.1-1.5-0.3-1.5-1.7v-12.9c-0.7,0.3-2.1,0.6-3.2,0.7v0.5c1.4,0.1,1.5,0.2,1.5,1.6v10.1
		c0,1.4-0.2,1.5-1.5,1.7v0.6H140.7z M131.9,130.2c-0.4,0.4-1.2,0.7-1.7,0.8c-0.7,0-1.5-0.5-1.5-1.6c0-0.8,0.5-1.2,1.3-1.6
		c0.5-0.2,1.5-0.7,1.9-0.9V130.2z M135.3,131.2l-0.2-0.6c-0.2,0.1-0.5,0.2-0.8,0.2c-0.4,0-0.8-0.3-0.8-1.3v-4c0-1.1-0.2-2-1-2.6
		c-0.5-0.4-1.1-0.6-1.8-0.6c-1.2,0.2-2.6,1.1-3.2,1.5c-0.4,0.3-0.7,0.5-0.7,0.9c0,0.5,0.6,0.9,0.9,0.9c0.3,0,0.5-0.1,0.6-0.5
		c0.2-0.7,0.4-1.1,0.6-1.4c0.2-0.3,0.5-0.4,1-0.4c1.1,0,1.8,0.9,1.8,2.4v0.4c-0.5,0.4-2,1-3.3,1.4c-1.2,0.4-1.7,1.1-1.7,2.1
		c0,1.3,1.1,2.6,2.6,2.6c0.6,0,1.7-0.8,2.5-1.4c0.1,0.4,0.2,0.7,0.5,1c0.2,0.2,0.7,0.4,1,0.4L135.3,131.2z M125.7,132v-0.6
		c-1.3-0.1-1.4-0.2-1.4-1.6v-3.7c0-2.6-1.2-3.6-3-3.6c-1.2,0-2.3,0.8-3.1,1.6v-7.1c-0.8,0.3-2.1,0.6-3.2,0.7v0.5
		c1.4,0.1,1.5,0.2,1.5,1.6v10.1c0,1.4-0.2,1.5-1.5,1.6v0.6h4.5v-0.6c-1.3-0.1-1.4-0.3-1.4-1.6v-5.1c0.6-0.7,1.4-1.1,2.2-1.1
		c1.4,0,2.1,0.9,2.1,2.6v3.5c0,1.4-0.2,1.5-1.4,1.6v0.6H125.7z M113.7,125.1c-0.1-0.5-0.3-1.8-0.5-2.3c-0.5-0.2-1-0.4-1.9-0.4
		c-2,0-3.3,1.3-3.3,2.7c0,1.6,1.4,2.3,2.7,2.9c1.1,0.5,1.7,1,1.7,1.9c0,0.9-0.7,1.5-1.5,1.5c-1.3,0-2.3-1.2-2.6-2.6l-0.6,0.1
		c0,0.8,0.2,2.2,0.3,2.5c0.4,0.3,1.4,0.7,2.5,0.7c1.7,0,3.5-1,3.5-2.9c0-1.5-1.1-2.2-2.7-2.9c-1-0.4-1.8-0.9-1.8-1.8
		c0-0.8,0.6-1.5,1.4-1.5c1.1,0,1.8,0.9,2.2,2.1L113.7,125.1z M101.6,132v-0.6c-1.3-0.1-1.4-0.2-1.4-1.6v-3.7c0-2.6-1.2-3.6-3-3.6
		c-1.2,0-2.3,0.8-3.1,1.6v-7.1c-0.8,0.3-2.1,0.6-3.2,0.7v0.5c1.4,0.1,1.5,0.2,1.5,1.6v10.1c0,1.4-0.2,1.5-1.5,1.6v0.6h4.5v-0.6
		c-1.3-0.1-1.4-0.3-1.4-1.6v-5.1c0.6-0.7,1.4-1.1,2.2-1.1c1.4,0,2.1,0.9,2.1,2.6v3.5c0,1.4-0.2,1.5-1.4,1.6v0.6H101.6z M85.6,132.3
		c0.9,0,1.5,0.1,2.1,0.3c0.6,0.3,1,0.8,1,1.5c0,1.3-1.1,2.4-3.1,2.4c-1.6,0-2.8-0.9-2.8-2c0-0.6,0.4-1.2,1-1.7
		C84.1,132.4,84.5,132.3,85.6,132.3 M85.1,123.1c1.2,0,2,1.2,2,2.9c0,1.7-0.8,2.5-1.8,2.5c-1.2,0-2-1.2-2-2.8
		C83.3,124,84.1,123.1,85.1,123.1 M90.3,122.7c-0.8,0.1-1.9,0.3-2.9,0.3c-0.6-0.3-1.3-0.5-2.1-0.5c-1.7,0-3.8,1.1-3.8,3.5
		c0,1.4,0.9,2.4,1.9,2.8c-0.3,0.4-1,1-1.9,1.3c0,0.2,0,0.6,0.2,0.9c0.3,0.4,0.8,0.9,1.6,1.2c-0.5,0.4-1.4,1.1-1.8,1.5
		c-0.3,0.3-0.5,0.7-0.5,1.2c0,1.2,1.3,2.6,3.7,2.6c2.9,0,5.4-2.1,5.4-4.2c0-2.1-1.8-2.5-3.1-2.5c-0.7,0-1.5,0-2.3,0
		c-1,0-1.4-0.4-1.4-0.8c0-0.3,0.3-0.7,0.6-0.9c0.3,0,0.7,0.1,1.1,0.1c1.8,0,3.8-1.1,3.8-3.4c0-0.8-0.2-1.4-0.6-1.9l1.2,0.1
		c0.3-0.2,0.8-0.7,1-1.1L90.3,122.7z M80.1,131l-0.6,0c-0.8,0-1-0.2-1-1.3v-7.1c-1.1,0.2-2.3,0.3-3.4,0.4v0.5
		c1.5,0.2,1.7,0.3,1.7,1.5v5c-0.7,0.7-1.5,1-2.3,1c-1,0-1.9-0.5-1.9-2.4v-2.8c0-1.4,0-2.4,0.1-3.1c-1,0.2-2.1,0.3-3.1,0.4v0.5
		c1.2,0.2,1.3,0.3,1.3,1.5v4.2c0,2.3,1.2,3.2,2.7,3.2c0.6,0,1-0.2,1.7-0.5c0.6-0.4,1.1-0.7,1.6-1.1v1.5l0.1,0.1
		c1.1-0.3,2.2-0.6,3.2-0.8V131z M63.5,123.2c1.9,0,2.9,2,2.9,4.5c0,2.9-1.1,3.9-2.4,3.9c-1.8,0-2.9-2-2.9-4.7
		C61.1,124.5,62.2,123.2,63.5,123.2 M63.8,122.5c-2,0-4.7,1.6-4.7,5.1c0,2.4,1.8,4.7,4.7,4.7c2.1,0,4.7-1.6,4.7-5.1
		C68.4,124.6,66.4,122.5,63.8,122.5 M58,132v-0.6c-1.3-0.1-1.4-0.2-1.4-1.7v-3.7c0-2.5-1.2-3.7-3-3.6c-1.1,0-2.2,0.7-3,1.5v-7.1
		c-0.6,0.2-1.3,0.4-1.7,0.5v0.3c0,0.4-0.3,0.6-2.1,0.6h-8.9c-0.6,0-0.9-0.1-1.2-0.5h-0.4c0,1.2-0.2,2.6-0.3,3.8h0.6
		c0.2-1,0.4-1.4,0.7-1.8c0.3-0.5,0.7-0.7,2.6-0.7h1.4v10.4c0,1.8-0.2,2-2.1,2.1v0.6h6v-0.6c-2-0.1-2.1-0.3-2.1-2.1V119h1.5
		c1.9,0,3,0,4.2,0.1v10.7c0,1.4-0.2,1.6-1.5,1.7v0.6h4.6v-0.6c-1.3-0.1-1.4-0.3-1.4-1.7v-5c0.6-0.7,1.4-1.1,2.2-1.1
		c1.5,0,2.1,0.9,2.1,2.6v3.5c0,1.4-0.2,1.6-1.4,1.7v0.6H58z"/>
</g>
</svg>
