<?xml version="1.0" encoding="utf-8"?>
<!-- Generator: Adobe Illustrator 21.0.2, SVG Export Plug-In . SVG Version: 6.00 Build 0)  -->
<!DOCTYPE svg PUBLIC "-//W3C//DTD SVG 1.1//EN" "http://www.w3.org/Graphics/SVG/1.1/DTD/svg11.dtd">
<svg version="1.1" id="Layer_1" xmlns="http://www.w3.org/2000/svg" xmlns:xlink="http://www.w3.org/1999/xlink" x="0px" y="0px"
	 viewBox="0 0 340.1 333.7" style="enable-background:new 0 0 340.1 333.7;" xml:space="preserve">
<style type="text/css">
	.st0{fill:#FFFFFF;}
	.st1{clip-path:url(#SVGID_2_);fill:#231F20;}
</style>
<rect class="st0" width="340.1" height="333.7"/>
<g>
	<defs>
		<rect id="SVGID_1_" width="340.1" height="333.7"/>
	</defs>
	<clipPath id="SVGID_2_">
		<use xlink:href="#SVGID_1_"  style="overflow:visible;"/>
	</clipPath>
	<path class="st1" d="M45.4,36.8c0.6,0,1.1-0.4,1.1-1.1c0-0.6-0.5-1.1-1.1-1.1c-0.6,0-1.1,0.5-1.1,1.1
		C44.3,36.4,44.8,36.8,45.4,36.8 M39.4,32.3h-3.8c1.3-2.1,2.5-3.9,3.7-5.6h0V32.3z M42.7,33.2v-0.9h-1.8v-7.7h-0.8
		c-2,2.6-3.9,5.4-5.7,8.1v0.5h5v1.4c0,1.3-0.1,1.4-1.7,1.5v0.5h4.9v-0.5c-1.6-0.1-1.6-0.2-1.6-1.5v-1.4H42.7z"/>
	<path class="st1" d="M182.6,205c0.3,0,0.6-0.1,0.9-0.4c0.3-0.3,0.4-0.5,0.4-0.8c0-0.4-0.2-0.6-0.7-0.6c-0.3,0-0.7,0.1-1,0.3
		c-0.3,0.2-0.5,0.5-0.5,0.8C181.8,204.8,182,205,182.6,205 M176.3,197.8c1-1.2,1.9-1.7,2.7-1.7c0.4,0,0.6,0.2,0.6,0.6
		c0,1-0.6,2-1.7,2.8c-1.1,0.9-2.3,1.5-3.6,2C174.6,200.2,175.3,198.9,176.3,197.8 M173.1,205.1c0.6,0.6,1.4,0.9,2.4,0.9
		c1.3,0,2.6-0.5,3.9-1.4c1.3-1,2.3-2.2,3-3.8l-0.3-0.2c-0.7,1.3-1.6,2.4-2.7,3.3c-1.1,0.9-2.2,1.4-3.3,1.4c-1.4,0-2.1-0.7-2.1-2.2
		c0-0.3,0-0.7,0.1-1c1.6-0.2,3.2-0.7,4.5-1.7c1.4-1,2.1-2.1,2.1-3.4c0-1.1-0.6-1.6-1.7-1.6c-1.5,0-3.1,0.9-4.6,2.6
		c-1.5,1.7-2.3,3.4-2.3,5C172.2,203.8,172.5,204.5,173.1,205.1 M164.7,205.4c0.6,0.6,1.3,0.9,2.2,0.9c1.3,0,2.6-0.5,3.8-1.6
		c1.3-1,2.2-2.4,2.8-4l-0.3-0.3c-0.6,1.4-1.4,2.6-2.5,3.5c-1.1,0.9-2.1,1.3-3.2,1.3c-1.3,0-2-0.7-2-2.2c0-1.3,0.5-2.7,1.5-4.3
		c1-1.5,2-2.3,2.9-2.3c0.4,0,0.6,0.2,0.6,0.7c0,0.4-0.1,0.8-0.3,1.3c-0.2,0.4-0.4,0.7-0.7,0.8c0.2,0.3,0.5,0.4,0.8,0.4
		c0.4,0,0.7-0.2,1-0.6c0.2-0.4,0.4-0.8,0.4-1.4c0-0.5-0.1-1-0.4-1.4c-0.3-0.4-0.8-0.6-1.5-0.6c-1.4,0-2.7,0.7-4,2.2
		c-1.3,1.5-1.9,3.1-1.9,4.8C163.8,204,164.1,204.8,164.7,205.4 M152.1,205.4c0.4,0.4,0.8,0.5,1.4,0.5c0.6,0,1.3-0.2,1.9-0.7
		c0.6-0.5,1.4-1.3,2.2-2.3c-0.1,0.3-0.1,0.6-0.1,0.8c0,0.5,0.2,0.9,0.5,1.3c0.3,0.4,0.8,0.5,1.4,0.5c1,0,2-0.4,3-1.3
		c1-0.9,1.8-2,2.3-3.5l-0.3-0.3c-0.8,1.3-1.5,2.4-2.3,3.1c-0.8,0.7-1.4,1.1-2,1.1c-0.3,0-0.5-0.1-0.7-0.4c-0.2-0.2-0.2-0.5-0.2-0.8
		c0-0.5,0.3-1.2,0.8-2.1c0.5-0.9,0.8-1.5,0.8-1.6c0-0.3-0.4-0.5-1.1-0.7l-1,1.4c-0.2,0.3-0.6,0.8-1.1,1.4c-0.5,0.6-0.9,1.1-1.3,1.5
		c-0.4,0.4-0.7,0.7-1.2,1c-0.4,0.3-0.8,0.5-1.1,0.5c-0.5,0-0.7-0.3-0.7-1c0-0.9,0.3-1.9,0.8-3.1c0.6-1.2,1.3-2.2,2.2-3.1
		c0.9-0.9,1.7-1.3,2.5-1.3c0.9,0,1.3,0.5,1.3,1.5c0,0.3,0,0.6-0.1,0.9c0.9,0,1.3-0.4,1.3-1.1c0-0.6-0.2-1.1-0.7-1.5
		c-0.5-0.4-1.1-0.6-1.8-0.6c-1.1,0-2.2,0.5-3.4,1.4c-1.2,0.9-2.1,2-2.9,3.3c-0.7,1.3-1.1,2.4-1.1,3.5
		C151.6,204.5,151.8,205.1,152.1,205.4 M150.6,189.7c0.9-1.5,1.8-2.3,2.4-2.3c0.2,0,0.4,0.1,0.4,0.4c0,0.6-0.5,1.7-1.6,3.3
		c-1.1,1.6-2.4,3.1-4,4.6C148.7,193.3,149.7,191.3,150.6,189.7 M146.1,200.1c0.6,1.2,0.9,2.2,0.9,3.1c0,1.4-0.3,3-1,4.9
		c-0.7,1.9-1.2,2.8-1.7,2.8c-0.3,0-0.5-0.4-0.5-1.3C143.7,207.8,144.5,204.6,146.1,200.1 M142.5,211.7c0.3,0.3,0.6,0.5,1,0.5
		c1,0,1.9-1,2.8-3c0.9-2,1.3-4.1,1.3-6.3c0.6,0.6,1.3,0.9,2,0.9c0.6,0,1.2-0.3,1.9-0.8c0.7-0.5,1.2-1.3,1.6-2.3l-0.4-0.3
		c-0.6,0.9-1,1.6-1.5,2c-0.4,0.4-0.9,0.6-1.5,0.6c-0.3,0-0.6-0.1-0.9-0.2c-0.3-0.2-0.4-0.3-0.6-0.5c-0.1-0.2-0.3-0.5-0.4-0.9
		c-0.1-0.4-0.2-0.8-0.3-1.1c-0.1-0.3-0.1-0.8-0.2-1.4c-0.1-0.5-0.3-0.8-0.7-0.8c0.2-0.6,0.4-1,0.5-1.3c1.8-1.3,3.5-2.9,4.9-4.8
		c1.5-2,2.2-3.7,2.2-5.1c0-0.8-0.3-1.2-0.9-1.2c-1.1,0-2.3,1-3.7,3c-1.4,2-2.6,4.4-3.8,7.1c-1.1,2.7-2.1,5.4-2.9,8.1
		c-0.8,2.7-1.2,4.7-1.2,6.1C142.1,210.7,142.2,211.3,142.5,211.7 M138.6,197.8c1-1.2,1.9-1.7,2.7-1.7c0.4,0,0.6,0.2,0.6,0.6
		c0,1-0.6,2-1.7,2.8c-1.1,0.9-2.3,1.5-3.6,2C137,200.2,137.6,198.9,138.6,197.8 M135.5,205.1c0.6,0.6,1.4,0.9,2.4,0.9
		c1.3,0,2.6-0.5,3.9-1.4c1.3-1,2.3-2.2,3-3.8l-0.3-0.2c-0.7,1.3-1.6,2.4-2.7,3.3c-1.1,0.9-2.2,1.4-3.3,1.4c-1.4,0-2.1-0.7-2.1-2.2
		c0-0.3,0-0.7,0.1-1c1.6-0.2,3.2-0.7,4.5-1.7c1.4-1,2.1-2.1,2.1-3.4c0-1.1-0.6-1.6-1.7-1.6c-1.5,0-3.1,0.9-4.6,2.6
		c-1.5,1.7-2.3,3.4-2.3,5C134.6,203.8,134.9,204.5,135.5,205.1 M122.6,209.4c-0.2,0.6-0.4,1-0.5,1.3c-0.1,0.3-0.1,0.5-0.1,0.6
		c0,0.1,0.1,0.3,0.2,0.5c0.2,0.3,0.4,0.5,0.6,0.5c0.1,0,0.2,0,0.3-0.1c0.6-0.6,1.7-4.2,3.3-10.8c0.4-1,1.1-1.9,1.9-2.9
		c0.8-0.9,1.7-1.4,2.5-1.4c0.5,0,0.9,0.2,1.1,0.6c0.3,0.4,0.4,0.9,0.4,1.5c0,1.4-0.6,2.7-1.7,4c-1.1,1.2-2.4,1.9-3.8,1.9
		c-0.4,0-0.7,0-0.7,0.1c0,0.1,0.1,0.2,0.4,0.3c0.3,0.1,0.7,0.2,1.1,0.2c1.7,0,3.2-0.7,4.5-2.2c1.2-1.5,1.9-3,1.9-4.5
		c0-0.9-0.3-1.7-0.8-2.2c-0.5-0.6-1.2-0.9-1.9-0.9c-0.9,0-1.8,0.4-2.6,1.2c-0.8,0.8-1.5,1.7-2,2.8c0.4-1.9,0.6-3.1,0.6-3.6
		c0-0.3-0.1-0.6-0.3-0.8c-0.2-0.2-0.5-0.3-1-0.3c-0.2,0-0.3,0-0.4,0.1c-0.1,0.1-0.1,0.2-0.1,0.4c-0.4,3.2-0.8,5.7-1.1,7.5
		c-0.4,1.7-0.8,3.5-1.4,5.2C123,208.3,122.8,208.8,122.6,209.4 M114.7,209.4c0.2-0.4,0.5-0.7,1-1c0.4-0.3,0.8-0.6,1.2-0.8
		c0.4-0.2,0.9-0.5,1.6-0.9c-0.4,1.1-0.9,2-1.4,2.8c-0.5,0.8-0.9,1.3-1.2,1.6c-0.3,0.3-0.6,0.4-0.8,0.4c-0.2,0-0.4-0.1-0.5-0.3
		c-0.1-0.2-0.2-0.4-0.2-0.5C114.4,210.2,114.5,209.8,114.7,209.4 M115.2,212.2c1.6,0,3.3-2.2,5.1-6.5c2.7-1.2,4.4-2.9,5.1-5
		l-0.3-0.3c-0.9,2.2-2.4,3.7-4.4,4.5c0.6-1.5,1.1-3,1.5-4.5c0.4-1.5,0.6-2.5,0.6-2.9c-0.2-0.1-0.4-0.1-0.6-0.1
		c-0.7,0-1.2,0.5-1.4,1.4c-0.1,0.5-0.2,0.9-0.3,1.2c-0.6,1-1.2,1.8-1.9,2.4c-0.7,0.7-1.2,1-1.7,1c-0.6,0-1-0.4-1-1.1
		c0-0.7,0.2-1.6,0.6-2.7c0.4-1.1,0.8-2,1.2-2.5c0-0.1-0.2-0.3-0.5-0.4c-0.3-0.1-0.6-0.2-0.7-0.2c-0.4,0-0.9,0.7-1.5,2.2
		c-0.6,1.4-0.9,2.7-0.9,3.6c0,0.7,0.2,1.2,0.6,1.6c0.4,0.4,0.9,0.5,1.5,0.5c1.2,0,2.5-1.1,3.9-3.4c-0.5,1.9-1,3.5-1.5,4.9l-1.6,0.8
		c-0.3,0.2-0.8,0.4-1.3,0.8c-0.6,0.4-1,0.7-1.2,0.9c-0.2,0.3-0.5,0.6-0.7,1c-0.2,0.4-0.3,0.8-0.3,1.3c0,0.4,0.2,0.8,0.5,1
		C114.3,212.1,114.7,212.2,115.2,212.2 M108.7,206c1.2,0,2.4-0.5,3.5-1.5c1.1-1,2-2.2,2.7-3.8l-0.3-0.3c-0.7,1.4-1.5,2.5-2.4,3.3
		c-0.9,0.8-1.8,1.2-2.7,1.2c-0.5,0-0.9-0.2-1.2-0.5s-0.3-0.9-0.3-1.7c0-1.6,0.5-3.6,1.5-5.8h0.4h0.1c1.2,0,2.7-0.1,4.6-0.3v-0.5
		c-1.1,0.1-2.4,0.2-3.8,0.2h-1c0.4-0.9,0.9-1.9,1.6-2.9c0.6-1.1,1.1-2,1.5-2.6c0.3-0.7,0.5-1.1,0.5-1.4c0-0.2-0.1-0.3-0.2-0.4
		c-0.1-0.1-0.2-0.2-0.4-0.2c-0.5,0-1.2,0.7-2.1,2.2c-0.9,1.5-1.7,3.2-2.5,5.2c-0.1,0-0.5,0-1.2-0.1v0.5c0.2,0.1,0.5,0.1,1,0.2
		c-1,2.7-1.6,4.9-1.6,6.4C106.3,205.1,107.1,206,108.7,206 M87.7,205.4c0.4,0.4,0.8,0.5,1.4,0.5c0.6,0,1.3-0.2,1.9-0.7
		c0.6-0.5,1.4-1.3,2.2-2.3c-0.1,0.3-0.1,0.6-0.1,0.8c0,0.5,0.2,0.9,0.5,1.3c0.3,0.4,0.8,0.5,1.4,0.5c1,0,2-0.4,3-1.3
		c1-0.9,1.8-2,2.3-3.5l-0.3-0.3c-0.8,1.3-1.5,2.4-2.3,3.1c-0.8,0.7-1.4,1.1-2,1.1c-0.3,0-0.5-0.1-0.7-0.4c-0.2-0.2-0.2-0.5-0.2-0.8
		c0-0.5,0.3-1.2,0.8-2.1c0.5-0.9,0.8-1.5,0.8-1.6c0-0.3-0.4-0.5-1.1-0.7l-1,1.4c-0.2,0.3-0.6,0.8-1.1,1.4s-0.9,1.1-1.3,1.5
		c-0.4,0.4-0.7,0.7-1.2,1c-0.4,0.3-0.8,0.5-1.1,0.5c-0.5,0-0.7-0.3-0.7-1c0-0.9,0.3-1.9,0.8-3.1c0.6-1.2,1.3-2.2,2.2-3.1
		c0.9-0.9,1.7-1.3,2.5-1.3c0.9,0,1.3,0.5,1.3,1.5c0,0.3,0,0.6-0.1,0.9c0.9,0,1.3-0.4,1.3-1.1c0-0.6-0.2-1.1-0.7-1.5
		c-0.5-0.4-1.1-0.6-1.8-0.6c-1.1,0-2.2,0.5-3.4,1.4c-1.2,0.9-2.1,2-2.9,3.3c-0.7,1.3-1.1,2.4-1.1,3.5
		C87.1,204.5,87.3,205.1,87.7,205.4 M71,209.4c0.2-0.4,0.5-0.7,1-1c0.4-0.3,0.8-0.6,1.2-0.8c0.4-0.2,0.9-0.5,1.6-0.9
		c-0.4,1.1-0.9,2-1.4,2.8c-0.5,0.8-0.9,1.3-1.2,1.6c-0.3,0.3-0.6,0.4-0.8,0.4c-0.2,0-0.4-0.1-0.5-0.3c-0.1-0.2-0.2-0.4-0.2-0.5
		C70.7,210.2,70.8,209.8,71,209.4 M71.6,212.2c1.6,0,3.3-2.2,5.1-6.5c2.7-1.2,4.4-2.9,5.1-5l-0.3-0.3c-0.9,2.2-2.4,3.7-4.4,4.5
		c0.6-1.5,1.1-3,1.5-4.5c0.4-1.5,0.6-2.5,0.6-2.9c-0.2-0.1-0.4-0.1-0.6-0.1c-0.7,0-1.2,0.5-1.4,1.4c-0.1,0.5-0.2,0.9-0.3,1.2
		c-0.6,1-1.2,1.8-1.9,2.4c-0.7,0.7-1.2,1-1.7,1c-0.6,0-1-0.4-1-1.1c0-0.7,0.2-1.6,0.6-2.7c0.4-1.1,0.8-2,1.2-2.5
		c0-0.1-0.2-0.3-0.5-0.4c-0.3-0.1-0.6-0.2-0.7-0.2c-0.4,0-0.9,0.7-1.5,2.2c-0.6,1.4-0.9,2.7-0.9,3.6c0,0.7,0.2,1.2,0.6,1.6
		c0.4,0.4,0.9,0.5,1.5,0.5c1.2,0,2.5-1.1,3.9-3.4c-0.5,1.9-1,3.5-1.5,4.9l-1.6,0.8c-0.3,0.2-0.8,0.4-1.3,0.8c-0.6,0.4-1,0.7-1.2,0.9
		c-0.2,0.3-0.5,0.6-0.7,1c-0.2,0.4-0.3,0.8-0.3,1.3c0,0.4,0.2,0.8,0.5,1C70.7,212.1,71.1,212.2,71.6,212.2 M68.5,194
		c0.9-1.8,1.7-3.3,2.4-4.5c0.7-1.1,1.2-1.7,1.5-1.7c0.1,0,0.2,0.1,0.2,0.4c0,1-0.6,2.7-1.9,5.1c-1.3,2.4-2.7,4.3-4.1,5.8
		C67,197.5,67.6,195.8,68.5,194 M66.3,205.6L66.3,205.6c1.8,0,3.5-1.6,5-4.9l-0.4-0.2c-0.5,1.2-1.1,2.2-1.8,3
		c-0.7,0.8-1.4,1.3-2,1.3c-0.8,0-1.2-0.7-1.2-2c0-0.8,0.1-1.7,0.3-2.7c1.8-1.5,3.5-3.6,4.9-6.3c1.5-2.7,2.2-4.7,2.2-6.1
		c0-0.4-0.1-0.9-0.3-1.3c-0.2-0.4-0.4-0.7-0.6-0.7c-0.4,0-1.1,0.7-2.1,2c-0.9,1.3-1.9,2.9-2.8,4.7c-0.9,1.8-1.7,3.7-2.4,5.7
		c-0.7,2-1,3.6-1,4.8C64.2,204.7,64.9,205.6,66.3,205.6 M52.9,204.8c0.4,0.5,0.9,0.8,1.4,0.8c1.1,0,2.3-1.1,3.5-3.3
		c-0.1,0.5-0.2,1-0.2,1.3c0,1.3,0.6,2,1.9,2c1,0,2-0.5,3-1.4c1-0.9,1.8-2.1,2.4-3.5l-0.3-0.2c-0.6,1.3-1.4,2.3-2.3,3.1
		c-0.9,0.8-1.6,1.2-2.2,1.2c-0.6,0-0.9-0.3-0.9-1c0-0.5,0.1-1.2,0.4-2.1c0.3-0.9,0.6-1.6,0.9-2.3c0.3-0.7,0.4-1,0.4-1.1
		c0-0.3-0.4-0.5-1.3-0.7c-0.1,0.1-0.2,0.5-0.5,1l-0.6,1.3l-0.7,1.3c-0.3,0.5-0.5,0.9-0.8,1.3c-0.2,0.3-0.5,0.7-0.8,1
		c-0.3,0.3-0.5,0.6-0.8,0.8c-0.3,0.2-0.5,0.3-0.7,0.3c-0.6,0-1-0.6-1-1.8c0-0.8,0.2-1.7,0.6-2.8c0.4-1.1,0.8-1.9,1.2-2.5
		c-0.3-0.4-0.7-0.5-1-0.5c-0.4,0-0.9,0.8-1.5,2.3c-0.6,1.5-0.9,2.8-0.9,3.8C52.4,203.7,52.5,204.3,52.9,204.8 M43.3,201.8
		c0.8-1.3,1.6-3,2.4-5.1c0,0,0.2,0.1,0.3,0.2c0.2,0.1,0.3,0.2,0.4,0.3l0.3,0.3c0.1,0.1,0.2,0.2,0.3,0.3s0.1,0.2,0.1,0.4
		c0.1,0.2,0.1,0.3,0.1,0.5c0,0.5-0.2,1.3-0.7,2.4c-0.5,1.2-0.7,2-0.7,2.5c0,0.5,0.2,0.9,0.5,1.3c0.3,0.3,0.8,0.5,1.4,0.5
		c1.1,0,2.1-0.5,3.2-1.4c1.1-0.9,1.9-2,2.4-3.3l-0.3-0.3c-0.4,0.9-1,1.7-2,2.6c-0.9,0.9-1.8,1.3-2.6,1.3c-0.5,0-0.8-0.3-0.8-0.8
		c0-0.3,0.2-1,0.7-2.1c0.5-1,0.7-1.8,0.7-2.4c0-0.5-0.1-1-0.4-1.4c-0.3-0.4-0.6-0.7-0.9-0.9c-0.3-0.2-0.6-0.4-0.9-0.7
		c-0.3-0.2-0.4-0.5-0.4-0.7c0,0,0-0.2,0.1-0.5c0.1-0.3,0.1-0.4,0.1-0.5c0-0.4-0.1-0.6-0.4-0.6c-0.2,0-0.4,0.2-0.7,0.5
		s-0.4,0.8-0.4,1.3c0,0.2,0.1,0.5,0.3,0.6c-0.6,1.7-1.3,3.4-2.2,5L43.3,201.8z M37.7,206c1.2,0,2.4-0.5,3.5-1.5c1.1-1,2-2.2,2.7-3.8
		l-0.3-0.3c-0.7,1.4-1.5,2.5-2.4,3.3c-0.9,0.8-1.8,1.2-2.7,1.2c-0.5,0-0.9-0.2-1.2-0.5c-0.2-0.3-0.3-0.9-0.3-1.7
		c0-1.6,0.5-3.6,1.5-5.8h0.4H39c1.2,0,2.7-0.1,4.6-0.3v-0.5c-1.1,0.1-2.4,0.2-3.8,0.2h-1c0.4-0.9,0.9-1.9,1.6-2.9
		c0.6-1.1,1.1-2,1.5-2.6c0.3-0.7,0.5-1.1,0.5-1.4c0-0.2-0.1-0.3-0.2-0.4c-0.1-0.1-0.2-0.2-0.4-0.2c-0.5,0-1.2,0.7-2.1,2.2
		c-0.9,1.5-1.7,3.2-2.5,5.2c-0.1,0-0.5,0-1.2-0.1v0.5c0.2,0.1,0.5,0.1,1,0.2c-1,2.7-1.6,4.9-1.6,6.4C35.3,205.1,36.1,206,37.7,206"
		/>
	<path class="st1" d="M253.7,174.1c1.2,0,2.4-0.5,3.5-1.5c1.1-1,2-2.2,2.7-3.8l-0.3-0.3c-0.7,1.4-1.5,2.5-2.4,3.3
		c-0.9,0.8-1.8,1.2-2.7,1.2c-0.5,0-0.9-0.2-1.2-0.5c-0.2-0.3-0.3-0.9-0.3-1.7c0-1.6,0.5-3.6,1.5-5.8h0.4h0.1c1.2,0,2.7-0.1,4.6-0.3
		v-0.5c-1.1,0.1-2.4,0.2-3.8,0.2h-1c0.4-0.9,0.9-1.9,1.6-2.9c0.6-1.1,1.1-2,1.5-2.6c0.3-0.7,0.5-1.1,0.5-1.4c0-0.2-0.1-0.3-0.2-0.4
		c-0.1-0.1-0.2-0.2-0.4-0.2c-0.5,0-1.2,0.7-2.1,2.2c-0.9,1.5-1.7,3.2-2.5,5.2c-0.1,0-0.5,0-1.2-0.1v0.5c0.2,0.1,0.5,0.1,1,0.2
		c-1,2.7-1.6,4.9-1.6,6.4C251.3,173.2,252.1,174.1,253.7,174.1 M247.1,165.1c0.4-0.5,0.7-0.8,1.1-0.8c0.5,0,0.8,0.5,0.8,1.5
		c0,1.2-0.5,2.6-1.6,4.1c-0.6-0.7-0.9-1.7-0.9-2.9C246.5,166.2,246.7,165.6,247.1,165.1 M241.9,173.1c0.3,0.4,0.9,0.7,1.6,0.7
		c1.3,0,2.7-0.9,4.1-2.8c0.4,0.2,0.8,0.3,1.3,0.3c0.7,0,1.3-0.2,1.9-0.6c0.6-0.4,1.1-0.9,1.4-1.7l-0.3-0.3c-0.3,0.7-0.7,1.1-1.3,1.4
		c-0.6,0.3-1.1,0.5-1.6,0.5c-0.4,0-0.7-0.1-1-0.3c1.2-1.8,1.8-3.3,1.8-4.7c0-1.4-0.6-2.1-1.8-2.1c-0.8,0-1.4,0.3-1.9,1
		c-0.5,0.7-0.7,1.5-0.7,2.4c0,0.7,0.1,1.4,0.4,2c0.3,0.7,0.7,1.2,1.2,1.6c-1.1,1.5-2.1,2.2-2.9,2.2c-0.6,0-1-0.5-1-1.6
		c0-0.6,0.2-1.5,0.7-2.6c0.5-1.1,0.9-1.8,1.2-2.1c-0.2-0.1-0.4-0.1-0.6-0.1c-0.8,0-1.5,0.6-2.1,1.7c-0.7,1.1-1,2.3-1,3.4
		C241.4,172.1,241.6,172.6,241.9,173.1 M229.6,173.3l1-1.6c0.2-0.4,0.6-0.9,1.1-1.6c0.5-0.7,1-1.3,1.3-1.7c0.4-0.4,0.8-0.8,1.3-1.1
		c0.5-0.3,1-0.5,1.4-0.5c0.7,0,1.1,0.4,1.1,1.3c0,0.4-0.1,1.1-0.4,1.9c-0.3,0.8-0.4,1.4-0.4,1.8c0,0.5,0.2,0.9,0.5,1.2
		c0.3,0.3,0.8,0.5,1.4,0.5c1.8,0,3.3-1.5,4.6-4.5l-0.3-0.3c-1.4,2.8-2.6,4.1-3.8,4.1c-0.5,0-0.8-0.3-0.8-1c0-0.4,0.2-1.1,0.5-2
		c0.4-0.9,0.5-1.6,0.5-2.2c0-0.7-0.2-1.2-0.5-1.7c-0.3-0.5-0.8-0.7-1.5-0.7c-1.7,0-3.5,1.6-5.6,4.7c0.6-1.7,0.9-2.9,0.9-3.5
		c0-0.5-0.2-0.7-0.7-0.7s-0.9,0.2-1.2,0.6c0,0.7-0.2,1.5-0.5,2.6c-0.3,1-0.6,1.9-1,2.7c-0.3,0.8-0.5,1.2-0.5,1.2
		C228.4,173.1,228.9,173.3,229.6,173.3 M217,165.5c0.1,0.3,0.2,0.8,0.3,1.4c0.2,0.7,0.3,1.3,0.4,1.8c0.1,0.5,0.1,1.1,0.1,1.6
		c0,0.4,0,0.8-0.1,1.2c-1.5-0.3-2.6-1.2-3.3-2.6C215.3,168.2,216.1,167,217,165.5 M214.3,169.8c0.3,0.5,0.7,1,1.3,1.4
		c0.6,0.4,1.2,0.7,1.9,0.8c-0.3,0.9-0.9,1.3-1.7,1.3c-0.7,0-1.2-0.3-1.6-0.8c-0.4-0.5-0.6-1.1-0.6-1.8
		C213.7,170.1,213.9,169.8,214.3,169.8 M213.3,173.2c0.5,0.7,1.4,1,2.6,1c1.7,0,2.9-0.7,3.4-2.2c1.9-0.3,3.1-1.3,3.8-3.2l-0.2-0.3
		c-0.9,1.8-2.1,2.8-3.4,3c0.1-0.4,0.2-0.8,0.2-1.3c0-0.9-0.2-2-0.7-3.5c-0.5-1.4-0.7-2.4-0.7-2.9c0-0.2,0-0.5,0.1-0.7
		c0.1-0.2,0.1-0.4,0.1-0.4c0-0.2-0.1-0.3-0.4-0.3c-0.3,0-0.5,0.2-0.7,0.5c-0.2,0.3-0.3,0.8-0.3,1.4v0.3c-0.6,1.3-1.5,2.6-2.6,3.9
		c-0.1,0.1-0.2,0.1-0.4,0.2c-0.2,0.1-0.4,0.2-0.6,0.3c-0.2,0.1-0.4,0.3-0.5,0.7c-0.2,0.3-0.2,0.7-0.2,1.2
		C212.4,171.7,212.7,172.5,213.3,173.2 M211.7,161.4c0.4,0,0.8-0.2,1.2-0.5c0.4-0.3,0.5-0.6,0.5-1c0-0.5-0.3-0.8-0.9-0.8
		c-0.4,0-0.9,0.1-1.3,0.4c-0.4,0.3-0.6,0.6-0.6,1C210.6,161.1,210.9,161.4,211.7,161.4 M206.9,173c0.4,0.4,0.9,0.6,1.5,0.6
		c1.1,0,2.1-0.4,3.1-1.2c1-0.8,1.7-2,2.2-3.5l-0.2-0.3c-1.4,2.7-2.7,4.1-4.1,4.1c-0.5,0-0.8-0.1-1-0.3c-0.2-0.2-0.3-0.6-0.3-1.3
		c0-0.7,0.2-1.6,0.7-2.5c0.5-1,0.9-1.8,1.4-2.6c0.5-0.8,0.7-1.3,0.7-1.5c0-0.4-0.2-0.6-0.6-0.6c-0.6,0-1.2,0.5-1.8,1.5
		c-0.6,1-1.1,2-1.5,3.2c-0.4,1.2-0.6,2.1-0.6,2.8C206.4,172,206.6,172.5,206.9,173 M194.3,165.9c1-1.2,1.9-1.7,2.7-1.7
		c0.4,0,0.6,0.2,0.6,0.6c0,1-0.6,2-1.7,2.8c-1.1,0.9-2.3,1.5-3.6,2C192.6,168.3,193.3,167.1,194.3,165.9 M191.1,173.2
		c0.6,0.6,1.4,0.9,2.4,0.9c1.3,0,2.6-0.5,3.9-1.4c1.3-1,2.3-2.2,3-3.8l-0.3-0.2c-0.7,1.3-1.6,2.4-2.7,3.3c-1.1,0.9-2.2,1.4-3.3,1.4
		c-1.4,0-2.1-0.7-2.1-2.2c0-0.3,0-0.7,0.1-1c1.6-0.2,3.2-0.7,4.5-1.7c1.4-1,2.1-2.1,2.1-3.4c0-1.1-0.6-1.6-1.7-1.6
		c-1.5,0-3.1,0.9-4.6,2.6c-1.5,1.7-2.3,3.4-2.3,5C190.3,171.9,190.5,172.6,191.1,173.2 M188.7,162.1c0.9-1.8,1.7-3.3,2.4-4.5
		c0.7-1.1,1.2-1.7,1.5-1.7c0.1,0,0.2,0.1,0.2,0.4c0,1-0.6,2.7-1.9,5.1c-1.3,2.4-2.7,4.3-4.1,5.8
		C187.2,165.6,187.8,163.9,188.7,162.1 M186.5,173.7L186.5,173.7c1.8,0,3.5-1.6,5-4.9l-0.4-0.2c-0.5,1.2-1.1,2.2-1.8,3
		s-1.4,1.3-2,1.3c-0.8,0-1.2-0.7-1.2-2c0-0.8,0.1-1.7,0.3-2.7c1.8-1.5,3.5-3.6,4.9-6.3c1.5-2.7,2.2-4.7,2.2-6.1
		c0-0.4-0.1-0.9-0.3-1.3c-0.2-0.4-0.4-0.7-0.6-0.7c-0.4,0-1.1,0.7-2.1,2c-0.9,1.3-1.9,2.9-2.8,4.7c-0.9,1.8-1.7,3.7-2.4,5.7
		s-1,3.6-1,4.8C184.4,172.8,185.1,173.7,186.5,173.7 M179,166.9c0.2-0.4,0.4-0.6,0.7-0.6c0.3,0,0.5,0.2,0.6,0.5
		c0.2,0.4,0.3,0.8,0.3,1.4c0,0.9-0.2,1.8-0.6,2.7c-0.9-0.6-1.3-1.5-1.3-2.8C178.7,167.8,178.8,167.3,179,166.9 M178.5,160.7
		c0.7-1.4,1.4-2.5,2-3.4c0.6-0.9,1-1.3,1.2-1.3c0.1,0,0.1,0.1,0.1,0.2c0,0.8-0.5,2.1-1.6,4.1c-1.1,2-2.2,3.4-3.3,4.3
		C177.2,163.4,177.8,162.1,178.5,160.7 M174.2,173.9c0.5,0.6,1.2,0.9,2.1,0.9c1.7,0,3.1-1,4.3-2.9c0.3,0.1,0.6,0.1,0.9,0.1
		c1.7,0,3-1,3.8-3l-0.3-0.3c-0.2,0.4-0.4,0.7-0.5,1c-0.2,0.3-0.4,0.6-0.7,0.9c-0.3,0.3-0.6,0.6-1,0.8c-0.4,0.2-0.8,0.3-1.2,0.3
		c-0.3,0-0.5,0-0.7-0.1c0.6-1.2,0.9-2.4,0.9-3.6c0-0.8-0.2-1.4-0.5-1.8c-0.3-0.4-0.7-0.6-1.2-0.6c-0.6,0-1.2,0.3-1.6,0.8
		c-0.4,0.5-0.7,1.2-0.7,2c0,0.7,0.2,1.4,0.5,2c0.3,0.6,0.8,1.1,1.4,1.4c-0.3,0.7-0.8,1.2-1.3,1.6c-0.6,0.4-1.1,0.6-1.6,0.6
		c-1,0-1.5-0.8-1.5-2.5c0-1,0.2-2,0.5-3.2c0.3-1.2,0.6-2,0.8-2.4c1-0.6,2-1.6,3-2.9c1-1.3,1.7-2.6,2.3-4c0.6-1.3,0.8-2.4,0.8-3.3
		c0-0.4-0.1-0.8-0.2-1.2c-0.2-0.3-0.4-0.5-0.6-0.5c-0.7,0-1.7,1.1-3.1,3.2c-1.3,2.2-2.6,4.7-3.6,7.5c-1.1,2.9-1.6,5.1-1.6,6.8
		C173.5,172.5,173.7,173.4,174.2,173.9 M172.4,161.4c0.4,0,0.8-0.2,1.2-0.5c0.4-0.3,0.5-0.6,0.5-1c0-0.5-0.3-0.8-0.9-0.8
		c-0.4,0-0.9,0.1-1.3,0.4c-0.4,0.3-0.6,0.6-0.6,1C171.3,161.1,171.7,161.4,172.4,161.4 M167.7,173c0.4,0.4,0.9,0.6,1.5,0.6
		c1.1,0,2.1-0.4,3.1-1.2c1-0.8,1.7-2,2.2-3.5l-0.2-0.3c-1.4,2.7-2.7,4.1-4.1,4.1c-0.5,0-0.8-0.1-1-0.3c-0.2-0.2-0.3-0.6-0.3-1.3
		c0-0.7,0.2-1.6,0.7-2.5s0.9-1.8,1.4-2.6c0.5-0.8,0.7-1.3,0.7-1.5c0-0.4-0.2-0.6-0.6-0.6c-0.6,0-1.2,0.5-1.8,1.5
		c-0.6,1-1.1,2-1.5,3.2c-0.4,1.2-0.6,2.1-0.6,2.8C167.2,172,167.3,172.5,167.7,173 M158.2,176.7c0.7-0.6,1.7-1.2,3-1.8
		c-0.7,1.6-1.3,2.7-1.9,3.5c-0.6,0.8-1.1,1.2-1.5,1.2c-0.2,0-0.3-0.1-0.5-0.3c-0.1-0.2-0.2-0.4-0.2-0.7
		C157.2,177.9,157.5,177.3,158.2,176.7 M156.8,180c0.3,0.3,0.7,0.4,1.1,0.4c1.7,0,3.4-2.2,5.2-6.5c1-0.5,2-1.1,3-2
		c1-0.9,1.6-1.8,2-2.9l-0.3-0.3c-0.4,1-1,1.8-1.8,2.6c-0.8,0.8-1.7,1.4-2.6,1.8c0.6-1.5,1.1-2.9,1.5-4.4c0.4-1.4,0.6-2.4,0.6-2.9
		c-0.2-0.1-0.4-0.1-0.6-0.1c-0.7,0-1.2,0.5-1.4,1.4l-0.3,1.4c-0.7,1-1.4,1.9-2.2,2.6c-0.7,0.7-1.3,1-1.8,1c-0.6,0-0.9-0.4-0.9-1.3
		c0-1.2,0.6-2.6,1.7-4c1.1-1.4,2.4-2.1,3.7-2.1c0.5,0,0.9,0.1,1.1,0.4c0.2-0.1,0.3-0.3,0.3-0.5c0-0.6-0.5-0.9-1.4-0.9
		c-1,0-2,0.3-3.1,0.9c-1.1,0.6-2,1.5-2.8,2.6c-0.8,1.1-1.2,2.2-1.2,3.4c0,0.8,0.2,1.4,0.5,1.8c0.4,0.5,0.8,0.7,1.5,0.7
		c1.3,0,2.8-1.1,4.4-3.3c-0.4,1.6-0.9,3.1-1.4,4.3c-0.6,0.3-1,0.5-1.2,0.6l-1.1,0.6c-0.5,0.3-0.9,0.5-1.2,0.7
		c-0.2,0.2-0.5,0.5-0.8,0.8c-0.3,0.3-0.5,0.6-0.7,0.9c-0.1,0.3-0.2,0.7-0.2,1C156.3,179.3,156.5,179.7,156.8,180 M151.6,165.9
		c1-1.2,1.9-1.7,2.7-1.7c0.4,0,0.6,0.2,0.6,0.6c0,1-0.6,2-1.7,2.8c-1.1,0.9-2.3,1.5-3.6,2C149.9,168.3,150.6,167.1,151.6,165.9
		 M148.4,173.2c0.6,0.6,1.4,0.9,2.4,0.9c1.3,0,2.6-0.5,3.9-1.4c1.3-1,2.3-2.2,3-3.8l-0.3-0.2c-0.7,1.3-1.6,2.4-2.7,3.3
		c-1.1,0.9-2.2,1.4-3.3,1.4c-1.4,0-2.1-0.7-2.1-2.2c0-0.3,0-0.7,0.1-1c1.6-0.2,3.2-0.7,4.5-1.7c1.4-1,2.1-2.1,2.1-3.4
		c0-1.1-0.6-1.6-1.7-1.6c-1.5,0-3.1,0.9-4.6,2.6c-1.5,1.7-2.3,3.4-2.3,5C147.6,171.9,147.8,172.6,148.4,173.2 M146,162.1
		c0.9-1.8,1.7-3.3,2.4-4.5c0.7-1.1,1.2-1.7,1.5-1.7c0.1,0,0.2,0.1,0.2,0.4c0,1-0.6,2.7-1.9,5.1c-1.3,2.4-2.7,4.3-4.1,5.8
		C144.5,165.6,145.1,163.9,146,162.1 M143.8,173.7L143.8,173.7c1.8,0,3.5-1.6,5-4.9l-0.4-0.2c-0.5,1.2-1.1,2.2-1.8,3s-1.4,1.3-2,1.3
		c-0.8,0-1.2-0.7-1.2-2c0-0.8,0.1-1.7,0.3-2.7c1.8-1.5,3.5-3.6,4.9-6.3c1.5-2.7,2.2-4.7,2.2-6.1c0-0.4-0.1-0.9-0.3-1.3
		c-0.2-0.4-0.4-0.7-0.6-0.7c-0.4,0-1.1,0.7-2.1,2c-0.9,1.3-1.9,2.9-2.8,4.7c-0.9,1.8-1.7,3.7-2.4,5.7c-0.7,2-1,3.6-1,4.8
		C141.7,172.8,142.4,173.7,143.8,173.7 M129.3,174.1c1.2,0,2.4-0.5,3.5-1.5c1.1-1,2-2.2,2.7-3.8l-0.3-0.3c-0.7,1.4-1.5,2.5-2.4,3.3
		c-0.9,0.8-1.8,1.2-2.7,1.2c-0.5,0-0.9-0.2-1.2-0.5c-0.2-0.3-0.3-0.9-0.3-1.7c0-1.6,0.5-3.6,1.5-5.8h0.4h0.1c1.2,0,2.7-0.1,4.6-0.3
		v-0.5c-1.1,0.1-2.4,0.2-3.8,0.2h-1c0.4-0.9,0.9-1.9,1.6-2.9c0.6-1.1,1.1-2,1.5-2.6c0.3-0.7,0.5-1.1,0.5-1.4c0-0.2-0.1-0.3-0.2-0.4
		c-0.1-0.1-0.2-0.2-0.4-0.2c-0.5,0-1.2,0.7-2.1,2.2c-0.9,1.5-1.7,3.2-2.5,5.2c-0.1,0-0.5,0-1.2-0.1v0.5c0.2,0.1,0.5,0.1,1,0.2
		c-1,2.7-1.6,4.9-1.6,6.4C126.9,173.2,127.7,174.1,129.3,174.1 M122.7,165.1c0.4-0.5,0.7-0.8,1.1-0.8c0.5,0,0.8,0.5,0.8,1.5
		c0,1.2-0.5,2.6-1.6,4.1c-0.6-0.7-0.9-1.7-0.9-2.9C122.1,166.2,122.3,165.6,122.7,165.1 M117.5,173.1c0.3,0.4,0.9,0.7,1.6,0.7
		c1.3,0,2.7-0.9,4.1-2.8c0.4,0.2,0.8,0.3,1.3,0.3c0.7,0,1.3-0.2,1.9-0.6c0.6-0.4,1.1-0.9,1.4-1.7l-0.3-0.3c-0.3,0.7-0.7,1.1-1.3,1.4
		c-0.6,0.3-1.1,0.5-1.6,0.5c-0.4,0-0.7-0.1-1-0.3c1.2-1.8,1.8-3.3,1.8-4.7c0-1.4-0.6-2.1-1.8-2.1c-0.8,0-1.4,0.3-1.9,1
		c-0.5,0.7-0.7,1.5-0.7,2.4c0,0.7,0.1,1.4,0.4,2c0.3,0.7,0.7,1.2,1.2,1.6c-1.1,1.5-2.1,2.2-2.9,2.2c-0.6,0-1-0.5-1-1.6
		c0-0.6,0.2-1.5,0.7-2.6c0.5-1.1,0.9-1.8,1.2-2.1c-0.2-0.1-0.4-0.1-0.6-0.1c-0.8,0-1.5,0.6-2.1,1.7c-0.7,1.1-1,2.3-1,3.4
		C117,172.1,117.1,172.6,117.5,173.1 M105.1,173.3l1-1.6c0.2-0.4,0.6-0.9,1.1-1.6c0.5-0.7,1-1.3,1.3-1.7c0.4-0.4,0.8-0.8,1.3-1.1
		c0.5-0.3,1-0.5,1.4-0.5c0.7,0,1.1,0.4,1.1,1.3c0,0.4-0.1,1.1-0.4,1.9c-0.3,0.8-0.4,1.4-0.4,1.8c0,0.5,0.2,0.9,0.5,1.2
		c0.3,0.3,0.8,0.5,1.4,0.5c1.8,0,3.3-1.5,4.6-4.5l-0.3-0.3c-1.4,2.8-2.6,4.1-3.8,4.1c-0.5,0-0.8-0.3-0.8-1c0-0.4,0.2-1.1,0.5-2
		c0.4-0.9,0.5-1.6,0.5-2.2c0-0.7-0.2-1.2-0.5-1.7c-0.3-0.5-0.8-0.7-1.5-0.7c-1.7,0-3.5,1.6-5.6,4.7c0.6-1.7,0.9-2.9,0.9-3.5
		c0-0.5-0.2-0.7-0.7-0.7c-0.5,0-0.9,0.2-1.2,0.6c0,0.7-0.2,1.5-0.5,2.6c-0.3,1-0.6,1.9-1,2.7c-0.3,0.8-0.5,1.2-0.5,1.2
		C104,173.1,104.5,173.3,105.1,173.3 M92.6,165.5c0.1,0.3,0.2,0.8,0.3,1.4c0.2,0.7,0.3,1.3,0.4,1.8c0.1,0.5,0.1,1.1,0.1,1.6
		c0,0.4,0,0.8-0.1,1.2c-1.5-0.3-2.6-1.2-3.3-2.6C90.8,168.2,91.7,167,92.6,165.5 M89.9,169.8c0.3,0.5,0.7,1,1.3,1.4
		c0.6,0.4,1.2,0.7,1.9,0.8c-0.3,0.9-0.9,1.3-1.7,1.3c-0.7,0-1.2-0.3-1.6-0.8c-0.4-0.5-0.6-1.1-0.6-1.8
		C89.3,170.1,89.5,169.8,89.9,169.8 M88.8,173.2c0.6,0.7,1.4,1,2.6,1c1.7,0,2.9-0.7,3.4-2.2c1.9-0.3,3.1-1.3,3.8-3.2l-0.2-0.3
		c-0.9,1.8-2.1,2.8-3.4,3c0.1-0.4,0.2-0.8,0.2-1.3c0-0.9-0.2-2-0.7-3.5c-0.5-1.4-0.7-2.4-0.7-2.9c0-0.2,0-0.5,0.1-0.7
		c0.1-0.2,0.1-0.4,0.1-0.4c0-0.2-0.1-0.3-0.4-0.3s-0.5,0.2-0.7,0.5c-0.2,0.3-0.3,0.8-0.3,1.4v0.3c-0.6,1.3-1.5,2.6-2.6,3.9
		c-0.1,0.1-0.2,0.1-0.4,0.2c-0.2,0.1-0.4,0.2-0.6,0.3c-0.2,0.1-0.4,0.3-0.5,0.7c-0.2,0.3-0.2,0.7-0.2,1.2
		C88,171.7,88.3,172.5,88.8,173.2 M87.2,161.4c0.4,0,0.8-0.2,1.2-0.5c0.4-0.3,0.5-0.6,0.5-1c0-0.5-0.3-0.8-0.9-0.8
		c-0.4,0-0.9,0.1-1.3,0.4c-0.4,0.3-0.6,0.6-0.6,1C86.1,161.1,86.5,161.4,87.2,161.4 M82.5,173c0.4,0.4,0.9,0.6,1.5,0.6
		c1.1,0,2.1-0.4,3.1-1.2s1.7-2,2.2-3.5l-0.2-0.3c-1.4,2.7-2.7,4.1-4.1,4.1c-0.5,0-0.8-0.1-1-0.3c-0.2-0.2-0.3-0.6-0.3-1.3
		c0-0.7,0.2-1.6,0.7-2.5c0.5-1,0.9-1.8,1.4-2.6c0.5-0.8,0.7-1.3,0.7-1.5c0-0.4-0.2-0.6-0.6-0.6c-0.6,0-1.2,0.5-1.8,1.5
		c-0.6,1-1.1,2-1.5,3.2c-0.4,1.2-0.6,2.1-0.6,2.8C82,172,82.1,172.5,82.5,173 M69.8,174.1c1.2,0,2.4-0.5,3.5-1.5
		c1.1-1,2-2.2,2.7-3.8l-0.3-0.3c-0.7,1.4-1.5,2.5-2.4,3.3c-0.9,0.8-1.8,1.2-2.7,1.2c-0.5,0-0.9-0.2-1.2-0.5
		c-0.2-0.3-0.3-0.9-0.3-1.7c0-1.6,0.5-3.6,1.5-5.8h0.4h0.1c1.2,0,2.7-0.1,4.6-0.3v-0.5c-1.1,0.1-2.4,0.2-3.8,0.2h-1
		c0.4-0.9,0.9-1.9,1.6-2.9c0.6-1.1,1.1-2,1.5-2.6c0.3-0.7,0.5-1.1,0.5-1.4c0-0.2-0.1-0.3-0.2-0.4c-0.1-0.1-0.2-0.2-0.4-0.2
		c-0.5,0-1.2,0.7-2.1,2.2c-0.9,1.5-1.7,3.2-2.5,5.2c-0.1,0-0.5,0-1.2-0.1v0.5c0.2,0.1,0.5,0.1,1,0.2c-1,2.7-1.6,4.9-1.6,6.4
		C67.4,173.2,68.2,174.1,69.8,174.1 M55.7,173.5c0.4,0.4,0.8,0.5,1.4,0.5c0.6,0,1.3-0.2,1.9-0.7c0.6-0.5,1.4-1.3,2.2-2.3
		c-0.1,0.3-0.1,0.6-0.1,0.8c0,0.5,0.2,0.9,0.5,1.3c0.3,0.4,0.8,0.5,1.4,0.5c1,0,2-0.4,3-1.3c1-0.9,1.8-2,2.3-3.5l-0.3-0.3
		c-0.8,1.3-1.5,2.4-2.3,3.1c-0.8,0.7-1.4,1.1-2,1.1c-0.3,0-0.5-0.1-0.7-0.4c-0.2-0.2-0.2-0.5-0.2-0.8c0-0.5,0.3-1.2,0.8-2.1
		c0.5-0.9,0.8-1.5,0.8-1.6c0-0.3-0.4-0.5-1.1-0.7l-1,1.4c-0.2,0.3-0.6,0.8-1.1,1.4s-0.9,1.1-1.3,1.5c-0.4,0.4-0.7,0.7-1.2,1
		c-0.4,0.3-0.8,0.5-1.1,0.5c-0.5,0-0.7-0.3-0.7-1c0-0.9,0.3-1.9,0.8-3.1c0.6-1.2,1.3-2.2,2.2-3.1c0.9-0.9,1.7-1.3,2.5-1.3
		c0.9,0,1.3,0.5,1.3,1.5c0,0.3,0,0.6-0.1,0.9c0.9,0,1.3-0.4,1.3-1.1c0-0.6-0.2-1.1-0.7-1.5c-0.5-0.4-1.1-0.6-1.8-0.6
		c-1.1,0-2.2,0.5-3.4,1.4c-1.2,0.9-2.1,2-2.9,3.3c-0.7,1.3-1.1,2.4-1.1,3.5C55.1,172.6,55.3,173.2,55.7,173.5 M48.2,159.9
		c0.7-1.2,1.3-2.2,1.8-2.8c0.5-0.6,0.9-1,1.1-1c0.1,0,0.1,0.1,0.1,0.2c0,0.8-0.5,2-1.4,3.6c-1,1.6-2,2.9-3.2,3.8
		C47,162.4,47.6,161.1,48.2,159.9 M38.4,165.2c1.1,0.2,2,0.3,2.8,0.3c1.1,0,2.2-0.1,3.3-0.3c-0.4,1.1-0.7,2.2-0.9,3.5
		c-0.7,1.4-1.5,2.5-2.4,3.3c-0.9,0.8-1.8,1.2-2.7,1.2c-0.5,0-0.9-0.2-1.2-0.5c-0.2-0.3-0.3-0.9-0.3-1.6
		C36.9,169.4,37.4,167.5,38.4,165.2 M37.7,174.1c1.1,0,2.1-0.4,3.1-1.1c1-0.7,1.8-1.7,2.5-2.9c-0.1,0.4-0.1,0.8-0.1,1.1
		c0,0.7,0.1,1.4,0.3,1.9c0.2,0.5,0.5,0.8,0.8,0.8c0.3,0,0.7-0.4,1.1-1.1c0.4-0.8,0.7-1.6,1.1-2.5c0.3-0.9,0.8-1.8,1.3-2.5
		c0.5-0.8,1.1-1.1,1.7-1.1c0.7,0,1,0.4,1,1.3c0,0.4-0.1,1.1-0.4,2.1c-0.3,0.9-0.4,1.6-0.4,1.9c0,0.5,0.2,0.9,0.5,1.2
		c0.3,0.3,0.8,0.5,1.4,0.5c1,0,2-0.4,2.9-1.3c0.9-0.9,1.7-2,2.3-3.3l-0.3-0.3c-0.5,1.2-1.2,2.1-2,3c-0.8,0.8-1.5,1.3-2.1,1.3
		c-0.5,0-0.8-0.3-0.8-1c0-0.4,0.2-1.1,0.6-2.1c0.4-1,0.6-1.8,0.6-2.4c0-0.7-0.2-1.2-0.5-1.7c-0.3-0.5-0.8-0.7-1.5-0.7
		c-2,0-3.9,2.3-5.4,6.9c0-0.3-0.1-0.6-0.1-0.9c0-0.7,0.1-1.7,0.4-3.1c0.3-1.3,0.6-2.4,0.9-3.1c1.5-0.9,2.9-2.3,4.1-4.3
		c1.2-1.9,1.8-3.6,1.8-4.9c0-0.4-0.1-0.8-0.2-1.2c-0.2-0.3-0.4-0.5-0.7-0.5c-0.8,0-1.8,1.1-3.1,3.3s-2.4,4.6-3.4,7.2
		c-1.4,0.3-2.5,0.4-3.5,0.4c-0.8,0-1.6-0.1-2.6-0.3c0.4-0.9,0.9-1.9,1.6-2.9c0.6-1.1,1.1-2,1.5-2.6c0.3-0.7,0.5-1.1,0.5-1.4
		c0-0.2-0.1-0.3-0.2-0.4c-0.1-0.1-0.2-0.2-0.4-0.2c-0.5,0-1.2,0.7-2.1,2.1c-0.8,1.4-1.7,3.1-2.5,5.1c-0.2,0-0.4-0.1-0.7-0.1
		c-0.3-0.1-0.4-0.1-0.5-0.1v0.5c0,0,0.2,0.1,0.4,0.2c0.2,0.1,0.4,0.2,0.6,0.2c-1.1,3-1.7,5.2-1.7,6.7
		C35.3,173.2,36.1,174.1,37.7,174.1"/>
	<path class="st1" d="M273.5,134c1-1.2,1.9-1.7,2.7-1.7c0.4,0,0.6,0.2,0.6,0.6c0,1-0.6,2-1.7,2.8c-1.1,0.9-2.3,1.6-3.6,2
		C271.8,136.4,272.5,135.2,273.5,134 M270.3,141.3c0.6,0.6,1.4,0.9,2.4,0.9c1.3,0,2.6-0.5,3.9-1.4c1.3-1,2.3-2.2,3-3.8l-0.3-0.2
		c-0.7,1.3-1.6,2.4-2.7,3.3c-1.1,0.9-2.2,1.4-3.3,1.4c-1.4,0-2.1-0.7-2.1-2.2c0-0.3,0-0.7,0.1-1c1.6-0.2,3.2-0.7,4.5-1.7
		c1.4-1,2.1-2.1,2.1-3.4c0-1.1-0.6-1.6-1.7-1.6c-1.5,0-3.1,0.9-4.6,2.6c-1.5,1.7-2.3,3.4-2.3,5C269.5,140,269.7,140.7,270.3,141.3
		 M261.9,141.6c0.6,0.6,1.3,0.9,2.2,0.9c1.3,0,2.6-0.5,3.8-1.6c1.3-1,2.2-2.4,2.8-4l-0.3-0.3c-0.6,1.4-1.4,2.6-2.5,3.5
		c-1.1,0.9-2.1,1.3-3.2,1.3c-1.3,0-2-0.7-2-2.2c0-1.3,0.5-2.7,1.5-4.3c1-1.5,2-2.3,2.9-2.3c0.4,0,0.6,0.2,0.6,0.7
		c0,0.4-0.1,0.8-0.3,1.3c-0.2,0.4-0.4,0.7-0.7,0.8c0.2,0.3,0.5,0.4,0.8,0.4c0.4,0,0.7-0.2,1-0.6c0.2-0.4,0.4-0.8,0.4-1.4
		c0-0.5-0.1-1-0.4-1.4c-0.3-0.4-0.8-0.6-1.5-0.6c-1.4,0-2.7,0.7-4,2.2c-1.3,1.5-1.9,3.1-1.9,4.8C261,140.2,261.3,141,261.9,141.6
		 M249.3,141.7c0.4,0.4,0.8,0.5,1.4,0.5c0.6,0,1.3-0.2,1.9-0.7c0.6-0.5,1.4-1.3,2.2-2.3c-0.1,0.3-0.1,0.6-0.1,0.8
		c0,0.5,0.2,0.9,0.5,1.3c0.3,0.4,0.8,0.5,1.4,0.5c1,0,2-0.4,3-1.3c1-0.9,1.8-2.1,2.3-3.5l-0.3-0.3c-0.8,1.3-1.5,2.4-2.3,3.1
		c-0.8,0.7-1.4,1.1-2,1.1c-0.3,0-0.5-0.1-0.7-0.4c-0.2-0.2-0.2-0.5-0.2-0.8c0-0.5,0.3-1.2,0.8-2.1c0.5-0.9,0.8-1.5,0.8-1.6
		c0-0.3-0.4-0.5-1.1-0.7l-1,1.4c-0.2,0.3-0.6,0.8-1.1,1.4c-0.5,0.6-0.9,1.1-1.3,1.5s-0.7,0.7-1.2,1c-0.4,0.3-0.8,0.5-1.1,0.5
		c-0.5,0-0.7-0.3-0.7-1c0-0.9,0.3-1.9,0.8-3.1c0.6-1.2,1.3-2.2,2.2-3.1c0.9-0.9,1.7-1.3,2.5-1.3c0.9,0,1.3,0.5,1.3,1.5
		c0,0.3,0,0.6-0.1,0.9c0.9,0,1.3-0.4,1.3-1.1c0-0.6-0.2-1.1-0.7-1.5c-0.5-0.4-1.1-0.6-1.8-0.6c-1.1,0-2.2,0.5-3.4,1.4
		c-1.2,0.9-2.1,2-2.9,3.3c-0.7,1.3-1.1,2.4-1.1,3.5C248.8,140.8,249,141.3,249.3,141.7 M247.8,126c0.9-1.5,1.8-2.3,2.4-2.3
		c0.2,0,0.4,0.1,0.4,0.4c0,0.6-0.5,1.7-1.6,3.3c-1.1,1.6-2.4,3.1-4,4.6C245.9,129.5,246.9,127.5,247.8,126 M243.3,136.3
		c0.6,1.2,0.9,2.2,0.9,3.1c0,1.4-0.3,3-1,4.9c-0.7,1.9-1.2,2.8-1.7,2.8c-0.3,0-0.5-0.4-0.5-1.3C241,144,241.7,140.9,243.3,136.3
		 M239.8,147.9c0.3,0.3,0.6,0.5,1,0.5c1,0,1.9-1,2.8-3c0.9-2,1.3-4.1,1.3-6.3c0.6,0.6,1.3,0.9,2,0.9c0.6,0,1.2-0.3,1.9-0.8
		c0.7-0.5,1.2-1.3,1.6-2.3l-0.4-0.3c-0.6,0.9-1,1.6-1.5,2c-0.4,0.4-0.9,0.6-1.5,0.6c-0.3,0-0.6-0.1-0.9-0.2s-0.4-0.3-0.6-0.5
		c-0.1-0.2-0.3-0.5-0.4-0.9c-0.1-0.4-0.2-0.8-0.3-1.1c-0.1-0.3-0.1-0.8-0.2-1.4c-0.1-0.5-0.3-0.8-0.7-0.8c0.2-0.6,0.4-1,0.5-1.3
		c1.8-1.3,3.5-2.9,4.9-4.8c1.5-2,2.2-3.7,2.2-5.1c0-0.8-0.3-1.2-0.9-1.2c-1.1,0-2.3,1-3.7,3c-1.4,2-2.6,4.4-3.8,7.1
		c-1.1,2.7-2.1,5.4-2.9,8.1c-0.8,2.7-1.2,4.7-1.2,6.1C239.3,147,239.4,147.6,239.8,147.9 M235.8,134c1-1.2,1.9-1.7,2.7-1.7
		c0.4,0,0.6,0.2,0.6,0.6c0,1-0.6,2-1.7,2.8c-1.1,0.9-2.3,1.6-3.6,2C234.2,136.4,234.8,135.2,235.8,134 M232.7,141.3
		c0.6,0.6,1.4,0.9,2.4,0.9c1.3,0,2.6-0.5,3.9-1.4c1.3-1,2.3-2.2,3-3.8l-0.3-0.2c-0.7,1.3-1.6,2.4-2.7,3.3c-1.1,0.9-2.2,1.4-3.3,1.4
		c-1.4,0-2.1-0.7-2.1-2.2c0-0.3,0-0.7,0.1-1c1.6-0.2,3.2-0.7,4.5-1.7c1.4-1,2.1-2.1,2.1-3.4c0-1.1-0.6-1.6-1.7-1.6
		c-1.5,0-3.1,0.9-4.6,2.6c-1.5,1.7-2.3,3.4-2.3,5C231.8,140,232.1,140.7,232.7,141.3 M219.8,145.6c-0.2,0.6-0.4,1-0.5,1.3
		c-0.1,0.3-0.1,0.5-0.1,0.6c0,0.1,0.1,0.3,0.2,0.5c0.2,0.3,0.4,0.5,0.6,0.5c0.1,0,0.2,0,0.3-0.1c0.6-0.6,1.7-4.2,3.3-10.8
		c0.4-1,1.1-1.9,1.9-2.9c0.8-0.9,1.7-1.4,2.5-1.4c0.5,0,0.9,0.2,1.1,0.6c0.3,0.4,0.4,0.9,0.4,1.5c0,1.4-0.6,2.7-1.7,4
		c-1.1,1.2-2.4,1.9-3.8,1.9c-0.4,0-0.7,0-0.7,0.1c0,0.1,0.1,0.2,0.4,0.3c0.3,0.1,0.7,0.2,1.1,0.2c1.7,0,3.2-0.7,4.5-2.2
		c1.2-1.5,1.9-3,1.9-4.5c0-0.9-0.3-1.7-0.8-2.2c-0.5-0.6-1.2-0.9-1.9-0.9c-0.9,0-1.8,0.4-2.6,1.2c-0.8,0.8-1.5,1.7-2,2.8
		c0.4-1.9,0.6-3.1,0.6-3.6c0-0.3-0.1-0.6-0.3-0.8c-0.2-0.2-0.5-0.3-1-0.3c-0.2,0-0.3,0-0.4,0.1c-0.1,0.1-0.1,0.2-0.1,0.4
		c-0.4,3.2-0.8,5.7-1.1,7.5c-0.4,1.7-0.8,3.5-1.4,5.2C220.2,144.6,220,145,219.8,145.6 M211.9,145.7c0.2-0.4,0.5-0.7,1-1
		c0.4-0.3,0.8-0.6,1.2-0.8c0.4-0.2,0.9-0.5,1.6-0.9c-0.4,1.1-0.9,2-1.4,2.8c-0.5,0.8-0.9,1.3-1.2,1.6s-0.6,0.4-0.8,0.4
		c-0.2,0-0.4-0.1-0.5-0.3c-0.1-0.2-0.2-0.4-0.2-0.5C211.6,146.4,211.7,146,211.9,145.7 M212.4,148.5c1.6,0,3.3-2.2,5.1-6.5
		c2.7-1.2,4.4-2.9,5.1-5l-0.3-0.3c-0.9,2.2-2.4,3.7-4.4,4.5c0.6-1.5,1.1-3,1.5-4.5c0.4-1.5,0.6-2.5,0.6-2.9
		c-0.2-0.1-0.4-0.1-0.6-0.1c-0.7,0-1.2,0.5-1.4,1.4c-0.1,0.5-0.2,0.9-0.3,1.2c-0.6,1-1.2,1.8-1.9,2.4c-0.7,0.7-1.2,1-1.7,1
		c-0.6,0-1-0.4-1-1.1c0-0.7,0.2-1.6,0.6-2.7c0.4-1.1,0.8-2,1.2-2.5c0-0.1-0.2-0.3-0.5-0.4c-0.3-0.1-0.6-0.2-0.7-0.2
		c-0.4,0-0.9,0.7-1.5,2.2c-0.6,1.4-0.9,2.7-0.9,3.6c0,0.7,0.2,1.2,0.6,1.6c0.4,0.4,0.9,0.5,1.5,0.5c1.2,0,2.5-1.1,3.9-3.4
		c-0.5,1.9-1,3.5-1.5,4.9l-1.6,0.8c-0.3,0.2-0.8,0.4-1.3,0.8c-0.6,0.4-1,0.7-1.2,0.9s-0.5,0.6-0.7,1c-0.2,0.4-0.3,0.8-0.3,1.3
		c0,0.4,0.2,0.8,0.5,1C211.5,148.3,211.9,148.5,212.4,148.5 M205.9,142.2c1.2,0,2.4-0.5,3.5-1.5c1.1-1,2-2.2,2.7-3.8l-0.3-0.3
		c-0.7,1.4-1.5,2.5-2.4,3.3c-0.9,0.8-1.8,1.2-2.7,1.2c-0.5,0-0.9-0.2-1.2-0.5c-0.2-0.3-0.3-0.9-0.3-1.7c0-1.6,0.5-3.6,1.5-5.8h0.4
		h0.1c1.2,0,2.7-0.1,4.6-0.3v-0.5c-1.1,0.1-2.4,0.2-3.8,0.2h-1c0.4-0.9,0.9-1.9,1.6-2.9c0.6-1.1,1.1-2,1.5-2.6
		c0.3-0.7,0.5-1.1,0.5-1.4c0-0.2-0.1-0.3-0.2-0.4c-0.1-0.1-0.2-0.2-0.4-0.2c-0.5,0-1.2,0.7-2.1,2.2c-0.9,1.5-1.7,3.2-2.5,5.2
		c-0.1,0-0.5,0-1.2-0.1v0.5c0.2,0.1,0.5,0.1,1,0.2c-1,2.7-1.6,4.9-1.6,6.4C203.5,141.4,204.3,142.2,205.9,142.2 M184.9,141.7
		c0.4,0.4,0.8,0.5,1.4,0.5c0.6,0,1.3-0.2,1.9-0.7c0.6-0.5,1.4-1.3,2.2-2.3c-0.1,0.3-0.1,0.6-0.1,0.8c0,0.5,0.2,0.9,0.5,1.3
		c0.3,0.4,0.8,0.5,1.4,0.5c1,0,2-0.4,3-1.3c1-0.9,1.8-2.1,2.3-3.5l-0.3-0.3c-0.8,1.3-1.5,2.4-2.3,3.1c-0.8,0.7-1.4,1.1-2,1.1
		c-0.3,0-0.5-0.1-0.7-0.4c-0.2-0.2-0.2-0.5-0.2-0.8c0-0.5,0.3-1.2,0.8-2.1c0.5-0.9,0.8-1.5,0.8-1.6c0-0.3-0.4-0.5-1.1-0.7l-1,1.4
		c-0.2,0.3-0.6,0.8-1.1,1.4c-0.5,0.6-0.9,1.1-1.3,1.5c-0.4,0.4-0.7,0.7-1.2,1c-0.4,0.3-0.8,0.5-1.1,0.5c-0.5,0-0.7-0.3-0.7-1
		c0-0.9,0.3-1.9,0.8-3.1c0.6-1.2,1.3-2.2,2.2-3.1c0.9-0.9,1.7-1.3,2.5-1.3c0.9,0,1.3,0.5,1.3,1.5c0,0.3,0,0.6-0.1,0.9
		c0.9,0,1.3-0.4,1.3-1.1c0-0.6-0.2-1.1-0.7-1.5c-0.5-0.4-1.1-0.6-1.8-0.6c-1.1,0-2.2,0.5-3.4,1.4c-1.2,0.9-2.1,2-2.9,3.3
		c-0.7,1.3-1.1,2.4-1.1,3.5C184.3,140.8,184.5,141.3,184.9,141.7 M172.7,142.2c1.2,0,2.4-0.5,3.5-1.5c1.1-1,2-2.2,2.7-3.8l-0.3-0.3
		c-0.7,1.4-1.5,2.5-2.4,3.3c-0.9,0.8-1.8,1.2-2.7,1.2c-0.5,0-0.9-0.2-1.2-0.5c-0.2-0.3-0.3-0.9-0.3-1.7c0-1.6,0.5-3.6,1.5-5.8h0.4
		h0.1c1.2,0,2.7-0.1,4.6-0.3v-0.5c-1.1,0.1-2.4,0.2-3.8,0.2h-1c0.4-0.9,0.9-1.9,1.6-2.9c0.6-1.1,1.1-2,1.5-2.6
		c0.3-0.7,0.5-1.1,0.5-1.4c0-0.2-0.1-0.3-0.2-0.4c-0.1-0.1-0.2-0.2-0.4-0.2c-0.5,0-1.2,0.7-2.1,2.2c-0.9,1.5-1.7,3.2-2.5,5.2
		c-0.1,0-0.5,0-1.2-0.1v0.5c0.2,0.1,0.5,0.1,1,0.2c-1,2.7-1.6,4.9-1.6,6.4C170.3,141.4,171.1,142.2,172.7,142.2 M158.6,141.7
		c0.4,0.4,0.8,0.5,1.4,0.5c0.6,0,1.3-0.2,1.9-0.7c0.6-0.5,1.4-1.3,2.2-2.3c-0.1,0.3-0.1,0.6-0.1,0.8c0,0.5,0.2,0.9,0.5,1.3
		c0.3,0.4,0.8,0.5,1.4,0.5c1,0,2-0.4,3-1.3c1-0.9,1.8-2.1,2.3-3.5l-0.3-0.3c-0.8,1.3-1.5,2.4-2.3,3.1c-0.8,0.7-1.4,1.1-2,1.1
		c-0.3,0-0.5-0.1-0.7-0.4c-0.2-0.2-0.2-0.5-0.2-0.8c0-0.5,0.3-1.2,0.8-2.1c0.5-0.9,0.8-1.5,0.8-1.6c0-0.3-0.4-0.5-1.1-0.7l-1,1.4
		c-0.2,0.3-0.6,0.8-1.1,1.4c-0.5,0.6-0.9,1.1-1.3,1.5c-0.4,0.4-0.7,0.7-1.2,1c-0.4,0.3-0.8,0.5-1.1,0.5c-0.5,0-0.7-0.3-0.7-1
		c0-0.9,0.3-1.9,0.8-3.1c0.6-1.2,1.3-2.2,2.2-3.1c0.9-0.9,1.7-1.3,2.5-1.3c0.9,0,1.3,0.5,1.3,1.5c0,0.3,0,0.6-0.1,0.9
		c0.9,0,1.3-0.4,1.3-1.1c0-0.6-0.2-1.1-0.7-1.5c-0.5-0.4-1.1-0.6-1.8-0.6c-1.1,0-2.2,0.5-3.4,1.4c-1.2,0.9-2.1,2-2.9,3.3
		c-0.7,1.3-1.1,2.4-1.1,3.5C158,140.8,158.2,141.3,158.6,141.7 M151.2,128c0.7-1.2,1.3-2.2,1.8-2.8c0.5-0.6,0.9-1,1.1-1
		c0.1,0,0.1,0.1,0.1,0.2c0,0.8-0.5,2-1.4,3.6c-1,1.6-2,2.9-3.2,3.8C150,130.5,150.5,129.2,151.2,128 M141.3,133.3
		c1.1,0.2,2,0.3,2.8,0.3c1.1,0,2.2-0.1,3.3-0.3c-0.4,1.1-0.7,2.2-0.9,3.5c-0.7,1.4-1.5,2.5-2.4,3.3c-0.9,0.8-1.8,1.2-2.7,1.2
		c-0.5,0-0.9-0.2-1.2-0.5c-0.2-0.3-0.3-0.9-0.3-1.6C139.9,137.5,140.4,135.6,141.3,133.3 M140.6,142.2c1.1,0,2.1-0.4,3.1-1.1
		c1-0.7,1.8-1.7,2.5-2.9c-0.1,0.4-0.1,0.8-0.1,1.1c0,0.7,0.1,1.4,0.3,1.9c0.2,0.5,0.5,0.8,0.8,0.8c0.3,0,0.7-0.4,1.1-1.1
		c0.4-0.8,0.7-1.6,1.1-2.5c0.3-0.9,0.8-1.8,1.3-2.5c0.5-0.8,1.1-1.1,1.7-1.1c0.7,0,1,0.4,1,1.3c0,0.4-0.1,1.1-0.4,2.1
		c-0.3,0.9-0.4,1.6-0.4,1.9c0,0.5,0.2,0.9,0.5,1.2c0.3,0.3,0.8,0.5,1.4,0.5c1,0,2-0.4,2.9-1.3c0.9-0.9,1.7-2,2.3-3.3l-0.3-0.3
		c-0.5,1.2-1.2,2.1-2,3c-0.8,0.8-1.5,1.3-2.1,1.3c-0.5,0-0.8-0.3-0.8-1c0-0.4,0.2-1.1,0.6-2.1c0.4-1,0.6-1.8,0.6-2.4
		c0-0.7-0.2-1.2-0.5-1.7c-0.3-0.5-0.8-0.7-1.5-0.7c-2,0-3.9,2.3-5.4,6.9c0-0.3-0.1-0.6-0.1-0.9c0-0.7,0.1-1.7,0.4-3.1
		c0.3-1.3,0.6-2.4,0.9-3.1c1.5-0.9,2.9-2.3,4.1-4.3c1.2-1.9,1.8-3.6,1.8-4.9c0-0.4-0.1-0.8-0.2-1.2c-0.2-0.3-0.4-0.5-0.7-0.5
		c-0.8,0-1.8,1.1-3.1,3.3c-1.3,2.2-2.4,4.6-3.4,7.2c-1.4,0.3-2.5,0.4-3.5,0.4c-0.8,0-1.6-0.1-2.6-0.3c0.4-0.9,0.9-1.9,1.6-2.9
		c0.6-1.1,1.1-2,1.5-2.6c0.3-0.7,0.5-1.1,0.5-1.4c0-0.2-0.1-0.3-0.2-0.4c-0.1-0.1-0.2-0.2-0.4-0.2c-0.5,0-1.2,0.7-2.1,2.1
		c-0.8,1.4-1.7,3.1-2.5,5.1c-0.2,0-0.4-0.1-0.7-0.1c-0.3-0.1-0.4-0.1-0.5-0.1v0.5c0,0,0.2,0.1,0.4,0.2c0.2,0.1,0.4,0.2,0.6,0.2
		c-1.1,3-1.7,5.2-1.7,6.7C138.2,141.4,139,142.2,140.6,142.2 M122.3,138.1c0.8-1.3,1.6-3,2.4-5.1c0,0,0.2,0.1,0.3,0.2
		c0.2,0.1,0.3,0.2,0.4,0.3l0.3,0.3c0.1,0.1,0.2,0.2,0.3,0.3c0,0.1,0.1,0.2,0.1,0.4c0.1,0.2,0.1,0.3,0.1,0.5c0,0.5-0.2,1.3-0.7,2.4
		c-0.5,1.2-0.7,2-0.7,2.5c0,0.5,0.2,0.9,0.5,1.3c0.3,0.3,0.8,0.5,1.4,0.5c1.1,0,2.1-0.5,3.2-1.4c1.1-0.9,1.9-2,2.4-3.3l-0.3-0.3
		c-0.4,0.9-1,1.7-2,2.6c-0.9,0.9-1.8,1.3-2.6,1.3c-0.5,0-0.8-0.3-0.8-0.8c0-0.3,0.2-1,0.7-2.1c0.5-1,0.7-1.8,0.7-2.4
		c0-0.5-0.1-1-0.4-1.4c-0.3-0.4-0.6-0.7-0.9-0.9c-0.3-0.2-0.6-0.4-0.9-0.7c-0.3-0.2-0.4-0.5-0.4-0.7c0,0,0-0.2,0.1-0.5
		c0.1-0.3,0.1-0.4,0.1-0.5c0-0.4-0.1-0.6-0.4-0.6c-0.2,0-0.4,0.2-0.7,0.5c-0.3,0.4-0.4,0.8-0.4,1.3c0,0.2,0.1,0.5,0.3,0.6
		c-0.6,1.7-1.3,3.4-2.2,5L122.3,138.1z M116.7,134c1-1.2,1.9-1.7,2.7-1.7c0.4,0,0.6,0.2,0.6,0.6c0,1-0.6,2-1.7,2.8
		c-1.1,0.9-2.3,1.6-3.6,2C115.1,136.4,115.8,135.2,116.7,134 M113.6,141.3c0.6,0.6,1.4,0.9,2.4,0.9c1.3,0,2.6-0.5,3.9-1.4
		c1.3-1,2.3-2.2,3-3.8l-0.3-0.2c-0.7,1.3-1.6,2.4-2.7,3.3c-1.1,0.9-2.2,1.4-3.3,1.4c-1.4,0-2.1-0.7-2.1-2.2c0-0.3,0-0.7,0.1-1
		c1.6-0.2,3.2-0.7,4.5-1.7c1.4-1,2.1-2.1,2.1-3.4c0-1.1-0.6-1.6-1.7-1.6c-1.5,0-3.1,0.9-4.6,2.6s-2.3,3.4-2.3,5
		C112.7,140,113,140.7,113.6,141.3 M107.8,135.1c0.2-0.4,0.4-0.6,0.7-0.6c0.3,0,0.5,0.2,0.6,0.5c0.2,0.4,0.3,0.8,0.3,1.4
		c0,0.9-0.2,1.8-0.6,2.7c-0.9-0.6-1.3-1.5-1.3-2.8C107.5,135.9,107.6,135.4,107.8,135.1 M107.3,128.8c0.7-1.4,1.4-2.5,2-3.4
		c0.6-0.9,1-1.3,1.2-1.3c0.1,0,0.1,0.1,0.1,0.2c0,0.8-0.5,2.1-1.6,4.1c-1.1,2-2.2,3.4-3.3,4.3C106,131.6,106.6,130.2,107.3,128.8
		 M103,142.1c0.5,0.6,1.2,0.9,2.1,0.9c1.7,0,3.1-1,4.3-2.9c0.3,0.1,0.6,0.1,0.9,0.1c1.7,0,3-1,3.8-3l-0.3-0.3
		c-0.2,0.4-0.4,0.7-0.5,1c-0.2,0.3-0.4,0.6-0.7,0.9c-0.3,0.3-0.6,0.6-1,0.8c-0.4,0.2-0.8,0.3-1.2,0.3c-0.3,0-0.5,0-0.7-0.1
		c0.6-1.2,0.9-2.4,0.9-3.6c0-0.8-0.2-1.4-0.5-1.8c-0.3-0.4-0.7-0.6-1.2-0.6c-0.6,0-1.2,0.3-1.6,0.8c-0.4,0.5-0.7,1.2-0.7,2
		c0,0.7,0.2,1.4,0.5,2c0.3,0.6,0.8,1.1,1.4,1.4c-0.3,0.7-0.8,1.2-1.3,1.6c-0.6,0.4-1.1,0.6-1.6,0.6c-1,0-1.5-0.8-1.5-2.5
		c0-1,0.2-2,0.5-3.2c0.3-1.2,0.6-2,0.8-2.4c1-0.6,2-1.6,3-2.9c1-1.3,1.7-2.6,2.3-4c0.6-1.3,0.8-2.4,0.8-3.3c0-0.4-0.1-0.8-0.2-1.2
		c-0.2-0.3-0.4-0.5-0.6-0.5c-0.7,0-1.7,1.1-3.1,3.2c-1.3,2.2-2.6,4.7-3.6,7.5c-1.1,2.9-1.6,5.1-1.6,6.8
		C102.3,140.7,102.5,141.5,103,142.1 M84.8,141.6c0.4,0.1,0.7,0.2,0.9,0.2c0.7-1.8,1.6-3.6,2.9-5.2c1.3-1.7,2.3-2.5,3.1-2.5
		c0.4,0,0.7,0.3,0.7,1c0,0.7-0.3,2-0.8,3.6c-0.6,1.7-0.8,2.5-0.8,2.5c0,0.2,0.2,0.3,0.5,0.4c0.3,0.1,0.6,0.1,0.9,0.1
		c0.6-1.3,1.1-2.2,1.3-2.5c1-1.5,1.7-2.5,2.2-3.1c0.5-0.6,0.9-0.9,1.3-0.9c0.5,0,0.8,0.3,0.8,1c0,0.3-0.1,0.9-0.4,1.8
		c-0.3,0.9-0.4,1.5-0.4,2c0,0.6,0.2,1,0.5,1.4c0.3,0.4,0.8,0.5,1.4,0.5c1,0,1.9-0.5,2.7-1.4c0.8-0.9,1.5-2.1,2-3.4l-0.3-0.4
		c-1.3,2.8-2.5,4.2-3.6,4.2c-0.5,0-0.8-0.3-0.8-0.9c0-0.4,0.2-1.1,0.5-2.1c0.3-1.1,0.5-1.8,0.5-2.3c0-1.1-0.5-1.7-1.5-1.7
		c-1.5,0-2.9,1.4-4.5,4.1c0.5-1.3,0.8-2.6,0.8-3.8c0-1.4-0.5-2.1-1.4-2.1c-0.9,0-1.8,0.5-2.8,1.5c-1,1-1.9,2.2-2.8,3.6
		c0.5-1.5,0.7-2.5,0.7-3c0-0.5-0.2-0.7-0.7-0.7s-0.9,0.2-1.2,0.6c0,0.7-0.2,1.6-0.5,2.7c-0.3,1.1-0.6,2.1-0.9,3
		c-0.3,0.9-0.5,1.3-0.5,1.4C84.3,141.3,84.5,141.4,84.8,141.6 M79.9,134c1-1.2,1.9-1.7,2.7-1.7c0.4,0,0.6,0.2,0.6,0.6
		c0,1-0.6,2-1.7,2.8c-1.1,0.9-2.3,1.6-3.6,2C78.3,136.4,79,135.2,79.9,134 M76.8,141.3c0.6,0.6,1.4,0.9,2.4,0.9
		c1.3,0,2.6-0.5,3.9-1.4c1.3-1,2.3-2.2,3-3.8l-0.3-0.2c-0.7,1.3-1.6,2.4-2.7,3.3c-1.1,0.9-2.2,1.4-3.3,1.4c-1.4,0-2.1-0.7-2.1-2.2
		c0-0.3,0-0.7,0.1-1c1.6-0.2,3.2-0.7,4.5-1.7c1.4-1,2.1-2.1,2.1-3.4c0-1.1-0.6-1.6-1.7-1.6c-1.5,0-3.1,0.9-4.6,2.6
		c-1.5,1.7-2.3,3.4-2.3,5C75.9,140,76.2,140.7,76.8,141.3 M58.6,141.6c0.4,0.1,0.7,0.2,0.9,0.2c0.7-1.8,1.6-3.6,2.9-5.2
		c1.3-1.7,2.3-2.5,3.1-2.5c0.4,0,0.7,0.3,0.7,1c0,0.7-0.3,2-0.8,3.6c-0.6,1.7-0.8,2.5-0.8,2.5c0,0.2,0.2,0.3,0.5,0.4
		c0.3,0.1,0.6,0.1,0.9,0.1c0.6-1.3,1.1-2.2,1.3-2.5c1-1.5,1.7-2.5,2.2-3.1c0.5-0.6,0.9-0.9,1.3-0.9c0.5,0,0.8,0.3,0.8,1
		c0,0.3-0.1,0.9-0.4,1.8s-0.4,1.5-0.4,2c0,0.6,0.2,1,0.5,1.4c0.3,0.4,0.8,0.5,1.4,0.5c1,0,1.9-0.5,2.7-1.4c0.8-0.9,1.5-2.1,2-3.4
		l-0.3-0.4c-1.3,2.8-2.5,4.2-3.6,4.2c-0.5,0-0.8-0.3-0.8-0.9c0-0.4,0.2-1.1,0.5-2.1c0.3-1.1,0.5-1.8,0.5-2.3c0-1.1-0.5-1.7-1.5-1.7
		c-1.5,0-2.9,1.4-4.5,4.1c0.5-1.3,0.8-2.6,0.8-3.8c0-1.4-0.5-2.1-1.4-2.1c-0.9,0-1.8,0.5-2.8,1.5c-1,1-1.9,2.2-2.8,3.6
		c0.5-1.5,0.7-2.5,0.7-3c0-0.5-0.2-0.7-0.7-0.7c-0.5,0-0.9,0.2-1.2,0.6c0,0.7-0.2,1.6-0.5,2.7c-0.3,1.1-0.6,2.1-0.9,3
		c-0.3,0.9-0.5,1.3-0.5,1.4C58,141.3,58.2,141.4,58.6,141.6 M53.7,134c1-1.2,1.9-1.7,2.7-1.7c0.4,0,0.6,0.2,0.6,0.6
		c0,1-0.6,2-1.7,2.8c-1.1,0.9-2.3,1.6-3.6,2C52,136.4,52.7,135.2,53.7,134 M50.5,141.3c0.6,0.6,1.4,0.9,2.4,0.9
		c1.3,0,2.6-0.5,3.9-1.4c1.3-1,2.3-2.2,3-3.8l-0.3-0.2c-0.7,1.3-1.6,2.4-2.7,3.3c-1.1,0.9-2.2,1.4-3.3,1.4c-1.4,0-2.1-0.7-2.1-2.2
		c0-0.3,0-0.7,0.1-1c1.6-0.2,3.2-0.7,4.5-1.7c1.4-1,2.1-2.1,2.1-3.4c0-1.1-0.6-1.6-1.7-1.6c-1.5,0-3.1,0.9-4.6,2.6
		c-1.5,1.7-2.3,3.4-2.3,5C49.7,140,50,140.7,50.5,141.3 M44.4,122.5c1.4,0,2.5,0.3,3.4,0.9c0.9,0.6,1.4,1.6,1.4,2.9
		c0,1.3-0.4,2.3-1.3,3.2c-0.9,0.9-1.9,1.5-3.1,1.9c-1.2,0.4-2.5,0.6-3.9,0.7C42.1,127.8,43.3,124.6,44.4,122.5 M36.4,142.9
		c0.4,0.3,0.8,0.4,1.2,0.4l2.8-9.7c0.6,1.4,1.3,2.9,2.2,4.4c0.9,1.6,1.8,3,2.8,4.3c1,1.3,1.8,1.9,2.5,1.9c0.2,0,0.5-0.1,0.8-0.3
		c0.3-0.2,0.5-0.4,0.6-0.6c-0.7-0.6-1.4-1.2-2.1-1.9c-0.6-0.6-1.2-1.2-1.6-1.7c-0.4-0.5-0.9-1.1-1.4-1.8c-0.5-0.7-0.9-1.3-1.1-1.7
		l-1.1-1.9l-1-1.8c0.5,0,1.1,0,1.8-0.1c0.7-0.1,1.5-0.2,2.5-0.4c1-0.2,1.9-0.5,2.7-0.9c0.8-0.4,1.5-0.9,2.1-1.7
		c0.6-0.8,0.9-1.6,0.9-2.6c0-1.1-0.4-2.1-1.1-2.8c-0.7-0.8-1.6-1.3-2.6-1.6c-1-0.3-2-0.5-3.1-0.5c-1.8,0-3.8,0.5-6,1.5
		c0,0.1,0.1,0.3,0.3,0.5c0.2,0.2,0.4,0.3,0.5,0.3c0.1,0,0.3-0.1,0.6-0.3c0.3-0.2,0.8-0.4,1.4-0.7c0.6-0.3,1.3-0.4,1.9-0.5
		c-2.3,5.1-4.5,11.1-6.8,18c-0.3,0.7-0.4,1.2-0.4,1.5C35.8,142.4,36,142.7,36.4,142.9"/>
</g>
</svg>
