<svg id="Layer_1" data-name="Layer 1" xmlns="http://www.w3.org/2000/svg" width="4.73in" height="4.64in" viewBox="0 0 340.44 334">
  <defs>
    <style>
      .cls-1, .cls-10, .cls-12, .cls-13, .cls-2, .cls-3, .cls-4, .cls-5, .cls-6, .cls-8, .cls-9 {
        fill: #fff;
      }

      .cls-10, .cls-12, .cls-13, .cls-2, .cls-3, .cls-5, .cls-6, .cls-8, .cls-9 {
        font-size: 26.84px;
      }

      .cls-2 {
        font-family: MinionPro-Regular, Minion Pro;
      }

      .cls-3 {
        font-family: Avenir-Book, Avenir;
      }

      .cls-4 {
        font-size: 21.47px;
        font-family: Zapfino, Zapfino;
      }

      .cls-5 {
        font-family: CooperBlackStd, Cooper Std;
      }

      .cls-6 {
        font-family: Futura-CondensedMedium, Futura;
      }

      .cls-7 {
        letter-spacing: 0em;
      }

      .cls-8 {
        font-family: Helvetica, Helvetica;
      }

      .cls-9 {
        font-family: Impact, Impact;
      }

      .cls-10 {
        font-family: AmericanTypewriter, American Typewriter;
      }

      .cls-11 {
        letter-spacing: -0.01em;
      }

      .cls-12 {
        font-family: ArialNarrow, Arial Narrow;
      }

      .cls-13 {
        font-family: DINCondensed-Bold, DIN Condensed;
        font-weight: 700;
      }
    </style>
  </defs>
  <title>rule1</title>
  <rect width="340.44" height="334"/>
  <path class="cls-1" d="M67.27,143.83c-2.21,2.35-4.62,3.48-5.69,3.48s-1.52-.79-.83-3.93l1.69-7.49c.28-1.21.21-1.69-.21-1.69-1.17,0-3.86,3.17-5.11,5.49-.41,1.79-1,4.76-1.38,6.87a18.37,18.37,0,0,0-3.83.76l-.24-.28q2.17-10.09,4.14-20.67c-1.52-.14-3.14-.21-5.42-.21H48.95l-3.31,16.18c-.59,2.86-.38,3.17,2.42,3.45l-.24,1.1h-10l.21-1.1c2.52-.24,2.76-.66,3.38-3.45l3.48-16.18H42.7c-2,0-2.83.41-3.42,1a11.92,11.92,0,0,0-1.83,3.07H36.25c.66-2.24,1.31-4.62,1.66-6.38h.83c.35.79.66.86,1.45.86H53.5c2.07,0,2.55-.17,2.73-.69l.1-.38a18.44,18.44,0,0,1,3.62-.9c.41,0,.45.28.31,1-.9,4.35-1.79,8.73-2.73,13.15h.07a19,19,0,0,1,5-4.83,5.19,5.19,0,0,1,2.62-.9c.93,0,2,.59,1.24,4.07l-1.62,7.31c-.24,1.14-.1,1.31,0,1.48a5.48,5.48,0,0,0,1.9-1.24Zm2-2a10.42,10.42,0,0,1,4.8-9.18,8.89,8.89,0,0,1,4.49-1.41c3.11,0,4.66,2.14,4.66,5.42a11.33,11.33,0,0,1-3.66,8.49,8.86,8.86,0,0,1-5.52,2.17C70.27,147.31,69.31,144.38,69.31,141.82Zm6.87,3.8c1.24-.48,2.83-4.11,2.79-9.28,0-2.52-.69-3.62-1.76-3.62a2.39,2.39,0,0,0-.72.17c-1,.48-2.9,3.55-2.9,9.32,0,2.42.86,3.59,1.79,3.59A2.19,2.19,0,0,0,76.17,145.62Zm24.6-2c-2.1,2.45-4.24,3.73-5.59,3.73-1,0-1.35-1.07-.93-3.14.14-.72.28-1.38.45-2.1h-.1a17.49,17.49,0,0,1-4.76,4.55,4.59,4.59,0,0,1-2.31.69c-1,0-2.21-.55-1.28-4.76.48-2.21,1-4.42,1.59-6.9.21-.93.21-1.21-.07-1.21a6.33,6.33,0,0,0-2,1.21l-.41-1c2-1.9,4.42-3.45,5.76-3.45.9,0,1.24.79.62,3.55-.52,2.35-1.17,5.14-1.73,7.49-.35,1.52-.14,2,.31,2,1.31,0,3.9-3.21,4.69-4.76.55-2.35,1.17-5.11,1.62-7.31l3.59-.93h.45c-.9,3.76-1.76,7.45-2.55,11.52-.17,1-.14,1.31.1,1.31a6.07,6.07,0,0,0,2-1.41Z" transform="translate(0.22)"/>
  <text class="cls-2" transform="translate(101.72 146.9)"> </text>
  <text class="cls-3" transform="translate(107.81 146.9)">shalt </text>
  <text class="cls-4" transform="translate(170.9 146.9)">not</text>
  <text class="cls-2" transform="translate(208.96 146.9)"> </text>
  <text class="cls-5" transform="translate(33.82 179.1)">apply</text>
  <text class="cls-2" transform="translate(115.11 179.1)"> </text>
  <text class="cls-6" transform="translate(121.2 179.1)">mo<tspan class="cls-7" x="26.73" y="0">r</tspan><tspan x="33.98" y="0">e</tspan></text>
  <text class="cls-2" transform="translate(165.08 179.1)"> </text>
  <text class="cls-8" transform="translate(171.17 179.1)">than</text>
  <text class="cls-2" transform="translate(223.4 179.1)"> </text>
  <text class="cls-9" transform="translate(229.49 179.1)">three</text>
  <text class="cls-2" transform="translate(288.77 179.1)"> </text>
  <text class="cls-10" transform="translate(33.82 211.3)">type<tspan class="cls-11" x="57.13" y="0">f</tspan><tspan x="66.12" y="0">aces</tspan></text>
  <text class="cls-2" transform="translate(156.11 211.3)"> </text>
  <text class="cls-12" transform="translate(162.21 211.3)">in a </text>
  <text class="cls-13" transform="translate(203.8 211.3)">document.</text>
</svg>
