<?xml version="1.0" encoding="utf-8"?>
<!-- Generator: Adobe Illustrator 21.0.2, SVG Export Plug-In . SVG Version: 6.00 Build 0)  -->
<!DOCTYPE svg PUBLIC "-//W3C//DTD SVG 1.1//EN" "http://www.w3.org/Graphics/SVG/1.1/DTD/svg11.dtd">
<svg version="1.1" id="Layer_1" xmlns="http://www.w3.org/2000/svg" xmlns:xlink="http://www.w3.org/1999/xlink" x="0px" y="0px"
	 viewBox="0 0 340.1 333.7" style="enable-background:new 0 0 340.1 333.7;" xml:space="preserve">
<style type="text/css">
	.st0{fill:#FFFFFF;}
	.st1{fill:#231F20;}
	.st2{font-family:'MinionPro-Regular';}
	.st3{font-size:19.1495px;}
	.st4{clip-path:url(#SVGID_2_);fill:#231F20;}
	.st5{font-size:26.8092px;}
	.st6{clip-path:url(#SVGID_4_);fill:#231F20;}
	.st7{clip-path:url(#SVGID_6_);fill:#231F20;}
</style>
<rect x="0" class="st0" width="340.1" height="333.7"/>
<text transform="matrix(1 0 0 1 34.0099 36.9013)" class="st1 st2 st3">8.</text>
<g>
	<defs>
		<rect id="SVGID_1_" x="0" width="340.1" height="333.7"/>
	</defs>
	<clipPath id="SVGID_2_">
		<use xlink:href="#SVGID_1_"  style="overflow:visible;"/>
	</clipPath>
	<path class="st4" d="M268.4,154v-0.7c-1.6-0.2-1.7-0.3-1.7-2.1V146c0-2.6-1.3-4.1-3.5-4.1c-0.8,0-1.5,0.3-2.2,0.8
		c-0.7,0.5-1.3,0.9-1.8,1.3v-2.1c-1.2,0.5-2.4,0.9-3.7,1.1v0.6c1.4,0.3,1.6,0.3,1.6,2.1v5.5c0,1.8-0.1,1.9-2,2.1v0.7h5.8v-0.7
		c-1.6-0.2-1.7-0.3-1.7-2.1v-6.3c0.8-0.7,1.8-1.4,2.9-1.4c1.8,0,2.4,1.2,2.4,3.1v4.5c0,1.8-0.2,2.1-1.8,2.2v0.7H268.4z M248.1,154.3
		c1.1,0,1.9,0.1,2.6,0.3c0.8,0.3,1.2,1,1.2,1.9c0,1.7-1.3,3-3.9,3c-2,0-3.5-1.1-3.5-2.5c0-0.8,0.5-1.5,1.2-2.1
		C246.3,154.5,246.9,154.3,248.1,154.3 M247.6,142.8c1.5,0,2.5,1.5,2.5,3.6c0,2.1-1,3.2-2.2,3.2c-1.5,0-2.5-1.5-2.5-3.6
		S246.4,142.8,247.6,142.8 M254,142.3c-1,0.2-2.3,0.3-3.6,0.4c-0.8-0.4-1.7-0.7-2.6-0.7c-2.1,0-4.8,1.4-4.8,4.5
		c0,1.8,1.2,3.1,2.4,3.6c-0.4,0.5-1.3,1.2-2.4,1.6c0,0.3,0.1,0.7,0.3,1.1c0.3,0.6,1,1.2,2,1.5c-0.6,0.5-1.7,1.3-2.2,1.9
		c-0.4,0.4-0.6,0.9-0.6,1.5c0,1.5,1.7,3.3,4.6,3.3c3.6,0,6.7-2.6,6.7-5.3c0-2.6-2.2-3.2-3.9-3.2c-0.9,0-1.8,0-2.8,0
		c-1.2,0-1.7-0.5-1.7-1c0-0.4,0.4-0.9,0.8-1.1c0.4,0.1,0.9,0.1,1.4,0.1c2.3,0,4.7-1.4,4.7-4.3c0-1-0.3-1.8-0.8-2.4l1.5,0.1
		c0.4-0.2,1-0.9,1.2-1.4L254,142.3z M241.2,154v-0.7c-1.7-0.2-1.9-0.3-1.9-2.1v-9.2c-1.2,0.5-2.4,0.8-3.8,1v0.6
		c1.6,0.3,1.7,0.4,1.7,2v5.5c0,1.8-0.2,2-1.9,2.1v0.7H241.2z M238.1,139.6c0.8,0,1.4-0.6,1.4-1.4c0-0.8-0.6-1.4-1.3-1.4
		c-0.7,0-1.4,0.6-1.4,1.4C236.7,139,237.4,139.6,238.1,139.6 M234.1,154v-0.7c-1.7-0.2-1.9-0.3-1.9-2.1v-16.3
		c-0.9,0.3-2.6,0.8-4,0.9v0.6c1.7,0.1,1.8,0.2,1.8,2v12.7c0,1.8-0.2,1.9-1.9,2.1v0.7H234.1z M223.2,151.7c-0.5,0.5-1.4,0.9-2.1,1
		c-0.8,0-1.9-0.7-1.9-2.1c0-1,0.6-1.5,1.6-2c0.6-0.3,1.8-0.8,2.4-1.1V151.7z M227.4,153l-0.3-0.7c-0.3,0.2-0.6,0.3-1,0.3
		c-0.5,0-0.9-0.4-0.9-1.6v-5c0-1.4-0.3-2.5-1.2-3.3c-0.6-0.5-1.4-0.7-2.2-0.7c-1.5,0.3-3.3,1.3-4,1.9c-0.5,0.4-0.9,0.7-0.9,1.1
		c0,0.6,0.7,1.2,1.2,1.2c0.4,0,0.7-0.2,0.8-0.6c0.2-0.8,0.5-1.4,0.8-1.8c0.3-0.3,0.7-0.5,1.2-0.5c1.3,0,2.3,1.1,2.3,3v0.5
		c-0.6,0.5-2.5,1.2-4.2,1.7c-1.5,0.5-2.2,1.3-2.2,2.7c0,1.7,1.3,3.3,3.2,3.3c0.8,0,2.1-1,3.2-1.7c0.1,0.5,0.3,0.8,0.6,1.2
		c0.3,0.3,0.9,0.5,1.3,0.5L227.4,153z M208.4,145.3c-0.1-0.7-0.4-2.3-0.6-2.9c-0.6-0.2-1.3-0.5-2.4-0.5c-2.5,0-4.1,1.6-4.1,3.5
		c0,2.1,1.7,2.9,3.4,3.7c1.3,0.6,2.1,1.3,2.1,2.4c0,1.1-0.9,1.9-1.9,1.9c-1.6,0-2.8-1.6-3.3-3.3l-0.7,0.1c0,1,0.2,2.8,0.4,3.2
		c0.5,0.4,1.7,0.9,3.1,0.9c2.1,0,4.4-1.3,4.4-3.7c0-1.8-1.4-2.8-3.4-3.6c-1.2-0.5-2.3-1.1-2.3-2.3c0-1,0.7-1.8,1.7-1.8
		c1.3,0,2.3,1.1,2.8,2.7L208.4,145.3z M200.4,142.3h-4.9v0.7c1.5,0.2,1.7,0.5,1.4,1.5c-0.6,1.7-1.7,4.9-2.5,6.7l-2.4-6.7
		c-0.3-1-0.2-1.3,1-1.5v-0.7h-5.4v0.7c1.5,0.2,1.7,0.6,2.3,2c0.8,1.9,2,5.1,3.1,8.2c0.2,0.5,0.2,0.8,0,1.2c-0.1,0.3-0.3,0.9-0.8,1.8
		c-0.6,1.2-1.2,1.8-2,2.4c-0.5,0.3-0.7,0.5-0.7,1c0,0.6,0.8,1.3,1.5,1.3c0.4,0,0.7-0.1,0.9-0.6c0.4-1.4,1-3,2.8-7.3
		c1.8-4.4,2.7-6.6,3.4-8.1c0.7-1.5,1-1.7,2.4-2V142.3z M183.6,151.7c-0.5,0.5-1.4,0.9-2.1,1c-0.8,0-1.9-0.7-1.9-2.1
		c0-1,0.6-1.5,1.6-2c0.6-0.3,1.8-0.8,2.4-1.1V151.7z M187.9,153l-0.3-0.7c-0.3,0.2-0.6,0.3-1,0.3c-0.5,0-0.9-0.4-0.9-1.6v-5
		c0-1.4-0.3-2.5-1.2-3.3c-0.6-0.5-1.4-0.7-2.2-0.7c-1.5,0.3-3.3,1.3-4,1.9c-0.5,0.4-0.9,0.7-0.9,1.1c0,0.6,0.7,1.2,1.2,1.2
		c0.4,0,0.7-0.2,0.8-0.6c0.2-0.8,0.5-1.4,0.8-1.8c0.3-0.3,0.7-0.5,1.2-0.5c1.3,0,2.3,1.1,2.3,3v0.5c-0.6,0.5-2.5,1.2-4.2,1.7
		c-1.5,0.5-2.2,1.3-2.2,2.7c0,1.7,1.3,3.3,3.2,3.3c0.8,0,2.1-1,3.2-1.7c0.1,0.5,0.3,0.8,0.6,1.2c0.3,0.3,0.9,0.5,1.3,0.5L187.9,153z
		 M176.6,142.3h-4.9v0.7c1.7,0.2,1.9,0.4,1.6,1.8c-0.5,2-1.2,4.3-1.8,6.2h-0.1c-1.1-2.9-2.2-5.7-3.2-8.5h-0.7
		c-1.1,3.1-2.1,5.8-3.1,8.4h-0.1c-0.7-2.1-1.3-4.2-2-6.2c-0.4-1.2-0.3-1.4,1.3-1.6v-0.7h-5.5v0.7c1.3,0.2,1.5,0.4,2,1.8
		c1.1,3.2,2.1,6.4,3.1,9.6h0.8c1-3,2.1-5.7,3.2-8.3c1.1,2.8,2.2,5.4,3.3,8.3h0.8c1.2-3.6,2.4-7.2,3.2-9.3c0.6-1.5,0.8-1.8,2.1-2
		V142.3z M157.7,154v-0.7c-1.7-0.2-1.9-0.3-1.9-2.1v-16.3c-0.9,0.3-2.6,0.8-4,0.9v0.6c1.7,0.1,1.8,0.2,1.8,2v12.7
		c0,1.8-0.2,1.9-1.9,2.1v0.7H157.7z M146.8,151.7c-0.5,0.5-1.4,0.9-2.1,1c-0.8,0-1.9-0.7-1.9-2.1c0-1,0.6-1.5,1.6-2
		c0.6-0.3,1.8-0.8,2.4-1.1V151.7z M151,153l-0.3-0.7c-0.3,0.2-0.6,0.3-1,0.3c-0.5,0-0.9-0.4-0.9-1.6v-5c0-1.4-0.3-2.5-1.2-3.3
		c-0.6-0.5-1.4-0.7-2.2-0.7c-1.5,0.3-3.3,1.3-4,1.9c-0.5,0.4-0.9,0.7-0.9,1.1c0,0.6,0.7,1.2,1.2,1.2c0.4,0,0.7-0.2,0.8-0.6
		c0.2-0.8,0.5-1.4,0.8-1.8c0.3-0.3,0.7-0.5,1.2-0.5c1.3,0,2.3,1.1,2.3,3v0.5c-0.6,0.5-2.5,1.2-4.2,1.7c-1.5,0.5-2.2,1.3-2.2,2.7
		c0,1.7,1.3,3.3,3.2,3.3c0.8,0,2.1-1,3.2-1.7c0.1,0.5,0.3,0.8,0.6,1.2c0.3,0.3,0.9,0.5,1.3,0.5L151,153z M133.1,153l-0.2-0.7
		c-0.4,0.2-1,0.5-1.7,0.5s-1.6-0.4-1.6-2.6v-6.9h2.9c0.3-0.2,0.4-0.8,0.2-1h-3v-3.7l-0.4-0.1l-1.7,1.8v2h-1.2l-0.7,0.8l0.1,0.3h1.8
		v7.8c0,2.1,0.9,3.2,2.6,3.2c0.2,0,0.7-0.1,1.1-0.3L133.1,153z M125.1,154v-0.7c-1.7-0.2-1.9-0.3-1.9-2.1v-16.3
		c-0.9,0.3-2.6,0.8-4,0.9v0.6c1.7,0.1,1.8,0.2,1.8,2v12.7c0,1.8-0.2,1.9-1.9,2.1v0.7H125.1z M114.2,151.7c-0.5,0.5-1.4,0.9-2.1,1
		c-0.8,0-1.9-0.7-1.9-2.1c0-1,0.6-1.5,1.6-2c0.6-0.3,1.8-0.8,2.4-1.1V151.7z M118.4,153l-0.3-0.7c-0.3,0.2-0.6,0.3-1,0.3
		c-0.5,0-0.9-0.4-0.9-1.6v-5c0-1.4-0.3-2.5-1.2-3.3c-0.6-0.5-1.4-0.7-2.2-0.7c-1.5,0.3-3.3,1.3-4,1.9c-0.5,0.4-0.9,0.7-0.9,1.1
		c0,0.6,0.7,1.2,1.2,1.2c0.4,0,0.7-0.2,0.8-0.6c0.2-0.8,0.5-1.4,0.8-1.8c0.3-0.3,0.7-0.5,1.2-0.5c1.3,0,2.3,1.1,2.3,3v0.5
		c-0.6,0.5-2.5,1.2-4.2,1.7c-1.5,0.5-2.2,1.3-2.2,2.7c0,1.7,1.3,3.3,3.2,3.3c0.8,0,2.1-1,3.2-1.7c0.1,0.5,0.3,0.8,0.6,1.2
		c0.3,0.3,0.9,0.5,1.3,0.5L118.4,153z M106.3,154v-0.7c-1.6-0.1-1.8-0.3-1.8-2.1v-4.7c0-3.2-1.5-4.6-3.7-4.6c-1.4,0-2.9,1-3.8,2v-9
		c-1,0.3-2.7,0.8-3.9,0.9v0.6c1.8,0.2,1.8,0.3,1.8,2v12.8c0,1.8-0.2,1.9-1.8,2.1v0.7h5.7v-0.7c-1.6-0.2-1.7-0.3-1.7-2.1v-6.4
		c0.8-0.9,1.8-1.4,2.8-1.4c1.8,0,2.6,1.1,2.6,3.3v4.5c0,1.7-0.2,1.9-1.8,2.1v0.7H106.3z M91.4,145.3c-0.1-0.7-0.4-2.3-0.6-2.9
		c-0.6-0.2-1.3-0.5-2.4-0.5c-2.5,0-4.1,1.6-4.1,3.5c0,2.1,1.7,2.9,3.4,3.7c1.3,0.6,2.1,1.3,2.1,2.4c0,1.1-0.9,1.9-1.9,1.9
		c-1.6,0-2.8-1.6-3.3-3.3l-0.7,0.1c0,1,0.2,2.8,0.4,3.2c0.5,0.4,1.7,0.9,3.1,0.9c2.1,0,4.4-1.3,4.4-3.7c0-1.8-1.4-2.8-3.4-3.6
		c-1.2-0.5-2.3-1.1-2.3-2.3c0-1,0.7-1.8,1.7-1.8c1.3,0,2.3,1.1,2.8,2.7L91.4,145.3z M76.4,152.7l-0.8-0.1c-1-0.1-1.2-0.2-1.2-1.6v-9
		c-1.4,0.3-2.8,0.4-4.2,0.5v0.6c1.9,0.3,2.1,0.4,2.1,1.9v6.2c-0.9,0.9-1.9,1.3-2.9,1.3c-1.2,0-2.4-0.6-2.4-3V146
		c0-1.8,0-3.1,0.1-3.9c-1.3,0.2-2.6,0.4-3.8,0.5v0.6c1.5,0.3,1.6,0.4,1.6,1.9v5.3c0,2.9,1.5,4,3.3,4c0.7,0,1.3-0.2,2.1-0.7
		c0.8-0.5,1.4-0.9,2-1.4v1.9l0.2,0.2c1.3-0.4,2.7-0.8,3.9-1V152.7z M55.7,142.8c2.3,0,3.6,2.5,3.6,5.7c0,3.7-1.4,4.9-3,4.9
		c-2.2,0-3.7-2.5-3.7-5.9C52.6,144.5,54,142.8,55.7,142.8 M56,142c-2.4,0-5.9,2-5.9,6.4c0,3,2.2,5.9,5.9,5.9c2.7,0,5.8-2.1,5.8-6.4
		C61.8,144.6,59.3,142,56,142 M48.7,154v-0.7c-1.6-0.1-1.8-0.3-1.8-2.1v-4.7c0-3.2-1.5-4.6-3.7-4.6c-1.4,0-2.9,1-3.8,2v-9
		c-1,0.3-2.7,0.8-3.9,0.9v0.6c1.8,0.2,1.8,0.3,1.8,2v12.8c0,1.8-0.2,1.9-1.8,2.1v0.7h5.7v-0.7c-1.6-0.2-1.7-0.3-1.7-2.1v-6.4
		c0.8-0.9,1.8-1.4,2.8-1.4c1.8,0,2.6,1.1,2.6,3.3v4.5c0,1.7-0.2,1.9-1.8,2.1v0.7H48.7z"/>
</g>
<text transform="matrix(1 0 0 1 268.3571 153.9955)" class="st1 st2 st5"> </text>
<g>
	<defs>
		<rect id="SVGID_3_" x="0" width="340.1" height="333.7"/>
	</defs>
	<clipPath id="SVGID_4_">
		<use xlink:href="#SVGID_3_"  style="overflow:visible;"/>
	</clipPath>
	<path class="st6" d="M263.4,205.9c-0.6,0.4-1.6,0.7-2.3,0.7c-0.8-0.1-1.8-0.9-1.6-2.3c0.1-1,0.8-1.4,1.9-1.7
		c0.6-0.2,1.9-0.6,2.5-0.8L263.4,205.9z M267.5,207.7l-0.2-0.7c-0.3,0.1-0.7,0.2-1,0.2c-0.5-0.1-0.9-0.5-0.7-1.7l0.7-4.9
		c0.2-1.4,0.1-2.5-0.8-3.4c-0.5-0.6-1.3-0.9-2.1-1c-1.6,0.1-3.4,0.9-4.2,1.3c-0.6,0.3-0.9,0.6-1,1c-0.1,0.6,0.5,1.2,1,1.3
		c0.4,0,0.7-0.1,0.9-0.5c0.3-0.8,0.6-1.3,1-1.6c0.3-0.3,0.7-0.4,1.3-0.4c1.3,0.2,2.1,1.4,1.8,3.3l-0.1,0.5c-0.6,0.4-2.7,0.9-4.3,1.2
		c-1.5,0.3-2.3,1-2.5,2.3c-0.2,1.7,0.9,3.4,2.8,3.7c0.8,0.1,2.2-0.7,3.4-1.3c0.1,0.5,0.2,0.9,0.5,1.3c0.3,0.3,0.8,0.6,1.2,0.7
		L267.5,207.7z M249.1,206.3l0.1-0.7c-1.5-0.4-1.6-0.5-1.4-2.3l0.7-5.1c0.3-2.6-0.8-4.2-2.9-4.5c-0.8-0.1-1.5,0.1-2.3,0.5
		c-0.7,0.4-1.4,0.7-1.9,1l0.3-2.1c-1.2,0.4-2.5,0.5-3.8,0.6l-0.1,0.6c1.4,0.5,1.5,0.6,1.3,2.3l-0.7,5.5c-0.2,1.8-0.4,1.9-2.2,1.8
		l-0.1,0.7l5.8,0.8l0.1-0.7c-1.5-0.4-1.7-0.5-1.5-2.3l0.8-6.2c0.9-0.6,2-1.1,3.1-1c1.8,0.2,2.3,1.5,2,3.3l-0.6,4.4
		c-0.2,1.8-0.5,2-2,2l-0.1,0.7L249.1,206.3z M230,192.6c2.3,0.3,3.2,3,2.8,6.1c-0.5,3.6-2,4.7-3.6,4.5c-2.2-0.3-3.3-3-2.9-6.3
		C226.7,193.8,228.4,192.4,230,192.6 M230.4,191.7c-2.4-0.3-6.1,1.2-6.7,5.6c-0.4,3,1.4,6.2,5,6.6c2.6,0.3,6-1.3,6.6-5.6
		C235.8,195.1,233.7,192.2,230.4,191.7 M215.9,193.2c0-0.7-0.1-2.3-0.2-2.9c-0.5-0.3-1.2-0.6-2.3-0.8c-2.4-0.3-4.2,1-4.5,2.9
		c-0.3,2,1.3,3.2,2.8,4.1c1.2,0.8,1.9,1.5,1.8,2.7c-0.1,1.1-1.1,1.7-2.1,1.6c-1.6-0.2-2.6-1.9-2.8-3.7l-0.7,0c-0.1,1-0.1,2.8,0,3.2
		c0.4,0.5,1.6,1.1,2.9,1.3c2.1,0.3,4.5-0.7,4.9-3.1c0.2-1.8-1-3-2.9-4.1c-1.1-0.7-2.1-1.4-2-2.6c0.1-1,1-1.7,2-1.6
		c1.3,0.2,2.1,1.4,2.4,3L215.9,193.2z M202.2,197.9c-0.7,0.4-1.7,0.7-2.7,0.6c-1.7-0.2-3.4-2-3-5.2c0.5-3.9,2.9-4.6,4.1-4.4
		c1,0.1,2,0.7,2.6,1.7L202.2,197.9z M206.2,199.3l-0.8-0.2c-1-0.2-1.1-0.4-1-1.8l2.1-15.9c-1,0.2-2.9,0.4-4.3,0.4l-0.1,0.6
		c1.9,0.4,2,0.5,1.8,2.2l-0.5,3.7c-0.6-0.3-1.3-0.5-1.7-0.5c-3.6-0.5-7.2,2-7.7,5.7c-0.5,3.7,2,6,4.2,6.3c0.3,0,1.1,0,2.2-0.5
		l1.7-0.7l-0.2,1.7c1.6-0.4,3.7-0.4,4.3-0.5L206.2,199.3z M188.8,189.1l0.4-2.9c-1.3,0.4-2.6,0.6-3.9,0.6l-0.1,0.6
		c1.5,0.4,1.6,0.5,1.4,2.3l-0.7,5.5c-0.2,1.8-0.4,1.9-2.1,1.8l-0.1,0.7l6.1,0.8l0.1-0.7c-2-0.4-2.1-0.6-1.9-2.4l0.6-4.9
		c0.8-1.4,1.7-2.1,2.4-2c0.4,0.1,0.7,0.3,1,0.7c0.1,0.2,0.4,0.2,0.7,0.1c0.5-0.2,1-0.7,1-1.2c0.1-0.6-0.5-1.4-1.4-1.5
		C191.1,186.6,189.8,187.9,188.8,189.1L188.8,189.1z M177.5,185.7c2.3,0.3,3.2,3,2.8,6.1c-0.5,3.6-2,4.7-3.6,4.5
		c-2.2-0.3-3.3-3-2.9-6.3C174.2,186.9,175.9,185.4,177.5,185.7 M177.9,184.8c-2.4-0.3-6.1,1.2-6.7,5.6c-0.4,3,1.4,6.2,5,6.6
		c2.6,0.3,6-1.3,6.6-5.6C183.3,188.2,181.2,185.3,177.9,184.8 M171.5,184.3l-4.8-0.6l-0.1,0.7c1.7,0.5,1.8,0.6,1.3,2
		c-0.7,1.9-1.8,4.1-2.6,5.9l-0.1,0c-0.7-3-1.5-6-2.1-8.8l-0.7-0.1c-1.5,2.9-2.9,5.5-4.2,7.9l-0.1,0c-0.4-2.1-0.8-4.3-1.1-6.4
		c-0.2-1.2-0.1-1.4,1.5-1.4l0.1-0.7l-5.5-0.7l-0.1,0.7c1.3,0.4,1.5,0.6,1.8,2c0.7,3.3,1.3,6.6,1.8,9.9l0.8,0.1
		c1.4-2.8,2.9-5.3,4.2-7.9c0.7,2.9,1.5,5.7,2.2,8.7l0.7,0.1c1.7-3.5,3.3-6.8,4.4-8.8c0.8-1.4,1-1.7,2.4-1.7L171.5,184.3z
		 M141.4,189.9c-0.7,0.4-1.7,0.7-2.7,0.6c-1.7-0.2-3.4-2-3-5.2c0.5-3.9,2.9-4.6,4.1-4.4c1,0.1,2,0.7,2.6,1.7L141.4,189.9z
		 M145.4,191.3l-0.8-0.2c-1-0.2-1.1-0.4-1-1.8l2.1-15.9c-1,0.2-2.9,0.4-4.3,0.4l-0.1,0.6c1.9,0.4,2,0.5,1.8,2.2l-0.5,3.7
		c-0.6-0.3-1.3-0.5-1.7-0.5c-3.6-0.5-7.2,2-7.7,5.7c-0.5,3.7,2,6,4.2,6.3c0.3,0,1.1,0,2.2-0.5l1.7-0.7l-0.2,1.7
		c1.6-0.4,3.7-0.4,4.3-0.5L145.4,191.3z M130.9,190.8l0.1-0.7c-1.5-0.4-1.6-0.5-1.4-2.3l0.7-5.1c0.3-2.6-0.8-4.2-2.9-4.5
		c-0.8-0.1-1.5,0.1-2.3,0.5c-0.7,0.4-1.4,0.7-1.9,1l0.3-2.1c-1.2,0.4-2.5,0.5-3.8,0.6l-0.1,0.6c1.4,0.5,1.5,0.6,1.3,2.3l-0.7,5.5
		c-0.2,1.8-0.4,1.9-2.2,1.8l-0.1,0.7l5.8,0.8l0.1-0.7c-1.5-0.4-1.7-0.5-1.5-2.3l0.8-6.2c0.9-0.6,2-1.1,3.1-1c1.8,0.2,2.3,1.5,2,3.3
		l-0.6,4.4c-0.2,1.8-0.5,2-2,2l-0.1,0.7L130.9,190.8z M113.2,186.2c-0.6,0.4-1.6,0.7-2.3,0.7c-0.8-0.1-1.8-0.9-1.6-2.3
		c0.1-1,0.8-1.4,1.9-1.7c0.6-0.2,1.9-0.6,2.5-0.8L113.2,186.2z M117.2,187.9l-0.2-0.7c-0.3,0.1-0.7,0.2-1,0.2
		c-0.5-0.1-0.9-0.5-0.7-1.7l0.7-4.9c0.2-1.4,0.1-2.5-0.8-3.4c-0.5-0.6-1.3-0.9-2.1-1c-1.6,0.1-3.4,0.9-4.2,1.3c-0.6,0.3-0.9,0.6-1,1
		c-0.1,0.6,0.5,1.2,1,1.3c0.4,0,0.7-0.1,0.9-0.5c0.3-0.8,0.6-1.3,1-1.6c0.3-0.3,0.7-0.4,1.3-0.4c1.3,0.2,2.1,1.4,1.8,3.3l-0.1,0.5
		c-0.6,0.4-2.7,0.9-4.3,1.2c-1.5,0.3-2.3,1-2.5,2.3c-0.2,1.7,0.9,3.4,2.8,3.7c0.8,0.1,2.2-0.7,3.4-1.3c0.1,0.5,0.2,0.9,0.5,1.3
		c0.3,0.3,0.8,0.6,1.2,0.7L117.2,187.9z M99.4,177.8c0-0.7-0.1-2.3-0.2-2.9c-0.5-0.3-1.2-0.6-2.3-0.8c-2.4-0.3-4.2,1-4.5,2.9
		c-0.3,2,1.3,3.2,2.8,4.1c1.2,0.8,1.9,1.5,1.8,2.7c-0.1,1.1-1.1,1.7-2.1,1.6c-1.6-0.2-2.6-1.9-2.8-3.7l-0.7,0c-0.1,1-0.1,2.8,0,3.2
		c0.4,0.5,1.6,1.1,2.9,1.3c2.1,0.3,4.5-0.7,4.9-3.1c0.2-1.8-1-3-2.9-4.1c-1.1-0.7-2.1-1.4-2-2.6c0.1-1,1-1.7,2-1.6
		c1.3,0.2,2.1,1.4,2.4,3L99.4,177.8z M86.1,175.6l0.4-2.9c-1.3,0.4-2.6,0.6-3.9,0.6l-0.1,0.6c1.5,0.4,1.6,0.5,1.4,2.3l-0.7,5.5
		c-0.2,1.8-0.4,1.9-2.1,1.8l-0.1,0.7l6.1,0.8l0.1-0.7c-2-0.4-2.1-0.6-1.9-2.4l0.6-4.9c0.8-1.4,1.7-2.1,2.4-2c0.4,0.1,0.7,0.3,1,0.7
		c0.1,0.2,0.4,0.2,0.7,0.1c0.5-0.2,1-0.7,1-1.2c0.1-0.6-0.5-1.4-1.4-1.5C88.5,173,87.1,174.4,86.1,175.6L86.1,175.6z M76.2,172.4
		c1.5,0.2,2.2,1.6,2,3c0,0.4-0.2,0.5-0.7,0.4c-1.5-0.2-3-0.3-4.5-0.5C73.7,173.2,75,172.3,76.2,172.4 M79.2,181.1
		c-1.1,0.8-2.1,1.1-3.2,0.9c-1.9-0.2-3.7-2-3.3-5.6c3.2,0.3,6.5,0.5,7,0.5c0.5,0,0.7-0.2,0.7-0.8c0.3-2.1-1.2-4.3-3.5-4.6
		c-1.4-0.2-2.9,0.3-4.2,1.4c-1.2,1.1-2.1,2.6-2.4,4.4c-0.4,3,1.2,5.9,4.4,6.3c0.8,0.1,2.7-0.1,4.7-2L79.2,181.1z M68.9,181.6
		l-0.1-0.7c-0.4,0.1-1,0.3-1.7,0.2c-0.7-0.1-1.5-0.6-1.2-2.8l0.9-6.8l2.8,0.4c0.3-0.1,0.5-0.7,0.3-1l-3-0.4l0.5-3.6l-0.4-0.1l-2,1.5
		l-0.3,1.9l-1.2-0.2l-0.8,0.7l0.1,0.3l1.8,0.2l-1,7.7c-0.3,2.1,0.5,3.3,2.2,3.5c0.2,0,0.7,0,1.2-0.2L68.9,181.6z M61.1,180.6
		l-0.1-0.7c-0.4,0.1-1,0.3-1.7,0.2c-0.7-0.1-1.5-0.6-1.2-2.8l0.9-6.8l2.8,0.4c0.3-0.1,0.5-0.7,0.3-1l-3-0.4l0.5-3.6l-0.4-0.1l-2,1.5
		l-0.3,1.9l-1.2-0.2l-0.8,0.7L55,170l1.8,0.2l-1,7.7c-0.3,2.1,0.5,3.3,2.2,3.5c0.2,0,0.7,0,1.2-0.2L61.1,180.6z M49.2,168.9
		c1.5,0.2,2.2,1.6,2,3c0,0.4-0.2,0.5-0.7,0.4c-1.5-0.2-3-0.3-4.5-0.5C46.6,169.7,47.9,168.7,49.2,168.9 M52.2,177.5
		c-1.1,0.8-2.1,1.1-3.2,0.9c-1.9-0.2-3.7-2-3.3-5.6c3.2,0.3,6.5,0.5,7,0.5c0.5,0,0.7-0.2,0.7-0.8c0.3-2.1-1.2-4.3-3.5-4.6
		c-1.4-0.2-2.9,0.3-4.2,1.4c-1.2,1.1-2.1,2.6-2.4,4.4c-0.4,3,1.2,5.9,4.4,6.3c0.8,0.1,2.7-0.1,4.7-2L52.2,177.5z M41.3,179l0.1-0.7
		c-1.7-0.4-1.9-0.6-1.6-2.3l2.1-16.2c-0.9,0.2-2.7,0.4-4.1,0.4l-0.1,0.6c1.7,0.4,1.8,0.5,1.6,2.3l-1.7,12.6
		c-0.2,1.8-0.5,1.9-2.2,1.8l-0.1,0.7L41.3,179z"/>
</g>
<text transform="matrix(1 0 0 1 267.4586 186.1674)" class="st1 st2 st5"> </text>
<g>
	<defs>
		<rect id="SVGID_5_" x="0" width="340.1" height="333.7"/>
	</defs>
	<clipPath id="SVGID_6_">
		<use xlink:href="#SVGID_5_"  style="overflow:visible;"/>
	</clipPath>
	<path class="st7" d="M126.6,212.3c0.8-0.2,1.3-0.9,1.1-1.9c-0.2-0.8-1-1.3-1.8-1.1c-0.8,0.2-1.3,1-1.1,1.8
		C125,212,125.8,212.5,126.6,212.3 M116,203.1c1.4-0.3,2.6,0.7,2.9,2.1c0.1,0.4,0,0.6-0.5,0.7c-1.5,0.4-2.9,0.8-4.4,1.1
		C113.9,204.8,114.8,203.4,116,203.1 M121.9,210.1c-0.7,1.1-1.6,1.8-2.7,2c-1.8,0.4-4.2-0.5-5.1-4.1c3.1-0.8,6.3-1.9,6.7-2.1
		c0.4-0.2,0.5-0.5,0.4-1c-0.5-2-2.7-3.5-4.9-3c-1.4,0.3-2.6,1.4-3.4,2.8c-0.8,1.4-1.1,3.2-0.6,5c0.7,2.9,3.2,5.1,6.4,4.3
		c0.8-0.2,2.5-1.1,3.6-3.5L121.9,210.1z M112.1,215.4l-0.2-0.7c-1.5,0.2-1.7,0.1-2.1-1.6l-1.2-5c-0.6-2.5-2.3-3.6-4.3-3.2
		c-0.8,0.2-1.4,0.7-2,1.3c-0.5,0.6-1,1.1-1.5,1.6l-0.5-2.1c-1,0.8-2.2,1.4-3.4,1.9l0.1,0.6c1.5-0.1,1.6,0,2,1.6l1.3,5.4
		c0.4,1.7,0.3,1.9-1.4,2.5l0.2,0.7l5.7-1.4l-0.2-0.7c-1.6,0.2-1.8,0.1-2.2-1.6l-1.5-6.1c0.6-0.9,1.5-1.8,2.5-2
		c1.7-0.4,2.7,0.6,3.1,2.4l1,4.4c0.4,1.8,0.3,2.1-1.2,2.6l0.2,0.7L112.1,215.4z M98.1,218.8l-0.2-0.7c-1.7,0.2-1.9,0.1-2.4-1.6
		l-2.2-9c-1,0.7-2.2,1.4-3.5,1.9l0.2,0.6c1.6-0.1,1.7,0,2.1,1.6l1.3,5.4c0.4,1.8,0.3,2-1.3,2.5l0.2,0.7L98.1,218.8z M91.7,205.5
		c0.8-0.2,1.2-0.9,1-1.6c-0.2-0.8-0.9-1.2-1.6-1c-0.7,0.2-1.2,0.9-1,1.7C90.2,205.2,91,205.7,91.7,205.5 M91.1,220.4l-0.2-0.7
		c-1.7,0.2-2,0.1-2.4-1.6l-3.8-15.8c-0.8,0.5-2.3,1.4-3.6,1.8l0.2,0.6c1.7-0.3,1.8-0.2,2.3,1.5l3,12.3c0.4,1.7,0.2,1.9-1.4,2.5
		l0.2,0.7L91.1,220.4z M77.3,212.4c1.4-0.3,2.6,0.7,2.9,2.1c0.1,0.4,0,0.6-0.5,0.7c-1.5,0.4-2.9,0.8-4.4,1.1
		C75.2,214.1,76.1,212.7,77.3,212.4 M83.2,219.4c-0.7,1.1-1.6,1.8-2.7,2c-1.8,0.4-4.2-0.5-5.1-4.1c3.1-0.8,6.3-1.9,6.7-2.1
		c0.4-0.2,0.5-0.5,0.4-1c-0.5-2-2.7-3.5-4.9-3c-1.4,0.3-2.6,1.4-3.4,2.8c-0.8,1.4-1.1,3.2-0.6,5c0.7,2.9,3.2,5.1,6.4,4.3
		c0.8-0.2,2.5-1.1,3.6-3.5L83.2,219.4z M70.5,216.4c-0.2-0.6-0.9-2.1-1.2-2.7c-0.6-0.1-1.4-0.1-2.4,0.1c-2.4,0.6-3.6,2.5-3.2,4.3
		c0.5,2,2.4,2.5,4.1,2.8c1.4,0.3,2.4,0.7,2.6,1.9c0.3,1.1-0.4,2-1.4,2.3c-1.6,0.4-3.1-0.9-4-2.5l-0.6,0.3c0.2,0.9,0.9,2.7,1.2,3
		c0.6,0.3,1.9,0.5,3.2,0.2c2.1-0.5,4-2.3,3.4-4.6c-0.4-1.8-2-2.4-4.1-2.8c-1.3-0.2-2.5-0.6-2.8-1.7c-0.2-1,0.3-2,1.3-2.2
		c1.3-0.3,2.4,0.5,3.3,1.9L70.5,216.4z M59.5,225.7c-0.4,0.6-1.2,1.3-1.9,1.4c-0.8,0.2-2-0.2-2.3-1.6c-0.2-0.9,0.2-1.6,1.1-2.3
		c0.5-0.4,1.6-1.2,2.1-1.7L59.5,225.7z M63.9,225.9l-0.4-0.6c-0.2,0.2-0.6,0.4-0.9,0.5c-0.4,0.1-1-0.2-1.3-1.3l-1.2-4.8
		c-0.3-1.4-0.8-2.4-1.9-2.9c-0.7-0.3-1.5-0.4-2.3-0.2c-1.4,0.6-2.9,2.1-3.5,2.8c-0.4,0.5-0.7,0.9-0.6,1.2c0.1,0.6,0.9,1,1.4,0.8
		c0.4-0.1,0.6-0.3,0.6-0.8c0-0.9,0.1-1.5,0.4-1.9c0.2-0.4,0.5-0.7,1-0.8c1.3-0.3,2.4,0.5,2.9,2.4l0.1,0.5c-0.5,0.6-2.2,1.8-3.6,2.7
		c-1.3,0.8-1.8,1.8-1.5,3.1c0.4,1.6,2,2.9,3.9,2.4c0.8-0.2,1.8-1.5,2.7-2.4c0.2,0.4,0.5,0.7,0.9,1c0.3,0.2,1,0.3,1.3,0.2L63.9,225.9
		z M41.1,222.2c0.4-0.4,1.2-0.8,1.9-1c2.2-0.5,4.4,0.8,5.1,3.7c0.7,3-0.2,5.2-2.4,5.7c-1.4,0.3-2.4-0.4-2.7-0.9
		c-0.2-0.2-0.3-0.5-0.4-0.8L41.1,222.2z M40.9,221.4l-1.9-8c-0.9,0.6-2.4,1.4-3.6,1.8l0.1,0.6c1.7-0.2,1.8-0.1,2.2,1.5l3.5,14.5
		c1.6,0.3,3,0.3,4.1,0c3.5-0.8,5.9-4.3,5-8.1c-0.7-3.1-3.7-4.9-6.5-4.2c-0.3,0.1-0.6,0.2-1,0.5L40.9,221.4z"/>
	<path class="st7" d="M90.9,113.1c3.2-4.3,7.4-9.6,10.3-12.8L99.7,99c-2.3,0.3-3.2,0.2-5-1.4L67.5,73.1c-1.9-1.7-2.7-2.7-2.2-5.1
		l-1.4-1.2c-3.5,3.7-7.9,7.8-12,11.6l2,1.8c3.5-2.3,5.8-3.7,7.7-4.1c2.3-0.8,4.2-0.1,9.9,5l4.3,3.8l-30.4,33.8
		c-4.9,5.4-6.1,5.6-12.7,0.4L31,121l19.7,17.7l1.7-1.9c-6.2-6.3-6.1-7.5-1.2-12.9l30.4-33.8l4.9,4.4c5.1,4.6,5.9,6.2,5.5,8.8
		c-0.2,1.8-1.1,4.1-3.3,8.1L90.9,113.1z"/>
</g>
</svg>
