<?xml version="1.0" encoding="utf-8"?>
<!-- Generator: Adobe Illustrator 21.0.2, SVG Export Plug-In . SVG Version: 6.00 Build 0)  -->
<!DOCTYPE svg PUBLIC "-//W3C//DTD SVG 1.1//EN" "http://www.w3.org/Graphics/SVG/1.1/DTD/svg11.dtd">
<svg version="1.1" id="Layer_1" xmlns="http://www.w3.org/2000/svg" xmlns:xlink="http://www.w3.org/1999/xlink" x="0px" y="0px"
	 viewBox="0 0 340.1 333.7" style="enable-background:new 0 0 340.1 333.7;" xml:space="preserve">
<style type="text/css">
	.st0{fill:#231F20;}
	.st1{clip-path:url(#SVGID_2_);fill:#FFFFFF;}
</style>
<rect x="0" y="0" class="st0" width="340.1" height="333.7"/>
<g>
	<defs>
		<rect id="SVGID_1_" x="0" y="0" width="340.1" height="333.7"/>
	</defs>
	<clipPath id="SVGID_2_">
		<use xlink:href="#SVGID_1_"  style="overflow:visible;"/>
	</clipPath>
	<path class="st1" d="M45.4,37.1c0.6,0,1.1-0.4,1.1-1.1c0-0.6-0.5-1.1-1.1-1.1c-0.6,0-1.1,0.5-1.1,1.1
		C44.3,36.7,44.8,37.1,45.4,37.1 M36.9,26.4h4.5l0.5-1.2L41.8,25h-5.5l-0.7,5.8c0.4-0.2,1.2-0.4,2-0.4c2.1,0,3.1,1.2,3.1,2.9
		c0,1.4-0.8,2.8-2.4,2.8c-1.2,0-2-0.6-2.4-1c-0.2-0.2-0.3-0.1-0.5,0c-0.2,0.2-0.4,0.4-0.4,0.6c0,0.2,0.1,0.4,0.3,0.7
		c0.3,0.3,1.1,0.7,2,0.7c1,0,2.3-0.5,3.3-1.4c1.2-1,1.7-2,1.7-3.2c0-1.6-1.2-3.2-3.7-3.2c-0.5,0-1.4,0.3-2.1,0.6L36.9,26.4z"/>
	<path class="st1" d="M156.5,266.2c0.9,0,1.5-0.6,1.5-1.6c0-0.9-0.6-1.5-1.5-1.5c-0.9,0-1.5,0.7-1.5,1.5
		C155,265.5,155.7,266.2,156.5,266.2 M152.2,257.1c-0.1-0.7-0.4-2.3-0.6-2.9c-0.6-0.2-1.3-0.5-2.4-0.5c-2.5,0-4.1,1.6-4.1,3.5
		c0,2.1,1.7,2.9,3.4,3.7c1.3,0.6,2.1,1.3,2.1,2.4c0,1.1-0.9,1.9-1.9,1.9c-1.6,0-2.8-1.6-3.3-3.3l-0.7,0.1c0,1,0.2,2.8,0.4,3.2
		c0.5,0.4,1.7,0.9,3.1,0.9c2.1,0,4.4-1.3,4.4-3.7c0-1.8-1.4-2.8-3.4-3.6c-1.2-0.5-2.3-1.1-2.3-2.3c0-1,0.7-1.8,1.7-1.8
		c1.3,0,2.3,1.1,2.8,2.7L152.2,257.1z M138.7,256.6v-2.9c-1.3,0.6-2.5,0.9-3.8,1.1v0.6c1.5,0.2,1.7,0.3,1.7,2.1v5.5
		c0,1.8-0.2,1.9-1.8,2.1v0.7h6.2v-0.7c-2.1-0.2-2.2-0.3-2.2-2.1v-4.9c0.6-1.5,1.4-2.3,2.1-2.3c0.4,0,0.8,0.2,1.1,0.6
		c0.2,0.2,0.4,0.2,0.7,0.1c0.5-0.2,0.9-0.8,0.9-1.3c0-0.6-0.6-1.3-1.6-1.3C140.7,253.8,139.5,255.3,138.7,256.6L138.7,256.6z
		 M128.5,254.8c1.5,0,2.4,1.3,2.4,2.7c0,0.4-0.2,0.5-0.6,0.5c-1.6,0.1-3,0.1-4.5,0.1C126.1,255.9,127.3,254.8,128.5,254.8
		 M132.6,263c-1,0.9-2,1.3-3.1,1.3c-1.9,0-4-1.5-4-5.1c3.2-0.1,6.5-0.4,7-0.5c0.5-0.1,0.6-0.3,0.6-0.9c0-2.1-1.8-4.1-4-4.1
		c-1.4,0-2.8,0.7-3.9,2c-1.1,1.2-1.8,2.8-1.8,4.7c0,3,1.9,5.7,5.2,5.7c0.8,0,2.7-0.5,4.4-2.6L132.6,263z M122.4,264.9l-0.2-0.7
		c-0.4,0.2-1,0.5-1.7,0.5s-1.6-0.4-1.6-2.6v-6.9h2.9c0.3-0.2,0.4-0.8,0.2-1h-3v-3.7l-0.4-0.1l-1.7,1.8v2h-1.2l-0.7,0.8l0.1,0.3h1.8
		v7.8c0,2.1,0.9,3.2,2.6,3.2c0.2,0,0.7-0.1,1.1-0.3L122.4,264.9z M113.4,262.9c-1.2,1.2-2.1,1.5-3.3,1.5c-1.5,0-4-1.2-4-5
		c0-2.8,1.6-4.3,3.3-4.3c0.9,0,1.9,0.3,2.7,1.1c0.2,0.2,0.4,0.3,0.5,0.3c0.3,0,0.9-0.6,0.9-1.2c0-0.3-0.1-0.5-0.4-0.8
		c-0.4-0.3-1.3-0.7-2.4-0.7c-1,0-2.7,0.4-4,1.5c-1.8,1.4-2.7,3.2-2.7,5.3c0,2.9,2,5.6,5.4,5.6c1.6,0,3.4-1.2,4.6-2.7L113.4,262.9z
		 M89.7,263.6c-0.5,0.5-1.4,0.9-2.1,1c-0.8,0-1.9-0.7-1.9-2.1c0-1,0.6-1.5,1.6-2c0.6-0.3,1.8-0.8,2.4-1.1V263.6z M93.9,264.8
		l-0.3-0.7c-0.3,0.2-0.6,0.3-1,0.3c-0.5,0-0.9-0.4-0.9-1.6v-5c0-1.4-0.3-2.5-1.2-3.3c-0.6-0.5-1.4-0.7-2.2-0.7
		c-1.5,0.3-3.3,1.3-4,1.9c-0.5,0.4-0.9,0.7-0.9,1.1c0,0.6,0.7,1.2,1.2,1.2c0.4,0,0.7-0.2,0.8-0.6c0.2-0.8,0.5-1.4,0.8-1.8
		c0.3-0.3,0.7-0.5,1.2-0.5c1.3,0,2.3,1.1,2.3,3v0.5c-0.6,0.5-2.5,1.2-4.2,1.7c-1.5,0.5-2.2,1.3-2.2,2.7c0,1.7,1.3,3.3,3.2,3.3
		c0.8,0,2.1-1,3.2-1.7c0.1,0.5,0.3,0.8,0.6,1.2c0.3,0.3,0.9,0.5,1.3,0.5L93.9,264.8z M77.2,256.6v-2.9c-1.3,0.6-2.5,0.9-3.8,1.1v0.6
		c1.5,0.2,1.7,0.3,1.7,2.1v5.5c0,1.8-0.2,1.9-1.8,2.1v0.7h6.2v-0.7c-2.1-0.2-2.2-0.3-2.2-2.1v-4.9c0.6-1.5,1.4-2.3,2.1-2.3
		c0.4,0,0.8,0.2,1.1,0.6c0.2,0.2,0.4,0.2,0.7,0.1c0.5-0.2,0.9-0.8,0.9-1.3c0-0.6-0.6-1.3-1.6-1.3C79.2,253.8,78,255.3,77.2,256.6
		L77.2,256.6z M68.2,263.6c-0.5,0.5-1.4,0.9-2.1,1c-0.8,0-1.9-0.7-1.9-2.1c0-1,0.6-1.5,1.6-2c0.6-0.3,1.8-0.8,2.4-1.1V263.6z
		 M72.4,264.8l-0.3-0.7c-0.3,0.2-0.6,0.3-1,0.3c-0.5,0-0.9-0.4-0.9-1.6v-5c0-1.4-0.3-2.5-1.2-3.3c-0.6-0.5-1.4-0.7-2.2-0.7
		c-1.5,0.3-3.3,1.3-4,1.9c-0.5,0.4-0.9,0.7-0.9,1.1c0,0.6,0.7,1.2,1.2,1.2c0.4,0,0.7-0.2,0.8-0.6c0.2-0.8,0.5-1.4,0.8-1.8
		c0.3-0.3,0.7-0.5,1.2-0.5c1.3,0,2.3,1.1,2.3,3v0.5c-0.6,0.5-2.5,1.2-4.2,1.7c-1.5,0.5-2.2,1.3-2.2,2.7c0,1.7,1.3,3.3,3.2,3.3
		c0.8,0,2.1-1,3.2-1.7c0.1,0.5,0.3,0.8,0.6,1.2c0.3,0.3,0.9,0.5,1.3,0.5L72.4,264.8z M60.3,265.8v-0.7c-1.6-0.1-1.8-0.3-1.8-2.1
		v-4.7c0-3.2-1.5-4.6-3.7-4.6c-1.4,0-2.9,1-3.8,2v-9c-1,0.3-2.7,0.8-3.9,0.9v0.6c1.8,0.2,1.8,0.3,1.8,2v12.8c0,1.8-0.2,1.9-1.8,2.1
		v0.7h5.7v-0.7c-1.6-0.2-1.7-0.3-1.7-2.1v-6.4c0.8-0.9,1.8-1.4,2.8-1.4c1.8,0,2.6,1.1,2.6,3.3v4.5c0,1.7-0.2,1.9-1.8,2.1v0.7H60.3z
		 M45.9,262.9c-1.2,1.2-2.1,1.5-3.3,1.5c-1.5,0-4-1.2-4-5c0-2.8,1.6-4.3,3.3-4.3c0.9,0,1.9,0.3,2.7,1.1c0.2,0.2,0.4,0.3,0.5,0.3
		c0.3,0,0.9-0.6,0.9-1.2c0-0.3-0.1-0.5-0.4-0.8c-0.4-0.3-1.3-0.7-2.4-0.7c-1,0-2.7,0.4-4,1.5c-1.8,1.4-2.7,3.2-2.7,5.3
		c0,2.9,2,5.6,5.4,5.6c1.6,0,3.4-1.2,4.6-2.7L45.9,262.9z"/>
	<path class="st1" d="M244.5,233.7V233c-1.6-0.2-1.7-0.3-1.7-2.1v-5.2c0-2.6-1.3-4.1-3.5-4.1c-0.8,0-1.5,0.3-2.2,0.8
		c-0.7,0.5-1.3,0.9-1.8,1.3v-2.1c-1.2,0.5-2.4,0.9-3.7,1.1v0.6c1.4,0.3,1.6,0.3,1.6,2.1v5.5c0,1.8-0.1,1.9-2,2.1v0.7h5.8V233
		c-1.6-0.2-1.7-0.3-1.7-2.1v-6.3c0.8-0.7,1.8-1.4,2.9-1.4c1.8,0,2.4,1.2,2.4,3.1v4.5c0,1.8-0.2,2.1-1.8,2.2v0.7H244.5z M225.1,222.6
		c1.5,0,2.4,1.3,2.4,2.7c0,0.4-0.2,0.5-0.6,0.5c-1.6,0.1-3,0.1-4.5,0.1C222.7,223.7,223.9,222.6,225.1,222.6 M229.2,230.8
		c-1,0.9-2,1.3-3.1,1.3c-1.9,0-4-1.5-4-5.1c3.2-0.1,6.5-0.4,7-0.5c0.5-0.1,0.6-0.3,0.6-0.9c0-2.1-1.8-4.1-4-4.1
		c-1.4,0-2.8,0.7-3.9,2c-1.1,1.2-1.8,2.8-1.8,4.7c0,3,1.9,5.7,5.2,5.7c0.8,0,2.7-0.5,4.4-2.6L229.2,230.8z M213.6,222.6
		c1.5,0,2.4,1.3,2.4,2.7c0,0.4-0.2,0.5-0.6,0.5c-1.6,0.1-3,0.1-4.5,0.1C211.2,223.7,212.4,222.6,213.6,222.6 M217.7,230.8
		c-1,0.9-2,1.3-3.1,1.3c-1.9,0-4-1.5-4-5.1c3.2-0.1,6.5-0.4,7-0.5c0.5-0.1,0.6-0.3,0.6-0.9c0-2.1-1.8-4.1-4-4.1
		c-1.4,0-2.8,0.7-3.9,2c-1.1,1.2-1.8,2.8-1.8,4.7c0,3,1.9,5.7,5.2,5.7c0.8,0,2.7-0.5,4.4-2.6L217.7,230.8z M208.1,221.9h-4.9v0.7
		c1.7,0.2,1.9,0.4,1.6,1.8c-0.5,2-1.2,4.3-1.8,6.2h-0.1c-1.1-2.9-2.2-5.7-3.2-8.5H199c-1.1,3.1-2.1,5.8-3.1,8.4h-0.1
		c-0.7-2.1-1.3-4.2-2-6.2c-0.4-1.2-0.3-1.4,1.3-1.6v-0.7h-5.5v0.7c1.3,0.2,1.5,0.4,2,1.8c1.1,3.2,2.1,6.4,3.1,9.6h0.8
		c1-3,2.1-5.7,3.2-8.3c1.1,2.8,2.2,5.4,3.3,8.3h0.8c1.2-3.6,2.4-7.2,3.2-9.3c0.6-1.5,0.8-1.8,2.1-2V221.9z M189.1,232.7l-0.2-0.7
		c-0.4,0.2-1,0.5-1.7,0.5s-1.6-0.4-1.6-2.6V223h2.9c0.3-0.2,0.4-0.8,0.2-1h-3v-3.7l-0.4-0.1l-1.7,1.8v2h-1.2l-0.7,0.8l0.1,0.3h1.8
		v7.8c0,2.1,0.9,3.2,2.6,3.2c0.2,0,0.7-0.1,1.1-0.3L189.1,232.7z M175.8,222.6c1.5,0,2.4,1.3,2.4,2.7c0,0.4-0.2,0.5-0.6,0.5
		c-1.6,0.1-3,0.1-4.5,0.1C173.4,223.7,174.6,222.6,175.8,222.6 M179.9,230.8c-1,0.9-2,1.3-3.1,1.3c-1.9,0-4-1.5-4-5.1
		c3.2-0.1,6.5-0.4,7-0.5c0.5-0.1,0.6-0.3,0.6-0.9c0-2.1-1.8-4.1-4-4.1c-1.4,0-2.8,0.7-3.9,2c-1.1,1.2-1.8,2.8-1.8,4.7
		c0,3,1.9,5.7,5.2,5.7c0.8,0,2.7-0.5,4.4-2.6L179.9,230.8z M160,223.6c0.5-0.3,1.3-0.5,2.1-0.5c2.2,0,4.1,1.8,4.1,4.8
		c0,3.1-1.4,5-3.6,5c-1.4,0-2.2-1-2.4-1.5c-0.1-0.2-0.2-0.5-0.2-0.9V223.6z M160,222.8v-8.3c-1,0.3-2.6,0.8-3.9,0.9v0.6
		c1.7,0.2,1.8,0.3,1.8,2V233c1.5,0.7,2.8,1,3.9,1c3.6,0,6.7-2.8,6.7-6.7c0-3.2-2.4-5.6-5.3-5.6c-0.3,0-0.7,0.1-1.1,0.3L160,222.8z
		 M145.4,231.4c-0.6,0.5-1.6,0.9-2.6,0.9c-1.7,0-3.7-1.6-3.7-4.7c0-3.9,2.3-4.9,3.5-4.9c1,0,2.1,0.4,2.8,1.4V231.4z M149.5,232.3
		l-0.9-0.1c-1-0.1-1.2-0.2-1.2-1.6v-16c-1,0.3-2.8,0.8-4.2,0.9v0.6c1.9,0.1,2.1,0.2,2.1,2v3.8c-0.6-0.2-1.4-0.3-1.8-0.3
		c-3.6,0-6.9,2.9-6.9,6.6c0,3.8,2.8,5.7,5,5.7c0.3,0,1-0.2,2.1-0.8l1.6-1v1.7c1.6-0.6,3.6-0.9,4.2-1V232.3z M130.2,222.6
		c1.5,0,2.4,1.3,2.4,2.7c0,0.4-0.2,0.5-0.6,0.5c-1.6,0.1-3,0.1-4.5,0.1C127.8,223.7,129,222.6,130.2,222.6 M134.3,230.8
		c-1,0.9-2,1.3-3.1,1.3c-1.9,0-4-1.5-4-5.1c3.2-0.1,6.5-0.4,7-0.5c0.5-0.1,0.6-0.3,0.6-0.9c0-2.1-1.8-4.1-4-4.1
		c-1.4,0-2.8,0.7-3.9,2c-1.1,1.2-1.8,2.8-1.8,4.7c0,3,1.9,5.7,5.2,5.7c0.8,0,2.7-0.5,4.4-2.6L134.3,230.8z M123.2,230l-0.3,0.6
		c-1,1.6-1.6,2.2-3.6,2.2h-2.7c2.2-3.6,4.3-7,6.5-10.5l-0.2-0.4h-6.2c-1,0-1.3-0.2-1.5-0.6h-0.6c-0.2,1.2-0.6,2.9-0.9,3.9l0.7,0.2
		l0.4-0.7c0.8-1.5,1.1-1.9,3-1.9h2.4c-2.2,3.6-4.4,7-6.7,10.4l0.2,0.4h8.8c0.4-1.1,0.8-2.3,1.2-3.4L123.2,230z M112.4,233.7V233
		c-1.7-0.2-1.9-0.3-1.9-2.1v-9.2c-1.2,0.5-2.4,0.8-3.8,1v0.6c1.6,0.3,1.7,0.4,1.7,2v5.5c0,1.8-0.2,2-1.9,2.1v0.7H112.4z
		 M109.3,219.3c0.8,0,1.4-0.6,1.4-1.4c0-0.8-0.6-1.4-1.3-1.4c-0.7,0-1.4,0.6-1.4,1.4C108,218.6,108.6,219.3,109.3,219.3 M92.9,233.7
		V233c-1.7-0.2-1.9-0.3-1.9-2.1v-16.3c-0.9,0.3-2.6,0.8-4,0.9v0.6c1.7,0.1,1.8,0.2,1.8,2v12.7c0,1.8-0.2,1.9-1.9,2.1v0.7H92.9z
		 M82,231.4c-0.5,0.5-1.4,0.9-2.1,1c-0.8,0-1.9-0.7-1.9-2.1c0-1,0.6-1.5,1.6-2c0.6-0.3,1.8-0.8,2.4-1.1V231.4z M86.3,232.6l-0.3-0.7
		c-0.3,0.2-0.6,0.3-1,0.3c-0.5,0-0.9-0.4-0.9-1.6v-5c0-1.4-0.3-2.5-1.2-3.3c-0.6-0.5-1.4-0.7-2.2-0.7c-1.5,0.3-3.3,1.3-4,1.9
		c-0.5,0.4-0.9,0.7-0.9,1.1c0,0.6,0.7,1.2,1.2,1.2c0.4,0,0.7-0.2,0.8-0.6c0.2-0.8,0.5-1.4,0.8-1.8c0.3-0.3,0.7-0.5,1.2-0.5
		c1.3,0,2.3,1.1,2.3,3v0.5c-0.6,0.5-2.5,1.2-4.2,1.7c-1.5,0.5-2.2,1.3-2.2,2.7c0,1.7,1.3,3.3,3.2,3.3c0.8,0,2.1-1,3.2-1.7
		c0.1,0.5,0.3,0.8,0.6,1.2c0.3,0.3,0.9,0.5,1.3,0.5L86.3,232.6z M74.2,232.3l-0.8-0.1c-1-0.1-1.2-0.2-1.2-1.6v-9
		c-1.4,0.3-2.8,0.4-4.2,0.5v0.6c1.9,0.3,2.1,0.4,2.1,1.9v6.2c-0.9,0.9-1.9,1.3-2.9,1.3c-1.2,0-2.4-0.6-2.4-3v-3.6
		c0-1.8,0-3.1,0.1-3.9c-1.3,0.2-2.6,0.4-3.8,0.5v0.6c1.5,0.3,1.6,0.4,1.6,1.9v5.3c0,2.9,1.5,4,3.3,4c0.7,0,1.3-0.2,2.1-0.7
		c0.8-0.5,1.4-0.9,2-1.4v1.9l0.2,0.2c1.3-0.4,2.7-0.8,3.9-1V232.3z M56.6,232c-0.5,0.2-1.2,0.4-2,0.4c-2,0-4.2-1.8-4.2-5
		c0-3.2,1.8-4.8,3.6-4.8c0.9,0,2,0.4,2.6,1.1V232z M60.7,240.1v-0.7c-1.9-0.2-2.1-0.3-2.1-2.2v-12.5c0-1.8,0.1-2.3,0.1-2.9l-0.1-0.1
		c-0.4,0.2-0.8,0.3-0.9,0.3c-0.2,0-0.4,0-0.7-0.1c-0.3-0.1-0.9-0.3-1.9-0.3c-3.7,0-7.2,2.9-7.2,6.7c0,2.6,1.8,5.6,5.8,5.6l2.8-1.1
		v4.3c0,1.9-0.2,2-2.3,2.2v0.7H60.7z M41.4,222.6c1.5,0,2.4,1.3,2.4,2.7c0,0.4-0.2,0.5-0.6,0.5c-1.6,0.1-3,0.1-4.5,0.1
		C39,223.7,40.2,222.6,41.4,222.6 M45.5,230.8c-1,0.9-2,1.3-3.1,1.3c-1.9,0-4-1.5-4-5.1c3.2-0.1,6.5-0.4,7-0.5
		c0.5-0.1,0.6-0.3,0.6-0.9c0-2.1-1.8-4.1-4-4.1c-1.4,0-2.8,0.7-3.9,2c-1.1,1.2-1.8,2.8-1.8,4.7c0,3,1.9,5.7,5.2,5.7
		c0.8,0,2.7-0.5,4.4-2.6L45.5,230.8z"/>
	<path class="st1" d="M260,189.8h-4.9v0.7c1.5,0.2,1.7,0.5,1.4,1.5c-0.6,1.7-1.7,4.9-2.5,6.7l-2.4-6.7c-0.3-1-0.2-1.3,1-1.5v-0.7
		h-5.4v0.7c1.5,0.2,1.7,0.6,2.3,2c0.8,1.9,2,5.1,3.1,8.2c0.2,0.5,0.2,0.8,0,1.2c-0.1,0.3-0.3,0.9-0.8,1.8c-0.6,1.2-1.2,1.8-2,2.4
		c-0.5,0.3-0.7,0.5-0.7,1c0,0.6,0.8,1.3,1.5,1.3c0.4,0,0.7-0.1,0.9-0.6c0.4-1.4,1-3,2.8-7.3c1.8-4.4,2.7-6.6,3.4-8.1
		c0.7-1.5,1-1.7,2.4-2V189.8z M247,201.5v-0.7c-1.7-0.2-1.9-0.3-1.9-2.1v-16.3c-0.9,0.3-2.6,0.8-4,0.9v0.6c1.7,0.1,1.8,0.2,1.8,2
		v12.7c0,1.8-0.2,1.9-1.9,2.1v0.7H247z M240.1,201.5v-0.7c-1.7-0.2-1.9-0.3-1.9-2.1v-16.3c-0.9,0.3-2.6,0.8-4,0.9v0.6
		c1.7,0.1,1.8,0.2,1.8,2v12.7c0,1.8-0.2,1.9-1.9,2.1v0.7H240.1z M229.2,199.2c-0.5,0.5-1.4,0.9-2.1,1c-0.8,0-1.9-0.7-1.9-2.1
		c0-1,0.6-1.5,1.6-2c0.6-0.3,1.8-0.8,2.4-1.1V199.2z M233.4,200.4l-0.3-0.7c-0.3,0.2-0.6,0.3-1,0.3c-0.5,0-0.9-0.4-0.9-1.6v-5
		c0-1.4-0.3-2.5-1.2-3.3c-0.6-0.5-1.4-0.7-2.2-0.7c-1.5,0.3-3.3,1.3-4,1.9c-0.5,0.4-0.9,0.7-0.9,1.1c0,0.6,0.7,1.2,1.2,1.2
		c0.4,0,0.7-0.2,0.8-0.6c0.2-0.8,0.5-1.4,0.8-1.8c0.3-0.3,0.7-0.5,1.2-0.5c1.3,0,2.3,1.1,2.3,3v0.5c-0.6,0.5-2.5,1.2-4.2,1.7
		c-1.5,0.5-2.2,1.3-2.2,2.7c0,1.7,1.3,3.3,3.2,3.3c0.8,0,2.1-1,3.2-1.7c0.1,0.5,0.3,0.8,0.6,1.2c0.3,0.3,0.9,0.5,1.3,0.5
		L233.4,200.4z M221.4,200.2l-0.8-0.1c-1-0.1-1.2-0.2-1.2-1.6v-9c-1.4,0.3-2.8,0.4-4.2,0.5v0.6c1.9,0.3,2.1,0.4,2.1,1.9v6.2
		c-0.9,0.9-1.9,1.3-2.9,1.3c-1.2,0-2.4-0.6-2.4-3v-3.6c0-1.8,0-3.1,0.1-3.9c-1.3,0.2-2.6,0.4-3.8,0.5v0.6c1.5,0.3,1.6,0.4,1.6,1.9
		v5.3c0,2.9,1.5,4,3.3,4c0.7,0,1.3-0.2,2.1-0.7c0.8-0.5,1.4-0.9,2-1.4v1.9l0.2,0.2c1.3-0.4,2.7-0.8,3.9-1V200.2z M206.4,192.8
		c-0.1-0.7-0.4-2.3-0.6-2.9c-0.6-0.2-1.3-0.5-2.4-0.5c-2.5,0-4.1,1.6-4.1,3.5c0,2.1,1.7,2.9,3.4,3.7c1.3,0.6,2.1,1.3,2.1,2.4
		c0,1.1-0.9,1.9-1.9,1.9c-1.6,0-2.8-1.6-3.3-3.3l-0.7,0.1c0,1,0.2,2.8,0.4,3.2c0.5,0.4,1.7,0.9,3.1,0.9c2.1,0,4.4-1.3,4.4-3.7
		c0-1.8-1.4-2.8-3.4-3.6c-1.2-0.5-2.3-1.1-2.3-2.3c0-1,0.7-1.8,1.7-1.8c1.3,0,2.3,1.1,2.8,2.7L206.4,192.8z M197.4,201.5v-0.7
		c-1.7-0.2-1.9-0.3-1.9-2.1v-9.2c-1.2,0.5-2.4,0.8-3.8,1v0.6c1.6,0.3,1.7,0.4,1.7,2v5.5c0,1.8-0.2,2-1.9,2.1v0.7H197.4z
		 M194.3,187.1c0.8,0,1.4-0.6,1.4-1.4c0-0.8-0.6-1.4-1.3-1.4c-0.7,0-1.4,0.6-1.4,1.4C193,186.5,193.6,187.1,194.3,187.1 M191,189.8
		h-4.8v0.7c1.5,0.2,1.7,0.5,1.3,1.8c-0.6,1.7-1.4,4.2-2.4,6.4c-0.8-1.9-1.8-4.7-2.5-6.6c-0.4-1.2-0.4-1.4,1.1-1.6v-0.7h-5.5v0.7
		c1.4,0.2,1.7,0.4,2.3,2c1.3,3.1,2.5,6.2,3.7,9.4h0.7c1.5-4,2.9-7.3,3.8-9.3c0.7-1.6,1-1.8,2.4-2V189.8z M170.9,192.8
		c-0.1-0.7-0.4-2.3-0.6-2.9c-0.6-0.2-1.3-0.5-2.4-0.5c-2.5,0-4.1,1.6-4.1,3.5c0,2.1,1.7,2.9,3.4,3.7c1.3,0.6,2.1,1.3,2.1,2.4
		c0,1.1-0.9,1.9-1.9,1.9c-1.6,0-2.8-1.6-3.3-3.3l-0.7,0.1c0,1,0.2,2.8,0.4,3.2c0.5,0.4,1.7,0.9,3.1,0.9c2.1,0,4.4-1.3,4.4-3.7
		c0-1.8-1.4-2.8-3.4-3.6c-1.2-0.5-2.3-1.1-2.3-2.3c0-1,0.7-1.8,1.7-1.8c1.3,0,2.3,1.1,2.8,2.7L170.9,192.8z M156.9,190.4
		c1.5,0,2.4,1.3,2.4,2.7c0,0.4-0.2,0.5-0.6,0.5c-1.6,0.1-3,0.1-4.5,0.1C154.5,191.6,155.7,190.4,156.9,190.4 M161,198.6
		c-1,0.9-2,1.3-3.1,1.3c-1.9,0-4-1.5-4-5.1c3.2-0.1,6.5-0.4,7-0.5c0.5-0.1,0.6-0.3,0.6-0.9c0-2.1-1.8-4.1-4-4.1
		c-1.4,0-2.8,0.7-3.9,2c-1.1,1.2-1.8,2.8-1.8,4.7c0,3,1.9,5.7,5.2,5.7c0.8,0,2.7-0.5,4.4-2.6L161,198.6z M150.4,201.5v-0.7
		c-1.5-0.2-1.7-0.3-1.7-2.1v-5.2c0-2.6-1.3-4.1-3.4-4.1c-0.8,0-1.4,0.3-2,0.7c-0.7,0.4-1.4,0.9-2.2,1.5c-0.5-1.4-1.7-2.2-3-2.2
		c-0.9,0-1.5,0.3-2.2,0.7c-0.8,0.5-1.4,1-2,1.4v-2.2c-1.2,0.5-2.5,0.9-3.7,1.1v0.6c1.6,0.2,1.6,0.4,1.6,2.1v5.5c0,1.7-0.2,1.9-2,2.1
		v0.7h5.7v-0.7c-1.3-0.2-1.5-0.3-1.5-2.1v-6.3c0.8-0.7,1.8-1.4,2.9-1.4c1.6,0,2.3,1.1,2.3,3.1v4.6c0,1.8-0.2,1.9-1.9,2.1v0.7h5.7
		v-0.7c-1.5-0.2-1.7-0.3-1.7-2v-5.2c0-0.5,0-0.8-0.1-1.1c1-0.9,2-1.4,3-1.4c1.7,0,2.4,1.2,2.4,3.1v4.5c0,1.9-0.3,2-1.9,2.2v0.7
		H150.4z M122.3,190.3c2.3,0,3.6,2.5,3.6,5.7c0,3.7-1.4,4.9-3,4.9c-2.2,0-3.7-2.5-3.7-5.9C119.2,192,120.6,190.3,122.3,190.3
		 M122.5,189.4c-2.4,0-5.9,2-5.9,6.4c0,3,2.2,5.9,5.9,5.9c2.7,0,5.8-2.1,5.8-6.4C128.4,192.1,125.9,189.4,122.5,189.4 M114.8,198.5
		c-1.2,1.2-2.1,1.5-3.3,1.5c-1.5,0-4-1.2-4-5c0-2.8,1.6-4.3,3.3-4.3c0.9,0,1.9,0.3,2.7,1.1c0.2,0.2,0.4,0.3,0.5,0.3
		c0.3,0,0.9-0.6,0.9-1.2c0-0.3-0.1-0.5-0.4-0.8c-0.4-0.3-1.3-0.7-2.4-0.7c-1,0-2.7,0.4-4,1.5c-1.8,1.4-2.7,3.2-2.7,5.3
		c0,2.9,2,5.6,5.4,5.6c1.6,0,3.4-1.2,4.6-2.7L114.8,198.5z M55.3,190.4c1.5,0,2.4,1.3,2.4,2.7c0,0.4-0.2,0.5-0.6,0.5
		c-1.6,0.1-3,0.1-4.5,0.1C52.9,191.6,54.1,190.4,55.3,190.4 M59.4,198.6c-1,0.9-2,1.3-3.1,1.3c-1.9,0-4-1.5-4-5.1
		c3.2-0.1,6.5-0.4,7-0.5c0.5-0.1,0.6-0.3,0.6-0.9c0-2.1-1.8-4.1-4-4.1c-1.4,0-2.8,0.7-3.9,2c-1.1,1.2-1.8,2.8-1.8,4.7
		c0,3,1.9,5.7,5.2,5.7c0.8,0,2.7-0.5,4.4-2.6L59.4,198.6z M39.5,191.5c0.5-0.3,1.3-0.5,2.1-0.5c2.2,0,4.1,1.8,4.1,4.8
		c0,3.1-1.4,5-3.6,5c-1.4,0-2.2-1-2.4-1.5c-0.1-0.2-0.2-0.5-0.2-0.9V191.5z M39.5,190.7v-8.3c-1,0.3-2.6,0.8-3.9,0.9v0.6
		c1.7,0.2,1.8,0.3,1.8,2v14.9c1.5,0.7,2.8,1,3.9,1c3.6,0,6.7-2.8,6.7-6.7c0-3.2-2.4-5.6-5.3-5.6c-0.3,0-0.7,0.1-1.1,0.3L39.5,190.7z
		"/>
	<path class="st1" d="M246.3,158.3c1.5,0,2.4,1.3,2.4,2.7c0,0.4-0.2,0.5-0.6,0.5c-1.6,0.1-3,0.1-4.5,0.1
		C243.9,159.4,245.1,158.3,246.3,158.3 M250.4,166.5c-1,0.9-2,1.3-3.1,1.3c-1.9,0-4-1.5-4-5.1c3.2-0.1,6.5-0.4,7-0.5
		c0.5-0.1,0.6-0.3,0.6-0.9c0-2.1-1.8-4.1-4-4.1c-1.4,0-2.8,0.7-3.9,2c-1.1,1.2-1.8,2.8-1.8,4.7c0,3,1.9,5.7,5.2,5.7
		c0.8,0,2.7-0.5,4.4-2.6L250.4,166.5z M239.4,166.3c-1.2,1.2-2.1,1.5-3.3,1.5c-1.5,0-4-1.2-4-5c0-2.8,1.6-4.3,3.3-4.3
		c0.9,0,1.9,0.3,2.7,1.1c0.2,0.2,0.4,0.3,0.5,0.3c0.3,0,0.9-0.6,0.9-1.2c0-0.3-0.1-0.5-0.4-0.8c-0.4-0.3-1.3-0.7-2.4-0.7
		c-1,0-2.7,0.4-4,1.5c-1.8,1.4-2.7,3.2-2.7,5.3c0,2.9,2,5.6,5.4,5.6c1.6,0,3.4-1.2,4.6-2.7L239.4,166.3z M224.5,167.1
		c-0.5,0.5-1.4,0.9-2.1,1c-0.8,0-1.9-0.7-1.9-2.1c0-1,0.6-1.5,1.6-2c0.6-0.3,1.8-0.8,2.4-1.1V167.1z M228.8,168.3l-0.3-0.7
		c-0.3,0.2-0.6,0.3-1,0.3c-0.5,0-0.9-0.4-0.9-1.6v-5c0-1.4-0.3-2.5-1.2-3.3c-0.6-0.5-1.4-0.7-2.2-0.7c-1.5,0.3-3.3,1.3-4,1.9
		c-0.5,0.4-0.9,0.7-0.9,1.1c0,0.6,0.7,1.2,1.2,1.2c0.4,0,0.7-0.2,0.8-0.6c0.2-0.8,0.5-1.4,0.8-1.8c0.3-0.3,0.7-0.5,1.2-0.5
		c1.3,0,2.3,1.1,2.3,3v0.5c-0.6,0.5-2.5,1.2-4.2,1.7c-1.5,0.5-2.2,1.3-2.2,2.7c0,1.7,1.3,3.3,3.2,3.3c0.8,0,2.1-1,3.2-1.7
		c0.1,0.5,0.3,0.8,0.6,1.2c0.3,0.3,0.9,0.5,1.3,0.5L228.8,168.3z M207.5,160c0.7-0.5,1.8-1.1,2.7-1.1c2,0,3.6,1.6,3.6,4.5
		c0,3-1.5,5-3.8,5c-0.9,0-1.9-0.4-2.5-1V160z M207.5,159.1V157c-1.3,0.5-2.8,1-3.9,1.2v0.6c1.7,0.2,1.8,0.3,1.8,2v12.1
		c0,1.8-0.2,1.9-2,2.1v0.7h6.4V175c-2.1-0.2-2.3-0.3-2.3-2.4v-3.5c0.3,0.2,1.1,0.5,1.8,0.5c3.5-0.6,6.7-3.2,6.7-7.3
		c0-2.7-1.8-5.1-4.7-5.1c-0.3,0-0.8,0.1-1.3,0.4L207.5,159.1z M201.8,160.6c-0.1-0.7-0.4-2.3-0.6-2.9c-0.6-0.2-1.3-0.5-2.4-0.5
		c-2.5,0-4.1,1.6-4.1,3.5c0,2.1,1.7,2.9,3.4,3.7c1.3,0.6,2.1,1.3,2.1,2.4c0,1.1-0.9,1.9-1.9,1.9c-1.6,0-2.8-1.6-3.3-3.3l-0.7,0.1
		c0,1,0.2,2.8,0.4,3.2c0.5,0.4,1.7,0.9,3.1,0.9c2.1,0,4.4-1.3,4.4-3.7c0-1.8-1.4-2.8-3.4-3.6c-1.2-0.5-2.3-1.1-2.3-2.3
		c0-1,0.7-1.8,1.7-1.8c1.3,0,2.3,1.1,2.8,2.7L201.8,160.6z M181.8,158.3c1.5,0,2.4,1.3,2.4,2.7c0,0.4-0.2,0.5-0.6,0.5
		c-1.6,0.1-3,0.1-4.5,0.1C179.4,159.4,180.6,158.3,181.8,158.3 M185.9,166.5c-1,0.9-2,1.3-3.1,1.3c-1.9,0-4-1.5-4-5.1
		c3.2-0.1,6.5-0.4,7-0.5c0.5-0.1,0.6-0.3,0.6-0.9c0-2.1-1.8-4.1-4-4.1c-1.4,0-2.8,0.7-3.9,2c-1.1,1.2-1.8,2.8-1.8,4.7
		c0,3,1.9,5.7,5.2,5.7c0.8,0,2.7-0.5,4.4-2.6L185.9,166.5z M175.8,168.4l-0.2-0.7c-0.4,0.2-1,0.5-1.7,0.5c-0.7,0-1.6-0.4-1.6-2.6
		v-6.9h2.9c0.3-0.2,0.4-0.8,0.2-1h-3v-3.7l-0.4-0.1l-1.7,1.8v2h-1.2l-0.7,0.8l0.1,0.3h1.8v7.8c0,2.1,0.9,3.2,2.6,3.2
		c0.2,0,0.7-0.1,1.1-0.3L175.8,168.4z M167.7,169.3v-0.7c-1.7-0.2-1.9-0.3-1.9-2.1v-9.2c-1.2,0.5-2.4,0.8-3.8,1v0.6
		c1.6,0.3,1.7,0.4,1.7,2v5.5c0,1.8-0.2,2-1.9,2.1v0.7H167.7z M164.5,154.9c0.8,0,1.4-0.6,1.4-1.4c0-0.8-0.6-1.4-1.3-1.4
		c-0.7,0-1.4,0.6-1.4,1.4C163.2,154.3,163.8,154.9,164.5,154.9 M145.6,169.3v-0.7c-1.6-0.1-1.8-0.3-1.8-2.1v-4.7
		c0-3.2-1.5-4.6-3.7-4.6c-1.4,0-2.9,1-3.8,2v-9c-1,0.3-2.7,0.8-3.9,0.9v0.6c1.8,0.2,1.8,0.3,1.8,2v12.8c0,1.8-0.2,1.9-1.8,2.1v0.7
		h5.7v-0.7c-1.6-0.2-1.7-0.3-1.7-2.1v-6.4c0.8-0.9,1.8-1.4,2.8-1.4c1.8,0,2.6,1.1,2.6,3.3v4.5c0,1.7-0.2,1.9-1.8,2.1v0.7H145.6z
		 M132,157.6h-4.9v0.7c1.7,0.2,1.9,0.4,1.6,1.8c-0.5,2-1.2,4.3-1.8,6.2h-0.1c-1.1-2.9-2.2-5.7-3.2-8.5h-0.7
		c-1.1,3.1-2.1,5.8-3.1,8.4h-0.1c-0.7-2.1-1.3-4.2-2-6.2c-0.4-1.2-0.3-1.4,1.3-1.6v-0.7h-5.5v0.7c1.3,0.2,1.5,0.4,2,1.8
		c1.1,3.2,2.1,6.4,3.1,9.6h0.8c1-3,2.1-5.7,3.2-8.3c1.1,2.8,2.2,5.4,3.3,8.3h0.8c1.2-3.6,2.4-7.2,3.2-9.3c0.6-1.5,0.8-1.8,2.1-2
		V157.6z M107,168.4l-0.2-0.7c-0.4,0.2-1,0.5-1.7,0.5c-0.7,0-1.6-0.4-1.6-2.6v-6.9h2.9c0.3-0.2,0.4-0.8,0.2-1h-3v-3.7l-0.4-0.1
		l-1.7,1.8v2h-1.2l-0.7,0.8l0.1,0.3h1.8v7.8c0,2.1,0.9,3.2,2.6,3.2c0.2,0,0.7-0.1,1.1-0.3L107,168.4z M95.1,167.1
		c-0.5,0.5-1.4,0.9-2.1,1c-0.8,0-1.9-0.7-1.9-2.1c0-1,0.6-1.5,1.6-2c0.6-0.3,1.8-0.8,2.4-1.1V167.1z M99.4,168.3l-0.3-0.7
		c-0.3,0.2-0.6,0.3-1,0.3c-0.5,0-0.9-0.4-0.9-1.6v-5c0-1.4-0.3-2.5-1.2-3.3c-0.6-0.5-1.4-0.7-2.2-0.7c-1.5,0.3-3.3,1.3-4,1.9
		c-0.5,0.4-0.9,0.7-0.9,1.1c0,0.6,0.7,1.2,1.2,1.2c0.4,0,0.7-0.2,0.8-0.6c0.2-0.8,0.5-1.4,0.8-1.8c0.3-0.3,0.7-0.5,1.2-0.5
		c1.3,0,2.3,1.1,2.3,3v0.5c-0.6,0.5-2.5,1.2-4.2,1.7c-1.5,0.5-2.2,1.3-2.2,2.7c0,1.7,1.3,3.3,3.2,3.3c0.8,0,2.1-1,3.2-1.7
		c0.1,0.5,0.3,0.8,0.6,1.2c0.3,0.3,0.9,0.5,1.3,0.5L99.4,168.3z M87.3,169.3v-0.7c-1.6-0.1-1.8-0.3-1.8-2.1v-4.7
		c0-3.2-1.5-4.6-3.7-4.6c-1.4,0-2.9,1-3.8,2v-9c-1,0.3-2.7,0.8-3.9,0.9v0.6c1.8,0.2,1.8,0.3,1.8,2v12.8c0,1.8-0.2,1.9-1.8,2.1v0.7
		h5.7v-0.7c-1.6-0.2-1.7-0.3-1.7-2.1v-6.4c0.8-0.9,1.8-1.4,2.8-1.4c1.8,0,2.6,1.1,2.6,3.3v4.5c0,1.7-0.2,1.9-1.8,2.1v0.7H87.3z
		 M73.2,168.4l-0.2-0.7c-0.4,0.2-1,0.5-1.7,0.5s-1.6-0.4-1.6-2.6v-6.9h2.9c0.3-0.2,0.4-0.8,0.2-1h-3v-3.7l-0.4-0.1l-1.7,1.8v2h-1.2
		l-0.7,0.8l0.1,0.3h1.8v7.8c0,2.1,0.9,3.2,2.6,3.2c0.2,0,0.7-0.1,1.1-0.3L73.2,168.4z M52,158.2c2.3,0,3.6,2.5,3.6,5.7
		c0,3.7-1.4,4.9-3,4.9c-2.2,0-3.7-2.5-3.7-5.9C48.9,159.8,50.4,158.2,52,158.2 M52.3,157.3c-2.4,0-5.9,2-5.9,6.4
		c0,3,2.2,5.9,5.9,5.9c2.7,0,5.8-2.1,5.8-6.4C58.1,159.9,55.6,157.3,52.3,157.3 M44,160.6c-0.1-0.7-0.4-2.3-0.6-2.9
		c-0.6-0.2-1.3-0.5-2.4-0.5c-2.5,0-4.1,1.6-4.1,3.5c0,2.1,1.7,2.9,3.4,3.7c1.3,0.6,2.1,1.3,2.1,2.4c0,1.1-0.9,1.9-1.9,1.9
		c-1.6,0-2.8-1.6-3.3-3.3l-0.7,0.1c0,1,0.2,2.8,0.4,3.2c0.5,0.4,1.7,0.9,3.1,0.9c2.1,0,4.4-1.3,4.4-3.7c0-1.8-1.4-2.8-3.4-3.6
		c-1.2-0.5-2.3-1.1-2.3-2.3c0-1,0.7-1.8,1.7-1.8c1.3,0,2.3,1.1,2.8,2.7L44,160.6z"/>
	<path class="st1" d="M282.4,133.7c-0.6,0-1.3,0.4-1.3,1.1c0,0.5,0.2,0.6,0.3,0.7c0.9,0.2,1.7,0.8,1.7,1.8c0,1-0.8,1.7-2.1,2.3
		l0.3,0.8c1.6-0.5,3.5-1.6,3.5-3.7C284.8,134.7,283.3,133.7,282.4,133.7 M273.7,137.4c1.1,0,1.9,0.1,2.6,0.3c0.8,0.3,1.2,1,1.2,1.9
		c0,1.7-1.3,3-3.9,3c-2,0-3.5-1.1-3.5-2.5c0-0.8,0.5-1.5,1.2-2.1C271.8,137.6,272.4,137.4,273.7,137.4 M273.1,125.9
		c1.5,0,2.5,1.5,2.5,3.6c0,2.1-1,3.2-2.2,3.2c-1.5,0-2.5-1.5-2.5-3.6C270.9,127,272,125.9,273.1,125.9 M279.6,125.4
		c-1,0.2-2.3,0.3-3.6,0.4c-0.8-0.4-1.7-0.7-2.6-0.7c-2.1,0-4.8,1.4-4.8,4.5c0,1.8,1.2,3.1,2.4,3.6c-0.4,0.5-1.3,1.2-2.4,1.6
		c0,0.3,0.1,0.7,0.3,1.1c0.3,0.6,1,1.2,2,1.5c-0.6,0.5-1.7,1.3-2.2,1.9c-0.4,0.4-0.6,0.9-0.6,1.5c0,1.5,1.7,3.3,4.6,3.3
		c3.6,0,6.7-2.6,6.7-5.3c0-2.6-2.2-3.2-3.9-3.2c-0.9,0-1.9,0-2.8,0c-1.2,0-1.7-0.5-1.7-1c0-0.4,0.4-0.9,0.8-1.1
		c0.4,0.1,0.9,0.1,1.4,0.1c2.3,0,4.7-1.4,4.7-4.3c0-1-0.3-1.8-0.8-2.4l1.5,0.1c0.4-0.2,1-0.9,1.2-1.4L279.6,125.4z M266.8,137.1
		v-0.7c-1.6-0.2-1.7-0.3-1.7-2.1v-5.2c0-2.6-1.3-4.1-3.5-4.1c-0.8,0-1.5,0.3-2.2,0.8c-0.7,0.5-1.3,0.9-1.8,1.3V125
		c-1.2,0.5-2.4,0.9-3.7,1.1v0.6c1.4,0.3,1.6,0.3,1.6,2.1v5.5c0,1.8-0.1,1.9-2,2.1v0.7h5.8v-0.7c-1.6-0.2-1.7-0.3-1.7-2.1v-6.3
		c0.8-0.7,1.8-1.4,2.9-1.4c1.8,0,2.4,1.2,2.4,3.1v4.5c0,1.8-0.2,2.1-1.8,2.2v0.7H266.8z M252.4,137.1v-0.7c-1.7-0.2-1.9-0.3-1.9-2.1
		v-9.2c-1.2,0.5-2.4,0.8-3.8,1v0.6c1.6,0.3,1.7,0.4,1.7,2v5.5c0,1.8-0.2,2-1.9,2.1v0.7H252.4z M249.2,122.8c0.8,0,1.4-0.6,1.4-1.4
		c0-0.8-0.6-1.4-1.3-1.4c-0.7,0-1.4,0.6-1.4,1.4C247.9,122.1,248.5,122.8,249.2,122.8 M234.8,137.1v-0.7c-1.6-0.2-1.7-0.3-1.7-2.1
		v-5.2c0-2.6-1.3-4.1-3.5-4.1c-0.8,0-1.5,0.3-2.2,0.8c-0.7,0.5-1.3,0.9-1.8,1.3V125c-1.2,0.5-2.4,0.9-3.7,1.1v0.6
		c1.4,0.3,1.6,0.3,1.6,2.1v5.5c0,1.8-0.1,1.9-2,2.1v0.7h5.8v-0.7c-1.6-0.2-1.7-0.3-1.7-2.1v-6.3c0.8-0.7,1.8-1.4,2.9-1.4
		c1.8,0,2.4,1.2,2.4,3.1v4.5c0,1.8-0.2,2.1-1.8,2.2v0.7H234.8z M215.5,127.9V125c-1.3,0.6-2.5,0.9-3.8,1.1v0.6
		c1.5,0.2,1.7,0.3,1.7,2.1v5.5c0,1.8-0.2,1.9-1.8,2.1v0.7h6.2v-0.7c-2.1-0.2-2.2-0.3-2.2-2.1v-4.9c0.6-1.5,1.4-2.3,2.1-2.3
		c0.4,0,0.8,0.2,1.1,0.6c0.2,0.2,0.4,0.2,0.7,0.1c0.5-0.2,0.9-0.8,0.9-1.3c0-0.6-0.6-1.3-1.6-1.3
		C217.5,125.1,216.3,126.6,215.5,127.9L215.5,127.9z M205.3,126.1c1.5,0,2.4,1.3,2.4,2.7c0,0.4-0.2,0.5-0.6,0.5
		c-1.6,0.1-3,0.1-4.5,0.1C202.9,127.2,204.1,126.1,205.3,126.1 M209.4,134.3c-1,0.9-2,1.3-3.1,1.3c-1.9,0-4-1.5-4-5.1
		c3.2-0.1,6.5-0.4,7-0.5c0.5-0.1,0.6-0.3,0.6-0.9c0-2.1-1.8-4.1-4-4.1c-1.4,0-2.8,0.7-3.9,2c-1.1,1.2-1.8,2.8-1.8,4.7
		c0,3,1.9,5.7,5.2,5.7c0.8,0,2.7-0.5,4.4-2.6L209.4,134.3z M199.9,137.1v-0.7c-1-0.1-1.7-0.5-2.7-1.5c-0.9-0.9-3.6-4.1-4.2-4.9
		c1.2-1.3,1.6-1.9,2.3-2.5c1-1,1.6-1.3,3.5-1.6v-0.7l-5.5,0.2v0.7c1.3,0.1,1.3,0.3,0.8,1.2c-0.5,0.7-1.3,1.8-1.9,2.4
		c-0.4,0.4-0.9,0.8-1.7,0.9v-12.6c-1,0.3-2.6,0.8-3.9,0.9v0.6c1.6,0.2,1.8,0.3,1.8,2.1v12.7c0,1.7-0.2,1.9-2,2.1v0.7h6v-0.7
		c-1.7-0.2-2-0.3-2-2.1v-3c0.2-0.1,0.3-0.1,0.4-0.1c0.2,0,0.5,0.1,0.8,0.6c1.5,1.8,3.2,3.9,4.4,5.3L199.9,137.1z M180.6,125.4h-4.9
		v0.7c1.5,0.2,1.7,0.5,1.4,1.5c-0.6,1.7-1.7,4.9-2.5,6.7l-2.4-6.7c-0.3-1-0.2-1.3,1-1.5v-0.7h-5.4v0.7c1.5,0.2,1.7,0.6,2.3,2
		c0.8,1.9,2,5.1,3.1,8.2c0.2,0.5,0.2,0.8,0,1.2c-0.1,0.3-0.3,0.9-0.8,1.8c-0.6,1.2-1.2,1.8-2,2.4c-0.5,0.3-0.7,0.5-0.7,1
		c0,0.6,0.8,1.3,1.5,1.3c0.4,0,0.7-0.1,0.9-0.6c0.4-1.4,1-3,2.8-7.3c1.8-4.4,2.7-6.6,3.4-8.1c0.7-1.5,1-1.7,2.4-2V125.4z
		 M167.9,137.1v-0.7c-1.6-0.1-1.8-0.3-1.8-2.1v-4.7c0-3.2-1.5-4.6-3.7-4.6c-1.4,0-2.9,1-3.8,2v-9c-1,0.3-2.7,0.8-3.9,0.9v0.6
		c1.8,0.2,1.8,0.3,1.8,2v12.8c0,1.8-0.2,1.9-1.8,2.1v0.7h5.7v-0.7c-1.6-0.2-1.7-0.3-1.7-2.1V128c0.8-0.9,1.8-1.4,2.8-1.4
		c1.8,0,2.6,1.1,2.6,3.3v4.5c0,1.7-0.2,1.9-1.8,2.1v0.7H167.9z M153.8,136.2l-0.2-0.7c-0.4,0.2-1,0.5-1.7,0.5
		c-0.7,0-1.6-0.4-1.6-2.6v-6.9h2.9c0.3-0.2,0.4-0.8,0.2-1h-3v-3.7l-0.4-0.1l-1.7,1.8v2h-1.2l-0.7,0.8l0.1,0.3h1.8v7.8
		c0,2.1,0.9,3.2,2.6,3.2c0.2,0,0.7-0.1,1.1-0.3L153.8,136.2z M134.6,127.9V125c-1.3,0.6-2.5,0.9-3.8,1.1v0.6
		c1.5,0.2,1.7,0.3,1.7,2.1v5.5c0,1.8-0.2,1.9-1.8,2.1v0.7h6.2v-0.7c-2.1-0.2-2.2-0.3-2.2-2.1v-4.9c0.6-1.5,1.4-2.3,2.1-2.3
		c0.4,0,0.8,0.2,1.1,0.6c0.2,0.2,0.4,0.2,0.7,0.1c0.5-0.2,0.9-0.8,0.9-1.3c0-0.6-0.6-1.3-1.6-1.3
		C136.6,125.1,135.4,126.6,134.6,127.9L134.6,127.9z M129.4,135.8l-0.8-0.1c-1-0.1-1.2-0.2-1.2-1.6v-9c-1.4,0.3-2.8,0.4-4.2,0.5v0.6
		c1.9,0.3,2.1,0.4,2.1,1.9v6.2c-0.9,0.9-1.9,1.3-2.9,1.3c-1.2,0-2.4-0.6-2.4-3v-3.6c0-1.8,0-3.1,0.1-3.9c-1.3,0.2-2.6,0.4-3.8,0.5
		v0.6c1.5,0.3,1.6,0.4,1.6,1.9v5.3c0,2.9,1.5,4,3.3,4c0.7,0,1.3-0.2,2.1-0.7c0.8-0.5,1.4-0.9,2-1.4v1.9l0.2,0.2
		c1.3-0.4,2.7-0.8,3.9-1V135.8z M108.7,126c2.3,0,3.6,2.5,3.6,5.7c0,3.7-1.4,4.9-3,4.9c-2.2,0-3.7-2.5-3.7-5.9
		C105.6,127.7,107,126,108.7,126 M109,125.1c-2.4,0-5.9,2-5.9,6.4c0,3,2.2,5.9,5.9,5.9c2.7,0,5.8-2.1,5.8-6.4
		C114.8,127.8,112.3,125.1,109,125.1 M101.6,137.1v-0.7c-1.6-0.2-1.7-0.3-1.7-2.1v-5.2c0-2.6-1.3-4.1-3.5-4.1
		c-0.8,0-1.5,0.3-2.2,0.8c-0.7,0.5-1.3,0.9-1.8,1.3V125c-1.2,0.5-2.4,0.9-3.7,1.1v0.6c1.4,0.3,1.6,0.3,1.6,2.1v5.5
		c0,1.8-0.1,1.9-2,2.1v0.7h5.8v-0.7c-1.6-0.2-1.7-0.3-1.7-2.1v-6.3c0.8-0.7,1.8-1.4,2.9-1.4c1.8,0,2.4,1.2,2.4,3.1v4.5
		c0,1.8-0.2,2.1-1.8,2.2v0.7H101.6z M70.6,126c2.3,0,3.6,2.5,3.6,5.7c0,3.7-1.4,4.9-3,4.9c-2.2,0-3.7-2.5-3.7-5.9
		C67.5,127.7,68.9,126,70.6,126 M70.8,125.1c-2.4,0-5.9,2-5.9,6.4c0,3,2.2,5.9,5.9,5.9c2.7,0,5.8-2.1,5.8-6.4
		C76.6,127.8,74.2,125.1,70.8,125.1 M54.9,119.7h-7v0.8c2.1,0.2,2.3,0.3,2.3,2.5v4.3h-9.1V123c0-2.2,0.2-2.4,2.3-2.5v-0.8h-6.9v0.8
		c2.2,0.2,2.4,0.3,2.4,2.5v10.8c0,2.3-0.2,2.4-2.4,2.5v0.8h7.1v-0.8c-2.2-0.2-2.4-0.3-2.4-2.5v-5.4h9.1v5.4c0,2.3-0.2,2.4-2.5,2.5
		v0.8h7.2v-0.8c-2.2-0.2-2.4-0.3-2.4-2.5V123c0-2.2,0.2-2.4,2.4-2.5V119.7z"/>
</g>
</svg>
