<?xml version="1.0" encoding="utf-8"?>
<!-- Generator: Adobe Illustrator 21.0.2, SVG Export Plug-In . SVG Version: 6.00 Build 0)  -->
<!DOCTYPE svg PUBLIC "-//W3C//DTD SVG 1.1//EN" "http://www.w3.org/Graphics/SVG/1.1/DTD/svg11.dtd">
<svg version="1.1" id="Layer_1" xmlns="http://www.w3.org/2000/svg" xmlns:xlink="http://www.w3.org/1999/xlink" x="0px" y="0px"
	 viewBox="0 0 340.1 333.7" style="enable-background:new 0 0 340.1 333.7;" xml:space="preserve">
<style type="text/css">
	.st0{fill:#231F20;}
	.st1{clip-path:url(#SVGID_2_);fill:#FFFFFF;}
</style>
<rect y="0" class="st0" width="340.1" height="333.7"/>
<g>
	<defs>
		<rect id="SVGID_1_" y="0" width="340.1" height="333.7"/>
	</defs>
	<clipPath id="SVGID_2_">
		<use xlink:href="#SVGID_1_"  style="overflow:visible;"/>
	</clipPath>
	<path class="st1" d="M45.4,37.1c0.6,0,1.1-0.4,1.1-1.1c0-0.6-0.5-1.1-1.1-1.1c-0.6,0-1.1,0.5-1.1,1.1
		C44.3,36.7,44.8,37.1,45.4,37.1 M35.6,27.4c0.5-0.7,1.2-1.5,2.3-1.5c1,0,1.8,0.6,1.8,1.8c0,1.4-1.3,2.2-3.1,2.7l0.1,0.6
		c0.3-0.1,0.8-0.2,1.2-0.2c1.1,0,2.4,0.7,2.4,2.5c0,1.9-1,2.9-2.3,2.9c-1.1,0-1.9-0.5-2.4-1c-0.2-0.1-0.3-0.1-0.5,0
		c-0.2,0.1-0.4,0.4-0.4,0.6c0,0.2,0,0.4,0.3,0.7c0.2,0.2,1,0.7,1.9,0.7c1.4,0,5-1.4,5-4.5c0-1.4-1-2.6-2.7-2.9v0
		c0.6-0.4,1-0.7,1.3-1c0.4-0.4,0.6-0.8,0.6-1.4c0-1.5-1.1-2.5-2.9-2.5c-1,0-1.9,0.5-2.4,1.1L35.2,27L35.6,27.4z"/>
	<path class="st1" d="M159.8,217.2c0.1,0,0.3-0.1,0.3-0.3c0-0.1-0.1-0.3-0.3-0.3c-0.1,0-0.3,0.1-0.3,0.3
		C159.6,217.1,159.7,217.2,159.8,217.2 M159.7,215.1h-0.8v0.1c0.3,0,0.3,0.1,0.2,0.3c-0.1,0.3-0.3,0.8-0.4,1.1l-0.4-1.2
		c-0.1-0.2,0-0.2,0.2-0.3v-0.1h-0.9v0.1c0.3,0,0.3,0.1,0.4,0.3c0.1,0.3,0.3,0.9,0.5,1.4c0,0.1,0,0.1,0,0.2c0,0.1-0.1,0.2-0.1,0.3
		c-0.1,0.2-0.2,0.3-0.3,0.4c-0.1,0.1-0.1,0.1-0.1,0.2c0,0.1,0.1,0.2,0.3,0.2c0.1,0,0.1,0,0.1-0.1c0.1-0.2,0.2-0.5,0.5-1.2
		c0.3-0.8,0.5-1.1,0.6-1.4c0.1-0.3,0.2-0.3,0.4-0.3V215.1z M156,215.5c0.1-0.1,0.3-0.2,0.5-0.2c0.3,0,0.6,0.3,0.6,0.8
		c0,0.5-0.3,0.9-0.6,0.9c-0.2,0-0.3-0.1-0.4-0.2V215.5z M156,215.4V215c-0.2,0.1-0.5,0.2-0.7,0.2v0.1c0.3,0,0.3,0,0.3,0.3v2.1
		c0,0.3,0,0.3-0.3,0.4v0.1h1.1v-0.1c-0.4,0-0.4-0.1-0.4-0.4v-0.6c0.1,0,0.2,0.1,0.3,0.1c0.6-0.1,1.1-0.6,1.1-1.3
		c0-0.5-0.3-0.9-0.8-0.9c-0.1,0-0.1,0-0.2,0.1L156,215.4z M154,215.2c0.4,0,0.6,0.4,0.6,1c0,0.6-0.2,0.8-0.5,0.8
		c-0.4,0-0.6-0.4-0.6-1C153.5,215.5,153.8,215.2,154,215.2 M154.1,215.1c-0.4,0-1,0.3-1,1.1c0,0.5,0.4,1,1,1c0.5,0,1-0.4,1-1.1
		C155.1,215.5,154.7,215.1,154.1,215.1 M152.8,216.6c-0.2,0.2-0.4,0.3-0.6,0.3c-0.3,0-0.7-0.2-0.7-0.9c0-0.5,0.3-0.7,0.6-0.7
		c0.2,0,0.3,0.1,0.5,0.2c0,0,0.1,0.1,0.1,0.1c0.1,0,0.2-0.1,0.2-0.2c0-0.1,0-0.1-0.1-0.1c-0.1-0.1-0.2-0.1-0.4-0.1
		c-0.2,0-0.5,0.1-0.7,0.3c-0.3,0.2-0.5,0.5-0.5,0.9c0,0.5,0.3,1,0.9,1C152.3,217.2,152.6,217,152.8,216.6L152.8,216.6z M150,215.1
		h-0.8v0.1c0.3,0,0.3,0.1,0.2,0.3c-0.1,0.3-0.3,0.8-0.4,1.1l-0.4-1.2c-0.1-0.2,0-0.2,0.2-0.3v-0.1h-0.9v0.1c0.3,0,0.3,0.1,0.4,0.3
		c0.1,0.3,0.3,0.9,0.5,1.4c0,0.1,0,0.1,0,0.2c0,0.1-0.1,0.2-0.1,0.3c-0.1,0.2-0.2,0.3-0.3,0.4c-0.1,0.1-0.1,0.1-0.1,0.2
		c0,0.1,0.1,0.2,0.3,0.2c0.1,0,0.1,0,0.1-0.1c0.1-0.2,0.2-0.5,0.5-1.2c0.3-0.8,0.5-1.1,0.6-1.4c0.1-0.3,0.2-0.3,0.4-0.3V215.1z
		 M147.1,216.7c-0.1,0.1-0.3,0.2-0.4,0.2c-0.3,0-0.6-0.3-0.6-0.8c0-0.7,0.4-0.8,0.6-0.8c0.2,0,0.4,0.1,0.5,0.2V216.7z M147.8,216.9
		l-0.1,0c-0.2,0-0.2,0-0.2-0.3v-2.7c-0.2,0.1-0.5,0.1-0.7,0.2v0.1c0.3,0,0.4,0,0.4,0.3v0.6c-0.1,0-0.2-0.1-0.3-0.1
		c-0.6,0-1.2,0.5-1.2,1.1c0,0.6,0.5,1,0.9,1c0.1,0,0.2,0,0.4-0.1l0.3-0.2v0.3c0.3-0.1,0.6-0.2,0.7-0.2V216.9z M144.2,215.2
		c0.4,0,0.6,0.4,0.6,1c0,0.6-0.2,0.8-0.5,0.8c-0.4,0-0.6-0.4-0.6-1C143.6,215.5,143.9,215.2,144.2,215.2 M144.2,215.1
		c-0.4,0-1,0.3-1,1.1c0,0.5,0.4,1,1,1c0.5,0,1-0.4,1-1.1C145.2,215.5,144.8,215.1,144.2,215.1 M141.4,215.4c0.1-0.1,0.2-0.1,0.4-0.1
		c0.4,0,0.7,0.3,0.7,0.8c0,0.5-0.2,0.9-0.6,0.9c-0.2,0-0.4-0.2-0.4-0.3c0,0,0-0.1,0-0.2V215.4z M141.4,215.3v-1.4
		c-0.2,0.1-0.4,0.1-0.7,0.2v0.1c0.3,0,0.3,0.1,0.3,0.3v2.6c0.3,0.1,0.5,0.2,0.7,0.2c0.6,0,1.2-0.5,1.2-1.2c0-0.5-0.4-1-0.9-1
		c-0.1,0-0.1,0-0.2,0L141.4,215.3z M138.7,215.6v-0.5c-0.2,0.1-0.4,0.2-0.6,0.2v0.1c0.3,0,0.3,0.1,0.3,0.4v1c0,0.3,0,0.3-0.3,0.4
		v0.1h1.1V217c-0.4,0-0.4-0.1-0.4-0.4v-0.8c0.1-0.3,0.2-0.4,0.4-0.4c0.1,0,0.1,0,0.2,0.1c0,0,0.1,0,0.1,0c0.1,0,0.1-0.1,0.1-0.2
		c0-0.1-0.1-0.2-0.3-0.2C139.1,215.1,138.9,215.3,138.7,215.6L138.7,215.6z M136.8,215.2c0.4,0,0.6,0.4,0.6,1c0,0.6-0.2,0.8-0.5,0.8
		c-0.4,0-0.6-0.4-0.6-1C136.2,215.5,136.5,215.2,136.8,215.2 M136.8,215.1c-0.4,0-1,0.3-1,1.1c0,0.5,0.4,1,1,1c0.5,0,1-0.4,1-1.1
		C137.8,215.5,137.4,215.1,136.8,215.1 M134.6,215.1l-0.1,0.1l0,0h0.3v1.4c0,0.3,0,0.3-0.3,0.4v0.1h1.1V217c-0.4,0-0.4-0.1-0.4-0.4
		v-1.3h0.5c0.1,0,0.1-0.1,0-0.2h-0.5v-0.2c0-0.4,0-0.6,0.1-0.7c0.1-0.1,0.1-0.1,0.2-0.1c0.2,0,0.3,0.1,0.4,0.2c0,0,0.1,0,0.1,0
		c0,0,0.1-0.1,0.1-0.1c0-0.1,0-0.1,0-0.2c-0.1-0.1-0.2-0.2-0.4-0.2c-0.2,0-0.3,0.1-0.5,0.2c-0.2,0.2-0.3,0.4-0.4,0.5
		c0,0.1-0.1,0.2-0.1,0.4v0.1H134.6z M133.2,217l0-0.1c-0.1,0-0.2,0.1-0.3,0.1c-0.1,0-0.3-0.1-0.3-0.4v-1.2h0.5c0.1,0,0.1-0.1,0-0.2
		h-0.5v-0.6l-0.1,0l-0.3,0.3v0.3h-0.2l-0.1,0.1l0,0h0.3v1.3c0,0.4,0.2,0.5,0.4,0.5c0,0,0.1,0,0.2-0.1L133.2,217z M130.3,215.5
		c0.1-0.1,0.3-0.2,0.5-0.2c0.3,0,0.6,0.3,0.6,0.8c0,0.5-0.3,0.9-0.6,0.9c-0.2,0-0.3-0.1-0.4-0.2V215.5z M130.3,215.4V215
		c-0.2,0.1-0.5,0.2-0.7,0.2v0.1c0.3,0,0.3,0,0.3,0.3v2.1c0,0.3,0,0.3-0.3,0.4v0.1h1.1v-0.1c-0.4,0-0.4-0.1-0.4-0.4v-0.6
		c0.1,0,0.2,0.1,0.3,0.1c0.6-0.1,1.1-0.6,1.1-1.3c0-0.5-0.3-0.9-0.8-0.9c-0.1,0-0.1,0-0.2,0.1L130.3,215.4z M128.4,214.4
		c0.4,0,0.5,0.7,0.5,1.3c0,0.6-0.1,1.3-0.5,1.3c-0.4,0-0.5-0.7-0.5-1.3C127.9,215.1,128,214.4,128.4,214.4 M128.4,214.2
		c-0.7,0-0.9,0.8-0.9,1.5c0,0.7,0.2,1.5,0.9,1.5c0.7,0,0.9-0.8,0.9-1.5C129.3,215,129.1,214.2,128.4,214.2 M126.9,217.1V217
		c-0.4,0-0.4-0.1-0.4-0.4v-2.4c-0.3,0.1-0.5,0.2-0.8,0.2v0.1l0.2,0c0.2,0,0.2,0,0.2,0.3v1.8c0,0.3,0,0.4-0.4,0.4v0.1H126.9z
		 M122.8,215.2c0.4,0,0.6,0.4,0.6,1c0,0.6-0.2,0.8-0.5,0.8c-0.4,0-0.6-0.4-0.6-1C122.3,215.5,122.6,215.2,122.8,215.2 M122.9,215.1
		c-0.4,0-1,0.3-1,1.1c0,0.5,0.4,1,1,1c0.5,0,1-0.4,1-1.1C123.9,215.5,123.5,215.1,122.9,215.1 M121.7,217l0-0.1
		c-0.1,0-0.2,0.1-0.3,0.1c-0.1,0-0.3-0.1-0.3-0.4v-1.2h0.5c0.1,0,0.1-0.1,0-0.2h-0.5v-0.6l-0.1,0l-0.3,0.3v0.3h-0.2l-0.1,0.1l0,0
		h0.3v1.3c0,0.4,0.2,0.5,0.4,0.5c0,0,0.1,0,0.2-0.1L121.7,217z M119.3,217l0-0.1c-0.1,0-0.2,0.1-0.3,0.1c-0.1,0-0.3-0.1-0.3-0.4
		v-1.2h0.5c0.1,0,0.1-0.1,0-0.2h-0.5v-0.6l-0.1,0l-0.3,0.3v0.3h-0.2l-0.1,0.1l0,0h0.3v1.3c0,0.4,0.2,0.5,0.4,0.5c0,0,0.1,0,0.2-0.1
		L119.3,217z M116.3,215.5c0.1-0.1,0.3-0.2,0.5-0.2c0.3,0,0.6,0.3,0.6,0.8c0,0.5-0.3,0.9-0.6,0.9c-0.2,0-0.3-0.1-0.4-0.2V215.5z
		 M116.3,215.4V215c-0.2,0.1-0.5,0.2-0.7,0.2v0.1c0.3,0,0.3,0,0.3,0.3v2.1c0,0.3,0,0.3-0.3,0.4v0.1h1.1v-0.1c-0.4,0-0.4-0.1-0.4-0.4
		v-0.6c0.1,0,0.2,0.1,0.3,0.1c0.6-0.1,1.1-0.6,1.1-1.3c0-0.5-0.3-0.9-0.8-0.9c-0.1,0-0.1,0-0.2,0.1L116.3,215.4z M114.5,217
		c-0.3,0-0.6-0.2-0.6-0.7c0-0.3,0.2-0.5,0.4-0.6c0.4,0.2,0.7,0.4,0.7,0.7C115,216.8,114.7,217,114.5,217 M114.4,214.4
		c0.2,0,0.5,0.2,0.5,0.6c0,0.3-0.1,0.4-0.3,0.6c-0.3-0.2-0.6-0.3-0.6-0.7C114,214.6,114.1,214.4,114.4,214.4 M114.5,214.2
		c-0.5,0-0.8,0.4-0.8,0.8c0,0.3,0.2,0.5,0.5,0.7c-0.2,0.1-0.3,0.2-0.4,0.3c-0.1,0.1-0.2,0.2-0.2,0.4c0,0.5,0.4,0.8,0.9,0.8
		c0.4,0,0.9-0.3,0.9-0.8c0-0.4-0.3-0.6-0.6-0.8c0.2-0.1,0.3-0.3,0.4-0.3c0.1-0.1,0.1-0.2,0.1-0.4
		C115.2,214.5,114.9,214.2,114.5,214.2 M112.2,217.1V217c-0.3,0-0.3,0-0.3-0.4v-0.9c0-0.4-0.2-0.7-0.6-0.7c-0.1,0-0.3,0.1-0.4,0.1
		c-0.1,0.1-0.2,0.1-0.3,0.2v-0.4c-0.2,0.1-0.4,0.1-0.6,0.2v0.1c0.2,0,0.3,0.1,0.3,0.4v1c0,0.3,0,0.3-0.3,0.4v0.1h1V217
		c-0.3,0-0.3,0-0.3-0.4v-1.1c0.1-0.1,0.3-0.2,0.5-0.2c0.3,0,0.4,0.2,0.4,0.5v0.8c0,0.3,0,0.4-0.3,0.4v0.1H112.2z M109.1,216.8
		c-0.1,0.1-0.2,0.2-0.4,0.2c-0.1,0-0.3-0.1-0.3-0.4c0-0.2,0.1-0.3,0.3-0.3c0.1,0,0.3-0.1,0.4-0.2V216.8z M109.8,217l0-0.1
		c0,0-0.1,0.1-0.2,0.1c-0.1,0-0.2-0.1-0.2-0.3v-0.9c0-0.2,0-0.4-0.2-0.6c-0.1-0.1-0.2-0.1-0.4-0.1c-0.3,0.1-0.6,0.2-0.7,0.3
		c-0.1,0.1-0.1,0.1-0.1,0.2c0,0.1,0.1,0.2,0.2,0.2c0.1,0,0.1,0,0.1-0.1c0-0.1,0.1-0.2,0.1-0.3c0-0.1,0.1-0.1,0.2-0.1
		c0.2,0,0.4,0.2,0.4,0.5v0.1c-0.1,0.1-0.4,0.2-0.7,0.3c-0.3,0.1-0.4,0.2-0.4,0.5c0,0.3,0.2,0.6,0.6,0.6c0.1,0,0.4-0.2,0.5-0.3
		c0,0.1,0.1,0.1,0.1,0.2c0.1,0,0.1,0.1,0.2,0.1L109.8,217z M107.7,217.1V217c-0.3,0-0.3-0.1-0.3-0.4v-0.8c0-0.6-0.3-0.8-0.6-0.8
		c-0.2,0-0.5,0.2-0.7,0.3v-1.5c-0.2,0.1-0.5,0.1-0.7,0.2v0.1c0.3,0,0.3,0.1,0.3,0.3v2.2c0,0.3,0,0.3-0.3,0.4v0.1h1V217
		c-0.3,0-0.3-0.1-0.3-0.4v-1.1c0.1-0.1,0.3-0.2,0.5-0.2c0.3,0,0.5,0.2,0.5,0.6v0.8c0,0.3,0,0.3-0.3,0.4v0.1H107.7z M105.3,217l0-0.1
		c-0.1,0-0.2,0.1-0.3,0.1c-0.1,0-0.3-0.1-0.3-0.4v-1.2h0.5c0.1,0,0.1-0.1,0-0.2h-0.5v-0.6l-0.1,0l-0.3,0.3v0.3h-0.2l-0.1,0.1l0,0
		h0.3v1.3c0,0.4,0.2,0.5,0.4,0.5c0,0,0.1,0,0.2-0.1L105.3,217z M102,215.2c0.3,0,0.4,0.2,0.4,0.5c0,0.1,0,0.1-0.1,0.1
		c-0.3,0-0.5,0-0.8,0C101.5,215.4,101.8,215.2,102,215.2 M102.7,216.7c-0.2,0.2-0.3,0.2-0.5,0.2c-0.3,0-0.7-0.3-0.7-0.9
		c0.5,0,1.1-0.1,1.2-0.1c0.1,0,0.1-0.1,0.1-0.1c0-0.4-0.3-0.7-0.7-0.7c-0.2,0-0.5,0.1-0.7,0.3c-0.2,0.2-0.3,0.5-0.3,0.8
		c0,0.5,0.3,1,0.9,1C102.1,217.2,102.5,217.1,102.7,216.7L102.7,216.7z M100.8,216.5l-0.1,0.1c-0.2,0.3-0.3,0.4-0.6,0.4h-0.5
		c0.4-0.6,0.7-1.2,1.1-1.8l0-0.1h-1.1c-0.2,0-0.2,0-0.3-0.1h-0.1c0,0.2-0.1,0.5-0.2,0.7l0.1,0l0.1-0.1c0.1-0.3,0.2-0.3,0.5-0.3h0.4
		c-0.4,0.6-0.7,1.2-1.1,1.8l0,0.1h1.5c0.1-0.2,0.1-0.4,0.2-0.6L100.8,216.5z M98.9,217.1V217c-0.3,0-0.3-0.1-0.3-0.4v-1.6
		c-0.2,0.1-0.4,0.1-0.7,0.2v0.1c0.3,0,0.3,0.1,0.3,0.3v0.9c0,0.3,0,0.3-0.3,0.4v0.1H98.9z M98.4,214.7c0.1,0,0.2-0.1,0.2-0.2
		c0-0.1-0.1-0.2-0.2-0.2c-0.1,0-0.2,0.1-0.2,0.2C98.2,214.6,98.3,214.7,98.4,214.7 M97.5,215.6c0-0.1-0.1-0.4-0.1-0.5
		c-0.1,0-0.2-0.1-0.4-0.1c-0.4,0-0.7,0.3-0.7,0.6c0,0.4,0.3,0.5,0.6,0.6c0.2,0.1,0.4,0.2,0.4,0.4c0,0.2-0.2,0.3-0.3,0.3
		c-0.3,0-0.5-0.3-0.6-0.6l-0.1,0c0,0.2,0,0.5,0.1,0.5c0.1,0.1,0.3,0.2,0.5,0.2c0.4,0,0.8-0.2,0.8-0.6c0-0.3-0.2-0.5-0.6-0.6
		c-0.2-0.1-0.4-0.2-0.4-0.4c0-0.2,0.1-0.3,0.3-0.3c0.2,0,0.4,0.2,0.5,0.5L97.5,215.6z M94.1,215.2c0.3,0,0.4,0.2,0.4,0.5
		c0,0.1,0,0.1-0.1,0.1c-0.3,0-0.5,0-0.8,0C93.7,215.4,93.9,215.2,94.1,215.2 M94.8,216.7c-0.2,0.2-0.3,0.2-0.5,0.2
		c-0.3,0-0.7-0.3-0.7-0.9c0.5,0,1.1-0.1,1.2-0.1c0.1,0,0.1-0.1,0.1-0.1c0-0.4-0.3-0.7-0.7-0.7c-0.2,0-0.5,0.1-0.7,0.3
		c-0.2,0.2-0.3,0.5-0.3,0.8c0,0.5,0.3,1,0.9,1C94.3,217.2,94.6,217.1,94.8,216.7L94.8,216.7z M91.4,215.5c0.1-0.1,0.3-0.2,0.5-0.2
		c0.3,0,0.6,0.3,0.6,0.8c0,0.5-0.3,0.9-0.6,0.9c-0.2,0-0.3-0.1-0.4-0.2V215.5z M91.4,215.4V215c-0.2,0.1-0.5,0.2-0.7,0.2v0.1
		c0.3,0,0.3,0,0.3,0.3v2.1c0,0.3,0,0.3-0.3,0.4v0.1h1.1v-0.1c-0.4,0-0.4-0.1-0.4-0.4v-0.6c0.1,0,0.2,0.1,0.3,0.1
		c0.6-0.1,1.1-0.6,1.1-1.3c0-0.5-0.3-0.9-0.8-0.9c-0.1,0-0.1,0-0.2,0.1L91.4,215.4z M90.7,215.1h-0.8v0.1c0.3,0,0.3,0.1,0.2,0.3
		c-0.1,0.3-0.3,0.8-0.4,1.1l-0.4-1.2c-0.1-0.2,0-0.2,0.2-0.3v-0.1h-0.9v0.1c0.3,0,0.3,0.1,0.4,0.3c0.1,0.3,0.3,0.9,0.5,1.4
		c0,0.1,0,0.1,0,0.2c0,0.1-0.1,0.2-0.1,0.3c-0.1,0.2-0.2,0.3-0.3,0.4c-0.1,0.1-0.1,0.1-0.1,0.2c0,0.1,0.1,0.2,0.3,0.2
		c0.1,0,0.1,0,0.1-0.1c0.1-0.2,0.2-0.5,0.5-1.2c0.3-0.8,0.5-1.1,0.6-1.4c0.1-0.3,0.2-0.3,0.4-0.3V215.1z M88.5,217l0-0.1
		c-0.1,0-0.2,0.1-0.3,0.1s-0.3-0.1-0.3-0.4v-1.2h0.5c0.1,0,0.1-0.1,0-0.2h-0.5v-0.6l-0.1,0l-0.3,0.3v0.3h-0.2l-0.1,0.1l0,0h0.3v1.3
		c0,0.4,0.2,0.5,0.4,0.5c0,0,0.1,0,0.2-0.1L88.5,217z M85.2,215.6v-0.5c-0.2,0.1-0.4,0.2-0.6,0.2v0.1c0.3,0,0.3,0.1,0.3,0.4v1
		c0,0.3,0,0.3-0.3,0.4v0.1h1.1V217c-0.4,0-0.4-0.1-0.4-0.4v-0.8c0.1-0.3,0.2-0.4,0.4-0.4c0.1,0,0.1,0,0.2,0.1c0,0,0.1,0,0.1,0
		c0.1,0,0.1-0.1,0.1-0.2c0-0.1-0.1-0.2-0.3-0.2C85.5,215.1,85.3,215.3,85.2,215.6L85.2,215.6z M83.4,215.2c0.3,0,0.4,0.2,0.4,0.5
		c0,0.1,0,0.1-0.1,0.1c-0.3,0-0.5,0-0.8,0C83,215.4,83.2,215.2,83.4,215.2 M84.1,216.7c-0.2,0.2-0.3,0.2-0.5,0.2
		c-0.3,0-0.7-0.3-0.7-0.9c0.5,0,1.1-0.1,1.2-0.1c0.1,0,0.1-0.1,0.1-0.1c0-0.4-0.3-0.7-0.7-0.7c-0.2,0-0.5,0.1-0.7,0.3
		c-0.2,0.2-0.3,0.5-0.3,0.8c0,0.5,0.3,1,0.9,1C83.6,217.2,83.9,217.1,84.1,216.7L84.1,216.7z M82.3,217.1V217
		c-0.3,0-0.3-0.1-0.3-0.4v-0.8c0-0.6-0.3-0.8-0.6-0.8c-0.2,0-0.5,0.2-0.7,0.3v-1.5c-0.2,0.1-0.5,0.1-0.7,0.2v0.1
		c0.3,0,0.3,0.1,0.3,0.3v2.2c0,0.3,0,0.3-0.3,0.4v0.1h1V217c-0.3,0-0.3-0.1-0.3-0.4v-1.1c0.1-0.1,0.3-0.2,0.5-0.2
		c0.3,0,0.5,0.2,0.5,0.6v0.8c0,0.3,0,0.3-0.3,0.4v0.1H82.3z M79.9,217l0-0.1c-0.1,0-0.2,0.1-0.3,0.1c-0.1,0-0.3-0.1-0.3-0.4v-1.2
		h0.5c0.1,0,0.1-0.1,0-0.2h-0.5v-0.6l-0.1,0l-0.3,0.3v0.3h-0.2l-0.1,0.1l0,0H79v1.3c0,0.4,0.2,0.5,0.4,0.5c0,0,0.1,0,0.2-0.1
		L79.9,217z M77.4,215.2c0.4,0,0.6,0.4,0.6,1c0,0.6-0.2,0.8-0.5,0.8c-0.4,0-0.6-0.4-0.6-1C76.8,215.5,77.1,215.2,77.4,215.2
		 M77.4,215.1c-0.4,0-1,0.3-1,1.1c0,0.5,0.4,1,1,1c0.5,0,1-0.4,1-1.1C78.4,215.5,78,215.1,77.4,215.1 M74,215.2c0.4,0,0.6,0.4,0.6,1
		c0,0.6-0.2,0.8-0.5,0.8c-0.4,0-0.6-0.4-0.6-1C73.5,215.5,73.7,215.2,74,215.2 M74,215.1c-0.4,0-1,0.3-1,1.1c0,0.5,0.4,1,1,1
		c0.5,0,1-0.4,1-1.1C75,215.5,74.6,215.1,74,215.1 M72.8,217.1V217c-0.3,0-0.3,0-0.3-0.4v-0.9c0-0.4-0.2-0.7-0.6-0.7
		c-0.1,0-0.3,0.1-0.4,0.1c-0.1,0.1-0.2,0.1-0.3,0.2v-0.4c-0.2,0.1-0.4,0.1-0.6,0.2v0.1c0.2,0,0.3,0.1,0.3,0.4v1c0,0.3,0,0.3-0.3,0.4
		v0.1h1V217c-0.3,0-0.3,0-0.3-0.4v-1.1c0.1-0.1,0.3-0.2,0.5-0.2c0.3,0,0.4,0.2,0.4,0.5v0.8c0,0.3,0,0.4-0.3,0.4v0.1H72.8z
		 M69.4,215.1h-0.8v0.1c0.3,0,0.3,0.1,0.2,0.3c-0.1,0.3-0.3,0.8-0.4,1.1l-0.4-1.2c-0.1-0.2,0-0.2,0.2-0.3v-0.1h-0.9v0.1
		c0.3,0,0.3,0.1,0.4,0.3c0.1,0.3,0.3,0.9,0.5,1.4c0,0.1,0,0.1,0,0.2c0,0.1-0.1,0.2-0.1,0.3c-0.1,0.2-0.2,0.3-0.3,0.4
		c-0.1,0.1-0.1,0.1-0.1,0.2c0,0.1,0.1,0.2,0.3,0.2c0.1,0,0.1,0,0.1-0.1c0.1-0.2,0.2-0.5,0.5-1.2c0.3-0.8,0.5-1.1,0.6-1.4
		c0.1-0.3,0.2-0.3,0.4-0.3V215.1z M66.1,215.2c0.4,0,0.6,0.4,0.6,1c0,0.6-0.2,0.8-0.5,0.8c-0.4,0-0.6-0.4-0.6-1
		C65.5,215.5,65.8,215.2,66.1,215.2 M66.1,215.1c-0.4,0-1,0.3-1,1.1c0,0.5,0.4,1,1,1c0.5,0,1-0.4,1-1.1
		C67.1,215.5,66.7,215.1,66.1,215.1 M64.9,217.1V217c-0.3,0-0.3-0.1-0.3-0.4v-2.8c-0.2,0.1-0.4,0.1-0.7,0.2v0.1c0.3,0,0.3,0,0.3,0.3
		v2.2c0,0.3,0,0.3-0.3,0.4v0.1H64.9z M62.2,215.5c0.1-0.1,0.3-0.2,0.5-0.2c0.3,0,0.6,0.3,0.6,0.8c0,0.5-0.3,0.9-0.6,0.9
		c-0.2,0-0.3-0.1-0.4-0.2V215.5z M62.2,215.4V215c-0.2,0.1-0.5,0.2-0.7,0.2v0.1c0.3,0,0.3,0,0.3,0.3v2.1c0,0.3,0,0.3-0.3,0.4v0.1
		h1.1v-0.1c-0.4,0-0.4-0.1-0.4-0.4v-0.6c0.1,0,0.2,0.1,0.3,0.1c0.6-0.1,1.1-0.6,1.1-1.3c0-0.5-0.3-0.9-0.8-0.9c-0.1,0-0.1,0-0.2,0.1
		L62.2,215.4z M61.4,217.1V217c-0.3,0-0.3,0-0.3-0.4v-0.9c0-0.5-0.2-0.7-0.6-0.7c-0.1,0-0.2,0.1-0.3,0.1c-0.1,0.1-0.2,0.2-0.4,0.3
		c-0.1-0.2-0.3-0.4-0.5-0.4c-0.1,0-0.3,0.1-0.4,0.1c-0.1,0.1-0.2,0.2-0.3,0.2v-0.4c-0.2,0.1-0.4,0.2-0.6,0.2v0.1
		c0.3,0,0.3,0.1,0.3,0.4v1c0,0.3,0,0.3-0.3,0.4v0.1h1V217c-0.2,0-0.3-0.1-0.3-0.4v-1.1c0.1-0.1,0.3-0.2,0.5-0.2
		c0.3,0,0.4,0.2,0.4,0.5v0.8c0,0.3,0,0.3-0.3,0.4v0.1h1V217c-0.3,0-0.3-0.1-0.3-0.3v-0.9c0-0.1,0-0.1,0-0.2c0.2-0.1,0.3-0.2,0.5-0.2
		c0.3,0,0.4,0.2,0.4,0.5v0.8c0,0.3-0.1,0.3-0.3,0.4v0.1H61.4z M56.8,215.2c0.3,0,0.4,0.2,0.4,0.5c0,0.1,0,0.1-0.1,0.1
		c-0.3,0-0.5,0-0.8,0C56.4,215.4,56.6,215.2,56.8,215.2 M57.5,216.7c-0.2,0.2-0.3,0.2-0.5,0.2c-0.3,0-0.7-0.3-0.7-0.9
		c0.5,0,1.1-0.1,1.2-0.1c0.1,0,0.1-0.1,0.1-0.1c0-0.4-0.3-0.7-0.7-0.7c-0.2,0-0.5,0.1-0.7,0.3c-0.2,0.2-0.3,0.5-0.3,0.8
		c0,0.5,0.3,1,0.9,1C57,217.2,57.3,217.1,57.5,216.7L57.5,216.7z M54.7,217l0-0.1c-0.1,0-0.2,0.1-0.3,0.1s-0.3-0.1-0.3-0.4v-1.2h0.5
		c0.1,0,0.1-0.1,0-0.2h-0.5v-0.6l-0.1,0l-0.3,0.3v0.3h-0.2l-0.1,0.1l0,0h0.3v1.3c0,0.4,0.2,0.5,0.4,0.5c0,0,0.1,0,0.2-0.1L54.7,217z
		 M53.3,217.1V217c-0.3,0-0.3-0.1-0.3-0.4v-2.8c-0.2,0.1-0.4,0.1-0.7,0.2v0.1c0.3,0,0.3,0,0.3,0.3v2.2c0,0.3,0,0.3-0.3,0.4v0.1H53.3
		z M51.4,216.8c-0.1,0.1-0.2,0.2-0.4,0.2c-0.1,0-0.3-0.1-0.3-0.4c0-0.2,0.1-0.3,0.3-0.3c0.1,0,0.3-0.1,0.4-0.2V216.8z M52.2,217
		l0-0.1c0,0-0.1,0.1-0.2,0.1c-0.1,0-0.2-0.1-0.2-0.3v-0.9c0-0.2,0-0.4-0.2-0.6c-0.1-0.1-0.2-0.1-0.4-0.1c-0.3,0.1-0.6,0.2-0.7,0.3
		c-0.1,0.1-0.1,0.1-0.1,0.2c0,0.1,0.1,0.2,0.2,0.2c0.1,0,0.1,0,0.1-0.1c0-0.1,0.1-0.2,0.1-0.3c0-0.1,0.1-0.1,0.2-0.1
		c0.2,0,0.4,0.2,0.4,0.5v0.1c-0.1,0.1-0.4,0.2-0.7,0.3c-0.3,0.1-0.4,0.2-0.4,0.5c0,0.3,0.2,0.6,0.6,0.6c0.1,0,0.4-0.2,0.5-0.3
		c0,0.1,0.1,0.1,0.1,0.2c0.1,0,0.1,0.1,0.2,0.1L52.2,217z M50.1,217.1V217c-0.3,0-0.3-0.1-0.3-0.4v-0.8c0-0.6-0.3-0.8-0.6-0.8
		c-0.2,0-0.5,0.2-0.7,0.3v-1.5c-0.2,0.1-0.5,0.1-0.7,0.2v0.1c0.3,0,0.3,0.1,0.3,0.3v2.2c0,0.3,0,0.3-0.3,0.4v0.1h1V217
		c-0.3,0-0.3-0.1-0.3-0.4v-1.1c0.1-0.1,0.3-0.2,0.5-0.2c0.3,0,0.5,0.2,0.5,0.6v0.8c0,0.3,0,0.3-0.3,0.4v0.1H50.1z M47.5,215.6
		c0-0.1-0.1-0.4-0.1-0.5c-0.1,0-0.2-0.1-0.4-0.1c-0.4,0-0.7,0.3-0.7,0.6c0,0.4,0.3,0.5,0.6,0.6c0.2,0.1,0.4,0.2,0.4,0.4
		c0,0.2-0.2,0.3-0.3,0.3c-0.3,0-0.5-0.3-0.6-0.6l-0.1,0c0,0.2,0,0.5,0.1,0.5c0.1,0.1,0.3,0.2,0.5,0.2c0.4,0,0.8-0.2,0.8-0.6
		c0-0.3-0.2-0.5-0.6-0.6c-0.2-0.1-0.4-0.2-0.4-0.4c0-0.2,0.1-0.3,0.3-0.3c0.2,0,0.4,0.2,0.5,0.5L47.5,215.6z M45,216.9l-0.1,0
		c-0.2,0-0.2,0-0.2-0.3v-1.5c-0.2,0.1-0.5,0.1-0.7,0.1v0.1c0.3,0,0.4,0.1,0.4,0.3v1.1c-0.2,0.2-0.3,0.2-0.5,0.2
		c-0.2,0-0.4-0.1-0.4-0.5v-0.6c0-0.3,0-0.5,0-0.7c-0.2,0-0.4,0.1-0.7,0.1v0.1c0.3,0.1,0.3,0.1,0.3,0.3v0.9c0,0.5,0.3,0.7,0.6,0.7
		c0.1,0,0.2,0,0.4-0.1c0.1-0.1,0.2-0.2,0.3-0.2v0.3l0,0c0.2-0.1,0.5-0.1,0.7-0.2V216.9z M41.4,215.2c0.4,0,0.6,0.4,0.6,1
		c0,0.6-0.2,0.8-0.5,0.8c-0.4,0-0.6-0.4-0.6-1C40.9,215.5,41.1,215.2,41.4,215.2 M41.5,215.1c-0.4,0-1,0.3-1,1.1c0,0.5,0.4,1,1,1
		c0.5,0,1-0.4,1-1.1C42.5,215.5,42,215.1,41.5,215.1 M40.2,217.1V217c-0.3,0-0.3-0.1-0.3-0.4v-0.8c0-0.5-0.3-0.8-0.7-0.8
		c-0.2,0-0.5,0.2-0.6,0.3v-1.5c-0.1,0-0.3,0.1-0.4,0.1v0.1c0,0.1-0.1,0.1-0.4,0.1h-1.9c-0.1,0-0.2,0-0.2-0.1h-0.1
		c0,0.3,0,0.6-0.1,0.8h0.1c0.1-0.2,0.1-0.3,0.1-0.4c0.1-0.1,0.2-0.1,0.6-0.1h0.3v2.2c0,0.4,0,0.4-0.4,0.5v0.1h1.3V217
		c-0.4,0-0.5-0.1-0.5-0.5v-2.2h0.3c0.4,0,0.6,0,0.9,0v2.3c0,0.3,0,0.3-0.3,0.4v0.1h1V217c-0.3,0-0.3-0.1-0.3-0.4v-1.1
		c0.1-0.2,0.3-0.2,0.5-0.2c0.3,0,0.5,0.2,0.5,0.6v0.8c0,0.3,0,0.3-0.3,0.4v0.1H40.2z"/>
	<path class="st1" d="M214.9,200.9c0.8,0,1.3-0.5,1.3-1.4c0-0.8-0.6-1.4-1.3-1.4s-1.3,0.6-1.3,1.4
		C213.6,200.3,214.2,200.9,214.9,200.9 M214.4,190.2h-4.3v0.6c1.4,0.2,1.5,0.5,1.2,1.4c-0.5,1.5-1.5,4.3-2.2,5.9l-2.2-6
		c-0.3-0.9-0.2-1.1,0.9-1.3v-0.6h-4.8v0.6c1.3,0.2,1.5,0.5,2,1.8c0.7,1.7,1.8,4.6,2.7,7.3c0.1,0.4,0.1,0.7,0,1.1
		c-0.1,0.3-0.3,0.8-0.7,1.6c-0.5,1-1,1.6-1.8,2.1c-0.4,0.3-0.6,0.5-0.6,0.9c0,0.6,0.7,1.1,1.4,1.1c0.3,0,0.6-0.1,0.8-0.6
		c0.3-1.3,0.9-2.6,2.4-6.4c1.6-3.9,2.4-5.9,3-7.1c0.6-1.4,0.9-1.5,2.1-1.7V190.2z M195,192.4c0.6-0.5,1.6-1,2.4-1
		c1.7,0,3.2,1.4,3.2,4c0,2.7-1.3,4.4-3.3,4.4c-0.8,0-1.7-0.4-2.2-0.9V192.4z M195,191.6v-1.9c-1.1,0.5-2.4,0.9-3.4,1v0.6
		c1.5,0.2,1.6,0.2,1.6,1.8v10.7c0,1.6-0.2,1.7-1.7,1.9v0.6h5.6v-0.6c-1.9-0.2-2-0.3-2-2.1v-3.1c0.3,0.2,0.9,0.4,1.6,0.4
		c3.1-0.6,5.9-2.9,5.9-6.5c0-2.4-1.6-4.5-4.2-4.5c-0.3,0-0.7,0.1-1.2,0.4L195,191.6z M185,190.7c2.1,0,3.2,2.3,3.2,5
		c0,3.3-1.2,4.3-2.7,4.3c-1.9,0-3.3-2.2-3.3-5.2C182.2,192.2,183.5,190.7,185,190.7 M185.2,189.9c-2.2,0-5.2,1.8-5.2,5.7
		c0,2.6,1.9,5.2,5.2,5.2c2.4,0,5.2-1.8,5.2-5.7C190.4,192.3,188.2,189.9,185.2,189.9 M178.4,198c-1.1,1-1.9,1.3-2.9,1.3
		c-1.3,0-3.6-1.1-3.6-4.4c0-2.5,1.4-3.8,2.9-3.8c0.8,0,1.7,0.3,2.4,1c0.2,0.2,0.3,0.3,0.5,0.3c0.3,0,0.8-0.5,0.8-1
		c0-0.3-0.1-0.5-0.4-0.7c-0.4-0.3-1.2-0.6-2.1-0.6c-0.9,0-2.4,0.4-3.6,1.3c-1.6,1.2-2.4,2.8-2.4,4.7c0,2.5,1.8,5,4.7,5
		c1.4,0,3-1,4-2.4L178.4,198z M164.2,190.2h-4.3v0.6c1.4,0.2,1.5,0.5,1.2,1.4c-0.5,1.5-1.5,4.3-2.2,5.9l-2.2-6
		c-0.3-0.9-0.2-1.1,0.9-1.3v-0.6h-4.8v0.6c1.3,0.2,1.5,0.5,2,1.8c0.7,1.7,1.8,4.6,2.7,7.3c0.1,0.4,0.1,0.7,0,1.1
		c-0.1,0.3-0.3,0.8-0.7,1.6c-0.5,1-1,1.6-1.8,2.1c-0.4,0.3-0.6,0.5-0.6,0.9c0,0.6,0.7,1.1,1.4,1.1c0.3,0,0.6-0.1,0.8-0.6
		c0.3-1.3,0.9-2.6,2.4-6.4c1.6-3.9,2.4-5.9,3-7.1c0.6-1.4,0.9-1.5,2.1-1.7V190.2z M149,198.6c-0.6,0.4-1.4,0.8-2.3,0.8
		c-1.5,0-3.3-1.4-3.3-4.2c0-3.4,2-4.4,3.1-4.4c0.9,0,1.9,0.4,2.4,1.2V198.6z M152.7,199.4l-0.8-0.1c-0.9-0.1-1-0.2-1-1.4v-14.2
		c-0.9,0.3-2.5,0.7-3.7,0.8v0.6c1.7,0.1,1.8,0.2,1.8,1.8v3.3c-0.5-0.2-1.2-0.3-1.6-0.3c-3.2,0-6.1,2.6-6.1,5.9
		c0,3.3,2.5,5.1,4.4,5.1c0.3,0,0.9-0.1,1.9-0.7l1.4-0.9v1.5c1.4-0.5,3.2-0.8,3.7-0.9V199.4z M134,190.7c2.1,0,3.2,2.3,3.2,5
		c0,3.3-1.2,4.3-2.7,4.3c-1.9,0-3.3-2.2-3.3-5.2C131.2,192.2,132.5,190.7,134,190.7 M134.2,189.9c-2.2,0-5.2,1.8-5.2,5.7
		c0,2.6,1.9,5.2,5.2,5.2c2.4,0,5.2-1.8,5.2-5.7C139.3,192.3,137.1,189.9,134.2,189.9 M119.4,191.7c0.4-0.3,1.2-0.5,1.9-0.5
		c2,0,3.6,1.6,3.6,4.3c0,2.8-1.3,4.4-3.2,4.4c-1.3,0-2-0.9-2.1-1.3c-0.1-0.2-0.1-0.5-0.1-0.8V191.7z M119.4,191v-7.3
		c-0.9,0.3-2.3,0.7-3.4,0.8v0.5c1.5,0.1,1.6,0.3,1.6,1.8V200c1.3,0.6,2.5,0.9,3.5,0.9c3.2,0,6-2.5,6-6c0-2.8-2.1-5-4.7-5
		c-0.3,0-0.6,0.1-1,0.2L119.4,191z M105.9,192.4v-2.6c-1.1,0.5-2.2,0.8-3.3,1v0.5c1.4,0.2,1.5,0.3,1.5,1.9v4.9
		c0,1.6-0.2,1.7-1.6,1.9v0.6h5.5V200c-1.8-0.1-1.9-0.3-1.9-1.9v-4.3c0.5-1.3,1.3-2,1.9-2c0.4,0,0.7,0.1,1,0.5c0.1,0.1,0.4,0.2,0.6,0
		c0.5-0.2,0.8-0.7,0.8-1.2c0-0.6-0.6-1.2-1.4-1.2C107.7,189.9,106.7,191.3,105.9,192.4L105.9,192.4z M95.7,190.7
		c2.1,0,3.2,2.3,3.2,5c0,3.3-1.2,4.3-2.7,4.3c-1.9,0-3.3-2.2-3.3-5.2C92.9,192.2,94.2,190.7,95.7,190.7 M95.9,189.9
		c-2.2,0-5.2,1.8-5.2,5.7c0,2.6,1.9,5.2,5.2,5.2c2.4,0,5.2-1.8,5.2-5.7C101,192.3,98.8,189.9,95.9,189.9 M84.3,190.2l-0.6,0.7
		l0.1,0.2h1.7v7c0,1.6-0.2,1.7-1.7,1.8v0.6h5.6V200c-1.9-0.2-2-0.3-2-2v-6.8h2.6c0.3-0.1,0.4-0.7,0.2-0.9h-2.8v-0.9
		c0-2,0.2-3.2,0.5-3.6c0.3-0.4,0.6-0.7,1.3-0.7c0.8,0,1.4,0.5,1.9,0.9c0.2,0.2,0.4,0.2,0.6,0.1c0.2-0.2,0.4-0.4,0.5-0.6
		c0.1-0.3,0.1-0.6-0.1-0.8c-0.4-0.5-1.1-0.8-1.9-0.8c-0.9,0.1-1.8,0.5-2.6,1.3c-1.3,1.1-1.7,2.3-1.8,2.8c-0.2,0.5-0.3,1.2-0.3,1.9
		v0.5H84.3z M77.4,199.7l-0.2-0.6c-0.3,0.2-0.9,0.4-1.5,0.4s-1.4-0.4-1.4-2.3v-6.1h2.5c0.3-0.2,0.4-0.7,0.1-0.9h-2.7V187l-0.3,0
		l-1.5,1.6v1.7h-1.1l-0.6,0.7l0.1,0.2h1.6v6.9c0,1.9,0.8,2.8,2.3,2.8c0.2,0,0.6-0.1,1-0.3L77.4,199.7z M62.2,192.4
		c0.6-0.5,1.6-1,2.4-1c1.7,0,3.2,1.4,3.2,4c0,2.7-1.3,4.4-3.3,4.4c-0.8,0-1.7-0.4-2.2-0.9V192.4z M62.2,191.6v-1.9
		c-1.1,0.5-2.4,0.9-3.4,1v0.6c1.5,0.2,1.6,0.2,1.6,1.8v10.7c0,1.6-0.2,1.7-1.7,1.9v0.6h5.6v-0.6c-1.9-0.2-2-0.3-2-2.1v-3.1
		c0.3,0.2,0.9,0.4,1.6,0.4c3.1-0.6,5.9-2.9,5.9-6.5c0-2.4-1.6-4.5-4.2-4.5c-0.3,0-0.7,0.1-1.2,0.4L62.2,191.6z M52.5,186.3
		c2.1,0,2.7,3.5,2.7,6.9c0,3.3-0.6,6.9-2.7,6.9c-2.1,0-2.8-3.6-2.8-6.9C49.7,189.9,50.3,186.3,52.5,186.3 M52.5,185.5
		c-3.6,0-4.9,4.2-4.9,7.7c0,3.8,1.3,7.7,4.9,7.7c3.6,0,4.8-4.2,4.8-7.7C57.3,189.5,56,185.5,52.5,185.5 M44.5,200.6V200
		c-2.2-0.2-2.3-0.4-2.3-2.1v-12.4c-1.3,0.5-2.7,1-4.2,1.2v0.5l1.1,0c1,0,1.1,0.2,1.1,1.4v9.1c0,1.7-0.1,1.9-2.3,2.1v0.6H44.5z"/>
	<path class="st1" d="M276.1,158.5c2.1,0,3.2,2.3,3.2,5c0,3.3-1.2,4.3-2.7,4.3c-1.9,0-3.3-2.2-3.3-5.2
		C273.4,160,274.6,158.5,276.1,158.5 M276.4,157.8c-2.2,0-5.2,1.8-5.2,5.7c0,2.6,1.9,5.2,5.2,5.2c2.4,0,5.2-1.8,5.2-5.7
		C281.5,160.1,279.3,157.8,276.4,157.8 M270.2,167.6L270,167c-0.3,0.2-0.9,0.4-1.5,0.4s-1.4-0.4-1.4-2.3V159h2.5
		c0.3-0.2,0.4-0.7,0.1-0.9h-2.7v-3.3l-0.3,0l-1.5,1.6v1.7h-1.1l-0.6,0.7l0.1,0.2h1.6v6.9c0,1.9,0.8,2.8,2.3,2.8c0.2,0,0.6-0.1,1-0.3
		L270.2,167.6z M257.6,167.6l-0.2-0.6c-0.3,0.2-0.9,0.4-1.5,0.4c-0.6,0-1.4-0.4-1.4-2.3V159h2.5c0.3-0.2,0.4-0.7,0.1-0.9h-2.7v-3.3
		l-0.3,0l-1.5,1.6v1.7h-1.1l-0.6,0.7l0.1,0.2h1.6v6.9c0,1.9,0.8,2.8,2.3,2.8c0.2,0,0.6-0.1,1-0.3L257.6,167.6z M242.4,160.2
		c0.6-0.5,1.6-1,2.4-1c1.7,0,3.2,1.4,3.2,4c0,2.7-1.3,4.4-3.3,4.4c-0.8,0-1.7-0.4-2.2-0.9V160.2z M242.4,159.4v-1.9
		c-1.1,0.5-2.4,0.9-3.4,1v0.6c1.5,0.2,1.6,0.2,1.6,1.8v10.7c0,1.6-0.2,1.7-1.7,1.9v0.6h5.6v-0.6c-1.9-0.2-2-0.3-2-2.1v-3.1
		c0.3,0.2,0.9,0.4,1.6,0.4c3.1-0.6,5.9-2.9,5.9-6.5c0-2.4-1.6-4.5-4.2-4.5c-0.3,0-0.7,0.1-1.2,0.4L242.4,159.4z M232.8,167.9
		c-1.5,0-2.9-1.2-2.9-3.4c0-1.3,0.8-2.5,1.9-3.3c1.8,0.9,3.5,1.9,3.5,3.7C235.4,166.9,234.3,167.9,232.8,167.9 M232.6,154.1
		c1.1,0,2.3,0.9,2.3,2.9c0,1.4-0.6,2.3-1.4,2.9c-1.7-0.8-3.1-1.6-3.1-3.4C230.4,155.3,231.2,154.1,232.6,154.1 M232.9,153.3
		c-2.5,0-4.2,1.9-4.2,3.9c0,1.7,1,2.8,2.6,3.7c-0.8,0.5-1.7,1.2-2.1,1.5c-0.5,0.5-1.1,1.2-1.1,2.3c0,2.5,2,4,4.6,4
		c2,0,4.7-1.5,4.7-4.3c0-2.1-1.5-3.2-3.1-4.1c1.1-0.7,1.7-1.3,1.9-1.5c0.5-0.5,0.7-1.2,0.7-1.9C236.7,154.9,235.1,153.3,232.9,153.3
		 M221,168.4v-0.6c-1.4-0.1-1.5-0.2-1.5-1.9v-4.6c0-2.3-1.2-3.6-3.1-3.6c-0.7,0-1.3,0.3-2,0.7c-0.6,0.4-1.1,0.8-1.6,1.1v-1.9
		c-1,0.5-2.2,0.8-3.3,1v0.5c1.3,0.2,1.4,0.3,1.4,1.8v4.9c0,1.6-0.1,1.7-1.7,1.9v0.6h5.2v-0.6c-1.4-0.1-1.5-0.2-1.5-1.9v-5.6
		c0.7-0.6,1.6-1.2,2.6-1.2c1.6,0,2.2,1.1,2.2,2.7v4c0,1.6-0.2,1.8-1.6,2v0.6H221z M204.9,166.4c-0.5,0.4-1.3,0.8-1.9,0.9
		c-0.7,0-1.7-0.6-1.7-1.8c0-0.9,0.5-1.3,1.4-1.7c0.5-0.2,1.6-0.7,2.1-1V166.4z M208.7,167.5l-0.2-0.6c-0.2,0.1-0.6,0.3-0.9,0.3
		c-0.4,0-0.8-0.4-0.8-1.4v-4.4c0-1.2-0.2-2.2-1.1-2.9c-0.5-0.4-1.2-0.6-1.9-0.6c-1.4,0.3-2.9,1.2-3.6,1.7c-0.5,0.3-0.8,0.6-0.8,0.9
		c0,0.5,0.6,1,1,1c0.3,0,0.6-0.2,0.7-0.5c0.2-0.7,0.4-1.3,0.7-1.6c0.2-0.3,0.6-0.5,1.1-0.5c1.2,0,2,1,2,2.7v0.4
		c-0.5,0.4-2.3,1.1-3.7,1.5c-1.3,0.5-1.9,1.2-1.9,2.4c0,1.5,1.2,2.9,2.8,2.9c0.7,0,1.9-0.9,2.8-1.5c0.1,0.4,0.3,0.7,0.6,1.1
		c0.3,0.2,0.8,0.5,1.1,0.5L208.7,167.5z M197.9,168.4v-0.6c-1.4-0.1-1.6-0.3-1.6-1.8v-4.2c0-2.8-1.4-4.1-3.3-4.1
		c-1.3,0-2.6,0.9-3.4,1.7v-8c-0.9,0.3-2.4,0.7-3.5,0.8v0.5c1.6,0.1,1.6,0.3,1.6,1.8V166c0,1.6-0.2,1.7-1.6,1.8v0.6h5v-0.6
		c-1.4-0.1-1.5-0.3-1.5-1.8v-5.7c0.7-0.8,1.6-1.2,2.5-1.2c1.6,0,2.3,1,2.3,2.9v3.9c0,1.5-0.2,1.7-1.6,1.8v0.6H197.9z M185.5,167.6
		l-0.2-0.6c-0.3,0.2-0.9,0.4-1.5,0.4c-0.6,0-1.4-0.4-1.4-2.3V159h2.5c0.3-0.2,0.4-0.7,0.1-0.9h-2.7v-3.3l-0.3,0l-1.5,1.6v1.7h-1.1
		l-0.6,0.7l0.1,0.2h1.6v6.9c0,1.9,0.8,2.8,2.3,2.8c0.2,0,0.6-0.1,1-0.3L185.5,167.6z M168.3,158.6c1.3,0,2.1,1.1,2.1,2.4
		c0,0.3-0.1,0.5-0.6,0.5c-1.4,0-2.7,0.1-4,0.1C166.1,159.6,167.2,158.6,168.3,158.6 M171.9,165.9c-0.9,0.8-1.8,1.2-2.7,1.2
		c-1.7,0-3.5-1.3-3.5-4.6c2.8-0.1,5.8-0.3,6.2-0.4c0.4-0.1,0.5-0.3,0.5-0.8c0-1.9-1.6-3.6-3.6-3.6c-1.2,0-2.5,0.6-3.5,1.7
		c-1,1.1-1.6,2.5-1.6,4.2c0,2.7,1.7,5.1,4.6,5.1c0.7,0,2.4-0.4,3.9-2.3L171.9,165.9z M162.1,165.1l-0.3,0.6
		c-0.9,1.4-1.4,1.9-3.2,1.9h-2.4c1.9-3.2,3.8-6.2,5.8-9.3l-0.1-0.3h-5.5c-0.9,0-1.2-0.1-1.3-0.5h-0.5c-0.2,1-0.5,2.5-0.8,3.4
		l0.6,0.2l0.3-0.6c0.7-1.3,1-1.7,2.7-1.7h2.1c-1.9,3.2-3.9,6.2-5.9,9.2l0.1,0.4h7.8c0.4-0.9,0.7-2.1,1.1-3L162.1,165.1z
		 M152.5,168.4v-0.6c-1.5-0.1-1.7-0.3-1.7-1.9v-8.2c-1,0.4-2.2,0.7-3.4,0.9v0.6c1.4,0.2,1.5,0.3,1.5,1.8v4.9c0,1.6-0.2,1.8-1.7,1.9
		v0.6H152.5z M149.8,155.7c0.7,0,1.2-0.6,1.2-1.2c0-0.7-0.5-1.2-1.2-1.2c-0.6,0-1.2,0.5-1.2,1.2
		C148.6,155.1,149.1,155.7,149.8,155.7 M145.4,160.7c-0.1-0.6-0.3-2-0.5-2.5c-0.5-0.2-1.1-0.4-2.1-0.4c-2.2,0-3.6,1.4-3.6,3.1
		c0,1.8,1.5,2.6,3,3.3c1.2,0.5,1.9,1.1,1.9,2.2c0,1-0.8,1.7-1.7,1.7c-1.4,0-2.5-1.4-2.9-2.9l-0.6,0.1c0,0.9,0.2,2.5,0.4,2.8
		c0.4,0.4,1.5,0.8,2.7,0.8c1.9,0,3.9-1.1,3.9-3.3c0-1.6-1.2-2.5-3-3.2c-1.1-0.5-2-1-2-2.1c0-0.9,0.6-1.6,1.5-1.6
		c1.2,0,2,0.9,2.4,2.4L145.4,160.7z M127.7,158.6c1.3,0,2.1,1.1,2.1,2.4c0,0.3-0.1,0.5-0.6,0.5c-1.4,0-2.7,0.1-4,0.1
		C125.6,159.6,126.6,158.6,127.7,158.6 M131.4,165.9c-0.9,0.8-1.8,1.2-2.7,1.2c-1.7,0-3.5-1.3-3.5-4.6c2.8-0.1,5.8-0.3,6.2-0.4
		c0.4-0.1,0.5-0.3,0.5-0.8c0-1.9-1.6-3.6-3.6-3.6c-1.2,0-2.5,0.6-3.5,1.7c-1,1.1-1.6,2.5-1.6,4.2c0,2.7,1.7,5.1,4.6,5.1
		c0.7,0,2.4-0.4,3.9-2.3L131.4,165.9z M113.7,160.2c0.6-0.5,1.6-1,2.4-1c1.7,0,3.2,1.4,3.2,4c0,2.7-1.3,4.4-3.3,4.4
		c-0.8,0-1.7-0.4-2.2-0.9V160.2z M113.7,159.4v-1.9c-1.1,0.5-2.4,0.9-3.4,1v0.6c1.5,0.2,1.6,0.2,1.6,1.8v10.7c0,1.6-0.2,1.7-1.7,1.9
		v0.6h5.6v-0.6c-1.9-0.2-2-0.3-2-2.1v-3.1c0.3,0.2,0.9,0.4,1.6,0.4c3.1-0.6,5.9-2.9,5.9-6.5c0-2.4-1.6-4.5-4.2-4.5
		c-0.3,0-0.7,0.1-1.2,0.4L113.7,159.4z M110.2,158h-4.3v0.6c1.4,0.2,1.5,0.5,1.2,1.4c-0.5,1.5-1.5,4.3-2.2,5.9l-2.2-6
		c-0.3-0.9-0.2-1.1,0.9-1.3V158h-4.8v0.6c1.3,0.2,1.5,0.5,2,1.8c0.7,1.7,1.8,4.6,2.7,7.3c0.1,0.4,0.1,0.7,0,1.1
		c-0.1,0.3-0.3,0.8-0.7,1.6c-0.5,1-1,1.6-1.8,2.1c-0.4,0.3-0.6,0.5-0.6,0.9c0,0.6,0.7,1.1,1.4,1.1c0.3,0,0.6-0.1,0.8-0.6
		c0.3-1.3,0.9-2.6,2.4-6.4c1.6-3.9,2.4-5.9,3-7.1c0.6-1.4,0.9-1.5,2.1-1.7V158z M98.6,167.6l-0.2-0.6c-0.3,0.2-0.9,0.4-1.5,0.4
		c-0.6,0-1.4-0.4-1.4-2.3V159h2.5c0.3-0.2,0.4-0.7,0.1-0.9h-2.7v-3.3l-0.3,0l-1.5,1.6v1.7h-1.1l-0.6,0.7L92,159h1.6v6.9
		c0,1.9,0.8,2.8,2.3,2.8c0.2,0,0.6-0.1,1-0.3L98.6,167.6z M81.6,160.3v-2.6c-1.1,0.5-2.2,0.8-3.3,1v0.5c1.4,0.2,1.5,0.3,1.5,1.9v4.9
		c0,1.6-0.2,1.7-1.6,1.9v0.6h5.5v-0.6c-1.8-0.1-1.9-0.3-1.9-1.9v-4.3c0.5-1.3,1.3-2,1.9-2c0.4,0,0.7,0.1,1,0.5
		c0.1,0.1,0.4,0.2,0.6,0c0.5-0.2,0.8-0.7,0.8-1.2c0-0.6-0.6-1.2-1.4-1.2C83.4,157.8,82.4,159.1,81.6,160.3L81.6,160.3z M72.6,158.6
		c1.3,0,2.1,1.1,2.1,2.4c0,0.3-0.1,0.5-0.6,0.5c-1.4,0-2.7,0.1-4,0.1C70.4,159.6,71.5,158.6,72.6,158.6 M76.2,165.9
		c-0.9,0.8-1.8,1.2-2.7,1.2c-1.7,0-3.5-1.3-3.5-4.6c2.8-0.1,5.8-0.3,6.2-0.4c0.4-0.1,0.5-0.3,0.5-0.8c0-1.9-1.6-3.6-3.6-3.6
		c-1.2,0-2.5,0.6-3.5,1.7c-1,1.1-1.6,2.5-1.6,4.2c0,2.7,1.7,5.1,4.6,5.1c0.7,0,2.4-0.4,3.9-2.3L76.2,165.9z M66.8,168.4v-0.6
		c-1.4-0.1-1.6-0.3-1.6-1.8v-4.2c0-2.8-1.4-4.1-3.3-4.1c-1.3,0-2.6,0.9-3.4,1.7v-8c-0.9,0.3-2.4,0.7-3.5,0.8v0.5
		c1.6,0.1,1.6,0.3,1.6,1.8V166c0,1.6-0.2,1.7-1.6,1.8v0.6h5v-0.6c-1.4-0.1-1.5-0.3-1.5-1.8v-5.7c0.7-0.8,1.6-1.2,2.5-1.2
		c1.6,0,2.3,1,2.3,2.9v3.9c0,1.5-0.2,1.7-1.6,1.8v0.6H66.8z M54.3,167.6l-0.2-0.6c-0.3,0.2-0.9,0.4-1.5,0.4c-0.6,0-1.4-0.4-1.4-2.3
		V159h2.5c0.3-0.2,0.4-0.7,0.1-0.9h-2.7v-3.3l-0.3,0l-1.5,1.6v1.7h-1.1l-0.6,0.7l0.1,0.2h1.6v6.9c0,1.9,0.8,2.8,2.3,2.8
		c0.2,0,0.6-0.1,1-0.3L54.3,167.6z M41.2,158.5c2.1,0,3.2,2.3,3.2,5c0,3.3-1.2,4.3-2.7,4.3c-1.9,0-3.3-2.2-3.3-5.2
		C38.5,160,39.8,158.5,41.2,158.5 M41.5,157.8c-2.2,0-5.2,1.8-5.2,5.7c0,2.6,1.9,5.2,5.2,5.2c2.4,0,5.2-1.8,5.2-5.7
		C46.6,160.1,44.4,157.8,41.5,157.8"/>
	<path class="st1" d="M292.7,127.2c2.7,0,4.1,2.9,4.1,6.5c0,4.2-1.6,5.6-3.5,5.6c-2.5,0-4.2-2.9-4.2-6.7
		C289.2,129.1,290.8,127.2,292.7,127.2 M293,126.2c-2.8,0-6.7,2.3-6.7,7.4c0,3.4,2.5,6.8,6.7,6.8c3,0,6.6-2.4,6.6-7.3
		C299.7,129.2,296.8,126.2,293,126.2 M284.6,139.9v-0.8c-1.8-0.2-1.9-0.3-1.9-2.4v-5.9c0-3-1.5-4.7-4-4.7c-0.9,0-1.7,0.4-2.5,0.9
		c-0.8,0.5-1.4,1-2.1,1.4v-2.5c-1.3,0.6-2.8,1-4.3,1.3v0.7c1.7,0.3,1.8,0.4,1.8,2.4v6.3c0,2-0.2,2.2-2.2,2.4v0.8h6.6v-0.8
		c-1.8-0.2-2-0.3-2-2.4v-7.2c0.9-0.8,2.1-1.6,3.3-1.6c2.1,0,2.8,1.4,2.8,3.5v5.1c0,2.1-0.2,2.4-2,2.5v0.8H284.6z M262.2,126.5h-5.5
		v0.8c1.7,0.2,2,0.6,1.6,1.7c-0.6,1.9-2,5.5-2.8,7.6l-2.8-7.7c-0.4-1.1-0.2-1.4,1.2-1.7v-0.8h-6.2v0.8c1.7,0.2,2,0.6,2.6,2.3
		c0.9,2.2,2.3,5.9,3.5,9.4c0.2,0.5,0.2,0.9,0,1.4c-0.1,0.4-0.4,1-0.9,2.1c-0.7,1.3-1.3,2.1-2.3,2.7c-0.5,0.3-0.8,0.6-0.8,1.1
		c0,0.7,0.9,1.5,1.7,1.5c0.4,0,0.8-0.2,1-0.7c0.4-1.7,1.1-3.4,3.2-8.3c2.1-5.1,3.1-7.6,3.8-9.2c0.8-1.7,1.1-2,2.7-2.2V126.5z
		 M239.9,127.2c2.7,0,4.1,2.9,4.1,6.5c0,4.2-1.6,5.6-3.5,5.6c-2.5,0-4.2-2.9-4.2-6.7C236.4,129.1,238,127.2,239.9,127.2
		 M240.2,126.2c-2.8,0-6.7,2.3-6.7,7.4c0,3.4,2.5,6.8,6.7,6.8c3,0,6.6-2.4,6.6-7.3C246.9,129.2,244,126.2,240.2,126.2 M231.9,139.9
		v-0.8c-2-0.2-2.2-0.4-2.2-2.4v-18.6c-1,0.4-2.9,0.9-4.5,1.1v0.7c1.9,0.2,2.1,0.2,2.1,2.3v14.5c0,2-0.3,2.2-2.2,2.4v0.8H231.9z
		 M214,129.3c0.8-0.6,2.1-1.3,3.1-1.3c2.2,0,4.1,1.8,4.1,5.1c0,3.5-1.7,5.7-4.3,5.7c-1,0-2.2-0.5-2.9-1.2V129.3z M214,128.3v-2.4
		c-1.4,0.6-3.2,1.1-4.4,1.3v0.7c1.9,0.2,2,0.3,2,2.3v13.8c0,2-0.3,2.2-2.2,2.4v0.8h7.3v-0.8c-2.4-0.2-2.6-0.4-2.6-2.7v-4
		c0.4,0.2,1.2,0.5,2.1,0.6c4-0.7,7.6-3.7,7.6-8.3c0-3-2-5.8-5.4-5.8c-0.4,0-0.9,0.2-1.5,0.5L214,128.3z M208.7,139.9v-0.8
		c-1.7-0.2-2-0.3-2-2.4v-5.9c0-3-1.5-4.7-3.9-4.7c-0.9,0-1.7,0.4-2.3,0.8c-0.8,0.5-1.7,1-2.5,1.7c-0.6-1.6-1.9-2.5-3.4-2.5
		c-1,0-1.7,0.3-2.5,0.8c-0.9,0.6-1.6,1.1-2.2,1.6v-2.5c-1.3,0.6-2.9,1-4.3,1.3v0.7c1.8,0.3,1.9,0.4,1.9,2.4v6.3c0,2-0.3,2.2-2.3,2.4
		v0.8h6.5v-0.8c-1.5-0.2-1.7-0.4-1.7-2.4v-7.2c0.9-0.8,2.1-1.6,3.3-1.6c1.9,0,2.7,1.3,2.7,3.5v5.3c0,2-0.3,2.2-2.2,2.4v0.8h6.6v-0.8
		c-1.7-0.2-2-0.4-2-2.3v-6c0-0.6,0-0.9-0.1-1.3c1.2-1,2.3-1.6,3.4-1.6c1.9,0,2.7,1.4,2.7,3.6v5.1c0,2.2-0.3,2.3-2.1,2.5v0.8H208.7z
		 M178.2,127.3c1.7,0,2.7,1.5,2.7,3.1c0,0.4-0.2,0.6-0.7,0.6c-1.8,0.1-3.5,0.1-5.2,0.1C175.4,128.6,176.8,127.3,178.2,127.3
		 M182.9,136.7c-1.1,1-2.3,1.5-3.5,1.5c-2.1,0-4.5-1.7-4.6-5.9c3.6-0.1,7.5-0.4,8-0.5c0.6-0.1,0.7-0.4,0.7-1c0-2.4-2.1-4.7-4.6-4.7
		c-1.6,0-3.2,0.8-4.5,2.2c-1.3,1.4-2,3.2-2,5.4c0,3.5,2.2,6.5,6,6.5c0.9,0,3.1-0.6,5-3L182.9,136.7z M164.1,138.8l-0.3-0.8
		c-0.4,0.2-1.1,0.5-1.9,0.5s-1.8-0.5-1.8-2.9v-7.9h3.3c0.4-0.2,0.5-0.9,0.2-1.2h-3.5v-4.2l-0.4-0.1l-2,2v2.2h-1.4l-0.8,0.9l0.1,0.3
		h2.1v8.9c0,2.4,1.1,3.6,3,3.6c0.3,0,0.8-0.1,1.3-0.4L164.1,138.8z M154.9,139.9v-0.8c-2-0.2-2.2-0.4-2.2-2.4v-18.6
		c-1,0.4-2.9,0.9-4.5,1.1v0.7c1.9,0.2,2.1,0.2,2.1,2.3v14.5c0,2-0.3,2.2-2.2,2.4v0.8H154.9z M142.4,137.4c-0.6,0.6-1.7,1.1-2.5,1.1
		c-0.9,0-2.2-0.8-2.2-2.4c0-1.1,0.7-1.7,1.9-2.2c0.6-0.3,2.1-0.9,2.8-1.3V137.4z M147.3,138.7l-0.3-0.8c-0.3,0.2-0.7,0.3-1.1,0.3
		c-0.5,0-1.1-0.5-1.1-1.8v-5.7c0-1.6-0.3-2.8-1.4-3.7c-0.7-0.6-1.6-0.8-2.5-0.8c-1.7,0.3-3.7,1.5-4.6,2.1c-0.6,0.4-1,0.8-1,1.2
		c0,0.7,0.8,1.3,1.3,1.3c0.4,0,0.8-0.2,0.9-0.7c0.2-0.9,0.5-1.6,0.9-2c0.3-0.4,0.8-0.6,1.4-0.6c1.5,0,2.6,1.3,2.6,3.5v0.6
		c-0.7,0.6-2.9,1.4-4.7,2c-1.7,0.6-2.5,1.5-2.5,3c0,1.9,1.5,3.7,3.7,3.7c0.9,0,2.4-1.1,3.6-2c0.2,0.5,0.3,0.9,0.7,1.4
		c0.3,0.3,1,0.6,1.4,0.6L147.3,138.7z M133.4,139.9v-0.8c-1.8-0.2-2-0.3-2-2.4v-5.4c0-3.7-1.7-5.2-4.2-5.2c-1.7,0-3.3,1.1-4.4,2.2
		v-10.3c-1.2,0.4-3,0.9-4.5,1.1v0.7c2,0.2,2.1,0.3,2.1,2.3v14.6c0,2-0.3,2.2-2.1,2.4v0.8h6.5v-0.8c-1.8-0.2-2-0.4-2-2.4v-7.3
		c0.9-1,2-1.6,3.2-1.6c2.1,0,3,1.3,3,3.8v5.1c0,2-0.2,2.2-2,2.4v0.8H133.4z M116.4,130c-0.1-0.8-0.4-2.6-0.7-3.3
		c-0.6-0.2-1.5-0.5-2.7-0.5c-2.8,0-4.7,1.8-4.7,4c0,2.4,2,3.4,3.8,4.2c1.5,0.7,2.4,1.4,2.4,2.8c0,1.3-1,2.1-2.2,2.1
		c-1.8,0-3.2-1.8-3.8-3.8l-0.8,0.2c0,1.1,0.3,3.2,0.5,3.6c0.6,0.5,2,1,3.5,1c2.5,0,5.1-1.4,5.1-4.2c0-2.1-1.6-3.2-3.9-4.2
		c-1.4-0.6-2.6-1.3-2.6-2.7c0-1.2,0.8-2.1,2-2.1c1.5,0,2.6,1.2,3.2,3L116.4,130z M99.2,138.4l-0.9-0.1c-1.2-0.1-1.4-0.3-1.4-1.8
		v-10.2c-1.6,0.3-3.2,0.5-4.8,0.6v0.7c2.2,0.3,2.4,0.4,2.4,2.2v7.1c-1,1-2.2,1.5-3.3,1.5c-1.4,0-2.7-0.7-2.7-3.5v-4.1
		c0-2.1,0-3.5,0.1-4.5c-1.5,0.3-2.9,0.5-4.4,0.6v0.7c1.7,0.3,1.9,0.5,1.9,2.1v6c0,3.3,1.7,4.6,3.8,4.6c0.8,0,1.5-0.2,2.4-0.8
		c0.9-0.5,1.6-1.1,2.3-1.6v2.2l0.2,0.2c1.5-0.5,3.1-0.9,4.5-1.1V138.4z M75.6,127.2c2.7,0,4.1,2.9,4.1,6.5c0,4.2-1.6,5.6-3.5,5.6
		c-2.5,0-4.2-2.9-4.2-6.7C72.1,129.1,73.7,127.2,75.6,127.2 M75.9,126.2c-2.8,0-6.7,2.3-6.7,7.4c0,3.4,2.5,6.8,6.7,6.8
		c3,0,6.6-2.4,6.6-7.3C82.6,129.2,79.7,126.2,75.9,126.2 M67.6,139.9v-0.8c-1.8-0.2-2.1-0.3-2.1-2.4v-5.3c0-3.6-1.7-5.3-4.4-5.2
		c-1.6,0-3.2,1-4.3,2.2v-10.3c-0.9,0.3-1.8,0.6-2.4,0.7v0.4c0,0.6-0.4,0.8-2.9,0.8H38.9c-0.9,0-1.2-0.1-1.7-0.8h-0.6
		c-0.1,1.7-0.2,3.7-0.4,5.5h0.9c0.3-1.4,0.6-2.1,1-2.7c0.5-0.7,1-1,3.7-1h1.9v15c0,2.6-0.3,2.8-3,3v0.8h8.6v-0.8c-2.8-0.2-3-0.4-3-3
		v-15h2.1c2.7,0,4.3,0,6,0.2v15.4c0,2-0.2,2.2-2.1,2.4v0.8h6.6v-0.8c-1.8-0.2-2-0.4-2-2.4v-7.2c0.8-1,2-1.6,3.2-1.6
		c2.1,0,3,1.3,3,3.8v5c0,2-0.2,2.2-2,2.4v0.8H67.6z"/>
</g>
</svg>
