<?xml version="1.0" encoding="utf-8"?>
<!-- Generator: Adobe Illustrator 21.0.2, SVG Export Plug-In . SVG Version: 6.00 Build 0)  -->
<!DOCTYPE svg PUBLIC "-//W3C//DTD SVG 1.1//EN" "http://www.w3.org/Graphics/SVG/1.1/DTD/svg11.dtd">
<svg version="1.1" id="Layer_1" xmlns="http://www.w3.org/2000/svg" xmlns:xlink="http://www.w3.org/1999/xlink" x="0px" y="0px"
	 viewBox="0 0 340.1 333.7" style="enable-background:new 0 0 340.1 333.7;" xml:space="preserve">
<style type="text/css">
	.st0{fill:#FFFFFF;}
	.st1{clip-path:url(#SVGID_2_);fill:#231F20;}
</style>
<rect y="-0.5" class="st0" width="340.1" height="334.6"/>
<g>
	<defs>
		<rect id="SVGID_1_" y="-0.5" width="340.1" height="334.6"/>
	</defs>
	<clipPath id="SVGID_2_">
		<use xlink:href="#SVGID_1_"  style="overflow:visible;"/>
	</clipPath>
	<path class="st1" d="M45.4,37.3c0.6,0,1.1-0.4,1.1-1.1c0-0.6-0.5-1.1-1.1-1.1c-0.6,0-1.1,0.5-1.1,1.1
		C44.3,36.8,44.8,37.3,45.4,37.3 M41.9,34.4c-0.6,1.2-0.8,1.3-1.9,1.3h-3.6l2.7-2.9c1.8-1.9,2.5-3,2.5-4.7c0-2-1.5-3.2-3.2-3.2
		c-1.1,0-2,0.5-2.6,1.1l-1.1,1.6l0.4,0.4c0.5-0.7,1.3-1.8,2.6-1.8c1.4,0,2.3,0.9,2.3,2.5c0,1.6-1.2,3.2-2.4,4.6
		c-1,1.1-2,2.2-3.1,3.3v0.4h7.2c0.2-0.9,0.4-1.7,0.7-2.5L41.9,34.4z"/>
	<path class="st1" d="M87.8,202c0.9,0,1.5-0.6,1.5-1.6c0-0.9-0.6-1.5-1.5-1.5s-1.5,0.7-1.5,1.5C86.3,201.3,87,202,87.8,202
		 M79.6,190.6c1.5,0,2.4,1.3,2.4,2.7c0,0.4-0.2,0.5-0.6,0.5c-1.6,0.1-3,0.1-4.5,0.1C77.2,191.7,78.4,190.6,79.6,190.6 M83.7,198.8
		c-1,0.9-2,1.3-3.1,1.3c-1.9,0-4-1.5-4-5.1c3.2-0.1,6.5-0.4,7-0.5c0.5-0.1,0.6-0.3,0.6-0.9c0-2.1-1.8-4.1-4-4.1
		c-1.4,0-2.8,0.7-3.9,2c-1.1,1.2-1.8,2.8-1.8,4.7c0,3,1.9,5.7,5.2,5.7c0.8,0,2.7-0.5,4.4-2.6L83.7,198.8z M67.7,201.9
		c1.1,0,1.9,0.1,2.6,0.3c0.8,0.3,1.2,1,1.2,1.9c0,1.7-1.3,3-3.9,3c-2,0-3.5-1.1-3.5-2.5c0-0.8,0.5-1.5,1.2-2.1
		C65.8,202.1,66.4,201.9,67.7,201.9 M67.1,190.4c1.5,0,2.5,1.5,2.5,3.6s-1,3.2-2.2,3.2c-1.5,0-2.5-1.5-2.5-3.6
		C64.9,191.5,65.9,190.4,67.1,190.4 M73.6,189.9c-1,0.2-2.3,0.3-3.6,0.4c-0.8-0.4-1.7-0.7-2.6-0.7c-2.1,0-4.8,1.4-4.8,4.5
		c0,1.8,1.2,3.1,2.4,3.6c-0.4,0.5-1.3,1.2-2.4,1.6c0,0.3,0.1,0.7,0.3,1.1c0.3,0.6,1,1.2,2,1.5c-0.6,0.5-1.7,1.3-2.2,1.9
		c-0.4,0.4-0.6,0.9-0.6,1.5c0,1.5,1.7,3.3,4.6,3.3c3.6,0,6.7-2.6,6.7-5.3c0-2.6-2.2-3.2-3.9-3.2c-0.9,0-1.8,0-2.8,0
		c-1.2,0-1.7-0.5-1.7-1c0-0.4,0.4-0.9,0.8-1.1c0.4,0.1,0.9,0.1,1.4,0.1c2.3,0,4.7-1.4,4.7-4.3c0-1-0.3-1.8-0.8-2.4l1.5,0.1
		c0.4-0.2,1-0.9,1.2-1.4L73.6,189.9z M56.9,199.4c-0.5,0.5-1.4,0.9-2.1,1c-0.8,0-1.9-0.7-1.9-2.1c0-1,0.6-1.5,1.6-2
		c0.6-0.3,1.8-0.8,2.4-1.1V199.4z M61.2,200.6l-0.3-0.7c-0.3,0.2-0.6,0.3-1,0.3c-0.5,0-0.9-0.4-0.9-1.6v-5c0-1.4-0.3-2.5-1.2-3.3
		c-0.6-0.5-1.4-0.7-2.2-0.7c-1.5,0.3-3.3,1.3-4,1.9c-0.5,0.4-0.9,0.7-0.9,1.1c0,0.6,0.7,1.2,1.2,1.2c0.4,0,0.7-0.2,0.8-0.6
		c0.2-0.8,0.5-1.4,0.8-1.8c0.3-0.3,0.7-0.5,1.2-0.5c1.3,0,2.3,1.1,2.3,3v0.5c-0.6,0.5-2.5,1.2-4.2,1.7c-1.5,0.5-2.2,1.3-2.2,2.7
		c0,1.7,1.3,3.3,3.2,3.3c0.8,0,2.1-1,3.2-1.7c0.1,0.5,0.3,0.8,0.6,1.2c0.3,0.3,0.9,0.5,1.3,0.5L61.2,200.6z M39.9,192.3
		c0.7-0.5,1.8-1.1,2.7-1.1c2,0,3.6,1.6,3.6,4.5c0,3-1.5,5-3.8,5c-0.9,0-1.9-0.4-2.5-1V192.3z M39.9,191.5v-2.1
		c-1.3,0.5-2.8,1-3.9,1.2v0.6c1.7,0.2,1.8,0.3,1.8,2v12.1c0,1.8-0.2,1.9-2,2.1v0.7h6.4v-0.7c-2.1-0.2-2.3-0.3-2.3-2.4v-3.5
		c0.3,0.2,1.1,0.5,1.8,0.5c3.5-0.6,6.7-3.2,6.7-7.3c0-2.7-1.8-5.1-4.7-5.1c-0.3,0-0.8,0.1-1.3,0.4L39.9,191.5z"/>
	<path class="st1" d="M281.5,167.2c-0.5,0.5-1.4,0.9-2.1,1c-0.8,0-1.9-0.7-1.9-2.1c0-1,0.6-1.5,1.6-2c0.6-0.3,1.8-0.8,2.4-1.1V167.2
		z M285.7,168.4l-0.3-0.7c-0.3,0.2-0.6,0.3-1,0.3c-0.5,0-0.9-0.4-0.9-1.6v-5c0-1.4-0.3-2.5-1.2-3.3c-0.6-0.5-1.4-0.7-2.2-0.7
		c-1.5,0.3-3.3,1.3-4,1.9c-0.5,0.4-0.9,0.7-0.9,1.1c0,0.6,0.7,1.2,1.2,1.2c0.4,0,0.7-0.2,0.8-0.6c0.2-0.8,0.5-1.4,0.8-1.8
		c0.3-0.3,0.7-0.5,1.2-0.5c1.3,0,2.3,1.1,2.3,3v0.5c-0.6,0.5-2.5,1.2-4.2,1.7c-1.5,0.5-2.2,1.3-2.2,2.7c0,1.7,1.3,3.3,3.2,3.3
		c0.8,0,2.1-1,3.2-1.7c0.1,0.5,0.3,0.8,0.6,1.2c0.3,0.3,0.9,0.5,1.3,0.5L285.7,168.4z M261.5,157.8l-0.7,0.8l0.1,0.3h1.9v7.9
		c0,1.8-0.2,1.9-1.9,2.1v0.7h6.3v-0.7c-2.1-0.2-2.3-0.3-2.3-2.3v-7.7h2.9c0.3-0.2,0.4-0.8,0.3-1h-3.2v-1.1c0-2.3,0.3-3.6,0.6-4.1
		c0.3-0.5,0.7-0.8,1.4-0.8c0.9,0,1.6,0.5,2.2,1c0.2,0.3,0.5,0.3,0.7,0.1c0.3-0.2,0.4-0.4,0.5-0.6c0.1-0.3,0.1-0.6-0.1-0.9
		c-0.4-0.5-1.2-0.9-2.1-0.9c-1,0.1-2,0.6-2.9,1.4c-1.4,1.2-1.9,2.5-2.1,3.1c-0.2,0.6-0.3,1.4-0.3,2.2v0.6H261.5z M253.3,158.3
		c2.3,0,3.6,2.5,3.6,5.7c0,3.7-1.4,4.9-3,4.9c-2.2,0-3.7-2.5-3.7-5.9C250.2,160,251.7,158.3,253.3,158.3 M253.6,157.4
		c-2.4,0-5.9,2-5.9,6.4c0,3,2.2,5.9,5.9,5.9c2.7,0,5.8-2.1,5.8-6.4C259.4,160.1,256.9,157.4,253.6,157.4 M231.1,160.2
		c0.7-0.5,1.8-1.1,2.7-1.1c2,0,3.6,1.6,3.6,4.5c0,3-1.5,5-3.8,5c-0.9,0-1.9-0.4-2.5-1V160.2z M231.1,159.3v-2.1
		c-1.3,0.5-2.8,1-3.9,1.2v0.6c1.7,0.2,1.8,0.3,1.8,2v12.1c0,1.8-0.2,1.9-2,2.1v0.7h6.4v-0.7c-2.1-0.2-2.3-0.3-2.3-2.4v-3.5
		c0.3,0.2,1.1,0.5,1.8,0.5c3.5-0.6,6.7-3.2,6.7-7.3c0-2.7-1.8-5.1-4.7-5.1c-0.3,0-0.8,0.1-1.3,0.4L231.1,159.3z M219.8,158.3
		c2.3,0,3.6,2.5,3.6,5.7c0,3.7-1.4,4.9-3,4.9c-2.2,0-3.7-2.5-3.7-5.9C216.7,160,218.1,158.3,219.8,158.3 M220.1,157.4
		c-2.4,0-5.9,2-5.9,6.4c0,3,2.2,5.9,5.9,5.9c2.7,0,5.8-2.1,5.8-6.4C225.9,160.1,223.4,157.4,220.1,157.4 M213.2,168.5l-0.2-0.7
		c-0.4,0.2-1,0.5-1.7,0.5c-0.7,0-1.6-0.4-1.6-2.6v-6.9h2.9c0.3-0.2,0.4-0.8,0.2-1h-3v-3.7l-0.4-0.1l-1.7,1.8v2h-1.2l-0.7,0.8
		l0.1,0.3h1.8v7.8c0,2.1,0.9,3.2,2.6,3.2c0.2,0,0.7-0.1,1.1-0.3L213.2,168.5z M193.8,158.4c1.5,0,2.4,1.3,2.4,2.7
		c0,0.4-0.2,0.5-0.6,0.5c-1.6,0.1-3,0.1-4.5,0.1C191.4,159.5,192.5,158.4,193.8,158.4 M197.9,166.6c-1,0.9-2,1.3-3.1,1.3
		c-1.9,0-4-1.5-4-5.1c3.2-0.1,6.5-0.4,7-0.5c0.5-0.1,0.6-0.3,0.6-0.9c0-2.1-1.8-4.1-4-4.1c-1.4,0-2.8,0.7-3.9,2
		c-1.1,1.2-1.8,2.8-1.8,4.7c0,3,1.9,5.7,5.2,5.7c0.8,0,2.7-0.5,4.4-2.6L197.9,166.6z M187.3,169.5v-0.7c-1.6-0.1-1.8-0.3-1.8-2.1
		V162c0-3.2-1.5-4.6-3.7-4.6c-1.4,0-2.9,1-3.8,2v-9c-1,0.3-2.7,0.8-3.9,0.9v0.6c1.8,0.2,1.8,0.3,1.8,2v12.8c0,1.8-0.2,1.9-1.8,2.1
		v0.7h5.7v-0.7c-1.6-0.2-1.7-0.3-1.7-2.1v-6.4c0.8-0.9,1.8-1.4,2.8-1.4c1.8,0,2.6,1.1,2.6,3.3v4.5c0,1.7-0.2,1.9-1.8,2.1v0.7H187.3z
		 M173.2,168.5l-0.2-0.7c-0.4,0.2-1,0.5-1.7,0.5s-1.6-0.4-1.6-2.6v-6.9h2.9c0.3-0.2,0.4-0.8,0.2-1h-3v-3.7l-0.4-0.1l-1.7,1.8v2h-1.2
		l-0.7,0.8l0.1,0.3h1.8v7.8c0,2.1,0.9,3.2,2.6,3.2c0.2,0,0.7-0.1,1.1-0.3L173.2,168.5z M158.9,168.5l-0.2-0.7
		c-0.4,0.2-1,0.5-1.7,0.5s-1.6-0.4-1.6-2.6v-6.9h2.9c0.3-0.2,0.4-0.8,0.2-1h-3v-3.7l-0.4-0.1l-1.7,1.8v2h-1.2l-0.7,0.8l0.1,0.3h1.8
		v7.8c0,2.1,0.9,3.2,2.6,3.2c0.2,0,0.7-0.1,1.1-0.3L158.9,168.5z M147,167.2c-0.5,0.5-1.4,0.9-2.1,1c-0.8,0-1.9-0.7-1.9-2.1
		c0-1,0.6-1.5,1.6-2c0.6-0.3,1.8-0.8,2.4-1.1V167.2z M151.3,168.4l-0.3-0.7c-0.3,0.2-0.6,0.3-1,0.3c-0.5,0-0.9-0.4-0.9-1.6v-5
		c0-1.4-0.3-2.5-1.2-3.3c-0.6-0.5-1.4-0.7-2.2-0.7c-1.5,0.3-3.3,1.3-4,1.9c-0.5,0.4-0.9,0.7-0.9,1.1c0,0.6,0.7,1.2,1.2,1.2
		c0.4,0,0.7-0.2,0.8-0.6c0.2-0.8,0.5-1.4,0.8-1.8c0.3-0.3,0.7-0.5,1.2-0.5c1.3,0,2.3,1.1,2.3,3v0.5c-0.6,0.5-2.5,1.2-4.2,1.7
		c-1.5,0.5-2.2,1.3-2.2,2.7c0,1.7,1.3,3.3,3.2,3.3c0.8,0,2.1-1,3.2-1.7c0.1,0.5,0.3,0.8,0.6,1.2c0.3,0.3,0.9,0.5,1.3,0.5
		L151.3,168.4z M129.1,167.2c-0.6,0.5-1.6,0.9-2.6,0.9c-1.7,0-3.7-1.6-3.7-4.7c0-3.9,2.3-4.9,3.5-4.9c1,0,2.1,0.4,2.8,1.4V167.2z
		 M133.3,168.1l-0.9-0.1c-1-0.1-1.2-0.2-1.2-1.6v-16c-1,0.3-2.8,0.8-4.2,0.9v0.6c1.9,0.1,2.1,0.2,2.1,2v3.8
		c-0.6-0.2-1.4-0.3-1.8-0.3c-3.6,0-6.9,2.9-6.9,6.6c0,3.8,2.8,5.7,5,5.7c0.3,0,1-0.2,2.1-0.8l1.6-1v1.7c1.6-0.6,3.6-0.9,4.2-1V168.1
		z M118.9,169.5v-0.7c-1.6-0.2-1.7-0.3-1.7-2.1v-5.2c0-2.6-1.3-4.1-3.5-4.1c-0.8,0-1.5,0.3-2.2,0.8c-0.7,0.5-1.3,0.9-1.8,1.3v-2.1
		c-1.2,0.5-2.4,0.9-3.7,1.1v0.6c1.4,0.3,1.6,0.3,1.6,2.1v5.5c0,1.8-0.1,1.9-2,2.1v0.7h5.8v-0.7c-1.6-0.2-1.7-0.3-1.7-2.1v-6.3
		c0.8-0.7,1.8-1.4,2.9-1.4c1.8,0,2.4,1.2,2.4,3.1v4.5c0,1.8-0.2,2.1-1.8,2.2v0.7H118.9z M100.7,167.2c-0.5,0.5-1.4,0.9-2.1,1
		c-0.8,0-1.9-0.7-1.9-2.1c0-1,0.6-1.5,1.6-2c0.6-0.3,1.8-0.8,2.4-1.1V167.2z M104.9,168.4l-0.3-0.7c-0.3,0.2-0.6,0.3-1,0.3
		c-0.5,0-0.9-0.4-0.9-1.6v-5c0-1.4-0.3-2.5-1.2-3.3c-0.6-0.5-1.4-0.7-2.2-0.7c-1.5,0.3-3.3,1.3-4,1.9c-0.5,0.4-0.9,0.7-0.9,1.1
		c0,0.6,0.7,1.2,1.2,1.2c0.4,0,0.7-0.2,0.8-0.6c0.2-0.8,0.5-1.4,0.8-1.8c0.3-0.3,0.7-0.5,1.2-0.5c1.3,0,2.3,1.1,2.3,3v0.5
		c-0.6,0.5-2.5,1.2-4.2,1.7c-1.5,0.5-2.2,1.3-2.2,2.7c0,1.7,1.3,3.3,3.2,3.3c0.8,0,2.1-1,3.2-1.7c0.1,0.5,0.3,0.8,0.6,1.2
		c0.3,0.3,0.9,0.5,1.3,0.5L104.9,168.4z M81.9,158.4c1.5,0,2.4,1.3,2.4,2.7c0,0.4-0.2,0.5-0.6,0.5c-1.6,0.1-3,0.1-4.5,0.1
		C79.5,159.5,80.7,158.4,81.9,158.4 M86,166.6c-1,0.9-2,1.3-3.1,1.3c-1.9,0-4-1.5-4-5.1c3.2-0.1,6.5-0.4,7-0.5
		c0.5-0.1,0.6-0.3,0.6-0.9c0-2.1-1.8-4.1-4-4.1c-1.4,0-2.8,0.7-3.9,2c-1.1,1.2-1.8,2.8-1.8,4.7c0,3,1.9,5.7,5.2,5.7
		c0.8,0,2.7-0.5,4.4-2.6L86,166.6z M70,169.8c1.1,0,1.9,0.1,2.6,0.3c0.8,0.3,1.2,1,1.2,1.9c0,1.7-1.3,3-3.9,3c-2,0-3.5-1.1-3.5-2.5
		c0-0.8,0.5-1.5,1.2-2.1C68.1,169.9,68.7,169.8,70,169.8 M69.4,158.2c1.5,0,2.5,1.5,2.5,3.6s-1,3.2-2.2,3.2c-1.5,0-2.5-1.5-2.5-3.6
		C67.2,159.4,68.2,158.2,69.4,158.2 M75.9,157.7c-1,0.2-2.3,0.3-3.6,0.4c-0.8-0.4-1.7-0.7-2.6-0.7c-2.1,0-4.8,1.4-4.8,4.5
		c0,1.8,1.2,3.1,2.4,3.6c-0.4,0.5-1.3,1.2-2.4,1.6c0,0.3,0.1,0.7,0.3,1.1c0.3,0.6,1,1.2,2,1.5c-0.6,0.5-1.7,1.3-2.2,1.9
		c-0.4,0.4-0.6,0.9-0.6,1.5c0,1.5,1.7,3.3,4.6,3.3c3.6,0,6.7-2.6,6.7-5.3c0-2.6-2.2-3.2-3.9-3.2c-0.9,0-1.8,0-2.8,0
		c-1.2,0-1.7-0.5-1.7-1c0-0.4,0.4-0.9,0.8-1.1c0.4,0.1,0.9,0.1,1.4,0.1c2.3,0,4.7-1.4,4.7-4.3c0-1-0.3-1.8-0.8-2.4l1.5,0.1
		c0.4-0.2,1-0.9,1.2-1.4L75.9,157.7z M58.6,160.3v-2.9c-1.3,0.6-2.5,0.9-3.8,1.1v0.6c1.5,0.2,1.7,0.3,1.7,2.1v5.5
		c0,1.8-0.2,1.9-1.8,2.1v0.7h6.2v-0.7c-2.1-0.2-2.2-0.3-2.2-2.1v-4.9c0.6-1.5,1.4-2.3,2.1-2.3c0.4,0,0.8,0.2,1.1,0.6
		c0.2,0.2,0.4,0.2,0.7,0.1c0.5-0.2,0.9-0.8,0.9-1.3c0-0.6-0.6-1.3-1.6-1.3C60.6,157.4,59.5,158.9,58.6,160.3L58.6,160.3z
		 M49.6,167.2c-0.5,0.5-1.4,0.9-2.1,1c-0.8,0-1.9-0.7-1.9-2.1c0-1,0.6-1.5,1.6-2c0.6-0.3,1.8-0.8,2.4-1.1V167.2z M53.9,168.4
		l-0.3-0.7c-0.3,0.2-0.6,0.3-1,0.3c-0.5,0-0.9-0.4-0.9-1.6v-5c0-1.4-0.3-2.5-1.2-3.3c-0.6-0.5-1.4-0.7-2.2-0.7
		c-1.5,0.3-3.3,1.3-4,1.9c-0.5,0.4-0.9,0.7-0.9,1.1c0,0.6,0.7,1.2,1.2,1.2c0.4,0,0.7-0.2,0.8-0.6c0.2-0.8,0.5-1.4,0.8-1.8
		c0.3-0.3,0.7-0.5,1.2-0.5c1.3,0,2.3,1.1,2.3,3v0.5c-0.6,0.5-2.5,1.2-4.2,1.7c-1.5,0.5-2.2,1.3-2.2,2.7c0,1.7,1.3,3.3,3.2,3.3
		c0.8,0,2.1-1,3.2-1.7c0.1,0.5,0.3,0.8,0.6,1.2c0.3,0.3,0.9,0.5,1.3,0.5L53.9,168.4z M41.8,169.5v-0.7c-1.7-0.2-1.9-0.3-1.9-2.1
		v-16.3c-0.9,0.3-2.6,0.8-4,0.9v0.6c1.7,0.1,1.8,0.2,1.8,2v12.7c0,1.8-0.2,1.9-1.9,2.1v0.7H41.8z"/>
	<path class="st1" d="M291.1,128.6c-0.1-0.7-0.4-2.3-0.6-2.9c-0.6-0.2-1.3-0.5-2.4-0.5c-2.5,0-4.1,1.6-4.1,3.5
		c0,2.1,1.7,2.9,3.4,3.7c1.3,0.6,2.1,1.3,2.1,2.4c0,1.1-0.9,1.9-1.9,1.9c-1.6,0-2.8-1.6-3.3-3.3l-0.7,0.1c0,1,0.2,2.8,0.4,3.2
		c0.5,0.4,1.7,0.9,3.1,0.9c2.1,0,4.4-1.3,4.4-3.7c0-1.8-1.4-2.8-3.4-3.6c-1.2-0.5-2.3-1.1-2.3-2.3c0-1,0.7-1.8,1.7-1.8
		c1.3,0,2.3,1.1,2.8,2.7L291.1,128.6z M277.2,126.3c1.5,0,2.4,1.3,2.4,2.7c0,0.4-0.2,0.5-0.6,0.5c-1.6,0.1-3,0.1-4.5,0.1
		C274.8,127.4,276,126.3,277.2,126.3 M281.3,134.5c-1,0.9-2,1.3-3.1,1.3c-1.9,0-4-1.5-4-5.1c3.2-0.1,6.5-0.4,7-0.5
		c0.5-0.1,0.6-0.3,0.6-0.9c0-2.1-1.8-4.1-4-4.1c-1.4,0-2.8,0.7-3.9,2c-1.1,1.2-1.8,2.8-1.8,4.7c0,3,1.9,5.7,5.2,5.7
		c0.8,0,2.7-0.5,4.4-2.6L281.3,134.5z M270.6,137.3v-0.7c-1.6-0.2-1.7-0.3-1.7-2.1v-5.2c0-2.6-1.3-4.1-3.5-4.1
		c-0.8,0-1.5,0.3-2.2,0.8c-0.7,0.5-1.3,0.9-1.8,1.3v-2.1c-1.2,0.5-2.4,0.9-3.7,1.1v0.6c1.4,0.3,1.6,0.3,1.6,2.1v5.5
		c0,1.8-0.1,1.9-2,2.1v0.7h5.8v-0.7c-1.6-0.2-1.7-0.3-1.7-2.1v-6.3c0.8-0.7,1.8-1.4,2.9-1.4c1.8,0,2.4,1.2,2.4,3.1v4.5
		c0,1.8-0.2,2.1-1.8,2.2v0.7H270.6z M256.2,137.3v-0.7c-1.7-0.2-1.9-0.3-1.9-2.1v-9.2c-1.2,0.5-2.4,0.8-3.8,1v0.6
		c1.6,0.3,1.7,0.4,1.7,2v5.5c0,1.8-0.2,2-1.9,2.1v0.7H256.2z M253,122.9c0.8,0,1.4-0.6,1.4-1.4c0-0.8-0.6-1.4-1.3-1.4
		c-0.7,0-1.4,0.6-1.4,1.4C251.7,122.3,252.4,122.9,253,122.9 M249,137.3v-0.7c-1.7-0.2-1.9-0.3-1.9-2.1v-16.3
		c-0.9,0.3-2.6,0.8-4,0.9v0.6c1.7,0.1,1.8,0.2,1.8,2v12.7c0,1.8-0.2,1.9-1.9,2.1v0.7H249z M238.1,135c-0.6,0.5-1.6,0.9-2.6,0.9
		c-1.7,0-3.7-1.6-3.7-4.7c0-3.9,2.3-4.9,3.5-4.9c1,0,2.1,0.4,2.8,1.4V135z M242.2,135.9l-0.9-0.1c-1-0.1-1.2-0.2-1.2-1.6v-16
		c-1,0.3-2.8,0.8-4.2,0.9v0.6c1.9,0.1,2.1,0.2,2.1,2v3.8c-0.6-0.2-1.4-0.3-1.8-0.3c-3.6,0-6.9,2.9-6.9,6.6c0,3.8,2.8,5.7,5,5.7
		c0.3,0,1-0.2,2.1-0.8l1.6-1v1.7c1.6-0.6,3.6-0.9,4.2-1V135.9z M224,135c-0.5,0.5-1.4,0.9-2.1,1c-0.8,0-1.9-0.7-1.9-2.1
		c0-1,0.6-1.5,1.6-2c0.6-0.3,1.8-0.8,2.4-1.1V135z M228.2,136.3l-0.3-0.7c-0.3,0.2-0.6,0.3-1,0.3c-0.5,0-0.9-0.4-0.9-1.6v-5
		c0-1.4-0.3-2.5-1.2-3.3c-0.6-0.5-1.4-0.7-2.2-0.7c-1.5,0.3-3.3,1.3-4,1.9c-0.5,0.4-0.9,0.7-0.9,1.1c0,0.6,0.7,1.2,1.2,1.2
		c0.4,0,0.7-0.2,0.8-0.6c0.2-0.8,0.5-1.4,0.8-1.8c0.3-0.3,0.7-0.5,1.2-0.5c1.3,0,2.3,1.1,2.3,3v0.5c-0.6,0.5-2.5,1.2-4.2,1.7
		c-1.5,0.5-2.2,1.3-2.2,2.7c0,1.7,1.3,3.3,3.2,3.3c0.8,0,2.1-1,3.2-1.7c0.1,0.5,0.3,0.8,0.6,1.2c0.3,0.3,0.9,0.5,1.3,0.5
		L228.2,136.3z M211.1,126.3c1.5,0,2.4,1.3,2.4,2.7c0,0.4-0.2,0.5-0.6,0.5c-1.6,0.1-3,0.1-4.5,0.1
		C208.7,127.4,209.9,126.3,211.1,126.3 M215.2,134.5c-1,0.9-2,1.3-3.1,1.3c-1.9,0-4-1.5-4-5.1c3.2-0.1,6.5-0.4,7-0.5
		c0.5-0.1,0.6-0.3,0.6-0.9c0-2.1-1.8-4.1-4-4.1c-1.4,0-2.8,0.7-3.9,2c-1.1,1.2-1.8,2.8-1.8,4.7c0,3,1.9,5.7,5.2,5.7
		c0.8,0,2.7-0.5,4.4-2.6L215.2,134.5z M204.6,137.3v-0.7c-1.6-0.1-1.8-0.3-1.8-2.1v-4.7c0-3.2-1.5-4.6-3.7-4.6c-1.4,0-2.9,1-3.8,2
		v-9c-1,0.3-2.7,0.8-3.9,0.9v0.6c1.8,0.2,1.8,0.3,1.8,2v12.8c0,1.8-0.2,1.9-1.8,2.1v0.7h5.7v-0.7c-1.6-0.2-1.7-0.3-1.7-2.1v-6.4
		c0.8-0.9,1.8-1.4,2.8-1.4c1.8,0,2.6,1.1,2.6,3.3v4.5c0,1.7-0.2,1.9-1.8,2.1v0.7H204.6z M185.3,125.6h-4.9v0.7
		c1.5,0.2,1.7,0.5,1.4,1.5c-0.6,1.7-1.7,4.9-2.5,6.7l-2.4-6.7c-0.3-1-0.2-1.3,1-1.5v-0.7h-5.4v0.7c1.5,0.2,1.7,0.6,2.3,2
		c0.8,1.9,2,5.1,3.1,8.2c0.2,0.5,0.2,0.8,0,1.2c-0.1,0.3-0.3,0.9-0.8,1.8c-0.6,1.2-1.2,1.8-2,2.4c-0.5,0.3-0.7,0.5-0.7,1
		c0,0.6,0.8,1.3,1.5,1.3c0.4,0,0.7-0.1,0.9-0.6c0.4-1.4,1-3,2.8-7.3c1.8-4.4,2.7-6.6,3.4-8.1c0.7-1.5,1-1.7,2.4-2V125.6z M168.5,135
		c-0.5,0.5-1.4,0.9-2.1,1c-0.8,0-1.9-0.7-1.9-2.1c0-1,0.6-1.5,1.6-2c0.6-0.3,1.8-0.8,2.4-1.1V135z M172.8,136.3l-0.3-0.7
		c-0.3,0.2-0.6,0.3-1,0.3c-0.5,0-0.9-0.4-0.9-1.6v-5c0-1.4-0.3-2.5-1.2-3.3c-0.6-0.5-1.4-0.7-2.2-0.7c-1.5,0.3-3.3,1.3-4,1.9
		c-0.5,0.4-0.9,0.7-0.9,1.1c0,0.6,0.7,1.2,1.2,1.2c0.4,0,0.7-0.2,0.8-0.6c0.2-0.8,0.5-1.4,0.8-1.8c0.3-0.3,0.7-0.5,1.2-0.5
		c1.3,0,2.3,1.1,2.3,3v0.5c-0.6,0.5-2.5,1.2-4.2,1.7c-1.5,0.5-2.2,1.3-2.2,2.7c0,1.7,1.3,3.3,3.2,3.3c0.8,0,2.1-1,3.2-1.7
		c0.1,0.5,0.3,0.8,0.6,1.2c0.3,0.3,0.9,0.5,1.3,0.5L172.8,136.3z M160.7,137.3v-0.7c-1.7-0.2-1.9-0.3-1.9-2.1v-16.3
		c-0.9,0.3-2.6,0.8-4,0.9v0.6c1.7,0.1,1.8,0.2,1.8,2v12.7c0,1.8-0.2,1.9-1.9,2.1v0.7H160.7z M148,136.3l-0.2-0.7
		c-0.4,0.2-1,0.5-1.7,0.5s-1.6-0.4-1.6-2.6v-6.9h2.9c0.3-0.2,0.4-0.8,0.2-1h-3v-3.7l-0.4-0.1l-1.7,1.8v2h-1.2l-0.7,0.8l0.1,0.3h1.8
		v7.8c0,2.1,0.9,3.2,2.6,3.2c0.2,0,0.7-0.1,1.1-0.3L148,136.3z M139.9,137.3v-0.7c-1.7-0.2-1.9-0.3-1.9-2.1v-16.3
		c-0.9,0.3-2.6,0.8-4,0.9v0.6c1.7,0.1,1.8,0.2,1.8,2v12.7c0,1.8-0.2,1.9-1.9,2.1v0.7H139.9z M129,135c-0.5,0.5-1.4,0.9-2.1,1
		c-0.8,0-1.9-0.7-1.9-2.1c0-1,0.6-1.5,1.6-2c0.6-0.3,1.8-0.8,2.4-1.1V135z M133.3,136.3l-0.3-0.7c-0.3,0.2-0.6,0.3-1,0.3
		c-0.5,0-0.9-0.4-0.9-1.6v-5c0-1.4-0.3-2.5-1.2-3.3c-0.6-0.5-1.4-0.7-2.2-0.7c-1.5,0.3-3.3,1.3-4,1.9c-0.5,0.4-0.9,0.7-0.9,1.1
		c0,0.6,0.7,1.2,1.2,1.2c0.4,0,0.7-0.2,0.8-0.6c0.2-0.8,0.5-1.4,0.8-1.8c0.3-0.3,0.7-0.5,1.2-0.5c1.3,0,2.3,1.1,2.3,3v0.5
		c-0.6,0.5-2.5,1.2-4.2,1.7c-1.5,0.5-2.2,1.3-2.2,2.7c0,1.7,1.3,3.3,3.2,3.3c0.8,0,2.1-1,3.2-1.7c0.1,0.5,0.3,0.8,0.6,1.2
		c0.3,0.3,0.9,0.5,1.3,0.5L133.3,136.3z M121.2,137.3v-0.7c-1.6-0.1-1.8-0.3-1.8-2.1v-4.7c0-3.2-1.5-4.6-3.7-4.6c-1.4,0-2.9,1-3.8,2
		v-9c-1,0.3-2.7,0.8-3.9,0.9v0.6c1.8,0.2,1.8,0.3,1.8,2v12.8c0,1.8-0.2,1.9-1.8,2.1v0.7h5.7v-0.7c-1.6-0.2-1.7-0.3-1.7-2.1v-6.4
		c0.8-0.9,1.8-1.4,2.8-1.4c1.8,0,2.6,1.1,2.6,3.3v4.5c0,1.7-0.2,1.9-1.8,2.1v0.7H121.2z M106.3,128.6c-0.1-0.7-0.4-2.3-0.6-2.9
		c-0.6-0.2-1.3-0.5-2.4-0.5c-2.5,0-4.1,1.6-4.1,3.5c0,2.1,1.7,2.9,3.4,3.7c1.3,0.6,2.1,1.3,2.1,2.4c0,1.1-0.9,1.9-1.9,1.9
		c-1.6,0-2.8-1.6-3.3-3.3l-0.7,0.1c0,1,0.2,2.8,0.4,3.2c0.5,0.4,1.7,0.9,3.1,0.9c2.1,0,4.4-1.3,4.4-3.7c0-1.8-1.4-2.8-3.4-3.6
		c-1.2-0.5-2.3-1.1-2.3-2.3c0-1,0.7-1.8,1.7-1.8c1.3,0,2.3,1.1,2.8,2.7L106.3,128.6z M91.3,136l-0.8-0.1c-1-0.1-1.2-0.2-1.2-1.6v-9
		c-1.4,0.3-2.8,0.4-4.2,0.5v0.6c1.9,0.3,2.1,0.4,2.1,1.9v6.2c-0.9,0.9-1.9,1.3-2.9,1.3c-1.2,0-2.4-0.6-2.4-3v-3.6
		c0-1.8,0-3.1,0.1-3.9c-1.3,0.2-2.6,0.4-3.8,0.5v0.6c1.5,0.3,1.6,0.4,1.6,1.9v5.3c0,2.9,1.5,4,3.3,4c0.7,0,1.3-0.2,2.1-0.7
		c0.8-0.5,1.4-0.9,2-1.4v1.9l0.2,0.2c1.3-0.4,2.7-0.8,3.9-1V136z M70.6,126.1c2.3,0,3.6,2.5,3.6,5.7c0,3.7-1.4,4.9-3,4.9
		c-2.2,0-3.7-2.5-3.7-5.9C67.5,127.8,68.9,126.1,70.6,126.1 M70.9,125.3c-2.4,0-5.9,2-5.9,6.4c0,3,2.2,5.9,5.9,5.9
		c2.7,0,5.8-2.1,5.8-6.4C76.7,127.9,74.2,125.3,70.9,125.3 M63.6,137.3v-0.7c-1.6-0.2-1.8-0.3-1.8-2.1v-4.7c0-3.2-1.5-4.6-3.8-4.6
		c-1.4,0-2.8,0.9-3.7,1.9v-9c-0.8,0.3-1.6,0.5-2.1,0.6v0.4c0,0.5-0.3,0.7-2.6,0.7H38.4c-0.8,0-1.1-0.1-1.4-0.7h-0.5
		c-0.1,1.5-0.2,3.3-0.3,4.8h0.8c0.3-1.2,0.5-1.8,0.9-2.3c0.4-0.6,0.9-0.9,3.3-0.9h1.7v13.1c0,2.3-0.2,2.5-2.6,2.7v0.7h7.5v-0.7
		c-2.4-0.2-2.7-0.4-2.7-2.7v-13.1h1.9c2.4,0,3.8,0,5.3,0.2v13.5c0,1.8-0.2,2-1.9,2.1v0.7H56v-0.7c-1.6-0.2-1.7-0.4-1.7-2.1v-6.3
		c0.7-0.9,1.8-1.4,2.8-1.4c1.8,0,2.7,1.1,2.7,3.3v4.4c0,1.8-0.2,2-1.8,2.1v0.7H63.6z"/>
	<path class="st1" d="M284.9,302.3c0.4,0,0.6,0.3,0.6,0.7c0,0.1,0,0.1-0.2,0.1c-0.4,0-0.8,0-1.2,0
		C284.3,302.6,284.6,302.3,284.9,302.3 M286,304.4c-0.2,0.2-0.5,0.3-0.8,0.3c-0.5,0-1-0.4-1-1.3c0.8,0,1.7-0.1,1.8-0.1
		c0.1,0,0.2-0.1,0.2-0.2c0-0.5-0.5-1-1-1c-0.4,0-0.7,0.2-1,0.5c-0.3,0.3-0.5,0.7-0.5,1.2c0,0.8,0.5,1.5,1.3,1.5
		c0.2,0,0.7-0.1,1.1-0.7L286,304.4z M282.1,302.8V302c-0.3,0.1-0.6,0.2-1,0.3v0.2c0.4,0.1,0.4,0.1,0.4,0.5v1.4c0,0.5,0,0.5-0.5,0.5
		v0.2h1.6v-0.2c-0.5,0-0.6-0.1-0.6-0.5v-1.3c0.2-0.4,0.4-0.6,0.6-0.6c0.1,0,0.2,0,0.3,0.1c0,0,0.1,0,0.2,0c0.1-0.1,0.2-0.2,0.2-0.3
		c0-0.2-0.2-0.3-0.4-0.3C282.7,302,282.4,302.4,282.1,302.8L282.1,302.8z M279.5,302.3c0.4,0,0.6,0.3,0.6,0.7c0,0.1,0,0.1-0.2,0.1
		c-0.4,0-0.8,0-1.2,0C278.9,302.6,279.2,302.3,279.5,302.3 M280.6,304.4c-0.2,0.2-0.5,0.3-0.8,0.3c-0.5,0-1-0.4-1-1.3
		c0.8,0,1.7-0.1,1.8-0.1c0.1,0,0.2-0.1,0.2-0.2c0-0.5-0.5-1-1-1c-0.4,0-0.7,0.2-1,0.5c-0.3,0.3-0.5,0.7-0.5,1.2
		c0,0.8,0.5,1.5,1.3,1.5c0.2,0,0.7-0.1,1.1-0.7L280.6,304.4z M277.8,305.1v-0.2c-0.4,0-0.5-0.1-0.5-0.5v-1.2c0-0.8-0.4-1.2-1-1.2
		c-0.4,0-0.7,0.3-1,0.5v-2.3c-0.3,0.1-0.7,0.2-1,0.2v0.2c0.5,0,0.5,0.1,0.5,0.5v3.3c0,0.5-0.1,0.5-0.5,0.5v0.2h1.5v-0.2
		c-0.4,0-0.4-0.1-0.4-0.5v-1.6c0.2-0.2,0.5-0.4,0.7-0.4c0.5,0,0.7,0.3,0.7,0.8v1.1c0,0.4-0.1,0.5-0.5,0.5v0.2H277.8z M272.4,302.9
		c0-0.2-0.1-0.6-0.2-0.7c-0.1-0.1-0.3-0.1-0.6-0.1c-0.6,0-1,0.4-1,0.9c0,0.5,0.4,0.8,0.9,1c0.3,0.2,0.5,0.3,0.5,0.6
		c0,0.3-0.2,0.5-0.5,0.5c-0.4,0-0.7-0.4-0.8-0.9l-0.2,0c0,0.2,0.1,0.7,0.1,0.8c0.1,0.1,0.4,0.2,0.8,0.2c0.6,0,1.1-0.3,1.1-1
		c0-0.5-0.4-0.7-0.9-0.9c-0.3-0.1-0.6-0.3-0.6-0.6c0-0.3,0.2-0.5,0.4-0.5c0.3,0,0.6,0.3,0.7,0.7L272.4,302.9z M268.8,302.3
		c0.4,0,0.6,0.3,0.6,0.7c0,0.1,0,0.1-0.2,0.1c-0.4,0-0.8,0-1.2,0C268.2,302.6,268.5,302.3,268.8,302.3 M269.9,304.4
		c-0.2,0.2-0.5,0.3-0.8,0.3c-0.5,0-1-0.4-1-1.3c0.8,0,1.7-0.1,1.8-0.1c0.1,0,0.2-0.1,0.2-0.2c0-0.5-0.5-1-1-1c-0.4,0-0.7,0.2-1,0.5
		c-0.3,0.3-0.5,0.7-0.5,1.2c0,0.8,0.5,1.5,1.3,1.5c0.2,0,0.7-0.1,1.1-0.7L269.9,304.4z M265.4,302.3c0.6,0,0.9,0.7,0.9,1.5
		c0,0.9-0.4,1.3-0.8,1.3c-0.6,0-0.9-0.6-0.9-1.5C264.6,302.7,265,302.3,265.4,302.3 M265.5,302c-0.6,0-1.5,0.5-1.5,1.7
		c0,0.8,0.6,1.5,1.5,1.5c0.7,0,1.5-0.5,1.5-1.6C267,302.7,266.3,302,265.5,302 M262.2,305.2c0.3,0,0.5,0,0.7,0.1
		c0.2,0.1,0.3,0.3,0.3,0.5c0,0.4-0.3,0.8-1,0.8c-0.5,0-0.9-0.3-0.9-0.7c0-0.2,0.1-0.4,0.3-0.5C261.7,305.2,261.9,305.2,262.2,305.2
		 M262.1,302.2c0.4,0,0.6,0.4,0.6,0.9c0,0.5-0.3,0.8-0.6,0.8c-0.4,0-0.6-0.4-0.6-0.9C261.5,302.5,261.8,302.2,262.1,302.2
		 M263.7,302.1c-0.2,0-0.6,0.1-0.9,0.1c-0.2-0.1-0.4-0.2-0.7-0.2c-0.5,0-1.2,0.4-1.2,1.1c0,0.5,0.3,0.8,0.6,0.9
		c-0.1,0.1-0.3,0.3-0.6,0.4c0,0.1,0,0.2,0.1,0.3c0.1,0.1,0.3,0.3,0.5,0.4c-0.2,0.1-0.4,0.3-0.6,0.5c-0.1,0.1-0.2,0.2-0.2,0.4
		c0,0.4,0.4,0.8,1.2,0.8c0.9,0,1.7-0.7,1.7-1.4c0-0.7-0.6-0.8-1-0.8c-0.2,0-0.5,0-0.7,0c-0.3,0-0.4-0.1-0.4-0.3
		c0-0.1,0.1-0.2,0.2-0.3c0.1,0,0.2,0,0.4,0c0.6,0,1.2-0.4,1.2-1.1c0-0.2-0.1-0.5-0.2-0.6l0.4,0C263.6,302.4,263.7,302.3,263.7,302.1
		L263.7,302.1z M257.6,302.3c0.4,0,0.6,0.3,0.6,0.7c0,0.1,0,0.1-0.2,0.1c-0.4,0-0.8,0-1.2,0C257,302.6,257.3,302.3,257.6,302.3
		 M258.7,304.4c-0.2,0.2-0.5,0.3-0.8,0.3c-0.5,0-1-0.4-1-1.3c0.8,0,1.7-0.1,1.8-0.1c0.1,0,0.2-0.1,0.2-0.2c0-0.5-0.5-1-1-1
		c-0.4,0-0.7,0.2-1,0.5c-0.3,0.3-0.5,0.7-0.5,1.2c0,0.8,0.5,1.5,1.3,1.5c0.2,0,0.7-0.1,1.1-0.7L258.7,304.4z M255.9,305.1v-0.2
		c-0.4,0-0.4-0.1-0.4-0.5v-1.3c0-0.7-0.3-1-0.9-1c-0.2,0-0.4,0.1-0.6,0.2c-0.2,0.1-0.3,0.2-0.5,0.3V302c-0.3,0.1-0.6,0.2-1,0.3v0.2
		c0.4,0.1,0.4,0.1,0.4,0.5v1.4c0,0.5,0,0.5-0.5,0.5v0.2h1.5v-0.2c-0.4,0-0.4-0.1-0.4-0.5v-1.6c0.2-0.2,0.5-0.4,0.8-0.4
		c0.5,0,0.6,0.3,0.6,0.8v1.2c0,0.5,0,0.5-0.5,0.6v0.2H255.9z M252.2,305.1v-0.2c-0.4,0-0.5-0.1-0.5-0.6V302c-0.3,0.1-0.6,0.2-1,0.3
		v0.2c0.4,0.1,0.4,0.1,0.4,0.5v1.4c0,0.5,0,0.5-0.5,0.6v0.2H252.2z M251.4,301.4c0.2,0,0.4-0.2,0.4-0.4c0-0.2-0.2-0.4-0.3-0.4
		c-0.2,0-0.4,0.2-0.4,0.4C251,301.3,251.2,301.4,251.4,301.4 M250.4,305.1v-0.2c-0.4,0-0.5-0.1-0.5-0.5v-4.2c-0.2,0.1-0.7,0.2-1,0.2
		v0.2c0.4,0,0.5,0.1,0.5,0.5v3.3c0,0.5-0.1,0.5-0.5,0.5v0.2H250.4z M247.5,304.5c-0.2,0.1-0.4,0.2-0.7,0.2c-0.4,0-0.9-0.4-0.9-1.2
		c0-1,0.6-1.3,0.9-1.3c0.3,0,0.5,0.1,0.7,0.4V304.5z M248.6,304.8l-0.2,0c-0.3,0-0.3-0.1-0.3-0.4v-4.1c-0.3,0.1-0.7,0.2-1.1,0.2v0.2
		c0.5,0,0.5,0.1,0.5,0.5v1c-0.2-0.1-0.4-0.1-0.5-0.1c-0.9,0-1.8,0.8-1.8,1.7c0,1,0.7,1.5,1.3,1.5c0.1,0,0.3,0,0.5-0.2l0.4-0.2v0.4
		c0.4-0.1,0.9-0.2,1.1-0.3V304.8z M243.9,304.5c-0.1,0.1-0.4,0.2-0.6,0.2c-0.2,0-0.5-0.2-0.5-0.5c0-0.2,0.2-0.4,0.4-0.5
		c0.1-0.1,0.5-0.2,0.6-0.3V304.5z M245,304.9l-0.1-0.2c-0.1,0-0.2,0.1-0.2,0.1c-0.1,0-0.2-0.1-0.2-0.4v-1.3c0-0.4-0.1-0.6-0.3-0.8
		c-0.2-0.1-0.4-0.2-0.6-0.2c-0.4,0.1-0.8,0.3-1,0.5c-0.1,0.1-0.2,0.2-0.2,0.3c0,0.2,0.2,0.3,0.3,0.3c0.1,0,0.2,0,0.2-0.2
		c0.1-0.2,0.1-0.4,0.2-0.5c0.1-0.1,0.2-0.1,0.3-0.1c0.3,0,0.6,0.3,0.6,0.8v0.1c-0.2,0.1-0.7,0.3-1.1,0.4c-0.4,0.1-0.6,0.3-0.6,0.7
		c0,0.4,0.3,0.8,0.8,0.8c0.2,0,0.5-0.3,0.8-0.4c0,0.1,0.1,0.2,0.2,0.3c0.1,0.1,0.2,0.1,0.3,0.1L245,304.9z M240.6,302.3
		c0.4,0,0.6,0.3,0.6,0.7c0,0.1,0,0.1-0.2,0.1c-0.4,0-0.8,0-1.2,0C240,302.6,240.3,302.3,240.6,302.3 M241.7,304.4
		c-0.2,0.2-0.5,0.3-0.8,0.3c-0.5,0-1-0.4-1-1.3c0.8,0,1.7-0.1,1.8-0.1c0.1,0,0.2-0.1,0.2-0.2c0-0.5-0.5-1-1-1c-0.4,0-0.7,0.2-1,0.5
		c-0.3,0.3-0.5,0.7-0.5,1.2c0,0.8,0.5,1.5,1.3,1.5c0.2,0,0.7-0.1,1.1-0.7L241.7,304.4z M239,300.6h-1.8v0.2c0.5,0,0.6,0.1,0.6,0.7
		v1.1h-2.4v-1.1c0-0.6,0.1-0.6,0.6-0.7v-0.2h-1.8v0.2c0.6,0,0.6,0.1,0.6,0.7v2.8c0,0.6-0.1,0.6-0.6,0.7v0.2h1.8v-0.2
		c-0.6,0-0.6-0.1-0.6-0.7v-1.4h2.4v1.4c0,0.6-0.1,0.6-0.6,0.7v0.2h1.8v-0.2c-0.6,0-0.6-0.1-0.6-0.7v-2.8c0-0.6,0.1-0.6,0.6-0.7
		V300.6z"/>
	<path class="st1" d="M167,193.8c0-0.5,0.4-0.8,0.9-0.8c0.1,0,0.2,0.1,0.2,0.2c0,0.5,0,1,0,1.6C167.4,194.7,167,194.3,167,193.8
		 M169.8,192.4c0.3,0.3,0.5,0.7,0.5,1c0,0.6-0.5,1.4-1.8,1.4c0-1.1-0.1-2.2-0.2-2.4c0-0.2-0.1-0.2-0.3-0.2c-0.7,0-1.4,0.6-1.4,1.4
		c0,0.5,0.2,1,0.7,1.4c0.4,0.4,1,0.6,1.6,0.6c1,0,2-0.7,2-1.8c0-0.3-0.2-0.9-0.9-1.5L169.8,192.4z M167.6,197.5h-1
		c0.2,0.4,0.3,0.8,0.4,1.3h0.2c0.1-0.5,0.1-0.6,0.7-0.6h1.9c0.6,0,0.7,0.1,0.7,0.6h0.2v-2.1h-0.2c-0.1,0.7-0.1,0.8-0.7,0.8h-1.7
		c-0.5-0.2-0.8-0.5-0.8-0.7c0-0.1,0.1-0.3,0.2-0.4c0.1-0.1,0.1-0.1,0-0.2c-0.1-0.2-0.3-0.3-0.5-0.3c-0.2,0-0.5,0.2-0.5,0.5
		C166.6,196.8,167.1,197.2,167.6,197.5L167.6,197.5z M167,201c0-0.5,0.4-0.8,0.9-0.8c0.1,0,0.2,0.1,0.2,0.2c0,0.5,0,1,0,1.6
		C167.4,201.9,167,201.5,167,201 M169.8,199.6c0.3,0.3,0.5,0.7,0.5,1c0,0.6-0.5,1.4-1.8,1.4c0-1.1-0.1-2.2-0.2-2.4
		c0-0.2-0.1-0.2-0.3-0.2c-0.7,0-1.4,0.6-1.4,1.4c0,0.5,0.2,1,0.7,1.4c0.4,0.4,1,0.6,1.6,0.6c1,0,2-0.7,2-1.8c0-0.3-0.2-0.9-0.9-1.5
		L169.8,199.6z M170.8,203.3h-0.2c0,0.5-0.1,0.6-0.7,0.6h-1.6c-1.1,0-1.6,0.5-1.6,1.3c0,0.5,0.3,1,0.7,1.3h-3.1
		c0.1,0.4,0.3,0.9,0.3,1.3h0.2c0.1-0.6,0.1-0.6,0.7-0.6h4.4c0.6,0,0.7,0.1,0.7,0.6h0.2v-1.9h-0.2c-0.1,0.5-0.1,0.6-0.7,0.6h-2.2
		c-0.3-0.3-0.5-0.6-0.5-1c0-0.6,0.4-0.9,1.1-0.9h1.5c0.6,0,0.7,0.1,0.7,0.6h0.2V203.3z M167.8,210.5c-0.2,0-0.8,0.1-1,0.2
		c-0.1,0.2-0.2,0.4-0.2,0.8c0,0.8,0.5,1.4,1.2,1.4c0.7,0,1-0.6,1.3-1.1c0.2-0.5,0.4-0.7,0.8-0.7c0.4,0,0.6,0.3,0.6,0.7
		c0,0.6-0.5,1-1.1,1.1l0,0.2c0.3,0,1-0.1,1.1-0.1c0.1-0.2,0.3-0.6,0.3-1.1c0-0.7-0.4-1.5-1.3-1.5c-0.6,0-1,0.5-1.3,1.2
		c-0.2,0.4-0.4,0.8-0.8,0.8c-0.4,0-0.6-0.2-0.6-0.6c0-0.5,0.4-0.8,0.9-0.9L167.8,210.5z M167,215.3c0-0.5,0.4-0.8,0.9-0.8
		c0.1,0,0.2,0.1,0.2,0.2c0,0.5,0,1,0,1.6C167.4,216.1,167,215.7,167,215.3 M169.8,213.9c0.3,0.3,0.5,0.7,0.5,1
		c0,0.6-0.5,1.4-1.8,1.4c0-1.1-0.1-2.2-0.2-2.4c0-0.2-0.1-0.2-0.3-0.2c-0.7,0-1.4,0.6-1.4,1.4c0,0.5,0.2,1,0.7,1.4
		c0.4,0.4,1,0.6,1.6,0.6c1,0,2-0.7,2-1.8c0-0.3-0.2-0.9-0.9-1.5L169.8,213.9z M166.9,219.9c0-0.8,0.9-1.2,1.9-1.2
		c1.3,0,1.7,0.5,1.7,1c0,0.8-0.9,1.3-2,1.3C167.5,220.9,166.9,220.4,166.9,219.9 M166.6,219.8c0,0.8,0.7,2,2.2,2c1,0,2-0.8,2-2
		c0-0.9-0.7-2-2.2-2C167.5,217.8,166.6,218.6,166.6,219.8 M170.9,224.1c0-0.4,0-0.7,0.1-0.9c0.1-0.3,0.3-0.4,0.7-0.4
		c0.6,0,1,0.5,1,1.3c0,0.7-0.4,1.2-0.9,1.2c-0.3,0-0.5-0.2-0.7-0.4C170.9,224.8,170.9,224.6,170.9,224.1 M166.9,224.3
		c0-0.5,0.5-0.9,1.2-0.9c0.7,0,1.1,0.4,1.1,0.8c0,0.5-0.5,0.9-1.2,0.9C167.3,225.1,166.9,224.7,166.9,224.3 M166.7,222.1
		c0.1,0.3,0.1,0.8,0.1,1.2c-0.1,0.3-0.2,0.6-0.2,0.9c0,0.7,0.5,1.6,1.5,1.6c0.6,0,1.1-0.4,1.2-0.8c0.2,0.1,0.4,0.4,0.6,0.8
		c0.1,0,0.2,0,0.4-0.1c0.2-0.1,0.4-0.3,0.5-0.7c0.2,0.2,0.5,0.6,0.6,0.8c0.1,0.1,0.3,0.2,0.5,0.2c0.5,0,1.1-0.6,1.1-1.6
		c0-1.2-0.9-2.3-1.8-2.3c-0.9,0-1.1,0.8-1.1,1.3c0,0.3,0,0.6,0,1c0,0.4-0.2,0.6-0.4,0.6c-0.1,0-0.3-0.1-0.4-0.3c0-0.1,0-0.3,0-0.5
		c0-0.8-0.5-1.6-1.5-1.6c-0.3,0-0.6,0.1-0.8,0.3l0-0.5C167.2,222.3,166.9,222.1,166.7,222.1L166.7,222.1z M167,230.3
		c0-0.5,0.4-0.8,0.9-0.8c0.1,0,0.2,0.1,0.2,0.2c0,0.5,0,1,0,1.6C167.4,231.1,167,230.7,167,230.3 M169.8,228.9
		c0.3,0.3,0.5,0.7,0.5,1c0,0.6-0.5,1.4-1.8,1.4c0-1.1-0.1-2.2-0.2-2.4c0-0.2-0.1-0.2-0.3-0.2c-0.7,0-1.4,0.6-1.4,1.4
		c0,0.5,0.2,1,0.7,1.4c0.4,0.4,1,0.6,1.6,0.6c1,0,2-0.7,2-1.8c0-0.3-0.2-0.9-0.9-1.5L169.8,228.9z M170.8,232.5h-0.2
		c-0.1,0.5-0.1,0.6-0.7,0.6H168c-0.9,0-1.4,0.5-1.4,1.2c0,0.3,0.1,0.5,0.3,0.8c0.2,0.2,0.3,0.4,0.4,0.6h-0.7
		c0.2,0.4,0.3,0.8,0.4,1.3h0.2c0.1-0.5,0.1-0.6,0.7-0.6h1.9c0.6,0,0.7,0,0.7,0.7h0.2v-2h-0.2c-0.1,0.5-0.1,0.6-0.7,0.6h-2.2
		c-0.2-0.3-0.5-0.6-0.5-1c0-0.6,0.4-0.8,1-0.8h1.5c0.6,0,0.7,0.1,0.8,0.6h0.2V232.5z M170.8,237.5h-0.2c-0.1,0.6-0.1,0.7-0.7,0.7
		h-3.2c0.2,0.4,0.3,0.8,0.4,1.3h0.2c0.1-0.6,0.1-0.6,0.7-0.6h1.9c0.6,0,0.7,0.1,0.7,0.6h0.2V237.5z M165.8,238.5
		c0-0.3-0.2-0.5-0.5-0.5c-0.3,0-0.5,0.2-0.5,0.5c0,0.2,0.2,0.5,0.5,0.5C165.6,239,165.8,238.8,165.8,238.5 M170.8,239.9h-0.2
		c-0.1,0.6-0.1,0.7-0.7,0.7h-5.6c0.1,0.3,0.3,0.9,0.3,1.4h0.2c0-0.6,0.1-0.6,0.7-0.6h4.3c0.6,0,0.7,0.1,0.7,0.7h0.2V239.9z
		 M170,243.7c0.2,0.2,0.3,0.6,0.3,0.9c0,0.6-0.5,1.3-1.6,1.3c-1.3,0-1.7-0.8-1.7-1.2c0-0.3,0.1-0.7,0.5-0.9H170z M170.3,242.3l0,0.3
		c0,0.3-0.1,0.4-0.6,0.4h-5.5c0.1,0.3,0.3,1,0.3,1.4h0.2c0-0.7,0.1-0.7,0.7-0.7h1.3c-0.1,0.2-0.1,0.5-0.1,0.6c0,1.3,1,2.4,2.3,2.4
		c1.3,0,2-1,2-1.7c0-0.1-0.1-0.4-0.3-0.7l-0.3-0.6h0.6c-0.2-0.5-0.3-1.2-0.4-1.4H170.3z M170,248.5c0.2,0.2,0.3,0.5,0.3,0.7
		c0,0.3-0.2,0.7-0.7,0.7c-0.3,0-0.5-0.2-0.7-0.6c-0.1-0.2-0.3-0.6-0.4-0.8H170z M170.4,247.1l-0.2,0.1c0.1,0.1,0.1,0.2,0.1,0.3
		c0,0.2-0.1,0.3-0.6,0.3H168c-0.5,0-0.9,0.1-1.1,0.4c-0.2,0.2-0.2,0.5-0.2,0.8c0.1,0.5,0.5,1.1,0.6,1.4c0.1,0.2,0.2,0.3,0.4,0.3
		c0.2,0,0.4-0.2,0.4-0.4c0-0.1-0.1-0.2-0.2-0.3c-0.3-0.1-0.5-0.2-0.6-0.3c-0.1-0.1-0.2-0.2-0.2-0.4c0-0.5,0.4-0.8,1-0.8h0.2
		c0.2,0.2,0.4,0.9,0.6,1.4c0.2,0.5,0.5,0.7,0.9,0.7c0.6,0,1.1-0.4,1.1-1.1c0-0.3-0.3-0.7-0.6-1.1c0.2,0,0.3-0.1,0.4-0.2
		c0.1-0.1,0.2-0.3,0.2-0.4L170.4,247.1z M167,252.9c0-0.5,0.4-0.8,0.9-0.8c0.1,0,0.2,0.1,0.2,0.2c0,0.5,0,1,0,1.6
		C167.4,253.8,167,253.4,167,252.9 M169.8,251.5c0.3,0.3,0.5,0.7,0.5,1c0,0.6-0.5,1.4-1.8,1.4c0-1.1-0.1-2.2-0.2-2.4
		c0-0.2-0.1-0.2-0.3-0.2c-0.7,0-1.4,0.6-1.4,1.4c0,0.5,0.2,1,0.7,1.4c0.4,0.4,1,0.6,1.6,0.6c1,0,2-0.7,2-1.8c0-0.3-0.2-0.9-0.9-1.5
		L169.8,251.5z M164.8,255.1v2.4h0.3c0.1-0.7,0.1-0.8,0.9-0.8h1.5v3.1h-1.5c-0.8,0-0.8-0.1-0.9-0.8h-0.3v2.4h0.3
		c0.1-0.8,0.1-0.8,0.9-0.8h3.7c0.8,0,0.8,0.1,0.9,0.8h0.3V259h-0.3c-0.1,0.8-0.1,0.8-0.9,0.8h-1.8v-3.1h1.8c0.8,0,0.8,0.1,0.9,0.9
		h0.3v-2.5h-0.3c-0.1,0.7-0.1,0.8-0.9,0.8h-3.7c-0.8,0-0.8-0.1-0.9-0.8H164.8z"/>
</g>
</svg>
